<?xml version="1.0" encoding="UTF-8" standalone="no"?>
<!-- Created with Inkscape (http://www.inkscape.org/) -->

<svg
   width="210mm"
   height="297mm"
   viewBox="0 0 210 297"
   version="1.1"
   id="svg5"
   xml:space="preserve"
   xmlns:inkscape="http://www.inkscape.org/namespaces/inkscape"
   xmlns:sodipodi="http://sodipodi.sourceforge.net/DTD/sodipodi-0.dtd"
   xmlns="http://www.w3.org/2000/svg"
   xmlns:svg="http://www.w3.org/2000/svg"><sodipodi:namedview
     id="namedview7"
     pagecolor="#ffffff"
     bordercolor="#000000"
     borderopacity="0.25"
     inkscape:showpageshadow="2"
     inkscape:pageopacity="0.0"
     inkscape:pagecheckerboard="0"
     inkscape:deskcolor="#d1d1d1"
     inkscape:document-units="mm"
     showgrid="false" /><defs
     id="defs2" /><g
     inkscape:label="Calque 1"
     inkscape:groupmode="layer"
     id="layer1"><path
       id="path1584"
       style="fill:#3d3c3f;stroke-width:0.352778"
       d="m 74.617217,-0.25830765 c -0.205477,0 -0.275463,0.158404 -0.155546,0.352433 0.119916,0.19402 0.288061,0.35295 0.373621,0.35295 0.08557,0 0.155546,-0.15893 0.155546,-0.35295 0,-0.194029 -0.168143,-0.352433 -0.373621,-0.352433 z M 86.32813,1.4134253 c -0.101768,0.024563 0.02762,0.297055 0.478524,0.7953 0.352263,0.38924 0.769021,0.707967 0.926042,0.707967 0.157025,0 -0.06595,-0.365467 -0.495577,-0.811837 -0.474154,-0.492629 -0.80722,-0.715994 -0.908989,-0.69143 z M 75.666766,10.015484 c -0.122554,-0.005 -0.262311,0.01726 -0.389641,0.06821 -0.28142,0.11262 -0.197545,0.196524 0.213424,0.213424 0.371881,0.01531 0.580245,-0.06829 0.463021,-0.185518 -0.05861,-0.0586 -0.16425,-0.09108 -0.286804,-0.09612 z m 6.733439,0.335896 c -0.153568,-0.0011 -0.306104,0.127303 -0.563273,0.384473 -0.514343,0.51434 -0.484173,0.547086 0.35295,0.387057 0.714543,-0.13659 0.920808,-0.03058 0.942578,0.483691 0.01814,0.42893 0.09413,0.492744 0.217558,0.182935 0.104216,-0.2616 -0.06729,-0.732372 -0.380856,-1.045931 -0.260815,-0.26083 -0.415389,-0.39114 -0.568957,-0.392225 z m -14.57017,0.326079 c -0.204219,0 -0.0655,0.296878 0.307991,0.659908 0.3735,0.363019 0.741371,0.605251 0.817521,0.537951 0.222487,-0.196589 -0.718316,-1.197859 -1.125512,-1.197859 z m 4.610054,0 c -0.513192,0 -1.682584,1.064866 -1.682584,1.532206 0,0.20054 0.318522,0.0227 0.707967,-0.395325 0.439236,-0.471439 0.92984,-0.675024 1.292427,-0.535884 0.392515,0.150619 0.500987,0.08906 0.329696,-0.188103 -0.140296,-0.226999 -0.431698,-0.412894 -0.647506,-0.412894 z m 13.736629,0.40566 c -0.01699,-0.02605 -0.148042,0.132941 -0.406693,0.455786 -0.301748,0.376629 -0.548804,0.839588 -0.548804,1.028878 0,0.448209 0.163196,0.247868 0.677478,-0.831991 0.198023,-0.415795 0.295013,-0.626621 0.278019,-0.652673 z m -26.397871,0.172599 c -0.259994,0.02833 -0.695245,0.313802 -1.204578,0.845426 -0.551059,0.57519 -0.818814,1.045931 -0.595313,1.045931 0.223499,0 0.587544,-0.339172 0.809253,-0.753442 0.285676,-0.533789 0.480869,-0.627727 0.66921,-0.322978 0.197115,0.31893 0.320132,0.288724 0.47594,-0.117305 0.19068,-0.496905 0.105481,-0.725964 -0.154512,-0.697632 z m 12.784232,0.480074 c -0.194028,0 -0.451109,0.15892 -0.571024,0.35295 -0.119916,0.19402 -0.05915,0.35295 0.134875,0.35295 0.194027,0 0.450591,-0.15893 0.570508,-0.35295 0.119916,-0.19403 0.05967,-0.35295 -0.134359,-0.35295 z m -4.090706,1.09399 c -0.10713,0.03443 -0.343393,0.26068 -0.727604,0.68523 -0.535855,0.592089 -0.55018,0.681568 -0.08165,0.501778 0.313668,-0.12037 0.656816,-0.444847 0.762744,-0.720886 0.131782,-0.34342 0.153638,-0.500552 0.04651,-0.466122 z m 5.943306,0.112655 c 0.02946,-0.04954 -0.07275,-0.03358 -0.306958,0.04754 -0.388055,0.13442 -1.181634,0.367111 -1.763716,0.517281 -0.96812,0.24973 -0.9835,0.275023 -0.176734,0.296623 0.485069,0.01299 1.279164,-0.219712 1.764234,-0.517281 0.292762,-0.17962 0.453715,-0.294629 0.483174,-0.344165 z m 1.214913,0.275435 c -0.02033,-0.03522 -0.09772,-0.0115 -0.232544,0.07183 -0.59474,0.36757 -0.498161,0.840251 0.209807,1.025261 1.116522,0.291779 1.407991,0.249459 1.837613,-0.268201 0.36231,-0.436559 0.23129,-0.480703 -0.893485,-0.298173 -1.033573,0.1677 -1.256506,0.114413 -1.032495,-0.248047 0.09459,-0.153065 0.131431,-0.247447 0.111104,-0.28267 z m -5.655469,0.02326 c -0.05022,-0.04289 -0.13186,0.04185 -0.258382,0.241845 -0.178247,0.28178 -0.245521,0.63897 -0.149861,0.79375 0.305988,0.4951 0.485057,0.303876 0.479557,-0.512113 -0.0021,-0.309865 -0.0211,-0.480593 -0.07131,-0.523482 z m 18.249016,0.07286 c -0.0592,0.02472 -0.06335,0.08915 -0.0016,0.189136 0.11854,0.1918 0.364677,0.348816 0.547254,0.348816 0.507445,0 0.395668,-0.252779 -0.215491,-0.487309 -0.156963,-0.06023 -0.271015,-0.07537 -0.330212,-0.05064 z m -9.332247,0.186035 c -0.205479,0 -0.373621,0.158414 -0.373621,0.352434 0,0.19403 0.06999,0.35295 0.155546,0.35295 0.08556,0 0.253704,-0.15892 0.373621,-0.35295 0.119916,-0.19402 0.04993,-0.352434 -0.155546,-0.352434 z m -17.306954,0.398426 c -0.159853,0 -0.319533,0.02443 -0.4408,0.07338 -0.242534,0.09784 -0.04427,0.177767 0.4408,0.177767 0.485071,0 0.683851,-0.07987 0.441317,-0.177767 -0.121268,-0.04895 -0.281465,-0.07338 -0.441317,-0.07338 z m 48.289042,0.556555 c -8.26124,-0.0097 -18.738834,2.366966 -28.886092,6.619751 -3.752436,1.572668 -10.958754,5.508675 -10.738363,5.865275 0.112473,0.18198 1.185837,-0.239604 2.384868,-0.936894 10.788367,-6.273854 23.781784,-10.348207 34.988047,-10.970906 6.48142,-0.36016 11.63586,0.661163 17.11007,3.39049 2.40689,1.200029 5.68329,4.079341 6.57944,5.78156 0.6301,1.196848 0.36463,1.610596 -0.63304,0.987536 -1.18265,-0.738599 -1.15609,-0.196358 0.0734,1.51567 h -5.1e-4 c 1.50216,2.091688 2.21958,2.081657 2.94297,-0.04134 0.75281,-2.209398 0.72722,-2.322192 -0.47439,-2.058272 -0.88796,0.195029 -1.11459,0.08473 -1.57303,-0.765845 -2.48383,-4.608516 -10.17833,-8.475606 -18.37562,-9.235095 -1.08229,-0.100277 -2.21755,-0.150544 -3.39773,-0.151929 z m -70.249459,0.19327 c -0.06211,-0.03874 -0.160236,0.01709 -0.304374,0.16123 -0.215928,0.21592 -0.285912,0.56524 -0.155546,0.77618 0.293726,0.47525 1.60662,0.509468 1.60662,0.04186 0,-0.18795 -0.238125,-0.250173 -0.529166,-0.138493 -0.350058,0.13433 -0.529167,-0.0129 -0.529167,-0.434598 0,-0.23404 -0.02625,-0.367435 -0.08837,-0.406177 z m 44.80295,2.039152 c -0.03206,0.0019 -0.07815,0.086 -0.145211,0.252181 -0.09786,0.24253 -0.681109,0.452004 -1.295528,0.465604 -0.923758,0.0205 -0.994771,0.07395 -0.411344,0.308509 0.805747,0.323949 1.954025,-0.148206 1.912545,-0.786516 -0.01049,-0.161514 -0.0284,-0.241711 -0.06046,-0.239778 z m -24.993823,3.290238 -7.83208,0.148312 c -5.99982,0.113849 -7.950763,0.262263 -8.34006,0.633553 -0.279479,0.266569 -0.389984,0.602721 -0.245463,0.747241 0.144519,0.14453 0.384533,0.06675 0.532784,-0.173116 0.197019,-0.31879 2.312859,-0.465787 7.863603,-0.545187 l 7.593852,-0.10852 0.427881,4.259171 c 0.235274,2.342548 0.512005,4.905778 0.614949,5.695777 l 0.187069,1.436088 -2.324406,0.347266 c -1.278257,0.190969 -2.323889,0.255433 -2.323889,0.143143 0,-0.11228 0.833285,-0.716354 1.851566,-1.342553 1.018282,-0.62621 1.652939,-1.138432 1.410767,-1.138432 -0.305869,0 -0.440283,-0.687084 -0.440283,-2.249992 0,-1.382929 -0.169743,-2.38105 -0.4408,-2.59054 -0.242534,-0.187449 -1.446858,-0.61575 -2.676323,-0.95188 l -2.235522,-0.611332 -1.423169,0.986503 c -2.17403,1.506599 -2.432411,2.079406 -1.886707,4.182174 0.327212,1.260859 0.347634,1.834277 0.07235,2.009696 -0.470495,0.29981 -0.432739,0.33156 1.497067,1.261939 1.40708,0.678369 1.471817,0.762571 0.705383,0.91984 -0.464247,0.09526 -2.272628,0.260553 -4.018876,0.366903 -1.746248,0.10636 -3.670636,0.337294 -4.276225,0.513664 l -1.101225,0.32091 -0.204122,-2.872692 c -0.112264,-1.580019 -0.220255,-4.460365 -0.240295,-6.400643 -0.0208,-2.014398 -0.199372,-3.678944 -0.415995,-3.880384 -0.269632,-0.250739 -0.315174,0.453459 -0.157613,2.434477 0.121922,1.532979 0.221692,4.997751 0.221692,7.699789 v 4.912878 l 1.031461,1.031462 c 1.263596,1.263598 2.480462,1.321765 7.367509,0.353466 1.880575,-0.372609 4.753084,-0.775029 6.38359,-0.894519 1.630505,-0.11948 3.207622,-0.353615 3.504695,-0.519865 0.893469,-0.500009 0.806335,-3.200517 -0.456819,-14.160376 z m -5.774841,4.458126 c 0.297271,0 1.13071,0.254431 1.852083,0.56534 1.171352,0.50485 1.236285,0.596652 0.606165,0.857312 -0.925594,0.3829 -1.253865,0.36934 -2.205034,-0.0894 -0.900298,-0.43419 -1.071041,-1.333252 -0.253214,-1.333252 z m 107.736573,0.939994 c -2.21843,2.238279 -4.53407,4.717574 -5.68854,6.16965 -1.08677,1.366918 -1.73029,1.905613 -2.04432,1.711523 -0.25182,-0.15575 -0.36228,-0.532232 -0.24546,-0.836641 0.11685,-0.30441 0.0788,-0.636136 -0.0842,-0.736906 -0.33026,-0.20411 -0.92063,1.146135 -1.26607,2.894913 -0.25072,1.269259 -0.19412,1.296325 1.64692,0.784965 1.0111,-0.280839 1.25072,-0.5003 1.11466,-1.020609 -0.20818,-0.796107 3.38791,-5.069512 6.87297,-8.627897 a 90.487648,90.487648 0 0 0 -0.30593,-0.338998 z m -28.1776,0.19172 c 0.16241,0.09835 0.0909,0.408718 -0.12661,0.984953 -0.47065,1.246878 -0.63437,1.287034 -1.47175,0.361735 -0.61095,-0.6751 -0.60069,-0.707744 0.32143,-1.058334 0.71818,-0.273049 1.11451,-0.386703 1.27693,-0.288354 z M 52.935337,26.07342 c 0.638491,-0.02541 1.245507,0.08319 1.548226,0.336414 0.07156,0.05987 -0.166562,0.830361 -0.529167,1.71204 -0.54187,1.317549 -0.821928,1.603553 -1.570964,1.604553 -0.942166,0.0014 -1.381827,-0.245544 -1.381827,-0.775663 0,-0.16852 0.307347,-0.141949 0.682645,0.05891 1.60916,0.861189 1.448571,0.07954 -0.203605,-0.991154 l -1.276408,-0.82734 0.991671,-0.650606 c 0.430496,-0.282405 1.100937,-0.441744 1.739429,-0.467155 z m 3.978568,0.170532 c 0.08136,0.0581 -0.128543,0.276539 -0.620634,0.661459 -0.990398,0.774709 -1.410766,0.877394 -1.410766,0.344165 0,-0.19883 0.407152,-0.51667 0.904854,-0.7059 0.672861,-0.25582 1.045189,-0.357826 1.126546,-0.299724 z m 0.605131,0.756543 c 0.450669,-0.05591 0.227144,0.512732 -0.899687,1.460893 -0.596966,0.50232 -1.41712,0.913639 -1.822627,0.913639 -0.405507,0 -0.671502,-0.06196 -0.590662,-0.137459 0.08085,-0.07553 0.900997,-0.70941 1.822628,-1.408699 0.706634,-0.536164 1.219947,-0.794828 1.490348,-0.828374 z m -13.244669,0.268718 c -0.58678,0.007 -1.033529,0.121916 -1.033529,0.341581 0,0.19403 0.543469,0.35295 1.207678,0.35295 1.586666,0 3.24136,1.40086 3.780648,3.200838 0.500369,1.670079 1.082466,1.851344 0.766878,0.238745 -0.281562,-1.438718 -1.747505,-3.408797 -2.847888,-3.827156 -0.560172,-0.212985 -1.287007,-0.313963 -1.873787,-0.306958 z m 70.293903,0.77463 c -0.36008,-0.11938 -0.42102,0.303982 -0.2744,1.911511 0.1036,1.135799 0.28242,4.166969 0.39739,6.735506 l 0.20929,4.669999 -1.05782,-0.211873 c -0.83534,-0.16707 -1.24832,-0.02085 -1.96319,0.694014 -1.14263,1.142659 -1.15769,2.481365 -0.0398,3.599264 1.07959,1.079599 1.28183,1.078032 2.31304,-0.01964 0.61862,-0.6585 0.90424,-0.771967 1.11414,-0.441317 0.28831,0.45408 0.49397,-0.963667 0.34469,-2.377116 -0.041,-0.38805 -0.1885,-3.788808 -0.32763,-7.556645 -0.19057,-5.161184 -0.36717,-6.888167 -0.71572,-7.003706 z m -56.799637,0.31936 c 0.127891,0.04473 0.121052,0.318097 0.02222,0.835091 -0.108751,0.568879 -0.404442,0.882117 -0.833024,0.882117 -0.839825,0 -0.84669,-0.431351 -0.01912,-1.18029 0.439581,-0.397815 0.702033,-0.581648 0.829923,-0.536918 z m -6.980969,1.364258 c 0.07626,0 0.229895,0.238127 0.341581,0.529166 0.111683,0.29104 0.04944,0.529167 -0.138493,0.529167 -0.187938,0 -0.341581,-0.238127 -0.341581,-0.529167 0,-0.291039 0.06224,-0.529166 0.138493,-0.529166 z m 4.013192,0.35295 h 1.188041 l -0.746208,1.047481 c -1.087602,1.527398 -1.325444,1.557174 -1.485697,0.184485 -0.139149,-1.191899 -0.105492,-1.231966 1.043864,-1.231966 z m -2.431376,0.35295 c 0.430371,0 0.748791,0.225007 0.748791,0.529166 0,0.29104 -0.13927,0.529167 -0.309542,0.529167 -0.170267,0 -0.507248,-0.238127 -0.748791,-0.529167 -0.366914,-0.442069 -0.316017,-0.529166 0.309542,-0.529166 z m -5.794995,0.162264 c -0.345381,-0.06875 -0.427067,0.335173 -0.05323,0.933793 0.229281,0.36714 0.537358,0.667659 0.684713,0.667659 0.443656,0 0.301864,-0.943985 -0.205156,-1.364774 -0.16668,-0.13833 -0.311204,-0.213761 -0.42633,-0.236678 z m 9.739974,0.190169 c 0.205477,0 0.275461,0.15892 0.155546,0.35295 -0.119916,0.19402 -0.288061,0.35295 -0.373621,0.35295 -0.08557,0 -0.155546,-0.15893 -0.155546,-0.35295 0,-0.19403 0.168142,-0.35295 0.373621,-0.35295 z m 10.209712,0.35295 c -0.414422,0 -0.434414,0.863747 -0.120406,5.287533 0.197008,2.775457 0.301827,3.184526 0.682129,2.664436 0.264093,-0.361229 0.628593,-0.503685 0.884184,-0.345715 0.308046,0.19038 0.134999,0.508804 -0.593762,1.091923 -1.188024,0.950619 -0.932432,1.068885 0.598929,0.276986 1.168627,-0.60432 1.191189,-1.211479 0.06408,-1.721859 -0.803779,-0.36398 -1.162719,-2.018887 -1.162719,-5.362463 0,-1.040079 -0.158407,-1.890841 -0.352434,-1.890841 z m 7.015593,0 c -0.269385,0 -0.312479,0.526768 -0.136943,1.675867 0.14079,0.921629 0.237137,2.58737 0.214457,3.702099 -0.03243,1.594279 0.109783,2.177871 0.66611,2.7342 1.048016,1.048009 2.006961,0.891089 2.683557,-0.439249 l 0.58291,-1.1467 -0.861446,0.79375 c -0.473756,0.436569 -1.084855,0.79375 -1.358057,0.79375 -0.298598,0 -0.175779,-0.224951 0.307992,-0.56379 0.523264,-0.36651 0.767418,-0.848041 0.698148,-1.37666 -0.0586,-0.44716 0.195954,-1.146775 0.56534,-1.554944 0.369395,-0.40817 0.580548,-0.833315 0.469222,-0.944645 -0.347517,-0.34752 -2.072334,0.992468 -1.889807,1.468127 0.09522,0.24816 -0.05587,0.640845 -0.33538,0.872815 -0.426127,0.35366 -0.507979,0.220056 -0.507979,-0.826823 0,-0.951339 0.230732,-1.42097 0.969967,-1.972489 0.978146,-0.72978 0.448089,-1.073792 -0.617017,-0.400493 -0.613007,0.38751 -0.993859,-0.29259 -1.033529,-1.844848 -0.01364,-0.53357 -0.201488,-0.969967 -0.417545,-0.969967 z m -2.883545,0.113688 c -0.386059,-0.2386 -0.129152,7.198583 0.297656,8.617562 0.131315,0.43657 0.39592,0.79375 0.588078,0.79375 0.19343,0 0.237012,-0.275734 0.09767,-0.617533 -0.138426,-0.33955 -0.336616,-2.407864 -0.440283,-4.596102 -0.103664,-2.188228 -0.348051,-4.077127 -0.543119,-4.197677 z m -18.767847,0.406177 c 0.0592,-0.02473 0.172724,-0.0091 0.329696,0.05116 0.30112,0.11555 0.54777,0.272516 0.54777,0.348816 0,0.285719 -0.67236,0.124886 -0.879533,-0.210324 -0.0618,-0.09997 -0.05713,-0.164925 0.0021,-0.189652 z m -6.530867,0.538468 c -0.194028,0 -0.35295,0.158921 -0.35295,0.35295 0,0.19402 0.158922,0.352434 0.35295,0.352434 0.194027,0 0.352433,-0.158414 0.352433,-0.352434 0,-0.194029 -0.158406,-0.35295 -0.352433,-0.35295 z m 13.824479,0.744141 c 0.547736,-0.0072 0.640732,0.222244 0.815971,1.020093 0.136216,0.620199 0.102389,1.272721 -0.07493,1.45004 -0.177317,0.17732 -2.13821,0.48487 -4.357357,0.68368 -2.219146,0.198809 -4.48686,0.511728 -5.039486,0.695048 -0.552629,0.18332 -2.049193,0.440214 -3.325895,0.571024 l -2.321305,0.237712 0.779797,-1.261939 c 0.869501,-1.406878 0.635201,-1.769621 -0.939477,-1.454691 -1.036291,0.20726 -1.515259,0.92169 -1.21543,1.812809 0.237444,0.705709 0.746489,0.508322 0.557072,-0.216007 -0.1184,-0.45276 0.0564,-0.716754 0.562239,-0.849044 0.883328,-0.23099 0.899658,-0.133162 0.164332,0.989087 -0.313357,0.478239 -0.6857,0.869714 -0.82734,0.869714 -0.536868,0 -1.481609,-1.385882 -1.365292,-2.002462 0.147271,-0.780649 2.720283,-1.273886 9.818006,-1.882055 2.619372,-0.22444 5.341736,-0.489412 6.04976,-0.589112 0.30361,-0.04276 0.536757,-0.07149 0.719336,-0.0739 z m 4.8519,0.667143 c -0.182576,0 -0.332279,0.158403 -0.332279,0.352433 0,0.19403 0.247861,0.35295 0.550354,0.35295 0.302496,0 0.451678,-0.15892 0.331762,-0.35295 -0.119916,-0.19403 -0.36726,-0.352433 -0.549837,-0.352433 z m 89.271556,0.100769 c 0.1404,0.0228 0.31569,0.165615 0.58704,0.439249 0.59174,0.59673 0.59462,0.634183 0.032,0.421163 -0.33954,-0.128579 -0.61701,-0.07994 -0.61701,0.108004 0,0.18794 -0.15893,0.341581 -0.35295,0.341581 -0.43358,0 -0.44291,-0.369318 -0.0264,-1.027327 0.13178,-0.208175 0.23684,-0.305468 0.37724,-0.28267 z m -95.777102,0.216524 -1.058333,0.202055 c -0.582083,0.11119 -2.204067,0.381157 -3.604432,0.599447 -1.400363,0.218289 -2.462705,0.531865 -2.360579,0.697115 0.230187,0.372459 0.190954,0.373206 2.93057,-0.07131 1.241424,-0.20143 2.670176,-0.604746 3.175,-0.896586 z m 11.817883,0.38809 c -0.194028,0 -0.35295,0.15892 -0.35295,0.35295 0,0.19403 0.158922,0.352433 0.35295,0.352433 0.194028,0 0.35295,-0.158403 0.35295,-0.352433 0,-0.19403 -0.158922,-0.35295 -0.35295,-0.35295 z m 3.52795,1.058333 c -0.194028,0 -0.35295,0.158921 -0.35295,0.35295 0,0.19402 0.158922,0.352434 0.35295,0.352434 0.194027,0 0.352434,-0.158414 0.352434,-0.352434 0,-0.194029 -0.158407,-0.35295 -0.352434,-0.35295 z m -12.347566,1.058334 c -0.194027,0 -0.352434,0.15892 -0.352434,0.35295 0,0.19403 0.158407,0.352433 0.352434,0.352433 0.194027,0 0.35295,-0.158403 0.35295,-0.352433 0,-0.19403 -0.158923,-0.35295 -0.35295,-0.35295 z m 68.086285,0.352433 c -0.19403,0 -0.35295,0.15893 -0.35295,0.35295 0,0.19403 0.15892,0.35295 0.35295,0.35295 0.19403,0 0.35295,-0.15892 0.35295,-0.35295 0,-0.19402 -0.15892,-0.35295 -0.35295,-0.35295 z m -64.238975,0.197404 c -0.345782,0.21371 -0.118839,2.125231 0.426847,3.595129 0.346135,0.932379 0.79084,1.077413 0.542086,0.176734 -0.09378,-0.33955 -0.273683,-1.374739 -0.399459,-2.300118 -0.128351,-0.944359 -0.378099,-1.590015 -0.569474,-1.471745 z m -6.090584,0.155546 c -0.446405,0 -0.508251,0.316777 -0.339515,1.741496 0.240457,2.030288 -0.07462,3.321718 -0.605647,2.482019 -0.180618,-0.2856 -0.33103,-1.193862 -0.33383,-2.018482 -0.003,-0.824619 -0.16409,-1.499133 -0.358118,-1.499133 -0.451675,0 -0.457398,2.148014 -0.0088,3.327962 0.385903,1.014999 1.572507,1.230695 1.911511,0.347266 0.117772,-0.30691 0.213941,-1.021291 0.213941,-1.5875 0,-0.679909 0.179684,-1.029395 0.529167,-1.029395 0.291041,0 0.529166,-0.16814 0.529166,-0.37362 0,-0.20546 -0.140673,-0.286631 -0.312642,-0.180351 -0.171968,0.10629 -0.395186,-0.122616 -0.496094,-0.508496 -0.100909,-0.38587 -0.429089,-0.701766 -0.729154,-0.701766 z m 4.596101,0 c -0.99716,0 -1.150089,1.074659 -0.249597,1.753898 0.588998,0.44427 0.737561,0.806919 0.560173,1.365808 -0.132845,0.41856 -0.474333,0.761194 -0.759127,0.761194 -0.402622,0 -0.4364,-0.152076 -0.152445,-0.682646 0.587,-1.096818 0.398846,-1.327006 -0.34985,-0.428397 -0.591357,0.709759 -0.722285,0.747305 -0.909505,0.259415 -0.12035,-0.313629 -0.136379,-0.885573 -0.03566,-1.270723 0.118561,-0.45338 0.0081,-0.700216 -0.313159,-0.700216 -0.32567,0 -0.494426,0.394111 -0.490926,1.1467 0.006,1.283079 0.27376,1.82431 1.053166,2.13062 1.008001,0.396139 1.918747,0.06983 2.448429,-0.876949 0.495077,-0.884919 0.477863,-1.008972 -0.250114,-1.783871 -0.606011,-0.645069 -0.687702,-0.9277 -0.361735,-1.25367 0.325966,-0.32596 0.283415,-0.421163 -0.189653,-0.421163 z m 6.780982,0.35295 c -0.359868,0 -0.416926,1.086272 -0.100252,1.911511 0.379825,0.989809 0.706933,0.593418 0.558622,-0.676961 -0.07928,-0.679099 -0.285569,-1.23455 -0.45837,-1.23455 z m 3.213757,0 c -0.392433,0 -0.469053,1.051432 -0.139009,1.911511 0.117772,0.30691 0.372862,0.558106 0.56689,0.558106 0.194025,0 0.256781,-0.251196 0.13901,-0.558106 -0.117773,-0.306909 -0.214457,-0.862887 -0.214457,-1.235066 0,-0.37219 -0.158407,-0.676445 -0.352434,-0.676445 z m -31.89366,0.02067 c -0.334746,0.05554 -0.896582,0.480527 -1.639177,1.267106 -0.720516,0.763189 -0.964296,1.198575 -0.598413,1.069185 0.732407,-0.25902 0.731429,-0.287639 0.08113,2.405538 -0.523281,2.167158 -0.709514,6.927233 -0.287321,7.349422 0.129349,0.12935 0.261689,0.235128 0.294039,0.235128 0.03234,0 0.06355,-1.388885 0.06925,-3.086633 0.01089,-3.247767 0.613152,-6.250458 1.182873,-5.898348 0.339919,0.21008 0.740852,-0.608214 1.172538,-2.392102 0.167247,-0.691125 0.05983,-1.004833 -0.274919,-0.949296 z m -0.781348,1.175122 c 0.128567,0.0043 0.219108,0.144169 0.219108,0.371036 0,0.61967 -0.211252,0.710495 -0.513664,0.221176 -0.111632,-0.18062 -0.04164,-0.427968 0.155546,-0.549838 0.0493,-0.03047 0.09615,-0.04382 0.13901,-0.04237 z m 46.405436,0.382405 c -0.124655,0.03269 -0.245305,0.387817 -0.325044,0.991154 -0.219791,1.662979 -0.844556,1.877603 -0.992705,0.341065 -0.0608,-0.63059 -0.259067,-1.1467 -0.4408,-1.1467 -0.181733,0 -0.333764,0.51611 -0.337964,1.1467 -0.0063,0.944099 -0.20889,1.240127 -1.1467,1.675866 -0.946262,0.43966 -1.157332,0.753172 -1.248502,1.855701 -0.09618,1.163129 0.02331,1.402871 0.967899,1.94045 0.963668,0.54845 1.077938,0.790798 1.080038,2.289266 0.002,1.473439 -0.08835,1.67535 -0.746725,1.67535 -0.630836,0 -0.678276,-0.08441 -0.302307,-0.537435 0.682096,-0.821869 0.264577,-0.906913 -0.717785,-0.146244 -0.742837,0.575199 -0.796163,0.731811 -0.347783,1.028361 0.291041,0.19248 0.886355,0.352534 1.322917,0.355534 0.46797,0.0032 0.79375,0.222871 0.79375,0.534851 0,0.291039 0.158922,0.529166 0.35295,0.529166 0.194028,0 0.352433,-0.238127 0.352433,-0.529166 0,-0.34991 0.350372,-0.529167 1.033529,-0.529167 1.010895,0 2.141471,-0.768005 2.141471,-1.454175 0,-0.608149 -1.064166,-2.426725 -1.420068,-2.426725 -0.393626,0 -0.448936,-1.500826 -0.116789,-3.161564 l 0.226343,-1.133264 0.819071,1.000972 c 0.566395,0.69233 0.822674,0.829374 0.831474,0.444934 0.007,-0.305719 -0.381698,-0.926631 -0.86403,-1.37976 -0.667031,-0.62664 -0.833982,-1.068477 -0.697115,-1.845366 0.09897,-0.561769 0.05719,-1.210689 -0.09302,-1.442289 -0.04116,-0.06345 -0.08299,-0.08841 -0.12454,-0.07751 z m 58.520981,0.230477 c -0.44383,-0.0317 -0.71368,0.351175 -0.99943,1.21698 -0.49546,1.501309 -3.16621,3.412731 -3.16621,2.266012 0,-0.19403 0.23254,-0.35295 0.51676,-0.35295 0.84573,0 1.41585,-1.393814 0.81546,-1.994194 -0.67834,-0.678349 -1.56289,-0.273681 -1.97301,0.902787 -0.80245,2.301908 1.35392,2.918698 3.32228,0.95033 0.6597,-0.659689 1.19941,-1.453267 1.19941,-1.763717 0,-0.630329 0.0597,-0.654856 0.85318,-0.350366 0.35713,0.13705 0.55759,0.645234 0.55759,1.411284 0,0.726609 0.27761,1.473909 0.7059,1.902209 0.38806,0.38805 1.14177,0.693828 1.67535,0.679028 0.9317,-0.02577 0.92121,-0.04473 -0.26459,-0.470772 -1.10983,-0.39875 -1.24535,-0.591618 -1.34255,-1.907377 -0.0754,-1.019719 -0.34004,-1.626035 -0.8723,-1.998844 -0.4325,-0.302936 -0.76155,-0.471389 -1.02784,-0.49041 z m -20.88452,0.307992 c -1.09147,0 -0.94282,1.180883 0.31006,2.463932 1.30055,1.331879 1.30367,1.769401 0.0134,1.769401 -0.41564,0 -1.04201,0.208901 -1.39165,0.464571 -0.59567,0.43559 -0.59799,0.502204 -0.0419,1.058334 0.79179,0.791799 1.79834,0.749828 2.65979,-0.111622 1.04495,-1.044959 0.86354,-2.060804 -0.61702,-3.457153 -0.81105,-0.764929 -1.15224,-1.303713 -0.88211,-1.393713 0.59787,-0.19929 0.56003,-0.79375 -0.0506,-0.79375 z m 14.0715,0.449068 c -0.16016,-0.0096 -0.3649,0.0076 -0.63097,0.03669 -0.77782,0.08515 -1.12194,0.304003 -1.10174,0.700733 0.0162,0.317389 0.0561,1.2124 0.0884,1.988509 0.079,1.896138 0.62684,1.791461 0.92191,-0.176217 0.26511,-1.767868 0.90072,-2.161674 0.90072,-0.558105 0,1.188078 0.3095,2.145605 0.69401,2.145605 0.26228,0 0.24554,-0.299825 -0.16433,-2.906282 -0.14625,-0.930022 -0.22749,-1.202016 -0.70796,-1.230933 z m -10.02627,0.256315 c -0.23635,0 -0.37878,0.995475 -0.37878,2.645833 0,3.434807 0.49493,3.434897 0.64337,0 0.0744,-1.721078 -0.0181,-2.645833 -0.26459,-2.645833 z m 5.00228,0 c -0.80241,0 -2.20606,1.680793 -2.20606,2.641182 0,1.108039 0.79551,1.47235 2.00814,0.919841 1.01819,-0.46392 1.00199,-0.470155 1.2883,0.496094 0.16008,0.540259 -0.12217,0.940407 -1.20406,1.707906 -1.88207,1.335158 -2.75732,2.640879 -2.06448,3.079398 0.66982,0.42395 3.3849,0.414204 4.18683,-0.01499 1.06779,-0.571459 1.11052,-1.362345 0.1912,-3.546553 -0.48306,-1.147699 -0.8785,-2.615161 -0.8785,-3.2613 0,-1.229789 -0.51753,-2.021582 -1.32137,-2.021582 z m 8.28632,0.454236 c 0.23084,-0.08339 0.44338,0.0135 0.44338,0.360701 0,0.28645 -0.24935,0.616716 -0.55448,0.733806 -0.38687,0.14847 -0.52072,0.03513 -0.44132,-0.374138 0.0724,-0.373359 0.32158,-0.636979 0.55242,-0.720369 z m -21.55321,0.235128 c -0.47061,-0.02422 -1.18423,0.409764 -1.64331,1.162719 -0.85955,1.409809 -0.87659,1.956229 -0.0884,2.827218 1.08657,1.200649 3.97288,0.298057 3.97288,-1.242301 0,-0.63611 -0.0775,-0.610908 -0.74621,0.239261 -0.57595,0.7322 -0.99845,0.924293 -1.8495,0.841293 -0.72852,-0.07101 -1.14368,-0.323321 -1.22318,-0.742591 -0.12944,-0.682959 0.92303,-2.555317 1.2516,-2.226737 0.10916,0.10916 0.009,0.426407 -0.22169,0.704866 -0.27019,0.32552 -0.29467,0.584027 -0.0682,0.723987 0.3917,0.24209 1.09347,-0.861165 1.09347,-1.719275 0,-0.37459 -0.19512,-0.553911 -0.47749,-0.56844 z m 13.29066,0.156062 c 0.1108,0.004 0.21097,0.04354 0.29404,0.126608 0.46263,0.462629 0.0932,1.144633 -0.62011,1.144633 -0.29309,0 -0.47813,0.255893 -0.42013,0.580843 0.10865,0.608679 -0.59217,1.07356 -0.88109,0.58446 -0.44233,-0.74878 0.8517,-2.464528 1.62729,-2.436544 z m -19.83289,0.585494 c 0.31973,-2.81e-4 0.65266,0.09219 0.97203,0.294556 0.53047,0.33611 0.30422,1.434372 -0.57051,2.772441 -0.88979,1.361128 -2.20141,0.756096 -2.20141,-1.015442 0,-1.214496 0.84068,-2.050711 1.79989,-2.051555 z m -29.277288,0.519865 c 0.28783,-0.04354 0.313676,0.319681 0.313676,1.564763 0,1.304278 -0.134315,1.776119 -0.504362,1.776119 -0.475371,0 -1.612305,-0.904906 -1.612305,-1.283126 0,-0.49183 0.804967,-1.567359 1.419035,-1.896008 0.162962,-0.08721 0.288013,-0.147233 0.383956,-0.161748 z m -50.890434,0.147795 c -0.04304,0.0077 -0.08949,0.04143 -0.141076,0.09302 -0.194878,0.194879 0.43612,11.836804 0.756026,13.947984 0.242299,1.599 0.811375,1.44265 0.641304,-0.17622 -0.07644,-0.7276 -0.309147,-4.097114 -0.516764,-7.48791 -0.319262,-5.21426 -0.438224,-6.430773 -0.73949,-6.376872 z m 52.297583,0.01809 c 0.174491,0 0.301484,0.436914 0.282154,0.970483 -0.0448,1.235969 -0.442666,2.667223 -0.676445,2.433443 -0.302743,-0.302739 0.05647,-3.403926 0.394291,-3.403926 z m 81.412089,1.4118 c -0.25281,0 -0.31984,0.384134 -0.185,1.058333 0.1194,0.59701 0.0617,1.058333 -0.1323,1.058333 -0.18917,0 -0.34416,-0.238116 -0.34416,-0.529166 0,-0.29104 -0.1584,-0.529167 -0.35243,-0.529167 -0.19402,0 -0.35295,0.357594 -0.35295,0.794784 0,0.437189 -0.47625,1.244299 -1.05834,1.793689 -1.35226,1.276308 -1.38506,2.507139 -0.0884,3.325378 0.82442,0.52025 0.95379,0.813447 0.85989,1.952336 -0.0845,1.024985 -0.30459,1.414155 -0.93586,1.654165 -0.45394,0.17259 -0.92947,0.48233 -1.05678,0.68833 -0.29261,0.47311 0.0181,0.47615 0.89142,0.0088 0.55518,-0.29712 0.6851,-0.24779 0.6966,0.26459 0.0103,0.46173 0.15466,0.37124 0.54053,-0.34004 0.79515,-1.46567 1.2623,-1.18908 1.1405,0.67593 l -0.10749,1.64641 -2.2934,0.46302 c -1.26119,0.25464 -3.75494,0.97568 -5.54178,1.60197 -3.2618,1.14329 -4.14999,1.16206 -3.24218,0.06822 0.43836,-0.5282 0.4037,-0.56179 -0.33899,-0.32608 -0.93212,0.29585 -2.84501,2.25224 -2.86081,2.92592 v 5.1e-4 c -0.016,0.683 1.6514,0.51987 2.35696,-0.23047 0.88748,-0.9438 8.51792,-3.43839 12.05921,-3.9424 3.86321,-0.54982 9.41566,-0.32636 13.43536,0.41755 a 90.487648,90.487648 0 0 0 -0.22066,-0.68937 c -2.84533,-0.47926 -6.57503,-0.77615 -9.31778,-0.58911 l -3.3724,0.22996 -0.0816,-1.57664 c -0.0724,-1.3978 0.0401,-1.66371 0.99115,-2.340947 1.30332,-0.928049 1.3665,-1.655351 0.19069,-2.19108 -0.71695,-0.32667 -0.87416,-0.638727 -0.84026,-1.668116 0.0435,-1.319778 0.54939,-3.711498 0.62219,-2.941939 0.0614,0.649039 0.74724,0.538077 0.74724,-0.120923 0,-0.309209 -0.31733,-0.645244 -0.70539,-0.746724 -0.45659,-0.1194 -0.7059,-0.481151 -0.7059,-1.025261 0,-0.462429 -0.17859,-0.840775 -0.39687,-0.840775 z M 46.97136,43.88215 c -0.1569,0.02021 -0.182022,0.194055 -0.08217,0.532268 0.107032,0.362499 0.296359,1.234113 0.420646,1.936832 0.210623,1.190899 0.151626,1.303384 -0.863513,1.657263 -1.434292,0.5 -1.45873,1.259379 -0.03049,0.945679 1.213999,-0.26664 1.213677,-0.268255 0.712101,2.794662 -0.188191,1.149178 -0.24976,2.45887 -0.136426,2.91042 0.441142,1.75764 0.835092,0.67881 0.835092,-2.286686 0,-3.661996 0.319447,-4.268799 2.393652,-4.547009 0.817808,-0.10969 1.487248,-0.357391 1.487248,-0.550871 0,-0.21794 -0.667709,-0.263532 -1.754415,-0.119373 -1.90002,0.25205 -1.919174,0.232906 -2.204,-2.230871 -0.05432,-0.46987 -0.313812,-0.925125 -0.576709,-1.011825 -0.08176,-0.02695 -0.148722,-0.03722 -0.201021,-0.03049 z m 78.80346,0.319361 c 0.0227,0.04938 -0.0789,0.191222 -0.29197,0.453202 -0.52426,0.644499 -1.80868,0.816592 -1.80868,0.242362 0,-0.194029 0.22506,-0.35295 0.50023,-0.35295 0.27518,0 0.79128,-0.109022 1.1467,-0.242362 0.28443,-0.10671 0.43104,-0.14963 0.45372,-0.100252 z m 9.13278,1.046447 0.42891,1.299146 c 0.3936,1.192589 0.3636,1.351537 -0.36432,1.940967 -1.17387,0.950549 -3.69654,0.763506 -3.30936,-0.245463 0.10331,-0.26923 0.87547,-1.053114 1.71618,-1.742013 z m -49.686379,1.412834 c 0.194028,0 0.35295,0.625954 0.35295,1.390613 0,0.764659 -0.158922,1.488251 -0.35295,1.60817 -0.21548,0.13317 -0.35295,-0.408233 -0.35295,-1.390612 0,-0.88458 0.158922,-1.608171 0.35295,-1.608171 z m 81.525779,0 c 0.1753,0 0.303,0.595317 0.2837,1.322917 -0.043,1.616458 -0.45657,3.206952 -0.71003,2.730582 -0.29469,-0.553849 0.0734,-4.053499 0.42633,-4.053499 z m -80.4044,0.785482 c 0.657767,0.21925 1.128358,1.181373 0.886251,1.812292 -0.430096,1.120809 -1.302246,0.660979 -1.302246,-0.68678 0,-0.813639 0.148388,-1.214712 0.415995,-1.125512 z m 79.13522,0.06304 c 0.17275,-0.0074 0.17674,0.377703 0.17674,1.390096 0,1.133289 -0.14565,1.642277 -0.47026,1.642277 -1.15235,0 -1.30168,-1.680624 -0.23513,-2.645833 0.26084,-0.236186 0.42501,-0.382102 0.52865,-0.38654 z m -128.960603,1.97404 c -0.182577,0 -0.332279,0.158403 -0.332279,0.352433 0,0.19402 0.247861,0.35295 0.550354,0.35295 0.302497,0 0.451678,-0.15893 0.331763,-0.35295 -0.119916,-0.19403 -0.367262,-0.352433 -0.549838,-0.352433 z m 129.900603,1.787488 c 0.17331,-0.02974 0.30543,0.326076 0.22944,1.09554 -0.0608,0.615649 -0.27767,1.173947 -0.48162,1.240747 -0.22899,0.07506 -0.31543,-0.352088 -0.22583,-1.119307 0.0901,-0.77189 0.3047,-1.187242 0.47801,-1.21698 z m -122.086609,0.34003 c -0.157227,-0.0016 -0.344088,0.161942 -0.7059,0.489376 -0.446984,0.40452 -0.737423,0.498345 -0.737423,0.238745 0,-0.235539 -0.158923,-0.329726 -0.35295,-0.209806 -0.194028,0.11991 -0.352433,0.577709 -0.352433,1.017509 0,1.003703 -1.535359,2.496733 -2.275314,2.212783 -0.300912,-0.11547 -0.534658,-0.49255 -0.519348,-0.83819 0.01638,-0.36958 0.101028,-0.44693 0.205672,-0.18759 0.276818,0.68602 0.673608,0.52429 1.120862,-0.45733 0.592204,-1.299736 0.509966,-1.634563 -0.37207,-1.507403 -1.171616,0.16891 -1.940303,1.746753 -1.413867,2.902153 0.5045,1.10725 1.423059,1.17008 2.677356,0.18345 0.770529,-0.6061 0.929142,-0.6361 0.929142,-0.17622 0,1.14601 0.637206,0.49517 1.025777,-1.048 0.428748,-1.702692 1.09089,-1.828842 1.09089,-0.20774 0,0.53355 0.251223,1.27806 0.558105,1.65468 0.510578,0.62666 0.540708,0.6301 0.35295,0.03876 -0.11285,-0.35541 -0.205155,-1.15877 -0.205155,-1.7849 0,-0.62615 -0.224129,-1.444449 -0.497644,-1.818498 -0.244002,-0.333665 -0.371424,-0.500161 -0.52865,-0.501779 z m 123.585739,0.01602 c 0.26263,-0.07338 0.54611,0.01768 0.72554,0.307992 0.1139,0.18429 -0.1045,0.501603 -0.48524,0.705383 -0.95607,0.51166 -1.05219,0.473566 -0.84078,-0.334863 0.096,-0.367275 0.33785,-0.605133 0.60048,-0.678512 z M 30.418365,52.13436 c -0.706398,0.05442 -1.577026,1.115784 -1.950269,2.467554 -0.402727,1.45857 -0.24343,2.12759 0.775663,3.25974 0.965372,1.07248 1.432989,1.00463 2.977596,-0.43149 0.864888,-0.80413 1.12707,-1.22855 0.762228,-1.23455 -0.305724,-0.0053 -0.928712,0.38723 -1.384412,0.87229 -0.970897,1.03347 -1.17443,1.06832 -1.915128,0.32763 -1.074751,-1.07476 -0.385518,-4.384742 0.913122,-4.384742 0.784891,0 0.858738,-0.549615 0.112138,-0.836125 -0.09228,-0.03541 -0.190024,-0.04808 -0.290938,-0.04031 z m 6.308142,0.523999 c -0.411907,0 -0.541569,0.407351 -0.541569,1.704805 0,0.93779 0.105775,1.81109 0.235128,1.94045 0.329451,0.32945 0.346932,0.2789 0.611332,-1.79317 0.195524,-1.532256 0.142952,-1.852085 -0.304891,-1.852085 z m 54.025126,0.390157 c -3.872761,-0.02586 -8.106582,0.329326 -10.811226,1.005628 -5.571447,1.39313 -10.913314,3.84895 -14.35778,6.60114 -0.80876,0.64621 -1.685404,1.09251 -1.948202,0.99167 -0.516635,-0.19825 -1.696537,1.50064 -1.696537,2.44275 0,0.30961 0.123547,0.56275 0.274402,0.56275 0.587846,0 1.902556,-1.17066 2.203483,-1.96215 0.656656,-1.72714 6.783085,-5.37342 11.824084,-7.0373 6.345027,-2.0943 13.494994,-2.752018 19.38383,-1.78283 2.964463,0.48789 8.359113,2.06767 10.900623,3.19205 0.49701,0.21989 0.62417,0.16877 0.50281,-0.20257 -0.21953,-0.67175 -6.0506,-2.59994 -10.10222,-3.340366 -1.655635,-0.302565 -3.849611,-0.455254 -6.173267,-0.470772 z m 44.900107,5.268408 c -0.41925,0.0067 -0.95649,0.49594 -1.47226,1.40819 -0.63504,1.12317 -0.95238,1.37765 -1.50947,1.20871 -0.38805,-0.11767 -1.43336,-0.29936 -2.32286,-0.40359 -1.97419,-0.23133 -3.22753,0.34843 -5.00383,2.31458 -2.21651,2.45339 -2.24936,5.73203 -0.077,7.73752 0.9771,0.90205 1.21195,1.34231 1.03302,1.93993 -0.21622,0.72219 -0.19158,0.73487 0.37413,0.19275 0.47246,-0.45274 1.05101,-0.53971 2.63188,-0.39636 1.17604,0.10664 2.57903,0.0015 3.34295,-0.25063 2.54666,-0.84047 4.78369,-3.53256 4.78369,-5.75675 0,-0.45842 -0.39557,-1.61432 -0.87902,-2.56884 -0.48344,-0.95451 -0.7609,-1.77591 -0.61701,-1.82521 0.1439,-0.04928 0.78815,-0.41108 1.43195,-0.80357 1.42195,-0.86673 1.42441,-1.98143 0.004,-1.83399 -0.56319,0.05847 -0.99659,-0.11155 -1.12293,-0.4408 -0.13671,-0.35626 -0.34584,-0.52597 -0.59738,-0.52194 z m -0.17157,0.83975 c 0.11356,-0.04945 0.16697,0.01958 0.16847,0.20412 0.002,0.29104 -0.30632,0.92621 -0.68575,1.41128 -0.51951,0.66415 -0.69163,0.73881 -0.69763,0.30334 -0.004,-0.31805 0.30414,-0.95271 0.68574,-1.41076 0.24197,-0.29045 0.41561,-0.45854 0.52917,-0.50798 z m 2.17506,0.57722 c 0.0851,0.03511 0.12971,0.12375 0.12971,0.26769 0,0.1583 -0.67452,0.64782 -1.49913,1.08778 l -1.49914,0.79996 1.15187,-1.08779 c 0.84509,-0.79792 1.46146,-1.17296 1.71669,-1.06764 z m -47.318559,0.51625 c -7.047936,-0.0023 -8.635521,0.10298 -12.084533,0.79995 -6.23393,1.25972 -14.902967,4.36857 -14.902967,5.34438 0,0.53088 0.136129,0.49393 2.391069,-0.64337 8.959128,-4.51867 21.770677,-6.24582 33.944698,-4.57595 3.308022,0.45375 9.172572,2.30264 9.172572,2.89181 0,0.24185 0.63465,0.60934 1.41076,0.81649 1.80797,0.48258 1.86061,-0.0097 0.1757,-1.6428 -0.90307,-0.87524 -1.34032,-1.09208 -1.62574,-0.80666 -0.28541,0.28541 -0.91508,0.20996 -2.34094,-0.28061 -4.41757,-1.51987 -7.643707,-1.90024 -16.140619,-1.90324 z m 63.782159,0.58963 c 0.0529,0.0021 0.0972,0.01758 0.12919,0.04961 0.11998,0.11998 0.0175,0.46029 -0.2279,0.75602 -0.49044,0.59094 -1.06556,0.71383 -1.06556,0.2279 0,-0.39472 0.79407,-1.04798 1.16427,-1.03353 z m -23.89157,0.29352 c 0.93504,0.03563 1.82309,0.27274 2.36523,0.69918 0.52488,0.41289 0.95133,0.55108 1.02423,0.33228 0.22235,-0.66705 1.1773,0.0018 2.18126,1.52756 0.80081,1.21697 0.95046,1.77069 0.81701,3.02875 -0.19792,1.86572 -1.08498,3.13819 -2.91972,4.18734 -1.0171,0.58161 -1.95579,0.78975 -3.58325,0.79375 -2.24008,0.0059 -2.74559,-0.36998 -1.78697,-1.3286 0.22956,-0.2296 0.29778,-0.53679 0.15193,-0.68264 -0.14586,-0.14586 -0.56192,0.12808 -0.92449,0.60875 l -0.65888,0.87384 -0.9927,-0.73639 c -1.35721,-1.00731 -1.98905,-2.9881 -1.51515,-4.74803 0.43007,-1.59717 1.79087,-3.32269 3.19308,-4.04781 0.73086,-0.37794 1.71338,-0.54361 2.64842,-0.50798 z m -37.064405,0.73587 c -0.05537,-0.0097 -0.12818,0.0019 -0.219108,0.03204 -0.297221,0.09853 -0.579132,0.91644 -0.715202,2.07429 -0.12357,1.05147 -0.341267,2.73588 -0.483691,3.74293 l -0.258899,1.83089 1.718241,0.10904 c 3.960823,0.25186 7.158644,0.10209 7.609874,-0.35657 0.37866,-0.38489 0.28979,-0.42427 -0.5116,-0.22634 -1.094858,0.27039 -1.228892,-0.0244 -0.418061,-0.92036 0.333481,-0.36849 0.414261,-0.6956 0.203601,-0.82579 -0.191826,-0.11856 -0.68925,0.26262 -1.105355,0.84698 -0.998187,1.40187 -1.82127,1.42309 -1.544608,0.03979 0.167347,-0.83675 0.06488,-1.06722 -0.563274,-1.26659 -0.50233,-0.15943 -0.993182,-0.04019 -1.419034,0.3452 -0.519158,0.46984 -0.801248,0.50852 -1.393197,0.19172 -0.408206,-0.21849 -0.922292,-0.28548 -1.142566,-0.14934 -0.399084,0.24665 -0.212507,-2.70146 0.30024,-4.74442 0.119206,-0.47497 0.108747,-0.69428 -0.05736,-0.72347 z m 9.313645,0.64544 c -0.0567,0.01459 -0.11383,0.0482 -0.17002,0.10439 -0.39243,0.39244 -0.82676,7.13386 -0.48214,7.48378 0.20653,0.2097 0.33021,0.06122 0.33021,-0.39739 0,-0.92545 0.83113,-1.6348 1.65882,-1.41542 0.55133,0.14613 0.53023,0.20165 -0.15968,0.42323 -1.41048,0.453 -0.82371,1.53243 1.49965,2.76004 0.58208,0.30755 1.37566,0.55807 1.76371,0.55707 0.44932,-0.0015 0.10601,-0.31484 -0.94567,-0.86248 -1.99947,-1.04118 -2.31778,-1.48119 -1.50172,-2.07791 0.97319,-0.7116 0.39394,-1.61541 -1.0356,-1.61541 h -1.21233 l 0.19069,-1.49913 c 0.1049,-0.82461 0.34248,-1.794 0.52813,-2.15439 0.29683,-0.57618 -0.0673,-1.4085 -0.46405,-1.30638 z m -12.102105,0.02119 c -0.434308,0 -0.56689,0.36117 -0.56689,1.54357 0,0.84887 -0.0998,2.04207 -0.221692,2.65152 -0.176974,0.88487 -0.318637,1.02792 -0.702283,0.70952 -0.374949,-0.31118 -0.691984,-0.15772 -1.444356,0.6997 -0.53021,0.60423 -1.201927,1.09864 -1.492932,1.09864 -0.352827,0 -0.25792,-0.1899 0.284737,-0.56999 0.583786,-0.4089 0.705922,-0.67797 0.432015,-0.95188 -0.273907,-0.2739 -0.711128,-0.06314 -1.546159,0.7462 -1.156514,1.12093 -2.01228,1.45097 -2.01228,0.77567 0,-0.19403 0.317327,-0.35295 0.705383,-0.35295 0.470368,0 0.7059,-0.23502 0.7059,-0.70539 0,-0.93012 -0.881456,-0.9013 -1.548226,0.05065 l -0.529683,0.75602 -0.185002,-0.84439 c -0.413466,-1.88836 -0.342741,-3.19337 0.132292,-2.44223 0.180505,0.28579 0.429136,0.41837 0.552421,0.29508 0.337709,-0.33771 -0.494575,-1.69551 -1.039213,-1.69551 -0.77306,0 -0.878191,1.25114 -0.328663,3.90622 0.283873,1.37155 0.467644,3.07766 0.408244,3.7915 -0.09139,1.09827 -0.248013,1.31403 -1.017509,1.40353 -0.505992,0.05884 -1.275824,-0.19132 -1.735811,-0.56379 l -0.826823,-0.6692 1.321883,-0.89814 c 0.727049,-0.49405 1.164393,-0.99577 0.972034,-1.11466 -0.51109,-0.31588 -2.525944,1.50164 -2.525944,2.27841 0,0.36461 0.436391,0.89961 0.969967,1.18908 1.183966,0.64232 2.622358,0.70146 3.19257,0.13125 0.232832,-0.23283 0.42323,-1.10612 0.42323,-1.94045 0,-1.26638 0.113079,-1.5167 0.684712,-1.5167 0.376604,0 0.763773,-0.12786 0.860413,-0.28422 0.213677,-0.34574 2.618258,-0.27418 3.505729,0.10439 0.362151,0.15447 0.803197,0.11147 1.013375,-0.0987 0.204629,-0.20423 0.566404,-0.29739 0.804085,-0.20619 0.311601,0.11958 0.494326,-0.71141 0.655257,-2.97863 0.122756,-1.72937 0.322667,-3.40343 0.444418,-3.72071 0.148307,-0.38649 0.03462,-0.57722 -0.345199,-0.57722 z m -26.983883,0.35295 c 0.19403,0 0.254793,0.15892 0.134876,0.35295 -0.119916,0.19403 -0.376997,0.35243 -0.571025,0.35243 -0.19403,0 -0.254274,-0.1584 -0.134358,-0.35243 0.119915,-0.19403 0.37648,-0.35295 0.570507,-0.35295 z m -21.703068,0.33486 c -2.29591,-0.04726 -4.538165,1.07478 -6.075598,3.30574 -3.347769,4.85794 -0.920719,11.05421 4.806425,12.27005 1.805317,0.38326 4.188278,0.0389 5.997567,-0.86661 4.201537,-2.10278 4.421208,-8.61412 0.420129,-12.44782 -1.544707,-1.48009 -3.362815,-2.2246 -5.148523,-2.26136 z m -0.427364,0.53744 c 2.713931,-0.10838 5.709415,1.76623 6.908622,4.50463 1.730325,3.95124 1.023266,7.19902 -1.946651,8.93951 -2.749716,1.61144 -6.448136,1.42353 -8.920385,-0.45269 -1.854933,-1.40773 -2.52611,-2.79859 -2.51871,-5.22087 0.01127,-3.71072 2.137548,-6.73784 5.337659,-7.59953 0.370154,-0.09968 0.751761,-0.15557 1.139465,-0.17105 z m 89.25812,3.12797 c -0.0514,0.01754 -0.11369,0.06408 -0.1881,0.13849 -0.21977,0.21979 -0.30427,0.64883 -0.18759,0.95292 0.32295,0.84158 0.58705,0.66143 0.58705,-0.39998 0,-0.53207 -0.0571,-0.74406 -0.21136,-0.69143 z m -4.37493,0.23306 c -0.19403,0 -0.35243,0.23813 -0.35243,0.52917 0,0.29104 0.1584,0.52916 0.35243,0.52916 0.19402,0 0.35295,-0.23812 0.35295,-0.52916 0,-0.29104 -0.15893,-0.52917 -0.35295,-0.52917 z m -29.713431,0.48886 c 0.09044,0.01687 0.170436,0.07691 0.235645,0.18242 0.112204,0.18156 -0.04678,0.58112 -0.353467,0.8878 -0.789653,0.78966 -1.320193,0.71164 -0.870748,-0.12816 0.35084,-0.65554 0.717249,-0.99268 0.98857,-0.94206 z m -3.094901,0.24185 c 0.15959,0 0.319549,0.14281 0.605131,0.42839 0.57116,0.57116 0.537197,0.60462 -0.605131,0.60462 -1.142329,0 -1.175775,-0.03346 -0.604614,-0.60462 0.285582,-0.28558 0.445023,-0.42839 0.604614,-0.42839 z m -4.801774,0.46095 c 0.126504,0.0024 0.216007,0.13571 0.216007,0.35398 0,0.29105 -0.158922,0.62732 -0.35295,0.74724 -0.194028,0.11992 -0.35295,-0.02005 -0.35295,-0.31109 0,-0.29104 0.158922,-0.62733 0.35295,-0.74724 0.04851,-0.02998 0.09477,-0.0437 0.136943,-0.04289 z m -42.017591,0.262 c -0.08086,-0.0051 -0.09974,0.10941 -0.09974,0.34055 0,0.29381 0.196555,0.73037 0.436666,0.97048 0.31528,0.31527 0.473541,0.32552 0.569991,0.03617 0.07346,-0.22036 -0.123103,-0.65744 -0.436666,-0.971 -0.246672,-0.24667 -0.389395,-0.37111 -0.470256,-0.3762 z m -8.213968,1.72134 c -0.194027,0 -0.352434,0.39705 -0.352434,0.88212 0,0.48507 0.158407,0.8816 0.352434,0.8816 0.194027,0 0.35295,-0.39653 0.35295,-0.8816 0,-0.48507 -0.158923,-0.88212 -0.35295,-0.88212 z m 59.524015,0.02429 c -1.079207,-0.07348 -3.02082,0.01759 -6.639905,0.21756 -5.962962,0.32948 -3.998133,0.78358 2.359029,0.54518 l 4.972306,-0.18655 0.226343,0.84594 c 0.124552,0.46546 0.232596,3.46584 0.240296,6.6673 0.0077,3.20145 0.167246,7.39655 0.3545,9.32243 0.187259,1.92586 0.301114,3.54102 0.253214,3.58892 -0.0479,0.04792 -2.165263,-0.02671 -4.705655,-0.16536 -3.73481,-0.20386 -9.022867,-0.02634 -8.253243,0.27699 0.09701,0.03823 2.871308,0.14466 6.165515,0.23616 3.294207,0.09153 6.143842,0.32043 6.33243,0.50901 0.188588,0.18858 0.456852,0.34313 0.595829,0.34313 0.346731,0 -0.0678,-20.44224 -0.434599,-21.43125 -0.169843,-0.45795 -0.386853,-0.69598 -1.46606,-0.76946 z m -34.102828,1.38648 c -0.444841,0 -0.763469,0.55118 -0.481625,0.83302 0.397294,0.39729 0.813388,0.24168 0.813388,-0.30386 0,-0.29104 -0.149186,-0.52916 -0.331763,-0.52916 z m 22.090124,0.09147 c -0.05901,-0.0076 -0.12535,0.01516 -0.199471,0.06097 -0.188424,0.1165 -0.189562,0.76928 -0.0026,1.60146 0.173604,0.77267 0.300003,3.59122 0.280603,6.2637 -0.01938,2.67245 0.0164,5.01805 0.07958,5.21208 0.06317,0.19403 0.162212,-2.49969 0.220142,-5.98568 0.09235,-5.55718 0.03479,-7.09928 -0.378272,-7.15253 z m -38.847241,0.26148 c -0.623213,0 -1.021859,0.58054 -0.72657,1.05833 0.383642,0.62074 1.235066,0.37793 1.235066,-0.35243 0,-0.38806 -0.228906,-0.7059 -0.508496,-0.7059 z m 7.066752,0.12816 c -0.282649,-7.5e-4 -0.550218,0.30961 -0.369486,0.60203 0.111629,0.18062 0.352275,0.32814 0.534851,0.32814 0.379267,0 0.441353,-0.47797 0.105937,-0.81339 -0.08144,-0.08144 -0.177085,-0.11654 -0.271302,-0.11678 z m -13.051399,0.03462 c -0.403711,0.08505 -0.958545,1.08732 -0.66766,1.37821 0.122527,0.12252 0.434275,0.22324 0.692981,0.22324 0.535657,0 0.644073,-1.26227 0.135392,-1.57665 -0.0486,-0.03003 -0.103041,-0.03695 -0.160713,-0.0248 z m 48.674548,0.19068 c -0.993631,-0.03435 -1.969519,0.07421 -2.141471,0.35244 -0.136161,0.22031 0.582384,0.35243 1.913061,0.35243 1.965383,0 2.147613,0.06697 2.347144,0.86196 0.332266,1.32386 -0.07196,1.60766 -2.2903,1.60766 h -2.04587 l -0.360701,-1.49914 -0.360185,-1.49965 -0.04237,1.51051 c -0.02935,1.04637 0.120193,1.57292 0.486792,1.71359 0.291041,0.11169 0.529167,0.58264 0.529167,1.04696 0,0.4643 0.158405,0.84439 0.352433,0.84439 0.194028,0 0.35295,-0.30938 0.35295,-0.68729 0,-0.58018 0.288249,-0.70375 1.852084,-0.79375 l 1.852083,-0.10646 0.111104,-1.34772 c 0.06102,-0.74114 -0.07769,-1.57458 -0.307991,-1.85208 -0.24281,-0.29257 -1.254294,-0.46949 -2.247925,-0.50385 z m 34.194814,0.01137 c -0.20033,-0.09342 -0.46528,0.73765 -0.6134,1.9234 -0.53202,4.2591 -0.45952,4.18443 -4.77025,4.91495 -4.23687,0.71803 -8.19847,1.83466 -8.19847,2.31097 0,0.49262 3.39328,1.04124 6.96754,1.12654 l 3.26336,0.07803 v 4.0597 c 0,5.14367 0.63767,4.88312 0.78032,-0.31884 l 0.10128,-3.69952 2.99879,0.10801 c 2.26505,0.08184 3.10607,0.24909 3.43855,0.68368 0.36446,0.47639 0.31019,0.7144 -0.3173,1.38234 -0.7631,0.81229 -1.8355,4.78805 -2.28668,8.47907 -0.1824,1.49219 -0.3627,1.86089 -0.96997,1.98024 -0.48319,0.0949 -0.34235,0.16372 0.39998,0.19482 1.07433,0.04502 1.1467,-0.0264 1.1467,-1.13068 0,-2.09493 1.42043,-8.14292 2.04794,-8.71988 0.44843,-0.41185 1.14787,-0.51472 2.79828,-0.40979 2.13189,0.13555 2.18792,0.16396 1.78852,0.90278 -0.24278,0.44908 -0.42227,2.45836 -0.43667,4.88756 -0.0227,3.82629 -0.0731,4.12042 -0.69143,4.05712 -0.36667,-0.03755 -0.73711,0.13004 -0.82321,0.37258 -0.19152,0.53977 2.21756,0.62331 2.54817,0.08837 0.11992,-0.19402 0.0285,-0.35295 -0.20361,-0.35295 -0.6104,0 -0.24677,-8.24022 0.39791,-9.01702 0.25959,-0.31279 1.15558,-0.88987 1.9911,-1.28261 1.25549,-0.59015 1.51877,-0.88441 1.51877,-1.69602 v -0.98237 l 3.26336,-0.23564 c 3.6713,-0.26563 11.64624,-1.22517 11.84631,-1.42524 0.0719,-0.07189 0.0355,-0.28447 -0.0806,-0.47232 -0.28375,-0.45912 -3.54287,-0.81521 -9.85418,-1.07642 l -5.23275,-0.21653 -0.85266,-2.44119 c -0.86974,-2.49009 -1.68453,-3.73259 -2.44791,-3.73259 -0.2348,0 -0.80541,0.29081 -1.26814,0.64596 -0.46273,0.35514 -1.60278,0.85421 -2.5337,1.10897 -0.93092,0.25475 -2.28392,0.89144 -3.00653,1.4149 -1.08055,0.78275 -1.45853,0.88739 -2.12701,0.58912 -0.71004,-0.31683 -0.7805,-0.52148 -0.5581,-1.61954 0.37307,-1.84191 0.36871,-2.29672 -0.0243,-2.47996 z m -64.871495,0.12299 c -0.126504,0.0056 -0.216007,0.14676 -0.216007,0.37362 0,0.30249 0.158922,0.54984 0.35295,0.54984 0.194028,0 0.352433,-0.1497 0.352433,-0.33228 0,-0.18257 -0.158405,-0.42993 -0.352433,-0.54984 -0.04851,-0.02997 -0.09477,-0.0432 -0.136943,-0.04134 z m 54.361025,0.32143 c -0.46272,-0.03059 -0.59015,0.15365 -0.73174,0.71779 -0.20176,0.80389 -0.41228,0.87329 -3.30626,1.08882 -4.25386,0.31681 -5.73608,0.5633 -5.73608,0.95498 0,0.19175 0.71325,0.2475 1.67535,0.13074 4.1943,-0.50905 7.96636,-0.78247 8.57932,-0.62218 1.00068,0.26167 2.44533,-0.1993 2.44533,-0.78032 0,-0.59321 -0.78344,-1.06017 -2.33836,-1.39371 -0.24174,-0.05185 -0.43332,-0.08592 -0.58756,-0.09612 z m -45.26804,0.03152 c -0.04217,-0.0019 -0.08843,0.01136 -0.136942,0.04134 -0.194028,0.11991 -0.352433,0.36726 -0.352433,0.54984 0,0.18258 0.158405,0.33176 0.352433,0.33176 0.194027,0 0.35295,-0.24734 0.35295,-0.54983 0,-0.22684 -0.0895,-0.3675 -0.216008,-0.37311 z m -16.914729,0.21756 c -0.302497,0 -0.451679,0.15893 -0.331763,0.35295 0.119917,0.19403 0.36726,0.35295 0.549837,0.35295 0.182577,0 0.33228,-0.15892 0.33228,-0.35295 0,-0.19403 -0.247862,-0.35295 -0.550354,-0.35295 z m 82.186199,0.39378 c 0.45947,0.08522 0.87453,0.62637 1.31051,1.63504 0.39836,0.92163 0.80341,2.15159 0.90021,2.73368 0.16087,0.96711 0.09,1.05915 -0.82476,1.06815 -2.38332,0.02257 -5.40977,-0.23972 -5.39967,-0.46767 0.014,-0.31565 1.32062,-2.39091 2.43655,-3.87005 0.61404,-0.8139 1.11769,-1.18438 1.57716,-1.09915 z m 41.55922,0.30954 c -0.70968,-0.03346 -2.20913,-0.0191 -5.36763,0.0015 -7.01665,0.04583 -6.7024,-0.0841 -6.7014,2.77296 0.001,2.37752 0.55458,9.50884 0.9002,11.60342 h -5.1e-4 c 0.10406,0.63059 0.33606,1.1467 0.51521,1.1467 0.17913,0 0.25528,-0.19878 0.16898,-0.44132 -0.29328,-0.82429 -1.25097,-13.70692 -1.04386,-14.04203 0.1133,-0.18333 0.53156,-0.33332 0.92966,-0.33332 0.70122,0 0.69907,0.02 -0.0791,0.65009 -0.75242,0.60928 -0.76805,0.70113 -0.24494,1.44798 l 0.55862,0.79737 0.14418,-0.83045 0.14469,-0.83044 0.39171,0.88212 0.39119,0.8816 0.0786,-0.8816 c 0.0434,-0.48507 0.0583,-1.14228 0.0336,-1.46037 -0.0274,-0.3531 0.29409,-0.64302 0.82579,-0.74466 0.83057,-0.15877 0.87074,-0.0865 0.87074,1.56889 0,1.18936 0.1246,1.65942 0.39481,1.49242 0.243,-0.15021 0.31858,-0.80119 0.19689,-1.69654 l -0.19792,-1.45314 1.56734,-0.09147 c 1.16762,-0.0682 1.56683,0.0373 1.56683,0.41393 0,0.43165 0.15763,0.4271 1.07901,-0.03255 0.59348,-0.29607 1.6257,-0.47488 2.2934,-0.39688 0.6677,0.07795 1.21388,0.01503 1.21388,-0.14004 0,-0.1696 0.0797,-0.25076 -0.62994,-0.28422 z m -61.10635,0.03255 c 0.48507,-0.01067 1.12025,0.13438 1.41129,0.32246 0.43676,0.28229 0.4056,0.33847 -0.17674,0.32247 -0.38806,-0.01067 -1.0227,-0.15571 -1.41076,-0.32247 -0.64617,-0.27767 -0.6315,-0.30476 0.17621,-0.32246 z m -47.123221,0.85163 -3.690214,0.09302 c -6.486232,0.16309 -11.000113,0.50044 -10.69237,0.79892 0.333935,0.32387 12.322943,-0.14449 13.214697,-0.51625 0.695935,-0.29011 0.915896,0.93272 1.249536,6.94479 l 0.22996,4.14497 -1.553393,0.01964 c -7.391946,0.09299 -12.440893,0.54539 -12.107272,1.0852 0.120393,0.1948 0.436751,0.27076 0.703317,0.16847 0.266565,-0.10229 3.584291,-0.29619 7.372676,-0.43098 3.788385,-0.1348 6.887952,-0.37944 6.887952,-0.54364 0,-0.1642 -0.198265,-0.29979 -0.4408,-0.30179 -0.322033,-0.0023 -0.471542,-1.15391 -0.553971,-4.27002 -0.06208,-2.34687 -0.226969,-4.92552 -0.366386,-5.72989 z m 63.712911,0.17622 c 0.15167,0 -0.19716,0.8733 -0.77515,1.94045 -1.05027,1.93928 -1.05206,1.94045 -2.75539,1.94045 -1.53585,0 -1.68553,-0.07046 -1.51773,-0.7121 0.10241,-0.39162 0.6031,-1.00869 1.11311,-1.37098 0.93039,-0.66092 3.41889,-1.79782 3.93516,-1.79782 z m 45.41893,0.1726 c -0.17267,0.104 -0.27233,0.97609 -0.27233,2.43189 0,1.45522 -0.12518,2.7229 -0.27802,2.8174 -0.15284,0.09446 -1.87169,0.21132 -3.81941,0.25941 -1.9477,0.04812 -3.84659,0.22112 -4.2199,0.38448 -0.38808,0.16988 1.24766,0.22221 3.81941,0.12195 4.30605,-0.16786 4.49792,-0.14599 4.49792,0.52245 0,0.65141 -0.24815,0.69867 -3.70417,0.69867 -2.23511,0 -3.70417,0.13949 -3.70417,0.35243 0,0.21818 1.38067,0.31918 3.6158,0.26458 l 3.6158,-0.08785 v 0.8816 0.88212 l -4.05143,0.10025 c -2.2586,0.05603 -4.20992,0.26624 -4.40955,0.47491 -0.25189,0.26335 0.94677,0.3386 4.04213,0.2527 4.90957,-0.13619 4.90855,-0.13715 4.43591,2.38228 l -0.22531,1.19941 -2.54145,0.03101 c -3.25432,0.0395 -8.50634,0.76694 -8.14472,1.12809 0.15253,0.1523 0.68173,0.18939 1.17615,0.08217 2.00141,-0.43415 9.38158,-0.81156 9.76013,-0.4992 0.25096,0.20708 0.54549,0.14243 0.8108,-0.17725 0.31301,-0.3772 0.31547,-0.56433 0.0103,-0.75292 -0.29536,-0.18256 -0.34851,-2.06213 -0.19534,-6.89105 0.13486,-4.25173 0.084,-6.71815 -0.14056,-6.85695 -0.0276,-0.01704 -0.0534,-0.01744 -0.078,-0.0026 z m -131.421953,0.0057 c -0.127588,0.0406 -0.07885,0.28487 0.262,0.69557 0.245433,0.29574 0.609944,0.53743 0.810286,0.53743 0.200343,0 0.07631,-0.3182 -0.275952,-0.70745 -0.364783,-0.40308 -0.668746,-0.56615 -0.796334,-0.52555 z m 126.606743,0.85421 c -0.0697,-0.01465 -0.14745,0.01258 -0.22789,0.09302 -0.10155,0.10158 -0.0668,0.48534 0.0775,0.85266 0.24984,0.63575 0.26867,0.63669 0.39223,0.02274 0.10111,-0.50243 -0.0328,-0.92446 -0.24185,-0.96842 z m -119.729127,0.02636 c -0.214672,0 -0.269385,0.7828 -0.141076,2.0283 0.114931,1.11566 0.314716,3.49691 0.4439,5.29166 0.129812,1.80342 0.394034,3.26337 0.590662,3.26337 0.230173,0 0.272381,-1.09019 0.118856,-3.08715 -0.458117,-5.95887 -0.665773,-7.49618 -1.012342,-7.49618 z m 118.021227,0.05478 c -0.31405,0.02758 -0.64992,0.28279 -0.73846,0.74259 -0.0815,0.42333 0.10854,0.61339 0.6134,0.61339 0.50485,0 0.73122,-0.22637 0.73122,-0.73122 0,-0.45202 -0.29212,-0.65235 -0.60616,-0.62476 z m -74.044066,0.6506 c -3.406561,0 -3.849103,0.36836 -3.51038,2.92179 0.133339,1.00517 0.43104,1.94723 0.660942,2.09341 0.229897,0.1462 1.311051,0.26778 2.402954,0.27078 1.328937,0.0036 2.130678,0.18063 2.424658,0.53485 0.496125,0.59779 1.410767,0.712 1.410767,0.17622 0,-0.19403 -0.190398,-0.35243 -0.42323,-0.35243 -0.329258,0 -0.329258,-0.09448 0,-0.42375 0.519092,-0.51908 0.558858,-3.60362 0.05839,-4.53874 -0.311461,-0.58198 -0.75666,-0.68213 -3.024105,-0.68213 z m -45.981173,0.04754 c -0.100039,-0.01271 -0.190555,0.0066 -0.253731,0.06977 -0.103534,0.10354 -0.08345,0.35788 0.04444,0.56482 0.287412,0.46505 0.896069,0.49476 0.896069,0.04393 0,-0.31218 -0.38666,-0.64038 -0.68678,-0.67852 z m -6.742224,0.30541 c -1.099971,0 -1.701206,0.135 -1.566829,0.35243 0.119916,0.19403 0.923231,0.35295 1.784904,0.35295 0.861672,0 1.566829,-0.15892 1.566829,-0.35295 0,-0.19403 -0.803315,-0.35243 -1.784904,-0.35243 z m 81.550583,0.01447 c 0.21343,-0.0356 0.33621,0.12605 0.18707,0.5147 -0.11168,0.29104 -0.0397,0.52865 0.15968,0.52865 0.1994,0 0.26408,0.15892 0.14417,0.35295 -0.22797,0.36886 -1.5875,0.50033 -1.5875,0.15348 0,-0.10977 0.16451,-0.50683 0.36536,-0.88212 0.21377,-0.39943 0.51779,-0.63205 0.73122,-0.66766 z m -26.544121,0.33848 c 0.241202,0.05773 0.400492,0.55706 0.400492,1.41077 0,0.77611 -0.169615,1.41128 -0.376721,1.41128 -0.223388,0 -0.279632,-0.30512 -0.138493,-0.74982 0.142963,-0.45044 0.06391,-0.85724 -0.197921,-1.01906 -0.239652,-0.14811 -0.32659,-0.44574 -0.193269,-0.66146 0.186791,-0.30224 0.361191,-0.42635 0.505912,-0.39171 z m -28.371912,0.70538 c -0.27959,0 -0.507979,0.15841 -0.507979,0.35244 0,0.19403 0.326547,0.35295 0.726054,0.35295 0.399505,0 0.628413,-0.15892 0.508496,-0.35295 -0.119916,-0.19403 -0.446981,-0.35244 -0.726571,-0.35244 z m 11.672673,0.72244 c -0.48392,-0.02966 -0.908868,0.07816 -1.068152,0.3359 -0.119916,0.19403 0.06126,0.35243 0.402559,0.35243 0.950255,0 0.139507,0.53279 -1.53479,1.00873 -0.81663,0.23213 -2.483508,0.89571 -3.704166,1.47484 -2.730287,1.29537 -1.315539,1.1236 1.837614,-0.22324 1.261179,-0.5387 2.960033,-0.98992 3.774963,-1.00252 1.880501,-0.02909 2.702578,-0.72824 1.714107,-1.4578 -0.395246,-0.29172 -0.938215,-0.45867 -1.422135,-0.48834 z m 89.52839,0.01809 c -2.76131,-0.02086 -4.74217,0.10847 -4.87154,0.31781 -0.2631,0.42571 7.31361,0.42571 8.64288,0 0.5455,-0.1747 -0.8931,-0.29611 -3.77134,-0.31781 z m -33.62327,0.57516 4.67465,0.25424 c 2.57086,0.13997 5.62663,0.36486 6.7908,0.4992 l 2.11666,0.24391 -3.70416,0.44029 c -5.82995,0.69246 -9.52791,1.00633 -9.71001,0.82423 -0.0921,-0.09212 -0.16794,-0.63899 -0.16794,-1.21491 z m 47.36093,0.08681 c -0.32178,0.21757 -0.67455,0.43363 -1.08262,0.65113 -1.15691,0.61662 -2.35878,1.12137 -2.67116,1.12137 -0.31239,0 -0.56792,0.15841 -0.56792,0.35244 0,0.5765 0.75807,0.41057 3.0241,-0.66146 0.44409,-0.21009 0.89769,-0.49694 1.34049,-0.79788 a 90.487648,90.487648 0 0 0 -0.0429,-0.6656 z m -102.394269,0.0083 c 0.194028,0 0.35295,0.15894 0.35295,0.35295 0,0.19403 -0.158922,0.35295 -0.35295,0.35295 -0.194028,0 -0.352433,-0.15892 -0.352433,-0.35295 0,-0.19401 0.158405,-0.35295 0.352433,-0.35295 z m 44.137879,0.03876 c 0.44758,-5.4e-4 0.90889,0.01864 1.27486,0.05684 0.73192,0.0764 0.21924,0.1406 -1.13895,0.1416 -1.35819,0.0016 -1.95693,-0.06111 -1.33067,-0.13901 0.31313,-0.03905 0.74717,-0.05889 1.19476,-0.05943 z m -4.27364,0.0046 c 0.22379,0 0.44724,0.0218 0.61701,0.06615 0.33954,0.08874 0.0621,0.16123 -0.61701,0.16123 -0.67906,0 -0.95709,-0.07253 -0.61754,-0.16123 0.16978,-0.04435 0.39374,-0.06615 0.61754,-0.06615 z m 10.84791,0.0098 c 2.21079,-0.03239 3.6158,0.08404 3.6158,0.29972 0,0.38996 -3.1364,0.38996 -5.64461,0 -1.22653,-0.19068 -0.76495,-0.25882 2.02881,-0.29972 z m -90.598086,0.07545 c -0.711049,0.07054 -1.383315,0.32166 -1.717208,0.72398 -0.219587,0.2646 -0.546647,1.7716 -0.726571,3.34915 -0.179923,1.57756 -0.430428,3.4208 -0.557072,4.09588 -0.150679,0.80319 -0.09479,1.22731 0.161747,1.22731 0.215622,0 0.391708,-0.15972 0.391708,-0.35502 0,-1.33378 1.151268,-7.62156 1.46451,-7.99899 0.212302,-0.25581 0.839347,-0.46509 1.393197,-0.46509 1.442299,0 2.1005,1.23678 2.484086,4.66535 0.425382,3.80215 1.152879,4.66484 0.825272,0.97875 -0.334873,-3.76783 -0.769168,-5.20577 -1.769401,-5.86114 -0.48936,-0.32064 -1.239219,-0.43073 -1.950268,-0.36018 z m 52.065039,0.30644 c 0.04147,0.03797 0.0035,0.26772 -0.08268,0.7183 -0.101295,0.5299 -0.324166,0.96325 -0.495577,0.96325 -0.452543,0 -0.382906,-0.47326 0.183969,-1.2485 0.231887,-0.31713 0.352816,-0.47103 0.394291,-0.43305 z m 24.101377,0.03772 c 0.23609,0.03566 0.41815,0.23023 0.50281,0.55397 0.15841,0.6057 0.42182,0.67542 2.07222,0.54829 7.25012,-0.55849 7.6101,-0.52365 7.14582,0.68626 -0.18708,0.48746 -1.05404,0.5528 -6.61613,0.4992 -10.23935,-0.09859 -11.52106,-0.385 -6.66471,-1.48932 1.50372,-0.34194 2.9918,-0.6928 3.30729,-0.7798 0.0892,-0.0246 0.174,-0.03049 0.2527,-0.0186 z m 10.72751,0.85008 c 0.14552,0.0485 1.85174,0.08836 3.79201,0.08836 2.74438,0 3.52795,0.10676 3.52795,0.48111 0,0.30505 -0.59903,0.56317 -1.63659,0.70539 -0.90021,0.12338 -2.65759,0.22479 -3.90519,0.22479 -2.15062,0 -2.2623,-0.04121 -2.15542,-0.79375 0.062,-0.43656 0.23172,-0.7544 0.37724,-0.7059 z m -82.767563,0.22221 c -0.07372,-0.01568 -0.137539,-0.01086 -0.186035,0.01912 -0.159096,0.09832 0.402717,1.55663 1.247985,3.24063 0.84527,1.68401 1.536858,3.27245 1.536858,3.53001 0,0.25757 0.395615,0.72764 0.879016,1.04438 0.483403,0.31674 0.791509,0.71707 0.684712,0.88987 -0.106799,0.1728 -0.0359,0.31419 0.15813,0.31419 0.194028,0 0.452772,-0.16144 0.574642,-0.35863 0.121871,-0.19719 0.386227,-0.25673 0.587561,-0.13229 0.71483,0.44179 -0.589624,0.83319 -2.796211,0.83819 -1.971476,0.0048 -2.204517,-0.06935 -2.204517,-0.70022 0,-0.54528 -0.235416,-0.70538 -1.035596,-0.70538 -0.569453,0 -1.442751,0.15495 -1.94045,0.34417 -1.043995,0.39693 -1.254767,1.22579 -0.228926,0.9002 0.371728,-0.11798 0.763993,-0.07208 0.871781,0.10232 0.107788,0.17441 -0.895794,0.49739 -2.230355,0.71778 -1.937351,0.31994 -6.806771,1.7784 -10.224182,3.06235 -0.723515,0.27183 -0.0052,0.88411 1.437638,1.22525 v -5.2e-4 c 1.695534,0.40113 6.027917,0.40469 10.049516,0.0088 1.912325,-0.18826 6.413497,-0.50816 10.003007,-0.71107 11.9053,-0.67302 16.233348,-1.10491 18.125509,-1.80971 0.993572,-0.37005 1.336526,-0.58007 0.76171,-0.46664 -0.574815,0.11344 -2.162489,0.34804 -3.52795,0.52193 -1.36546,0.1739 -3.038506,0.39343 -3.717602,0.48783 -0.679097,0.09441 -4.489102,0.3485 -8.466667,0.56431 -3.977565,0.21582 -9.949598,0.61951 -13.271541,0.8971 -5.810325,0.48553 -10.181438,0.38157 -10.572481,-0.25115 -0.102443,-0.16576 0.148448,-0.30127 0.557588,-0.30127 0.409144,0 1.172596,-0.21703 1.696538,-0.48214 0.523941,-0.26511 1.587569,-0.59648 2.36368,-0.73691 0.77611,-0.14043 2.288479,-0.55891 3.361035,-0.92966 1.586638,-0.54846 2.770177,-0.65749 6.35,-0.58549 5.345146,0.10754 7.147508,-0.3489 6.977868,-1.76734 -0.09933,-0.8305 -0.267562,-0.91602 -2.019515,-1.02474 -1.051086,-0.06522 -1.988663,-0.19604 -2.083593,-0.29094 -0.318827,-0.31883 -2.178679,-5.16043 -2.178679,-5.67149 0,-0.55664 -1.024435,-1.6731 -1.540474,-1.78283 z m 106.006963,0.21859 c -0.085,-0.03097 -0.17232,0.01058 -0.26975,0.108 -0.3,0.30001 0.73727,4.11042 1.86759,6.85953 0.49859,1.21267 1.04736,2.20503 1.21956,2.20503 0.42709,0 0.42378,-0.01409 -0.52244,-2.1611 -0.45958,-1.04279 -1.08216,-2.98156 -1.38338,-4.30827 -0.42296,-1.86296 -0.65659,-2.6103 -0.91158,-2.70319 z m -114.825546,0.46715 c -0.244879,-0.08457 -0.803237,0.6599 -1.351856,1.90015 -0.548081,1.23901 -0.642194,1.95558 -0.445451,3.3941 0.296679,2.16922 0.71667,3.36547 1.475879,4.2044 0.670867,0.74133 0.438817,0.73373 2.04277,0.06356 0.729434,-0.30478 1.78033,-0.56711 2.335774,-0.58291 0.555442,-0.01579 1.010275,-0.16313 1.010275,-0.32763 0,-0.4554 -1.771477,-0.32896 -3.351734,0.23926 -1.712783,0.61587 -2.052225,0.31058 -2.624646,-2.35851 -0.466536,-2.17549 -0.472178,-3.01616 -0.02119,-3.29489 0.194027,-0.11992 0.35295,-0.59617 0.35295,-1.05833 0,-0.46217 0.158922,-0.93842 0.35295,-1.05834 0.194028,-0.1199 0.352433,-0.45619 0.352433,-0.74724 0,-0.22477 -0.04653,-0.34543 -0.128157,-0.37362 z m 50.046557,0.76791 -0.114205,1.19528 c -0.158069,1.65472 0.200357,2.86184 0.850078,2.86184 0.385673,0 0.480578,0.2072 0.322461,0.70538 -0.136162,0.42901 -0.06352,0.70539 0.185518,0.70539 0.22527,0 0.488577,-0.30161 0.584977,-0.67025 0.132955,-0.5084 0.656931,-0.74247 2.171444,-0.96996 l 1.996777,-0.29973 v -1.76423 -1.76372 h -2.998783 z m -37.59202,0.17622 c -0.182576,0 -0.331763,0.15893 -0.331763,0.35295 0,0.19403 0.247344,0.35295 0.549837,0.35295 0.302497,0 0.452195,-0.15892 0.33228,-0.35295 -0.119916,-0.19402 -0.367778,-0.35295 -0.550354,-0.35295 z m 108.429039,0 c -0.1777,0 -0.63106,0.23812 -1.00769,0.52917 -0.67738,0.52341 -0.67753,0.53497 0.0103,1.06608 0.38249,0.29528 0.91167,0.45424 1.17564,0.35295 0.26397,-0.10128 1.02245,-0.18397 1.68568,-0.18397 0.66323,0 1.20561,-0.15893 1.20561,-0.35295 0,-0.19403 -0.7091,-0.35295 -1.57613,-0.35295 -1.25633,0 -1.53539,-0.10744 -1.37356,-0.52916 0.11168,-0.29104 0.0578,-0.52917 -0.11989,-0.52917 z m -23.80371,0.0031 c 1.90256,-0.0026 2.21375,0.0843 2.11615,0.59118 -0.0672,0.34894 -0.84249,0.85267 -1.87792,1.22008 -2.42983,0.86215 -4.57452,0.84273 -5.46737,-0.05013 -0.38806,-0.38804 -0.7059,-0.84224 -0.7059,-1.00924 0,-0.3742 2.94793,-0.74789 5.93504,-0.75189 z m -44.388509,0.16072 c 0.447586,3.8e-4 0.929478,0.0279 1.337903,0.08268 1.405502,0.18851 1.485181,0.26174 1.485181,1.36581 0,1.12674 -0.05749,1.17426 -1.675867,1.37976 -0.921631,0.11702 -2.032538,0.26356 -2.4691,0.32556 -0.715969,0.10165 -0.79375,-0.03379 -0.79375,-1.38183 0,-1.35332 0.09263,-1.51311 0.983919,-1.69137 0.270672,-0.05431 0.684128,-0.081 1.131714,-0.08061 z m -20.441646,0.23667 c -0.10004,-0.01271 -0.190556,0.0066 -0.253732,0.06977 -0.103534,0.10354 -0.08345,0.35788 0.04444,0.56482 0.287411,0.46505 0.89607,0.49476 0.89607,0.04393 0,-0.31218 -0.386661,-0.64038 -0.68678,-0.67852 z m 73.454435,0.30489 c -0.38773,0 -0.4639,0.21337 -0.28371,0.79375 0.13553,0.43656 0.40144,2.46115 0.59118,4.49844 0.18974,2.03729 0.42205,4.21976 0.51625,4.85035 0.0942,0.63059 0.33344,1.1467 0.53175,1.1467 0.1983,0 0.2831,-0.27799 0.1881,-0.61754 -0.095,-0.33954 -0.27146,-2.20468 -0.39222,-4.14496 -0.33199,-5.33443 -0.54243,-6.52674 -1.15135,-6.52674 z m 28.36209,0.35295 c -2.19704,0 -3.41013,0.13497 -3.41013,0.37931 0,0.26101 1.01765,0.30215 3.26337,0.13177 1.79476,-0.13617 3.32933,-0.3069 3.41013,-0.3793 0.0808,-0.07238 -1.38777,-0.13178 -3.26337,-0.13178 z m -59.06668,0.0057 c -0.19597,-0.04513 -0.35121,0.63942 -0.31471,1.8464 0.0308,1.01865 -0.0752,3.87615 -0.23564,6.35 -0.17262,2.66233 -0.16151,4.49791 0.0274,4.49791 0.36789,0 1.15069,-10.39947 0.88676,-11.78015 -0.1142,-0.59744 -0.24621,-0.88708 -0.3638,-0.91416 z m 60.06145,2.65255 c -2.41611,-0.05846 -7.06197,0.23974 -7.40368,0.59428 -0.24323,0.25238 0.5127,0.29703 2.43448,0.14418 1.533,-0.12188 3.646,-0.2217 4.69532,-0.2217 1.08764,0 1.8205,-0.14094 1.7048,-0.32814 -0.0679,-0.10983 -0.62555,-0.16913 -1.43092,-0.18862 z m -121.859228,0.16433 c -0.182577,0 -0.429922,0.1584 -0.549837,0.35243 -0.119916,0.19403 0.02927,0.35295 0.331762,0.35295 0.302493,0 0.550354,-0.15892 0.550354,-0.35295 0,-0.19403 -0.149703,-0.35243 -0.332279,-0.35243 z m 45.909859,0.02119 c -0.765018,-0.01682 -1.692243,0.05061 -2.62723,0.20515 -1.289116,0.21308 -1.322916,0.25702 -1.322916,1.73168 0,1.36949 0.09254,1.53181 0.970483,1.70429 0.533576,0.10484 1.551202,0.18078 2.261361,0.16898 0.710162,-0.0118 1.579853,0.13998 1.932698,0.33745 0.352848,0.19742 0.782017,0.27214 0.953947,0.16588 0.474913,-0.29351 0.04405,-3.66104 -0.513664,-4.01422 -0.286441,-0.18138 -0.889661,-0.28239 -1.654679,-0.29921 z m -36.40553,1.03714 c -0.194028,0 -0.35295,0.69567 -0.35295,1.54616 0,1.74081 -0.35435,1.96763 -3.086633,1.97663 -0.890094,0.0029 -1.498471,0.16938 -1.499133,0.40979 6.57e-4,0.29016 0.824155,0.34069 2.910416,0.17828 1.600728,-0.1246 3.94212,-0.23009 5.2033,-0.23409 1.611311,-0.0053 2.135558,-0.10955 1.763717,-0.34985 -0.291042,-0.18809 -1.441808,-0.34426 -2.557467,-0.34726 l -2.0283,-0.0047 v -1.5875 c 0,-0.87311 -0.158922,-1.5875 -0.35295,-1.5875 z m 113.430289,0.08992 c -2.21058,-0.06525 -6.68038,0.2855 -7.06779,0.6904 -0.24465,0.2557 0.33882,0.30058 1.90376,0.14676 1.24113,-0.12202 3.18601,-0.22169 4.3217,-0.22169 1.29836,0 2.06499,-0.14808 2.06499,-0.39843 0,-0.12759 -0.4858,-0.19529 -1.22266,-0.21704 z m -125.974743,1.6738 c -0.302496,0 -0.451678,0.15892 -0.331762,0.35295 0.119915,0.19403 0.36726,0.35243 0.549837,0.35243 0.182576,0 0.331763,-0.1584 0.331763,-0.35243 0,-0.19403 -0.247345,-0.35295 -0.549838,-0.35295 z m 16.204179,0.29352 c -1.355757,0.01031 -2.248441,0.11266 -2.248441,0.33952 0,0.15407 1.865141,0.30208 4.144966,0.32918 2.279824,0.02704 5.415313,0.27832 6.967534,0.55862 3.457687,0.62439 4.665078,0.70419 4.215763,0.27802 -0.780097,-0.73991 -9.012552,-1.53626 -13.079822,-1.50534 z m -18.850012,0.05891 c 0.205479,0 0.373621,0.15892 0.373621,0.35295 0,0.19403 -0.06999,0.35295 -0.155547,0.35295 -0.08556,0 -0.253703,-0.15892 -0.37362,-0.35295 -0.119916,-0.19403 -0.04993,-0.35295 0.155546,-0.35295 z m 11.750704,0.0057 c -1.238323,-0.003 -2.205033,0.14913 -2.205033,0.34726 0,0.45179 3.181797,0.45179 3.8809,0 0.372899,-0.24099 -0.122122,-0.34326 -1.675867,-0.34726 z m 72.231252,1.75855 c -0.19403,0 -0.35295,0.29857 -0.35295,0.66352 0,1.42008 -4.4742,12.368196 -5.16248,12.632306 -0.23676,0.0909 -1.19588,-0.17695 -2.13165,-0.59532 -9.22656,-4.12503 -20.64964,-7.099466 -29.570805,-7.700296 l -3.52795,-0.23771 -0.110588,-1.1467 c -0.0608,-0.63059 -0.177823,-1.14619 -0.259932,-1.14619 -0.336988,0 -2.609645,2.67901 -2.618445,3.08664 -0.0055,0.25422 0.426604,0.4408 1.020092,0.4408 0.566215,0 1.280591,0.09669 1.5875,0.21446 0.366179,0.14052 0.557589,0.01905 0.557589,-0.35295 0,-0.7376 1.780256,-0.74516 7.232117,-0.03049 8.268832,1.08395 17.732882,3.834966 26.017532,7.562326 l 1.67587,0.75395 -1.28364,2.01177 c -1.64164,2.57243 -4.4324,6.02272 -4.89221,6.04872 -0.19497,0.011 -1.47566,-0.82351 -2.84634,-1.85466 -5.2385,-3.94085 -15.001859,-7.9526 -22.551595,-9.2661 -2.221147,-0.38643 -3.687318,-0.8214 -3.957898,-1.17461 -0.387922,-0.50636 -0.43067,-0.50094 -0.4408,0.0563 -0.01346,0.74065 -0.358907,0.78037 -1.232483,0.14159 -0.606428,-0.44343 -0.571244,-0.50367 0.518831,-0.88367 0.6433,-0.22425 1.075109,-0.50206 0.959631,-0.61753 -0.342341,-0.342346 -2.726448,0.58218 -2.726448,1.0573 0,0.68718 2.767947,2.10963 3.279386,1.68517 0.657557,-0.54573 6.828653,0.68914 11.905734,2.3828 6.308432,2.10443 11.708392,4.93072 15.506552,8.11527 l 1.23455,1.03508 -1.03715,1.08365 c -0.73232,0.76522 -1.11462,0.95731 -1.30225,0.65371 -0.17765,-0.28743 -0.3893,-0.10515 -0.63872,0.55087 -0.59568,1.56678 -0.47275,2.34662 0.37052,2.34662 0.602,0 0.70488,-0.15604 0.53847,-0.81907 -0.15878,-0.63263 0.10035,-1.11797 1.13792,-2.13113 l 1.34307,-1.31207 2.47478,2.60501 c 1.36107,1.43285 3.67576,4.41596 5.14336,6.62905 3.64899,5.50259 7.75886,13.01477 7.21506,13.18783 -1.91581,0.60969 -4.6181,1.24346 -6.16086,1.44487 -1.01864,0.13298 -1.85209,0.39011 -1.85209,0.57103 0,0.42592 2.65257,0.0613 5.84306,-0.80305 1.37057,-0.37132 2.59996,-0.67542 2.73161,-0.67542 0.34554,0 4.13373,7.70906 5.72058,11.64167 0.74379,1.84326 1.58761,3.63008 1.87534,3.97082 0.28774,0.34074 0.57512,0.56744 0.63872,0.50384 0.18737,-0.18738 -4.63251,-10.91288 -6.01513,-13.38523 -0.69801,-1.24814 -1.26918,-2.43972 -1.26918,-2.6479 0,-0.40435 3.14053,-1.20416 3.60392,-0.91777 0.15196,0.0939 0.27647,0.39944 0.27647,0.67903 0,0.27959 0.0816,0.50849 0.18138,0.50849 0.36818,0 2.21909,-2.29583 2.05931,-2.55436 -0.091,-0.14725 -0.98959,-0.26552 -1.99678,-0.26252 -1.2677,0.004 -1.67183,0.10664 -1.31258,0.33383 0.28537,0.18051 0.44435,0.38817 0.35295,0.46147 -0.18355,0.14721 -3.67526,0.94075 -3.72226,0.84595 -0.0162,-0.0326 -1.4275,-2.51989 -3.13624,-5.52732 -3.96871,-6.98508 -6.73246,-11.02399 -9.76478,-14.27096 -1.32916,-1.42325 -2.41639,-2.67394 -2.41639,-2.77967 0,-0.10574 0.6098,-0.89749 1.35548,-1.75907 0.74569,-0.86157 2.1072,-2.69676 3.02565,-4.0783 0.91846,-1.38154 1.77676,-2.50928 1.90738,-2.50528 0.49367,0.0141 6.894,3.55386 9.16171,5.06688 1.30059,0.86776 3.51601,2.54945 4.9227,3.73724 1.4067,1.18779 2.55747,1.99883 2.55747,1.80247 0,-0.42108 -3.26888,-3.18767 -6.41615,-5.43016 -1.22465,-0.87258 -3.97334,-2.50168 -6.10764,-3.61993 -2.1343,-1.11825 -3.92165,-2.06077 -3.97185,-2.09497 -0.0503,-0.0342 0.53104,-1.39693 1.2914,-3.02823 1.63419,-3.506136 3.91552,-9.527986 3.91552,-10.335286 0,-0.3127 -0.15892,-0.56844 -0.35295,-0.56844 z m -52.275364,1.13843 c -0.47493,0.15831 -0.439341,3.31549 0.07855,6.97528 0.178463,1.261166 0.327963,2.999386 0.331763,3.862816 0.0051,1.15042 0.111437,1.46521 0.398425,1.17822 0.286985,-0.28699 0.286985,-1.16914 0,-3.30161 -0.215395,-1.600486 -0.391707,-4.247246 -0.391707,-5.881806 0,-2.12937 -0.118295,-2.9325 -0.417029,-2.8329 z m -8.402588,2.03657 c -0.583781,0 -0.389532,4.18132 0.358634,7.726136 0.385015,1.82421 0.699699,3.68987 0.699699,4.14548 0,0.45562 0.158922,0.82838 0.35295,0.82838 0.490932,0 0.450685,-0.47442 -0.345198,-4.07469 -0.383854,-1.73642 -0.701184,-4.387396 -0.705384,-5.891106 -0.0044,-1.58241 -0.156521,-2.7342 -0.360701,-2.7342 z m 18.917191,1.05833 c 0.267286,0 0.485759,0.23813 0.485759,0.52917 0,0.33585 -0.337849,0.52916 -0.925008,0.52916 -0.782347,0 -0.857661,-0.08167 -0.486275,-0.52916 0.241543,-0.29103 0.658243,-0.52917 0.925524,-0.52917 z m -36.745044,0.1018 c -0.161494,-0.04402 -0.157697,0.27364 -0.03514,1.13275 0.110716,0.77611 0.308125,2.68112 0.438733,4.233326 0.277344,3.29612 0.812625,4.3141 2.370398,4.50929 2.11556,0.26511 2.395143,0.2527 2.177645,-0.0992 -0.119916,-0.19403 -0.739602,-0.35295 -1.377177,-0.35295 -1.939475,0 -2.393018,-0.87096 -2.66392,-5.11493 -0.145842,-2.284806 -0.412199,-3.882376 -0.691947,-4.150646 -0.09229,-0.0885 -0.16476,-0.14294 -0.218592,-0.15762 z m -6.771162,0.25115 c -0.45555,0 -0.463489,0.08517 -0.05426,0.57826 0.323882,0.39025 0.517216,1.85481 0.593246,4.497916 0.06201,2.15558 0.177768,4.11791 0.257348,4.36045 0.439579,1.33984 0.594021,-0.048 0.432015,-3.88038 -0.196602,-4.650806 -0.396869,-5.556246 -1.228348,-5.556246 z m -9.852629,0.73381 c -0.325631,0.0931 -0.717139,0.36883 -0.981335,0.77204 -0.288558,0.44039 -0.694792,2.29949 -0.902271,4.131016 -0.207476,1.83152 -0.465856,3.68465 -0.574642,4.11809 -0.108784,0.43343 -0.06793,0.99547 0.09095,1.24902 0.323584,0.51642 0.568844,-0.59734 1.181323,-5.35988 0.478591,-3.721476 0.631593,-4.233326 1.265556,-4.233326 0.277963,0 0.505395,-0.15841 0.505395,-0.35244 0,-0.32767 -0.259346,-0.41763 -0.584977,-0.32452 z m 5.923669,1.73529 c -0.473546,0 -0.694847,1.998596 -0.870231,7.849646 -0.07997,2.66788 -0.02279,4.85035 0.127124,4.85035 0.149913,0 0.371907,-2.02407 0.49351,-4.49792 0.121599,-2.47385 0.308,-5.33136 0.413928,-6.35 0.118505,-1.139616 0.05506,-1.852076 -0.164331,-1.852076 z m 9.153447,4.654496 c -0.659895,-0.21995 -0.437733,1.99292 0.236678,2.35748 0.339549,0.18355 0.997944,1.41909 1.463476,2.74608 1.534053,4.3728 5.519101,11.80115 8.296652,15.46572 3.967653,5.23474 6.796504,7.61668 10.733711,9.03873 3.004394,1.08515 3.705843,1.20754 3.506763,0.6103 -0.07429,-0.22286 -1.000213,-0.62595 -2.057755,-0.89555 -3.281677,-0.83659 -4.993443,-1.88692 -8.002613,-4.91082 -4.563479,-4.58579 -9.982164,-13.57885 -12.093318,-20.07061 -0.936934,-2.88105 -1.552711,-4.16437 -2.083594,-4.34133 z m -2.812748,3.2892 c -0.88873,-0.0598 -1.846534,0.1646 -1.638143,0.50178 0.15591,0.25226 3.364652,0.37647 3.364652,0.13023 0,-0.0695 -0.40787,-0.28123 -0.906404,-0.47078 -0.235171,-0.0894 -0.523862,-0.1413 -0.820105,-0.16123 z m 116.210478,3.26699 c -0.62761,-0.008 -1.44594,0.13122 -2.54765,0.30385 -3.81458,0.59774 -9.68947,2.07129 -11.29336,2.83239 -2.13526,1.01326 -2.32838,1.86682 -2.03864,9.00927 0.19414,4.78589 0.37975,6.43311 0.76895,6.82232 v 5.2e-4 c 0.66509,0.66494 4.82979,0.66624 7.60677,0.003 1.59248,-0.38058 2.08539,-0.3918 2.29288,-0.0522 0.20173,0.33016 0.91924,0.23252 3.02927,-0.41238 1.52071,-0.46478 2.69053,-0.91959 2.59933,-1.01079 -0.0912,-0.0912 -1.25395,0.0864 -2.58382,0.39481 -1.40594,0.32609 -2.46433,0.42252 -2.52853,0.22996 -0.0652,-0.19559 -0.93366,-0.13457 -2.12132,0.14934 -1.10606,0.2644 -2.32857,0.47522 -2.71663,0.46922 -1.00716,-0.0163 4.4776,-1.60965 6.45904,-1.87637 0.9102,-0.12253 2.27402,-0.31562 3.03082,-0.42943 1.1682,-0.17567 1.34296,-0.12093 1.15755,0.36225 -0.29594,0.7712 0.38904,0.72015 1.78801,-0.1328 1.46152,-0.89111 1.46777,-1.40916 0.11162,-9.52242 -0.96356,-5.76455 -1.13145,-7.11605 -3.01429,-7.14013 z m 0.10542,0.7307 c 0.59125,0.003 0.97642,0.0695 1.08469,0.20877 0.15972,0.20552 0.71917,2.94317 1.24333,6.08387 0.52419,3.14068 0.90366,6.39524 0.84336,7.23212 l -0.10955,1.52135 -0.61598,-1.88877 c -0.33885,-1.03873 -0.78712,-3.73732 -0.99632,-5.99705 -0.58833,-6.35469 -0.59109,-6.36577 -1.60301,-6.61975 -1.18815,-0.2982 -3.47024,0.0389 -6.38669,0.94361 -3.12647,0.96983 -7.90746,2.81567 -8.51834,3.28869 -0.37453,0.29003 -0.45304,0.22276 -0.35192,-0.30231 0.2015,-1.04628 2.00999,-1.89282 6.42597,-3.00809 3.58086,-0.90433 7.2107,-1.47073 8.98446,-1.46244 z m -1.11001,0.90847 c 1.19775,-0.008 1.52601,0.53225 1.52601,1.93632 0,2.31353 1.06448,9.48479 1.59732,10.76007 0.28552,0.68336 0.51934,1.30319 0.51934,1.37769 0,0.0745 -1.40186,0.22646 -3.11505,0.33745 -1.8906,0.1225 -4.94453,0.69778 -7.77059,1.46347 -2.56084,0.69385 -4.95392,1.26142 -5.3175,1.26142 -0.81343,0 -1.02972,-1.91659 -0.95602,-8.46253 l 0.0496,-4.40593 1.32654,-0.6258 c 2.12336,-1.00187 8.42806,-3.05472 10.63294,-3.46232 0.61256,-0.11324 1.10815,-0.17706 1.5074,-0.17984 z m -3.28455,1.80764 c -1.06205,0.0208 -3.30108,1.65244 -4.22248,3.41633 -0.277,0.5303 -0.9806,1.21077 -1.56322,1.51206 -1.38478,0.7161 -3.16208,3.19402 -3.16208,4.40851 0,1.09921 1.16048,2.73487 2.25361,3.17655 1.73953,0.70284 4.11324,-0.098 4.92115,-1.66036 0.28804,-0.55701 1.12267,-1.26996 1.87637,-1.60249 2.81761,-1.24313 4.26391,-5.36993 2.52904,-7.21661 -0.42187,-0.44908 -1.09639,-0.81564 -1.49913,-0.81494 -0.60449,0.001 -0.53402,0.12222 0.40463,0.69453 1.47819,0.90129 1.77447,2.12744 0.95395,3.94705 -0.62184,1.379 -2.44338,3.11815 -3.26596,3.11815 -0.22162,0 -0.62725,-0.51611 -0.90123,-1.1467 -0.27399,-0.63058 -0.99116,-1.59689 -1.5937,-2.14767 -1.09418,-1.00018 -1.09451,-1.00296 -0.47646,-2.06964 0.79202,-1.36691 2.58327,-2.7497 3.56206,-2.7497 0.41825,0 0.76067,-0.13235 0.76067,-0.29404 0,-0.40589 -0.22321,-0.57796 -0.57722,-0.57103 z m -11.35331,2.45257 0.33486,1.16168 c 0.18427,0.63893 0.28874,2.46423 0.23254,4.0566 l -0.10232,2.89543 -0.262,-2.46961 c -0.14416,-1.35819 -0.24864,-3.18348 -0.23254,-4.0566 z m 5.61981,3.17913 c 0.27468,-0.0575 0.31367,0.20721 0.31367,1.05782 0,1.44214 1.27172,2.99465 2.45308,2.99465 0.90851,0 0.92965,0.76065 0.0434,1.56269 -0.373,0.33756 -1.31781,0.69975 -2.09961,0.80461 -1.2485,0.16746 -1.5552,0.0566 -2.52129,-0.90951 -0.84215,-0.84208 -1.04352,-1.28638 -0.85887,-1.89601 0.38882,-1.28366 1.58071,-3.0695 2.30891,-3.45922 0.1513,-0.081 0.26914,-0.13584 0.3607,-0.15503 z m 1.27485,0.31626 c 0.91182,-0.0643 2.56626,1.75234 2.56626,3.05356 0,0.4718 -0.73001,0.38411 -1.84744,-0.22221 -1.03945,-0.56401 -1.64288,-2.09539 -1.05678,-2.68149 0.093,-0.093 0.20771,-0.14067 0.33796,-0.14986 z m -54.997674,4.39612 c -3.046865,-0.035 -4.034067,0.31969 -5.936071,1.22628 -3.620481,1.72571 -5.740225,2.95381 -6.019788,3.48712 -0.129024,0.24614 -0.110606,1.40003 0.04082,2.56419 0.151433,1.16417 0.288521,3.8234 0.304891,5.9092 0.01835,2.33775 0.168591,3.79253 0.391708,3.79253 0.241326,0 0.293272,-2.0144 0.156062,-6.04407 l -0.205672,-6.04356 0.813904,0.25838 c 1.716957,0.5453 13.20931,2.9775 14.14281,2.9931 0.66484,0.0111 1.06454,-0.20842 1.2392,-0.68058 0.15939,-0.43085 1.98417,-1.57615 4.77801,-2.99878 2.48594,-1.26586 4.54903,-2.30116 4.58473,-2.30116 0.0357,0 -0.0862,1.18555 -0.2713,2.63499 -0.329,2.5766 -0.35668,2.63135 -1.23817,2.44946 l -0.90175,-0.18604 0.87746,0.51832 c 0.48264,0.28511 0.99404,0.44663 1.13637,0.35863 0.14234,-0.088 0.36594,-0.9658 0.49661,-1.95078 0.56649,-4.27042 0.98962,1.66873 0.86506,12.13827 -0.0268,2.25187 -0.40761,2.53338 -1.7446,1.28778 -0.43746,-0.40756 -0.88707,-0.64978 -0.9989,-0.53795 -0.32435,0.32434 0.53515,1.16538 1.67277,1.63659 1.38833,0.57507 1.32136,0.89909 -0.36432,1.75907 -0.77611,0.39594 -1.41129,0.79573 -1.41129,0.88883 0,0.29346 0.34184,0.18935 1.7725,-0.54053 0.91408,-0.46633 1.472,-1.03177 1.62678,-1.64848 0.12964,-0.51631 0.11735,-4.68173 -0.0274,-9.25628 -0.14475,-4.57456 -0.26572,-8.66576 -0.26872,-9.09144 -0.0103,-1.49439 -0.84666,-1.74819 -7.16029,-2.17403 -3.95386,-0.26668 -6.52331,-0.42809 -8.351428,-0.44906 z m -3.290238,0.56379 5.820832,0.23357 c 3.20146,0.12847 7.16251,0.25017 8.80205,0.27027 4.25672,0.0521 3.12975,0.5761 -2.27532,1.05782 -4.94947,0.44112 -7.988733,1.07148 -8.198461,1.70067 -0.07242,0.21725 0.744748,1.00312 1.815391,1.74666 1.07065,0.74355 1.95217,1.47144 1.95957,1.61696 0.0331,0.65371 -7.058701,-0.54078 -13.295827,-2.23914 l -1.491382,-0.40618 0.809253,-0.63665 c 0.445222,-0.35022 1.989631,-1.24559 3.431832,-1.99006 z m -0.09354,0.22789 c -0.04299,0.0125 -0.05011,0.23015 -0.06201,0.66507 -0.0214,0.78216 -0.324557,0.97763 -2.679423,1.72755 -1.460404,0.46507 -2.754611,1.00591 -2.875794,1.20199 -0.133008,0.21524 0.04619,0.2756 0.452169,0.15193 5.772433,-1.75843 6.471829,-1.85306 8.345744,-1.1281 0.345225,0.13355 0.617017,0.0774 0.617017,-0.12764 0,-0.36398 -0.32389,-0.49858 -2.22002,-0.92139 -0.553987,-0.12353 -1.123524,-0.56274 -1.300696,-1.00304 -0.15542,-0.38625 -0.233999,-0.57888 -0.276987,-0.56637 z m 14.381042,1.75545 c 1.1056,0.009 0.86597,0.19037 -2.29289,1.73219 -1.94027,0.94704 -3.77166,1.73103 -4.07003,1.74253 -0.29837,0.0115 -1.09247,-0.43815 -1.76424,-0.99942 l -1.221114,-1.02061 1.471754,-0.39688 c 1.78534,-0.48137 6.18166,-1.07171 7.87652,-1.05781 z m 1.96319,1.09192 c -0.0717,-0.0727 -0.3708,0.3176 -1.02165,1.25729 -0.50396,0.72761 -1.46978,1.95659 -2.14663,2.7311 l -1.23094,1.40818 -1.25109,-1.21285 c -1.55736,-1.50944 -1.66447,-1.00486 -0.12402,0.58446 0.62014,0.63982 1.25183,1.16376 1.40353,1.16376 0.41983,0 4.07883,-4.54694 4.28088,-5.31957 0.0937,-0.35847 0.13292,-0.56872 0.0899,-0.61237 z m 35.94871,0.0977 c 0.0213,0.008 0.0448,0.0406 0.0692,0.10128 0.0979,0.24252 0.0979,0.63959 0,0.88212 -0.0978,0.24255 -0.17828,0.0443 -0.17828,-0.4408 0,-0.36379 0.0452,-0.56637 0.10904,-0.5426 z m -59.383982,1.63607 c -0.254922,-0.0689 -0.399975,0.0157 -0.399975,0.26355 0,0.16437 0.357188,0.47107 0.79375,0.68162 1.256442,0.60595 1.574171,0.46926 0.666626,-0.28681 -0.440534,-0.36699 -0.805478,-0.58941 -1.060401,-0.65836 z m 69.244872,1.12552 c -0.0817,0.0179 -0.13772,0.17485 -0.21807,0.48214 -0.13052,0.49909 -0.73402,0.82219 -2.18798,1.17099 -1.10423,0.26491 -2.0891,0.61324 -2.1885,0.77411 -0.26545,0.42949 0.0622,0.37959 3.88297,-0.58963 1.9122,-0.48508 3.97232,-0.87049 4.57802,-0.85679 l 1.10122,0.0248 -1.41128,0.51832 c -0.7761,0.28502 -2.99844,0.81402 -4.93872,1.17615 -2.21433,0.41328 -3.04366,0.67115 -2.22777,0.69195 1.58058,0.0404 5.91125,-0.82135 7.96024,-1.58388 2.59669,-0.96637 1.69548,-1.59347 -1.65262,-1.1498 -1.54796,0.20511 -1.996,0.14654 -2.32647,-0.30541 -0.1825,-0.24958 -0.28937,-0.37088 -0.37104,-0.35295 z m -54.77288,2.07739 c -0.62057,-0.0573 -2.312634,0.53568 -2.441718,0.92294 -0.07788,0.23362 0.03803,0.42478 0.257868,0.42478 0.57717,0 2.57874,-1.0784 2.3766,-1.28054 -0.0372,-0.0372 -0.1041,-0.059 -0.19275,-0.0672 z m -10.560602,0.28939 c -0.410482,0 -0.255386,0.32392 0.558105,1.16323 0.996924,1.02856 1.12758,1.39363 1.12758,3.14968 0,1.81763 -0.09591,2.06129 -1.135331,2.87476 -1.290785,1.01019 -1.108006,1.67448 0.221175,0.80357 0.837451,-0.54872 0.913214,-0.53011 1.92443,0.48111 1.475897,1.4759 2.117972,1.31802 0.790133,-0.1943 -1.138562,-1.29674 -1.206104,-1.53601 -1.096574,-3.86799 0.08243,-1.75501 0.339996,-2.07142 2.124418,-2.60604 0.784012,-0.2349 1.338281,-0.5687 1.231449,-0.74155 -0.107774,-0.17438 -1.006317,-0.0732 -2.018481,0.22737 l -1.824178,0.54157 -0.667143,-0.91571 c -0.366903,-0.50367 -0.922667,-0.9157 -1.235583,-0.9157 z m 11.351762,0.43925 c -0.30773,0.0873 -0.22095,5.81993 0.0961,6.35206 0.38439,0.64512 0.44917,0.0548 0.339,-3.0887 -0.0646,-1.84426 -0.26059,-3.31286 -0.43512,-3.26336 z m 55.70203,1.10019 c -0.0713,0.0377 -0.10387,0.15571 -0.10387,0.3576 0,0.41995 0.35224,0.58191 1.32292,0.60771 0.72759,0.0193 1.71945,0.14722 2.20452,0.28423 0.87266,0.24647 0.86709,0.25868 -0.52917,1.1622 -0.84634,0.54767 -3.08588,1.31432 -5.59604,1.91513 -3.63705,0.87051 -4.22767,1.11216 -4.50722,1.84743 -0.40322,1.06056 -0.19426,1.72215 1.11311,3.52692 1.15805,1.59864 2.18825,2.3677 4.1429,3.09283 0.85164,0.31594 1.84212,0.40972 3.50728,0.23254 a 90.487648,90.487648 0 0 0 0.50953,-0.59169 l -1.99161,0.17725 -2.45463,-3.37137 c -1.34993,-1.85443 -2.59873,-3.37189 -2.77554,-3.37189 -0.17682,0 0.0844,0.5321 0.58032,1.18236 l 0.90176,1.18235 -1.2175,0.37363 c -1.05094,0.32254 -1.26459,0.28433 -1.56528,-0.27751 -0.56837,-1.06202 -0.40047,-1.96259 0.44545,-2.389 0.43657,-0.22007 2.3058,-0.79292 4.15375,-1.27331 1.84796,-0.48039 4.54655,-1.19216 5.99705,-1.58181 1.80589,-0.48511 4.28151,-0.9327 6.16345,-1.18132 a 90.487648,90.487648 0 0 0 0.33538,-0.53382 c -1.94668,0.19024 -5.10157,0.73964 -6.33088,1.14825 -0.60839,0.20223 -0.58844,0.1313 0.1447,-0.5147 1.11437,-0.98191 0.67199,-1.35407 -1.7322,-1.45676 -1.06715,-0.0456 -2.13871,-0.23545 -2.38125,-0.42219 -0.15554,-0.11977 -0.26557,-0.16274 -0.33693,-0.12506 z m -49.49362,0.57722 c -0.16772,0 -0.16966,0.46387 -0.005,1.03922 0.16391,0.5715 0.41012,2.0867 0.54726,3.36723 0.13714,1.28054 0.34422,2.2334 0.46043,2.11719 0.47572,-0.47571 -0.4542,-6.52364 -1.00304,-6.52364 z m 28.79514,1.41129 c 0.46878,0 0.49301,0.0958 0.13333,0.52916 -0.24154,0.29104 -0.49928,0.52917 -0.57258,0.52917 -0.0733,0 -0.1328,-0.23813 -0.1328,-0.52917 0,-0.29103 0.25726,-0.52916 0.57205,-0.52916 z m -49.543748,4.96559 c -0.165057,-0.0624 -0.582918,0.037 -1.146184,0.33848 -1.005709,0.53824 -0.849049,0.89583 0.817005,1.86603 0.824618,0.48019 1.707135,0.88907 1.96112,0.90847 0.864292,0.066 0.01232,-0.69791 -1.415417,-1.26917 l -1.423169,-0.56947 0.835608,-0.64286 c 0.448456,-0.34487 0.536094,-0.56905 0.371037,-0.63148 z m 21.360978,1.17305 c -0.21328,-0.21328 -3.78685,4.36341 -3.78685,4.84983 0,0.1651 0.0485,0.30024 0.10748,0.30024 0.28904,0 3.84796,-4.98149 3.67937,-5.15007 z m 45.11301,0.73071 c 0.59318,0.0172 1.10707,0.6434 2.6479,2.74401 0.8236,1.12284 0.44387,1.22925 -1.45056,0.40773 -1.29721,-0.56255 -2.82463,-1.82241 -2.82463,-2.33009 0,-0.16501 0.43506,-0.46547 0.96686,-0.66766 0.25635,-0.0975 0.4627,-0.15971 0.66043,-0.15399 z M 91.815129,144.737 c -0.15697,-0.002 -0.195232,0.14215 -0.08475,0.32091 0.110483,0.17877 1.509114,0.75266 3.10782,1.27486 1.59871,0.52219 3.46,1.26555 4.136182,1.6521 0.676179,0.38654 1.945999,0.98747 2.822049,1.33531 2.14186,0.85048 2.42771,0.83882 4.06228,-0.16794 1.47808,-0.91038 1.00102,-1.23698 -0.52917,-0.36226 -1.57514,0.90044 -1.76371,0.70979 -1.76371,-1.78438 0,-1.45275 -0.13146,-2.23289 -0.35295,-2.096 -0.19403,0.11992 -0.35295,0.8613 -0.35295,1.64745 v 1.42937 l -0.6749,-0.83303 c -0.96843,-1.19455 -1.31497,-0.55379 -0.39739,0.73484 l 0.76843,1.07952 -0.90382,-0.34416 c -0.4973,-0.18907 -1.26239,-0.57803 -1.700151,-0.86455 -0.757875,-0.49603 -7.537246,-3.01404 -8.13697,-3.02204 z m -17.509526,1.4149 -1.286743,0.87282 c -1.401245,0.95091 -7.188755,2.91441 -14.488521,4.91494 -5.114176,1.40157 -9.16592,2.86921 -17.406173,6.30504 -0.345637,0.14412 -0.355067,0.14466 -0.689363,0.28371 a 90.487648,90.487648 0 0 0 0.518831,0.38292 c 1.364064,-0.52377 2.627086,-0.99825 4.219897,-1.63814 6.658544,-2.675 11.273877,-4.26742 16.805176,-5.79861 4.194058,-1.16101 8.623942,-2.51684 9.844361,-3.01274 1.674423,-0.68038 2.335518,-0.80497 2.693375,-0.50798 0.564144,0.4682 0.588728,0.30115 0.131775,-0.90072 z m 27.055197,6.11126 c -0.14552,-0.0896 -0.26458,0.64975 -0.26458,1.64279 0,1.11385 -0.13532,1.722 -0.35295,1.5875 -0.19403,-0.11992 -0.35243,-0.76431 -0.35243,-1.43195 0,-0.66765 -0.16369,-1.21388 -0.3638,-1.21388 -0.400094,0 -0.481815,0.18553 -1.043873,2.38125 -0.534886,2.08955 -1.061951,1.87029 -1.061951,-0.44132 0,-1.06715 -0.158922,-1.93993 -0.35295,-1.93993 -0.194028,0 -0.3534,0.51558 -0.3545,1.14618 -0.001,0.67386 -0.345334,1.57587 -0.835091,2.18798 -0.819308,1.02398 -0.848897,1.03145 -1.762167,0.43305 -0.974689,-0.63864 -1.276381,-2.0035 -0.442867,-2.0035 0.833485,0 1.361199,-0.90311 0.799952,-1.3689 -0.373366,-0.30987 -0.593889,-0.27444 -0.947746,0.15192 -0.417826,0.5031 -0.490438,0.50364 -0.769979,0.004 -0.413706,-0.7393 -2.369147,-0.69566 -3.319177,0.0739 -1.585851,1.28458 -1.695569,3.07319 -0.240296,3.91965 v 5.2e-4 c 0.810231,0.47126 2.823743,0.50393 3.104204,0.0501 0.119411,-0.1932 0.888251,-0.25152 1.754414,-0.13281 1.307228,0.17919 1.61091,0.10049 1.995744,-0.51573 0.447114,-0.716 0.460652,-0.71641 0.93276,-0.0424 0.624554,0.89167 1.663909,0.38713 2.027266,-0.98443 0.258431,-0.97552 0.261089,-0.97392 0.669217,0.43149 0.22537,0.77611 0.56356,1.37454 0.75137,1.32964 0.40794,-0.0975 0.81025,-5.03074 0.42943,-5.26531 z m 0.90951,0.3638 c -0.16584,0.12084 -0.12134,0.7869 0.10852,2.46393 0.12339,0.90021 0.38022,1.63659 0.57051,1.63659 0.19026,0 0.26742,-0.30005 0.17156,-0.66662 -0.22488,-0.85997 0.0695,-1.29295 1.09709,-1.61386 0.73023,-0.22805 0.80001,-0.16853 0.58808,0.4992 -0.32054,1.00994 0.6277,2.41185 2.04949,3.0303 0.61594,0.26792 1.32603,0.49327 1.5782,0.50127 0.61804,0.0186 2.65185,-1.05025 2.42673,-1.27538 -0.0984,-0.0984 -0.4995,-0.008 -0.89142,0.20206 -1.22062,0.65326 -2.46095,0.42759 -3.66386,-0.66663 -1.04277,-0.94854 -1.08065,-1.04933 -0.39946,-1.05833 0.45035,-0.006 0.82654,-0.29322 0.93689,-0.71521 0.24362,-0.93166 0.0329,-1.0216 -2.14095,-0.91053 -1.56755,0.0801 -1.84175,5.7e-4 -1.84175,-0.53537 0,-0.34631 -0.15841,-0.72758 -0.35244,-0.8475 -0.10291,-0.0636 -0.18191,-0.0842 -0.23719,-0.0439 z m -10.513575,0.97617 c 0.419428,0.02 0.795581,0.19122 1.042313,0.52865 0.422662,0.57803 0.405643,1.95025 -0.03256,2.65927 -0.359661,0.58195 -2.493319,0.29364 -3.143477,-0.42478 -0.627514,-0.69339 -0.625205,-0.74229 0.06873,-1.67587 0.545979,-0.73454 1.365943,-1.12063 2.064991,-1.08727 z m 14.249265,1.0511 c 0.12255,0.005 0.22767,0.0375 0.28629,0.0961 v 5.2e-4 c 0.11722,0.11718 -0.0911,0.2003 -0.46302,0.185 -0.41097,-0.0169 -0.49433,-0.1003 -0.21291,-0.2129 0.12733,-0.051 0.26708,-0.0738 0.38964,-0.0687 z m 13.61984,0.10697 c -0.24435,-0.0532 -0.199,0.23968 0.26872,0.90743 0.83273,1.18889 2.92278,2.55885 7.57163,4.96249 3.09964,1.60263 4.3217,2.41397 4.3217,2.86959 0,0.75283 0.12783,0.76405 1.84537,0.16589 1.93779,-0.67493 1.95059,-0.85216 0.11575,-1.63866 -2.06881,-0.88666 -2.37195,-0.8859 -1.30483,0.003 1.40755,1.17261 0.50164,0.7979 -4.85087,-2.0066 -3.25856,-1.70736 -5.64838,-3.21311 -6.49831,-4.09432 -0.69096,-0.71639 -1.22481,-1.1157 -1.46916,-1.16892 z m 16.28893,1.43712 0.23513,6.52621 c 0.0338,0.94011 0.0795,1.75524 0.12092,2.64946 a 90.487648,90.487648 0 0 0 0.62632,-0.33125 l -0.13023,-3.55276 0.42117,3.23805 c 0.007,0.0557 0.0164,0.0931 0.0238,0.14831 a 90.487648,90.487648 0 0 0 0.44803,-0.23668 c -0.28568,-2.79529 -0.52491,-6.32116 -0.38654,-6.45955 0.27245,-0.27242 6.44026,-0.23883 10.37611,0.008 a 90.487648,90.487648 0 0 0 2.37092,-1.74976 l -3.73362,-0.0636 z m 2.96933,0.92087 c 0.44758,-5.4e-4 0.90837,0.0181 1.27434,0.0563 v 5.2e-4 c 0.73193,0.0764 0.21977,0.14059 -1.13843,0.14159 -1.35818,0.002 -1.95744,-0.0611 -1.33119,-0.13901 0.31313,-0.0391 0.74769,-0.0589 1.19528,-0.0594 z m 7.45587,0.0114 c 0.92163,-0.0275 1.67587,0.10829 1.67587,0.30231 v 5.1e-4 c 0,0.19403 -0.11906,0.32981 -0.26458,0.30231 -0.14552,-0.0275 -0.89976,-0.16335 -1.67587,-0.30231 l -1.41128,-0.25269 z m -4.66586,3.83026 c -0.194,0 -0.25169,0.46132 -0.13229,1.05833 0.0246,0.12318 0.0294,0.1959 0.0444,0.29249 a 90.487648,90.487648 0 0 0 0.45992,-0.28887 c -0.004,-0.0667 -0.0279,-0.10177 -0.0279,-0.17984 0,-0.48506 -0.15499,-0.88211 -0.34416,-0.88211 z m -74.210983,0.44958 c -0.225478,0.0741 -0.458074,0.78036 -0.516764,1.56993 -0.08173,1.09958 -0.27546,1.47999 -0.82889,1.62471 -0.397397,0.10392 -0.62246,0.35123 -0.499711,0.54984 0.122748,0.19859 0.456211,0.27208 0.74104,0.16278 0.429246,-0.16471 0.517798,0.29418 0.517798,2.682 0,1.83068 0.128767,2.80092 0.35295,2.66237 0.194027,-0.11992 0.35295,-0.46516 0.35295,-0.76739 0,-0.37567 0.222683,-0.49094 0.704866,-0.36484 0.387865,0.10142 0.791444,0.0451 0.896586,-0.12505 0.105142,-0.17012 -0.212381,-0.4106 -0.705383,-0.53434 -0.823692,-0.20673 -0.896069,-0.38191 -0.896069,-2.16007 0,-1.63838 0.108004,-1.96304 0.705383,-2.11925 0.388055,-0.10148 0.705383,-0.33539 0.705383,-0.51987 0,-0.1845 -0.340489,-0.2273 -0.75706,-0.0951 -0.710804,0.2256 -0.745261,0.14951 -0.560172,-1.23042 0.138321,-1.03127 0.07462,-1.42972 -0.212907,-1.33532 z m -20.874695,0.25632 c -0.117775,0 -0.256568,0.28931 -0.397908,0.74207 a 90.487648,90.487648 0 0 0 0.53175,0.33383 c 0.112991,-0.68637 0.110875,-1.0759 -0.133842,-1.0759 z m 36.807573,0.0155 c -0.659603,-0.0176 -1.638748,0.73706 -5.800163,4.47105 -1.574464,1.41273 -3.092103,2.56883 -3.372921,2.56883 -0.533036,0 -2.054655,1.81813 -2.054655,2.45515 0,0.20189 0.555971,0.3669 1.235067,0.3669 1.221944,0 1.783397,-0.81289 0.79375,-1.14928 -0.268972,-0.0914 0.03402,-0.55033 0.777213,-1.17616 0.670147,-0.56432 2.601182,-2.2164 4.291211,-3.67161 1.69003,-1.4552 3.443697,-2.91644 3.89692,-3.24735 0.650613,-0.47503 0.699639,-0.60513 0.233578,-0.61753 z m 19.138375,0.60772 c -0.17366,0.0545 -0.36868,1.00706 -0.45579,2.81739 -0.10275,2.13542 -0.003,3.38411 0.32556,4.05557 0.26079,0.53357 0.54722,0.97048 0.63665,0.97048 0.14675,0 1.23042,-2.36853 1.23042,-2.68924 0,-0.0733 -0.31733,-0.13332 -0.70538,-0.13332 -0.63779,0 -0.7059,-0.23499 -0.7059,-2.44843 0,-1.783 -0.15191,-2.62694 -0.32556,-2.57245 z m 37.72431,0.85627 c -0.37931,0.0138 -0.81218,0.0319 -0.97462,0.0258 -0.24254,-0.009 -0.4408,0.12519 -0.4408,0.29766 0,0.0963 0.22105,0.17438 0.53124,0.23203 a 90.487648,90.487648 0 0 0 0.88418,-0.55553 z m -76.418081,3.81217 c -0.372008,0 -0.493465,0.19141 -0.35295,0.55759 0.117772,0.30691 0.213941,1.44491 0.213941,2.52853 0,0.34318 0.02201,0.5354 0.03772,0.77101 a 90.487648,90.487648 0 0 0 0.575676,0.20102 c 0.09881,-0.26618 0.200629,-0.55414 0.322461,-0.99632 l 0.406176,-1.47433 0.03462,1.67535 c 0.01043,0.50458 0.05514,0.83125 0.106453,1.09968 a 90.487648,90.487648 0 0 0 0.453719,0.15916 c 0.106882,-0.32428 0.203263,-0.84742 0.256832,-1.61127 0.1617,-2.30565 -0.214169,-3.09031 -0.982369,-2.04949 -0.493277,0.66833 -0.505395,0.66606 -0.505395,-0.0884 0,-0.47479 -0.218682,-0.77257 -0.566891,-0.77257 z m -5.986715,1.33377 c -0.08353,0.008 -0.19447,0.0598 -0.291971,0.0858 a 90.487648,90.487648 0 0 0 2.073775,0.90485 c -0.1324,-0.65003 -0.357226,-0.9162 -0.716752,-0.77825 -0.267296,0.10258 -0.571017,0.0499 -0.674378,-0.1173 -0.05168,-0.0836 -0.197302,-0.11386 -0.390674,-0.0951 z m 3.7021,0.15555 c -0.470887,-0.0907 -0.876778,0.46908 -1.116728,1.18597 a 90.487648,90.487648 0 0 0 0.442351,0.1819 c 0.0031,-0.19332 0.158777,-0.44557 0.350883,-0.5643 0.194027,-0.11992 0.352433,-0.0592 0.352433,0.13487 0,0.18879 -0.152161,0.43282 -0.338998,0.55656 a 90.487648,90.487648 0 0 0 0.586011,0.20515 c 0.529901,-0.74706 0.458118,-1.55879 -0.275952,-1.70015 z m 11.868009,2.03812 c 0.08556,0 0.155547,0.15892 0.155547,0.35295 0,0.19403 -0.168142,0.35295 -0.373621,0.35295 -0.205478,0 -0.275462,-0.15892 -0.155546,-0.35295 0.119917,-0.19403 0.288061,-0.35295 0.37362,-0.35295 z m 33.096177,3.1781 c -1.52756,0.003 -6.26737,0.50343 -10.528045,1.11104 -2.154267,0.30721 -2.628626,0.46852 -2.028817,0.6904 0.314467,0.11633 0.586328,0.32565 0.714169,0.5271 a 90.487648,90.487648 0 0 0 0.490409,-0.0181 c 0.294379,-0.49854 0.43003,-0.53159 0.664042,-0.15296 0.03567,0.0577 0.06834,0.0858 0.101803,0.12402 a 90.487648,90.487648 0 0 0 0.449068,-0.0165 c 0.07985,-0.0777 0.170486,-0.18672 0.278536,-0.3297 0.458977,-0.60737 0.533419,-0.62175 0.543119,-0.10697 0.0025,0.1332 0.05047,0.27095 0.103353,0.40204 a 90.487648,90.487648 0 0 0 0.529683,-0.0202 c -0.0048,-0.0198 0.0013,-0.0204 -0.0041,-0.0413 -0.126429,-0.48346 -0.03597,-0.76068 0.248047,-0.76068 0.245794,0 1.183387,-0.10088 2.083593,-0.22427 1.37155,-0.18799 1.63659,-0.13118 1.63659,0.35243 0,0.16894 0.0516,0.31279 0.12713,0.41858 a 90.487648,90.487648 0 0 0 0.41909,-0.047 c -0.003,-0.0585 0.004,-0.11391 -0.0413,-0.18655 -0.32344,-0.52335 0.49797,-1.00637 1.72186,-1.01337 0.82426,-0.004 0.94295,0.0899 0.83406,0.91674 a 90.487648,90.487648 0 0 0 0.57257,-0.0646 c -0.002,-0.0514 -0.0128,-0.0917 -0.008,-0.15193 0.0365,-0.48441 0.30592,-0.7059 0.85989,-0.7059 0.55653,0 0.78981,0.20027 0.80202,0.67179 a 90.487648,90.487648 0 0 0 0.55139,-0.0884 c 0.0137,-0.0804 0.0162,-0.13313 0.0356,-0.23048 0.20613,-1.03065 0.17571,-1.05823 -1.15548,-1.05523 z m -6.46059,1.40043 c -0.074,-0.007 -0.154649,0.0229 -0.233581,0.1018 -0.112215,0.11223 -0.08305,0.39128 0.05478,0.63149 a 90.487648,90.487648 0 0 0 0.439771,-0.0165 c 0.0998,-0.36505 -0.0482,-0.69626 -0.26097,-0.71675 z m -7.280179,0.12299 c -0.152803,0.0426 -0.416167,0.36628 -0.708484,0.77256 a 90.487648,90.487648 0 0 0 0.513147,0.0191 c 0.218598,-0.37693 0.367386,-0.70232 0.29869,-0.77101 -0.02619,-0.0262 -0.06078,-0.0325 -0.103353,-0.0207 z" /></g></svg>
