<svg version="1.1" xmlns="http://www.w3.org/2000/svg" viewBox="0 0 479.25067619600577 274.6340382868943" width="479.25067619600577" height="274.6340382868943" class="excalidraw-svg">
  <!-- svg-source:excalidraw -->
  
  <defs>
    <style class="style-fonts">
      
    </style>
    
  </defs>
  <rect x="0" y="0" width="479.25067619600577" height="274.6340382868943" fill="#ffffff"/><g transform="translate(14.547036397980264 245.30913359547816) rotate(0 26.713838838134052 -48.880641278287726)" stroke="none"><path fill="#1e1e1e" d="M 0.68,2.04 Q 0.68,2.04 -0.32,2.65 -1.33,3.26 -3.21,2.65 -5.10,2.04 -5.93,0.49 -6.76,-1.06 -6.95,-3.78 -7.13,-6.51 -7.19,-12.50 -7.25,-18.49 -6.93,-24.68 -6.62,-30.88 -5.82,-38.78 -5.03,-46.67 -3.37,-54.41 -1.71,-62.14 1.34,-69.82 4.40,-77.51 7.04,-82.46 9.68,-87.41 12.22,-90.63 14.76,-93.86 16.58,-95.61 18.40,-97.35 20.75,-98.60 23.10,-99.84 25.70,-100.38 28.30,-100.92 31.17,-100.07 34.04,-99.22 36.98,-97.06 39.92,-94.89 42.53,-91.88 45.15,-88.86 47.71,-82.74 50.28,-76.62 51.97,-70.77 53.65,-64.91 55.04,-58.81 56.42,-52.71 57.35,-46.79 58.28,-40.87 58.68,-34.34 59.08,-27.81 59.25,-23.76 59.42,-19.70 59.48,-16.66 59.54,-13.62 59.29,-10.46 59.04,-7.30 59.04,-7.09 59.04,-6.88 58.97,-6.68 58.90,-6.48 58.77,-6.31 58.64,-6.14 58.47,-6.02 58.29,-5.91 58.08,-5.85 57.88,-5.79 57.67,-5.81 57.46,-5.82 57.26,-5.90 57.06,-5.98 56.90,-6.12 56.74,-6.26 56.63,-6.44 56.52,-6.62 56.48,-6.83 56.43,-7.04 56.46,-7.25 56.48,-7.46 56.57,-7.65 56.66,-7.84 56.81,-8.00 56.96,-8.15 57.15,-8.25 57.33,-8.35 57.54,-8.38 57.75,-8.41 57.96,-8.38 58.17,-8.34 58.36,-8.24 58.55,-8.14 58.69,-7.99 58.84,-7.83 58.93,-7.64 59.01,-7.44 59.04,-7.23 59.06,-7.02 59.01,-6.81 58.96,-6.61 58.85,-6.43 58.74,-6.24 58.58,-6.11 58.42,-5.97 58.22,-5.89 58.02,-5.82 57.81,-5.81 57.60,-5.80 57.39,-5.85 57.19,-5.91 57.01,-6.03 56.84,-6.15 56.71,-6.32 56.58,-6.49 56.51,-6.70 56.45,-6.90 56.45,-6.90 56.45,-6.90 55.18,-10.19 53.92,-13.48 53.84,-16.48 53.77,-19.47 53.61,-23.47 53.45,-27.47 53.08,-33.74 52.72,-40.01 51.84,-45.75 50.97,-51.49 49.65,-57.44 48.33,-63.39 46.73,-68.97 45.13,-74.55 43.04,-79.96 40.95,-85.37 38.75,-87.96 36.56,-90.54 34.34,-92.32 32.12,-94.10 30.53,-94.85 28.95,-95.59 27.22,-95.27 25.49,-94.95 23.80,-94.17 22.11,-93.39 20.58,-91.92 19.05,-90.44 16.79,-87.62 14.52,-84.80 12.01,-80.13 9.50,-75.46 6.59,-68.21 3.68,-60.96 2.06,-53.54 0.45,-46.12 -0.32,-38.36 -1.09,-30.61 -1.38,-24.57 -1.66,-18.54 -1.61,-12.68 -1.56,-6.82 -2.07,-4.38 -2.58,-1.95 -1.63,-1.99 -0.68,-2.04 -0.42,-2.09 -0.17,-2.14 0.08,-2.13 0.34,-2.12 0.59,-2.05 0.84,-1.98 1.06,-1.85 1.29,-1.72 1.48,-1.54 1.66,-1.36 1.80,-1.14 1.94,-0.92 2.02,-0.67 2.11,-0.42 2.13,-0.17 2.15,0.08 2.10,0.34 2.06,0.60 1.96,0.83 1.86,1.07 1.70,1.28 1.55,1.49 1.35,1.65 1.14,1.82 0.91,1.93 0.68,2.04 0.68,2.04 L 0.68,2.04 Z"/></g><g transform="translate(52.06008668131744 79.34230506919886) rotate(0 -13.07272964419326 18.188145591921)" stroke="none"><path fill="#1e1e1e" d="M -1.66,-0.33 Q -1.66,-0.33 -1.56,-2.01 -1.47,-3.69 -1.41,-4.89 -1.36,-6.08 -1.96,-7.10 -2.57,-8.11 -4.31,-9.15 -6.04,-10.19 -7.24,-10.36 -8.45,-10.52 -10.51,-10.63 -12.57,-10.75 -15.31,-9.58 -18.05,-8.41 -20.77,-6.42 -23.50,-4.43 -26.16,-1.13 -28.83,2.16 -31.55,7.36 -34.26,12.56 -35.36,17.15 -36.45,21.74 -35.96,25.32 -35.47,28.91 -34.06,32.22 -32.66,35.54 -29.95,38.71 -27.25,41.88 -24.70,43.43 -22.15,44.99 -19.41,45.59 -16.67,46.20 -13.92,45.53 -11.17,44.86 -7.92,42.79 -4.67,40.72 -1.48,36.80 1.71,32.88 4.65,26.48 7.58,20.07 8.82,14.90 10.07,9.73 9.69,6.04 9.32,2.35 6.93,-0.14 4.53,-2.64 -0.65,-4.97 -5.84,-7.29 -9.41,-8.49 -12.99,-9.69 -14.57,-10.15 -16.16,-10.61 -16.35,-10.70 -16.54,-10.78 -16.70,-10.93 -16.86,-11.07 -16.96,-11.26 -17.06,-11.44 -17.10,-11.65 -17.14,-11.86 -17.11,-12.07 -17.07,-12.28 -16.98,-12.47 -16.88,-12.66 -16.73,-12.81 -16.58,-12.96 -16.39,-13.05 -16.19,-13.14 -15.98,-13.17 -15.77,-13.20 -15.56,-13.15 -15.36,-13.11 -15.17,-13.00 -14.99,-12.90 -14.85,-12.74 -14.71,-12.58 -14.63,-12.38 -14.55,-12.18 -14.53,-11.97 -14.52,-11.76 -14.57,-11.55 -14.62,-11.35 -14.74,-11.17 -14.86,-10.99 -15.02,-10.86 -15.19,-10.73 -15.39,-10.66 -15.59,-10.59 -15.80,-10.59 -16.02,-10.58 -16.22,-10.65 -16.42,-10.71 -16.59,-10.84 -16.76,-10.97 -16.89,-11.14 -17.01,-11.31 -17.07,-11.52 -17.13,-11.72 -17.12,-11.93 -17.11,-12.15 -17.03,-12.34 -16.96,-12.54 -16.82,-12.71 -16.69,-12.87 -16.51,-12.98 -16.33,-13.10 -16.12,-13.14 -15.91,-13.19 -15.70,-13.17 -15.49,-13.15 -15.49,-13.15 -15.49,-13.15 -13.88,-12.78 -12.28,-12.41 -8.34,-11.64 -4.40,-10.88 1.92,-8.58 8.25,-6.29 11.44,-2.54 14.63,1.20 15.08,6.08 15.54,10.95 14.12,16.70 12.70,22.45 9.36,29.43 6.02,36.42 2.16,40.94 -1.70,45.45 -5.84,47.86 -9.99,50.27 -13.87,50.90 -17.75,51.53 -21.37,50.59 -25.00,49.64 -28.20,47.54 -31.41,45.44 -34.56,41.56 -37.71,37.68 -39.31,33.63 -40.91,29.58 -41.34,25.06 -41.78,20.54 -40.43,15.30 -39.08,10.05 -36.04,4.40 -33.01,-1.25 -29.84,-5.02 -26.67,-8.78 -23.35,-11.12 -20.03,-13.46 -16.24,-14.79 -12.45,-16.13 -9.92,-15.97 -7.38,-15.81 -5.47,-15.34 -3.56,-14.88 -1.87,-13.85 -0.19,-12.82 0.93,-11.42 2.06,-10.02 2.64,-7.93 3.22,-5.84 3.00,-4.34 2.78,-2.84 2.22,-1.25 1.66,0.33 1.59,0.52 1.53,0.71 1.42,0.89 1.31,1.06 1.16,1.20 1.02,1.34 0.84,1.45 0.67,1.55 0.47,1.61 0.27,1.67 0.07,1.67 -0.12,1.68 -0.32,1.64 -0.52,1.60 -0.71,1.52 -0.89,1.43 -1.05,1.30 -1.21,1.17 -1.34,1.01 -1.46,0.85 -1.54,0.66 -1.62,0.47 -1.65,0.27 -1.69,0.07 -1.67,-0.12 -1.66,-0.33 -1.66,-0.33 L -1.66,-0.33 Z"/></g><g transform="translate(54.333604880307576 103.21424615859524) rotate(0 13.641109193940792 2.273518198990132)" stroke="none"><path fill="#1e1e1e" d="M 0.96,-1.93 Q 0.96,-1.93 3.03,-1.16 5.09,-0.39 7.07,0.27 9.06,0.93 11.34,1.17 13.62,1.41 16.53,1.69 19.44,1.97 22.48,1.67 25.52,1.37 25.73,1.35 25.94,1.33 26.15,1.38 26.35,1.43 26.53,1.54 26.71,1.65 26.85,1.82 26.98,1.98 27.06,2.18 27.14,2.38 27.14,2.59 27.15,2.80 27.09,3.01 27.03,3.21 26.91,3.39 26.79,3.56 26.62,3.69 26.45,3.81 26.25,3.88 26.04,3.94 25.83,3.94 25.62,3.94 25.42,3.87 25.22,3.79 25.05,3.66 24.88,3.53 24.77,3.36 24.65,3.18 24.60,2.97 24.54,2.77 24.56,2.55 24.57,2.34 24.65,2.15 24.73,1.95 24.87,1.79 25.01,1.63 25.20,1.52 25.38,1.42 25.59,1.37 25.80,1.33 26.01,1.36 26.22,1.38 26.41,1.48 26.60,1.57 26.75,1.72 26.91,1.86 27.00,2.05 27.10,2.24 27.13,2.45 27.16,2.66 27.12,2.87 27.09,3.08 26.99,3.27 26.88,3.45 26.73,3.60 26.57,3.74 26.38,3.83 26.18,3.91 26.18,3.91 26.18,3.91 22.74,5.31 19.30,6.72 16.13,6.73 12.96,6.74 10.15,6.35 7.34,5.95 5.04,5.13 2.74,4.31 0.89,3.12 -0.96,1.93 -1.18,1.78 -1.40,1.64 -1.57,1.45 -1.75,1.26 -1.87,1.03 -2.00,0.80 -2.07,0.55 -2.13,0.30 -2.14,0.04 -2.14,-0.21 -2.09,-0.47 -2.03,-0.72 -1.91,-0.95 -1.80,-1.19 -1.63,-1.39 -1.46,-1.58 -1.25,-1.74 -1.04,-1.89 -0.79,-1.98 -0.55,-2.08 -0.30,-2.12 -0.04,-2.15 0.21,-2.13 0.47,-2.10 0.72,-2.01 0.96,-1.93 0.96,-1.93 L 0.96,-1.93 Z"/></g><g transform="translate(40.69249568636678 94.12017336263472) rotate(0 0 3.978656848232731)" stroke="none"><path fill="#1e1e1e" d="M 1.69,0 Q 1.69,0 1.78,1.63 1.87,3.26 1.59,5.18 1.31,7.11 1.27,7.32 1.24,7.52 1.14,7.71 1.04,7.90 0.89,8.05 0.73,8.19 0.54,8.28 0.35,8.37 0.14,8.39 -0.07,8.42 -0.27,8.37 -0.48,8.33 -0.66,8.22 -0.85,8.11 -0.98,7.94 -1.12,7.78 -1.20,7.58 -1.28,7.39 -1.29,7.18 -1.30,6.96 -1.24,6.76 -1.19,6.55 -1.07,6.38 -0.95,6.20 -0.78,6.07 -0.61,5.94 -0.41,5.88 -0.21,5.81 0.00,5.81 0.21,5.81 0.41,5.88 0.61,5.95 0.78,6.07 0.95,6.20 1.07,6.38 1.19,6.55 1.24,6.76 1.30,6.96 1.29,7.18 1.28,7.39 1.20,7.59 1.12,7.78 0.98,7.94 0.84,8.11 0.66,8.22 0.48,8.33 0.27,8.37 0.07,8.42 -0.14,8.39 -0.35,8.37 -0.54,8.28 -0.73,8.19 -0.89,8.05 -1.04,7.90 -1.14,7.71 -1.24,7.52 -1.27,7.31 -1.31,7.10 -1.31,7.11 -1.31,7.11 -1.59,5.18 -1.87,3.26 -1.78,1.63 -1.69,0 -1.66,-0.20 -1.64,-0.40 -1.57,-0.59 -1.49,-0.78 -1.38,-0.95 -1.26,-1.12 -1.11,-1.25 -0.96,-1.39 -0.78,-1.48 -0.60,-1.58 -0.40,-1.63 -0.20,-1.68 0.00,-1.68 0.20,-1.68 0.40,-1.63 0.60,-1.58 0.78,-1.48 0.96,-1.39 1.11,-1.25 1.26,-1.12 1.38,-0.95 1.49,-0.78 1.57,-0.59 1.64,-0.40 1.66,-0.20 1.69,0.00 1.69,0.00 L 1.69,0 Z"/></g><g transform="translate(149.82136923789267 49.7865684823272) rotate(0 -10.7992114452029 2.841897748737665)" stroke="none"><path fill="#1e1e1e" d="M -0.76,-1.15 Q -0.76,-1.15 -0.04,-2.15 0.68,-3.16 1.21,-4.56 1.73,-5.96 1.59,-7.46 1.44,-8.95 0.29,-9.88 -0.85,-10.81 -2.20,-11.53 -3.54,-12.24 -5.31,-12.85 -7.07,-13.45 -8.96,-13.69 -10.84,-13.93 -12.94,-14.04 -15.05,-14.14 -16.30,-13.89 -17.54,-13.64 -19.68,-12.07 -21.81,-10.50 -22.96,-9.04 -24.12,-7.57 -24.89,-6.09 -25.67,-4.61 -25.93,-2.98 -26.20,-1.35 -26.01,0.45 -25.82,2.26 -25.44,4.34 -25.06,6.41 -24.01,8.67 -22.95,10.93 -21.86,12.90 -20.77,14.86 -19.78,16.20 -18.79,17.55 -17.43,18.15 -16.06,18.74 -14.69,19.03 -13.31,19.32 -11.74,19.14 -10.16,18.96 -8.20,17.76 -6.24,16.56 -4.48,14.86 -2.72,13.17 -1.40,11.27 -0.07,9.36 1.21,7.51 2.50,5.66 3.28,4.08 4.06,2.49 4.33,1.35 4.61,0.20 5.16,-1.70 5.72,-3.62 5.69,-3.83 5.67,-4.04 5.71,-4.25 5.75,-4.46 5.85,-4.65 5.96,-4.83 6.12,-4.97 6.28,-5.11 6.47,-5.20 6.67,-5.28 6.88,-5.29 7.09,-5.31 7.30,-5.26 7.50,-5.21 7.68,-5.09 7.86,-4.98 7.99,-4.81 8.12,-4.64 8.20,-4.44 8.27,-4.24 8.27,-4.03 8.28,-3.82 8.22,-3.62 8.15,-3.41 8.03,-3.24 7.90,-3.07 7.73,-2.95 7.56,-2.82 7.35,-2.76 7.15,-2.70 6.94,-2.71 6.72,-2.71 6.53,-2.79 6.33,-2.86 6.16,-3.00 6.00,-3.13 5.88,-3.31 5.77,-3.49 5.72,-3.70 5.67,-3.90 5.69,-4.11 5.71,-4.33 5.79,-4.52 5.88,-4.72 6.02,-4.87 6.16,-5.03 6.35,-5.13 6.53,-5.24 6.74,-5.28 6.95,-5.32 7.16,-5.29 7.37,-5.26 7.56,-5.16 7.75,-5.06 7.90,-4.91 8.05,-4.76 8.14,-4.57 8.24,-4.38 8.24,-4.38 8.24,-4.38 9.21,-1.35 10.19,1.68 9.72,3.35 9.24,5.03 8.27,7.00 7.29,8.97 5.97,10.88 4.66,12.78 2.94,15.10 1.23,17.42 -1.10,19.50 -3.43,21.59 -6.48,23.13 -9.53,24.67 -12.04,24.79 -14.56,24.91 -16.67,24.36 -18.78,23.82 -21.00,22.46 -23.21,21.10 -24.51,19.37 -25.80,17.63 -26.99,15.44 -28.17,13.25 -29.42,10.35 -30.66,7.44 -31.06,5.06 -31.47,2.67 -31.59,0.14 -31.72,-2.38 -31.18,-4.82 -30.65,-7.26 -29.54,-9.21 -28.43,-11.16 -26.68,-13.14 -24.94,-15.12 -21.79,-17.05 -18.65,-18.98 -16.70,-19.27 -14.76,-19.56 -12.42,-19.40 -10.08,-19.25 -7.66,-18.87 -5.25,-18.48 -3.05,-17.63 -0.86,-16.78 0.96,-15.60 2.78,-14.43 4.47,-12.44 6.17,-10.46 6.48,-8.84 6.79,-7.22 6.60,-5.89 6.42,-4.57 5.86,-3.17 5.30,-1.77 4.26,-0.61 3.23,0.54 2.00,0.85 0.76,1.15 0.62,1.22 0.47,1.30 0.30,1.34 0.14,1.37 -0.02,1.37 -0.18,1.37 -0.35,1.33 -0.51,1.28 -0.65,1.20 -0.80,1.12 -0.92,1.01 -1.05,0.90 -1.14,0.76 -1.23,0.62 -1.29,0.46 -1.35,0.31 -1.36,0.14 -1.38,-0.02 -1.36,-0.18 -1.34,-0.35 -1.27,-0.50 -1.21,-0.66 -1.12,-0.80 -1.02,-0.93 -0.89,-1.04 -0.76,-1.15 -0.76,-1.15 L -0.76,-1.15 Z"/></g><g transform="translate(164.59923753132853 39.55573658687166) rotate(0 5.68379549747533 17.051386492425934)" stroke="none"><path fill="#1e1e1e" d="M 1.46,0.48 Q 1.46,0.48 1.58,1.61 1.71,2.74 1.36,5.28 1.02,7.81 0.88,10.16 0.74,12.50 0.68,14.79 0.62,17.08 0.59,18.73 0.57,20.39 0.52,20.72 0.46,21.05 0.33,21.36 0.20,21.67 0.00,21.94 -0.19,22.21 -0.45,22.43 -0.71,22.64 -1.01,22.79 -1.32,22.94 -1.65,23.00 -1.98,23.07 -2.32,23.06 -2.65,23.05 -2.98,22.96 -3.30,22.86 -3.59,22.70 -3.89,22.53 -4.13,22.30 -4.37,22.07 -4.56,21.78 -4.74,21.50 -4.85,21.18 -4.95,20.86 -4.98,20.52 -5.01,20.19 -4.28,18.93 -3.55,17.67 -2.75,15.70 -1.96,13.72 -1.16,12.02 -0.36,10.33 0.69,8.53 1.75,6.73 2.93,5.21 4.10,3.68 4.91,2.65 5.73,1.62 8.40,2.34 11.07,3.05 11.33,4.69 11.59,6.32 11.71,8.44 11.82,10.56 12.19,13.24 12.56,15.93 13.03,18.70 13.49,21.48 13.73,24.11 13.96,26.74 14.34,28.62 14.73,30.50 14.77,31.68 14.82,32.86 14.83,33.02 14.84,33.17 14.82,33.33 14.79,33.49 14.73,33.63 14.67,33.78 14.57,33.90 14.47,34.03 14.35,34.13 14.23,34.23 14.09,34.30 13.94,34.36 13.79,34.40 13.63,34.43 13.47,34.42 13.32,34.41 13.16,34.37 13.01,34.33 12.87,34.25 12.74,34.17 12.62,34.06 12.51,33.95 12.43,33.81 12.34,33.68 12.29,33.53 12.24,33.38 12.49,32.72 12.74,32.07 12.93,31.97 13.11,31.87 13.32,31.84 13.53,31.80 13.74,31.84 13.95,31.87 14.14,31.98 14.33,32.08 14.47,32.23 14.62,32.39 14.71,32.58 14.80,32.77 14.82,32.98 14.84,33.19 14.79,33.40 14.75,33.61 14.64,33.79 14.53,33.97 14.36,34.11 14.20,34.25 14.00,34.32 13.81,34.40 13.59,34.41 13.38,34.42 13.18,34.37 12.97,34.31 12.80,34.19 12.62,34.07 12.49,33.90 12.37,33.73 12.30,33.53 12.23,33.32 12.23,33.11 12.23,32.90 12.30,32.70 12.37,32.50 12.50,32.33 12.63,32.16 12.81,32.04 12.98,31.92 13.19,31.87 13.39,31.81 13.60,31.82 13.82,31.84 14.01,31.92 14.21,32.00 14.37,32.13 14.53,32.27 14.64,32.45 14.75,32.64 14.80,32.84 14.84,33.05 14.82,33.26 14.79,33.47 14.70,33.67 14.61,33.86 14.71,33.36 14.82,32.86 14.83,33.02 14.84,33.17 14.82,33.33 14.79,33.49 14.73,33.63 14.67,33.78 14.57,33.90 14.47,34.03 14.35,34.13 14.23,34.23 14.09,34.30 13.94,34.36 13.79,34.40 13.63,34.43 13.47,34.42 13.32,34.41 13.16,34.37 13.01,34.33 12.88,34.25 12.74,34.17 12.62,34.06 12.51,33.95 12.43,33.81 12.34,33.68 12.29,33.53 12.24,33.38 10.64,32.51 9.05,31.65 8.60,29.43 8.16,27.22 7.98,24.83 7.80,22.45 7.31,19.56 6.81,16.68 6.44,13.76 6.08,10.83 6.00,8.96 5.93,7.10 5.75,5.52 5.57,3.94 7.09,5.56 8.62,7.19 7.64,8.41 6.67,9.63 5.74,11.22 4.82,12.81 4.02,14.46 3.21,16.12 1.89,18.25 0.57,20.39 0.52,20.72 0.46,21.05 0.33,21.36 0.20,21.67 0.00,21.94 -0.19,22.21 -0.45,22.43 -0.71,22.64 -1.01,22.79 -1.32,22.94 -1.65,23.00 -1.98,23.07 -2.31,23.06 -2.65,23.05 -2.98,22.96 -3.30,22.86 -3.59,22.70 -3.89,22.53 -4.13,22.30 -4.37,22.07 -4.56,21.78 -4.74,21.50 -4.85,21.18 -4.95,20.86 -4.98,20.52 -5.01,20.19 -4.96,18.53 -4.92,16.88 -4.81,14.47 -4.70,12.06 -4.44,9.49 -4.19,6.92 -3.60,4.04 -3.02,1.17 -2.24,0.34 -1.46,-0.48 -1.38,-0.65 -1.30,-0.82 -1.18,-0.96 -1.06,-1.11 -0.91,-1.22 -0.77,-1.33 -0.60,-1.40 -0.42,-1.48 -0.24,-1.51 -0.06,-1.54 0.12,-1.52 0.30,-1.51 0.48,-1.45 0.66,-1.39 0.81,-1.29 0.97,-1.19 1.10,-1.06 1.23,-0.92 1.32,-0.76 1.41,-0.60 1.46,-0.42 1.52,-0.24 1.52,-0.06 1.53,0.12 1.49,0.30 1.46,0.48 1.46,0.48 L 1.46,0.48 Z"/></g><g transform="translate(206.65932421264597 49.7865684823272) rotate(0 9.094072795960528 11.36759099495066)" stroke="none"><path fill="#1e1e1e" d="M 2.30,0 Q 2.30,0 2.49,1.92 2.68,3.85 3.60,5.84 4.52,7.83 6.25,11.77 7.98,15.72 9.39,19.06 10.79,22.40 11.73,24.83 12.66,27.26 13.37,28.61 14.08,29.96 14.17,30.29 14.25,30.62 14.25,30.97 14.25,31.31 14.17,31.64 14.09,31.97 13.93,32.27 13.77,32.57 13.55,32.83 13.32,33.09 13.04,33.28 12.76,33.47 12.44,33.60 12.13,33.72 11.79,33.76 11.45,33.80 11.11,33.76 10.77,33.72 10.45,33.60 10.13,33.48 9.85,33.29 9.57,33.10 9.34,32.84 9.12,32.59 8.96,32.28 8.80,31.98 9.98,29.49 11.17,27.00 11.95,24.38 12.73,21.77 13.45,18.04 14.17,14.31 14.82,10.41 15.47,6.50 15.73,2.67 16.00,-1.16 16.12,-3.47 16.24,-5.78 18.11,-7.49 19.98,-9.21 20.01,-9.37 20.04,-9.52 20.10,-9.67 20.16,-9.81 20.26,-9.94 20.36,-10.06 20.48,-10.16 20.60,-10.26 20.75,-10.33 20.89,-10.39 21.05,-10.42 21.20,-10.45 21.36,-10.45 21.52,-10.44 21.67,-10.39 21.82,-10.35 21.96,-10.27 22.10,-10.19 22.21,-10.08 22.32,-9.96 22.40,-9.83 22.49,-9.69 22.54,-9.54 22.58,-9.39 22.60,-9.24 22.61,-9.08 22.27,-9.68 21.93,-10.29 22.10,-10.16 22.27,-10.03 22.38,-9.85 22.50,-9.67 22.55,-9.46 22.60,-9.26 22.59,-9.05 22.57,-8.84 22.49,-8.64 22.41,-8.44 22.26,-8.28 22.12,-8.13 21.94,-8.02 21.76,-7.91 21.55,-7.87 21.34,-7.83 21.13,-7.86 20.92,-7.89 20.73,-7.98 20.54,-8.07 20.38,-8.22 20.23,-8.37 20.14,-8.56 20.04,-8.75 20.01,-8.96 19.98,-9.17 20.02,-9.38 20.06,-9.59 20.16,-9.78 20.27,-9.96 20.42,-10.10 20.58,-10.25 20.78,-10.33 20.97,-10.42 21.18,-10.44 21.39,-10.45 21.60,-10.40 21.81,-10.35 21.99,-10.24 22.17,-10.13 22.30,-9.96 22.43,-9.80 22.51,-9.60 22.58,-9.40 22.59,-9.19 22.60,-8.97 22.54,-8.77 22.48,-8.57 22.35,-8.39 22.23,-8.22 22.06,-8.10 21.89,-7.97 21.68,-7.91 21.48,-7.84 21.27,-7.85 21.05,-7.85 20.52,-8.53 19.98,-9.21 20.01,-9.37 20.04,-9.52 20.10,-9.67 20.16,-9.81 20.26,-9.94 20.36,-10.06 20.48,-10.16 20.60,-10.26 20.75,-10.33 20.89,-10.39 21.05,-10.42 21.20,-10.45 21.36,-10.45 21.52,-10.44 21.67,-10.39 21.82,-10.35 21.96,-10.27 22.09,-10.19 22.21,-10.08 22.32,-9.96 22.40,-9.83 22.49,-9.70 22.54,-9.54 22.58,-9.39 22.60,-9.24 22.61,-9.08 22.33,-7.28 22.05,-5.48 21.93,-3.11 21.82,-0.75 21.52,3.35 21.22,7.45 20.56,11.45 19.90,15.45 19.06,19.56 18.23,23.66 16.15,26.81 14.08,29.96 14.17,30.29 14.25,30.62 14.25,30.96 14.25,31.31 14.17,31.64 14.09,31.97 13.93,32.27 13.77,32.57 13.55,32.83 13.32,33.09 13.04,33.28 12.76,33.47 12.44,33.60 12.13,33.72 11.79,33.76 11.45,33.80 11.11,33.76 10.77,33.72 10.45,33.60 10.13,33.48 9.85,33.29 9.57,33.10 9.34,32.84 9.12,32.59 8.96,32.28 8.80,31.98 8.08,30.64 7.35,29.30 6.46,26.94 5.56,24.58 4.19,21.26 2.82,17.95 1.11,13.91 -0.60,9.87 -1.64,6.93 -2.68,3.99 -2.49,1.99 -2.30,0 -2.26,-0.27 -2.23,-0.55 -2.13,-0.80 -2.03,-1.06 -1.87,-1.29 -1.72,-1.52 -1.51,-1.70 -1.30,-1.89 -1.06,-2.02 -0.81,-2.15 -0.54,-2.21 -0.27,-2.28 0.00,-2.28 0.27,-2.28 0.54,-2.21 0.81,-2.15 1.06,-2.02 1.30,-1.89 1.51,-1.70 1.72,-1.52 1.87,-1.29 2.03,-1.06 2.13,-0.80 2.23,-0.55 2.26,-0.27 2.30,0.00 2.30,0.00 L 2.30,0 Z"/></g><g transform="translate(265.77079738638895 56.607123079297594) rotate(0 -6.252175047222636 3.4102772984851697)" stroke="none"><path fill="#1e1e1e" d="M -2.07,0 Q -2.07,0 -2.21,-1.58 -2.36,-3.16 -3.58,-4.93 -4.80,-6.70 -6.60,-6.83 -8.41,-6.97 -10.71,-6.82 -13.01,-6.66 -15.36,-5.70 -17.71,-4.73 -20.46,-2.53 -23.22,-0.32 -24.52,2.27 -25.83,4.87 -26.41,7.09 -26.99,9.31 -26.91,10.43 -26.83,11.55 -25.54,11.81 -24.24,12.07 -22.19,12.01 -20.14,11.95 -16.70,9.55 -13.26,7.14 -10.45,4.27 -7.64,1.40 -5.82,-1.03 -3.99,-3.47 -3.34,-5.25 -2.69,-7.03 -2.34,-8.25 -1.99,-9.46 -1.83,-9.76 -1.66,-10.06 -1.44,-10.31 -1.21,-10.56 -0.93,-10.75 -0.65,-10.93 -0.33,-11.05 -0.01,-11.16 0.32,-11.20 0.65,-11.24 0.99,-11.19 1.32,-11.14 1.64,-11.02 1.95,-10.89 2.23,-10.70 2.50,-10.50 2.72,-10.25 2.94,-9.99 3.10,-9.69 3.25,-9.39 3.33,-9.06 3.40,-8.73 3.40,-8.39 3.39,-8.05 3.31,-7.72 3.22,-7.40 1.07,-6.46 -1.06,-5.51 -1.86,-4.50 -2.65,-3.48 -3.28,-1.44 -3.91,0.58 -3.90,3.16 -3.90,5.73 -3.23,7.62 -2.56,9.51 0.53,10.70 3.63,11.89 7.60,12.37 11.57,12.85 13.47,13.13 15.38,13.40 15.59,13.44 15.80,13.48 15.99,13.58 16.17,13.69 16.31,13.84 16.46,14.00 16.54,14.19 16.63,14.39 16.65,14.60 16.66,14.81 16.61,15.02 16.56,15.23 16.45,15.41 16.34,15.58 16.17,15.72 16.01,15.85 15.81,15.93 15.61,16.00 15.40,16.01 15.19,16.02 14.98,15.96 14.78,15.89 14.61,15.77 14.43,15.65 14.31,15.48 14.18,15.30 14.12,15.10 14.05,14.90 14.06,14.69 14.06,14.47 14.14,14.27 14.21,14.07 14.34,13.91 14.47,13.74 14.65,13.63 14.83,13.51 15.03,13.46 15.24,13.41 15.45,13.42 15.66,13.44 15.86,13.52 16.06,13.60 16.21,13.74 16.37,13.89 16.48,14.07 16.59,14.25 16.63,14.46 16.67,14.67 16.64,14.88 16.61,15.09 16.52,15.28 16.43,15.47 16.28,15.62 16.13,15.78 15.94,15.87 15.75,15.97 15.54,16.00 15.33,16.03 15.33,16.03 15.33,16.03 13.41,16.22 11.49,16.42 6.45,16.71 1.42,17.00 -2.81,14.68 -7.05,12.35 -8.28,9.04 -9.50,5.73 -9.34,2.22 -9.18,-1.27 -7.90,-4.32 -6.63,-7.37 -4.31,-8.42 -1.99,-9.46 -1.83,-9.76 -1.66,-10.06 -1.44,-10.31 -1.21,-10.56 -0.93,-10.75 -0.65,-10.93 -0.33,-11.05 -0.01,-11.16 0.32,-11.20 0.65,-11.24 0.99,-11.19 1.32,-11.14 1.64,-11.02 1.95,-10.89 2.23,-10.70 2.50,-10.50 2.72,-10.25 2.94,-9.99 3.10,-9.69 3.25,-9.39 3.33,-9.06 3.40,-8.73 3.40,-8.39 3.39,-8.05 3.31,-7.72 3.22,-7.40 2.87,-6.18 2.52,-4.97 1.51,-2.57 0.50,-0.17 -1.56,2.60 -3.63,5.38 -6.92,8.63 -10.21,11.89 -14.97,14.67 -19.72,17.45 -23.11,17.29 -26.49,17.14 -28.77,15.64 -31.05,14.14 -31.68,11.11 -32.31,8.08 -31.48,5.15 -30.65,2.23 -28.64,-1.12 -26.63,-4.48 -23.12,-7.07 -19.61,-9.66 -16.45,-10.74 -13.29,-11.83 -10.32,-11.88 -7.35,-11.94 -4.44,-11.04 -1.53,-10.13 -0.34,-8.57 0.85,-7.02 1.61,-5.19 2.36,-3.37 2.21,-1.68 2.07,0 2.04,0.24 2.01,0.49 1.92,0.72 1.83,0.96 1.69,1.16 1.55,1.37 1.36,1.53 1.17,1.70 0.95,1.82 0.73,1.93 0.49,1.99 0.24,2.05 -0.00,2.05 -0.24,2.05 -0.49,1.99 -0.73,1.93 -0.95,1.82 -1.17,1.70 -1.36,1.53 -1.55,1.37 -1.69,1.16 -1.83,0.96 -1.92,0.72 -2.01,0.49 -2.04,0.24 -2.07,-0.00 -2.07,-0.00 L -2.07,0 Z"/></g><g transform="translate(324.8822705601324 50.923327581822264) rotate(0 -21.03004334065872 17.619766042173495)" stroke="none"><path fill="#1e1e1e" d="M -1.97,-0.43 Q -1.97,-0.43 -1.42,-3.40 -0.88,-6.37 -0.36,-9.55 0.15,-12.74 0.39,-14.69 0.62,-16.63 0.38,-20.19 0.14,-23.75 -1.53,-27.57 -3.21,-31.39 -5.05,-33.46 -6.89,-35.53 -7.83,-31.56 -8.77,-27.59 -9.04,-22.63 -9.31,-17.67 -8.77,-12.09 -8.24,-6.52 -6.41,1.64 -4.57,9.80 -3.13,16.96 -1.68,24.13 -0.73,30.50 0.20,36.88 0.62,42.30 1.04,47.72 -0.15,52.42 -1.35,57.12 -5.04,61.70 -8.74,66.28 -13.46,69.27 -18.18,72.26 -22.88,74.16 -27.58,76.05 -31.70,76.89 -35.81,77.73 -39.07,77.59 -42.33,77.45 -44.23,75.33 -46.13,73.21 -45.76,70.26 -45.38,67.30 -41.60,62.64 -37.81,57.99 -33.12,53.69 -28.42,49.40 -26.29,47.78 -24.16,46.16 -23.99,46.04 -23.82,45.91 -23.61,45.85 -23.41,45.79 -23.20,45.80 -22.98,45.80 -22.78,45.88 -22.59,45.95 -22.42,46.08 -22.25,46.22 -22.14,46.40 -22.03,46.58 -21.98,46.78 -21.93,46.99 -21.94,47.20 -21.96,47.41 -22.05,47.61 -22.13,47.80 -22.27,47.96 -22.41,48.12 -22.60,48.22 -22.79,48.33 -22.99,48.37 -23.20,48.41 -23.41,48.38 -23.62,48.35 -23.81,48.25 -24.00,48.16 -24.15,48.01 -24.30,47.86 -24.40,47.67 -24.49,47.47 -24.52,47.26 -24.55,47.05 -24.51,46.84 -24.47,46.64 -24.36,46.45 -24.26,46.27 -24.10,46.13 -23.94,45.98 -23.74,45.90 -23.55,45.82 -23.34,45.80 -23.12,45.78 -22.92,45.84 -22.71,45.89 -22.53,46.00 -22.35,46.12 -22.22,46.28 -22.09,46.45 -22.02,46.65 -21.94,46.85 -21.94,47.06 -21.93,47.27 -22.00,47.48 -22.06,47.68 -22.18,47.85 -22.31,48.02 -22.31,48.02 -22.31,48.02 -23.94,50.14 -25.57,52.27 -29.71,56.77 -33.86,61.27 -37.05,65.01 -40.23,68.75 -40.54,70.68 -40.85,72.60 -38.86,72.45 -36.87,72.31 -33.25,71.62 -29.63,70.92 -25.37,69.20 -21.11,67.49 -17.03,65.05 -12.96,62.62 -9.80,59.04 -6.65,55.46 -5.57,51.75 -4.49,48.03 -4.87,42.86 -5.25,37.69 -6.19,31.46 -7.12,25.23 -8.56,18.12 -9.99,11.00 -11.87,2.49 -13.75,-6.02 -14.26,-12.01 -14.76,-17.99 -14.40,-23.32 -14.04,-28.65 -13.14,-32.68 -12.24,-36.72 -11.11,-38.45 -9.98,-40.18 -6.48,-39.62 -2.98,-39.06 -0.74,-36.23 1.49,-33.39 3.27,-28.76 5.04,-24.12 5.23,-20.08 5.43,-16.04 5.15,-13.95 4.87,-11.86 4.18,-8.62 3.50,-5.39 2.73,-2.47 1.97,0.43 1.89,0.66 1.81,0.89 1.67,1.10 1.54,1.30 1.36,1.47 1.18,1.63 0.97,1.75 0.75,1.87 0.52,1.93 0.28,1.99 0.04,2.00 -0.19,2.01 -0.43,1.95 -0.67,1.90 -0.89,1.79 -1.10,1.68 -1.29,1.53 -1.48,1.37 -1.62,1.17 -1.76,0.97 -1.85,0.75 -1.95,0.52 -1.98,0.28 -2.02,0.04 -1.99,-0.19 -1.97,-0.43 -1.97,-0.43 L -1.97,-0.43 Z"/></g><g transform="translate(341.9336570525584 71.3849913727334) rotate(0 6.252175047222863 -7.957313696465434)" stroke="none"><path fill="#1e1e1e" d="M -1.16,-1.45 Q -1.16,-1.45 0.37,-2.87 1.91,-4.29 3.46,-6.03 5.00,-7.78 6.26,-9.74 7.51,-11.70 7.95,-13.21 8.39,-14.73 6.69,-15.84 5.00,-16.96 3.73,-17.28 2.46,-17.60 0.41,-16.20 -1.64,-14.80 -3.50,-13.02 -5.37,-11.25 -6.64,-8.79 -7.92,-6.34 -8.11,-3.76 -8.31,-1.19 -6.67,-0.44 -5.02,0.29 -2.56,-1.08 -0.09,-2.46 3.60,-5.75 7.30,-9.04 9.58,-11.43 11.86,-13.82 12.70,-15.29 13.53,-16.75 13.65,-17.51 13.77,-18.26 13.93,-18.49 14.10,-18.71 14.32,-18.89 14.53,-19.06 14.79,-19.18 15.04,-19.30 15.31,-19.36 15.58,-19.41 15.86,-19.40 16.14,-19.39 16.41,-19.31 16.68,-19.23 16.92,-19.09 17.16,-18.95 17.36,-18.76 17.56,-18.57 17.71,-18.33 17.86,-18.10 17.95,-17.83 18.04,-17.57 18.06,-17.29 18.08,-17.01 18.04,-16.74 17.99,-16.46 17.88,-16.20 17.77,-15.95 16.35,-14.40 14.92,-12.85 13.91,-11.17 12.89,-9.48 12.56,-7.43 12.24,-5.38 12.36,-3.77 12.49,-2.15 13.20,-1.30 13.91,-0.45 15.26,-0.15 16.60,0.13 19.76,-0.78 22.92,-1.70 23.13,-1.74 23.34,-1.79 23.55,-1.77 23.76,-1.75 23.96,-1.66 24.15,-1.58 24.30,-1.43 24.46,-1.29 24.56,-1.10 24.66,-0.91 24.70,-0.71 24.74,-0.50 24.71,-0.29 24.67,-0.08 24.58,0.10 24.48,0.29 24.33,0.44 24.17,0.59 23.98,0.68 23.79,0.77 23.58,0.80 23.37,0.82 23.16,0.78 22.95,0.73 22.77,0.63 22.59,0.52 22.45,0.36 22.31,0.20 22.23,0.00 22.14,-0.19 22.13,-0.40 22.12,-0.61 22.17,-0.81 22.23,-1.02 22.34,-1.20 22.46,-1.37 22.63,-1.50 22.80,-1.64 23.00,-1.71 23.20,-1.78 23.41,-1.78 23.62,-1.78 23.82,-1.71 24.03,-1.65 24.20,-1.52 24.37,-1.40 24.49,-1.22 24.61,-1.05 24.67,-0.84 24.73,-0.64 24.72,-0.43 24.71,-0.21 24.63,-0.02 24.56,0.17 24.42,0.34 24.29,0.50 24.10,0.61 23.92,0.72 23.92,0.72 23.92,0.72 19.92,2.75 15.91,4.78 13.12,3.80 10.32,2.81 8.98,0.64 7.64,-1.51 7.54,-3.93 7.44,-6.34 8.12,-9.14 8.81,-11.95 10.18,-14.01 11.55,-16.06 12.66,-17.16 13.77,-18.26 13.93,-18.49 14.10,-18.71 14.32,-18.88 14.53,-19.06 14.79,-19.18 15.04,-19.30 15.31,-19.36 15.58,-19.41 15.86,-19.40 16.14,-19.39 16.41,-19.31 16.68,-19.23 16.92,-19.09 17.16,-18.95 17.36,-18.76 17.56,-18.57 17.71,-18.33 17.86,-18.10 17.95,-17.83 18.04,-17.57 18.06,-17.29 18.08,-17.01 18.04,-16.74 17.99,-16.46 17.88,-16.21 17.77,-15.95 17.70,-15.25 17.63,-14.54 16.49,-12.58 15.34,-10.61 12.96,-8.01 10.58,-5.41 6.39,-1.57 2.20,2.26 -1.60,3.83 -5.40,5.40 -8.11,4.61 -10.82,3.82 -12.12,1.27 -13.43,-1.28 -12.95,-4.99 -12.47,-8.70 -10.63,-11.80 -8.79,-14.90 -6.39,-16.99 -4.00,-19.08 -0.65,-20.60 2.70,-22.13 4.93,-21.65 7.15,-21.17 9.33,-19.70 11.51,-18.23 12.07,-16.03 12.62,-13.82 11.90,-11.60 11.18,-9.37 9.70,-7.13 8.22,-4.89 6.42,-2.91 4.61,-0.93 2.88,0.25 1.16,1.45 0.96,1.56 0.77,1.68 0.56,1.75 0.35,1.82 0.12,1.83 -0.09,1.85 -0.31,1.81 -0.53,1.77 -0.73,1.68 -0.94,1.59 -1.12,1.46 -1.29,1.32 -1.43,1.15 -1.57,0.97 -1.67,0.77 -1.76,0.57 -1.80,0.35 -1.85,0.13 -1.84,-0.09 -1.82,-0.31 -1.76,-0.53 -1.70,-0.74 -1.58,-0.93 -1.47,-1.13 -1.31,-1.29 -1.15,-1.45 -1.16,-1.45 L -1.16,-1.45 Z"/></g><g transform="translate(378.3099482364005 55.47036397980253) rotate(0 -1.136759099495066 10.230831895455566)" stroke="none"><path fill="#1e1e1e" d="M 1.64,0.91 Q 1.64,0.91 0.15,3.93 -1.34,6.95 -2.33,8.84 -3.32,10.74 -3.64,12.00 -3.96,13.26 -4.05,14.66 -4.15,16.06 -2.50,16.72 -0.85,17.38 1.16,17.28 3.18,17.17 3.39,17.15 3.60,17.13 3.81,17.19 4.01,17.24 4.19,17.35 4.37,17.47 4.50,17.63 4.64,17.80 4.71,18.00 4.78,18.20 4.79,18.41 4.79,18.62 4.73,18.82 4.67,19.03 4.54,19.20 4.42,19.37 4.25,19.50 4.07,19.62 3.87,19.68 3.67,19.74 3.45,19.74 3.24,19.73 3.04,19.66 2.84,19.58 2.68,19.45 2.51,19.32 2.40,19.14 2.28,18.96 2.23,18.75 2.18,18.55 2.20,18.33 2.22,18.12 2.30,17.93 2.39,17.73 2.53,17.58 2.67,17.42 2.86,17.31 3.04,17.21 3.25,17.17 3.46,17.13 3.67,17.16 3.88,17.19 4.07,17.28 4.26,17.38 4.41,17.53 4.56,17.68 4.65,17.87 4.75,18.06 4.78,18.27 4.81,18.48 4.76,18.69 4.72,18.90 4.62,19.08 4.51,19.27 4.36,19.41 4.20,19.55 4.00,19.63 3.81,19.72 3.81,19.72 3.81,19.72 1.06,20.78 -1.67,21.85 -4.51,20.96 -7.35,20.08 -8.14,17.82 -8.94,15.57 -8.66,13.77 -8.39,11.96 -7.84,10.30 -7.29,8.63 -6.24,6.72 -5.19,4.81 -3.42,1.94 -1.64,-0.91 -1.51,-1.09 -1.38,-1.28 -1.20,-1.42 -1.03,-1.57 -0.83,-1.67 -0.62,-1.77 -0.40,-1.82 -0.18,-1.87 0.04,-1.87 0.27,-1.86 0.49,-1.80 0.71,-1.74 0.90,-1.63 1.10,-1.52 1.27,-1.37 1.44,-1.21 1.56,-1.02 1.68,-0.83 1.76,-0.62 1.84,-0.40 1.86,-0.18 1.88,0.04 1.85,0.26 1.81,0.49 1.73,0.70 1.64,0.91 1.64,0.91 L 1.64,0.91 Z"/></g><g transform="translate(383.9937437338758 40.692495686366726) rotate(0 -3.978656848232731 -1.705138649242599)" stroke="none"><path fill="#1e1e1e" d="M 0,2.67 Q 0,2.67 -2.35,2.72 -4.71,2.77 -5.21,0.58 -5.71,-1.59 -5.87,-1.61 -6.03,-1.63 -6.17,-1.69 -6.32,-1.74 -6.45,-1.83 -6.58,-1.92 -6.69,-2.04 -6.79,-2.16 -6.87,-2.30 -6.94,-2.44 -6.98,-2.60 -7.02,-2.75 -7.02,-2.91 -7.02,-3.07 -6.98,-3.22 -6.94,-3.37 -6.87,-3.51 -6.79,-3.65 -6.69,-3.77 -6.58,-3.89 -6.45,-3.98 -6.32,-4.07 -6.17,-4.13 -6.03,-4.18 -5.87,-4.20 -5.71,-4.22 -6.32,-3.81 -6.93,-3.41 -6.81,-3.59 -6.70,-3.77 -6.54,-3.91 -6.38,-4.04 -6.18,-4.12 -5.98,-4.19 -5.77,-4.20 -5.55,-4.21 -5.35,-4.15 -5.15,-4.09 -4.97,-3.97 -4.80,-3.85 -4.67,-3.68 -4.54,-3.51 -4.48,-3.31 -4.41,-3.10 -4.42,-2.89 -4.42,-2.68 -4.49,-2.48 -4.56,-2.28 -4.69,-2.11 -4.82,-1.94 -5.00,-1.83 -5.17,-1.71 -5.38,-1.65 -5.59,-1.60 -5.80,-1.61 -6.01,-1.63 -6.21,-1.71 -6.40,-1.79 -6.56,-1.93 -6.72,-2.07 -6.83,-2.25 -6.94,-2.44 -6.98,-2.64 -7.02,-2.85 -7.00,-3.06 -6.97,-3.27 -6.88,-3.47 -6.79,-3.66 -6.64,-3.81 -6.49,-3.96 -6.30,-4.06 -6.12,-4.16 -5.91,-4.19 -5.70,-4.22 -5.49,-4.18 -5.28,-4.15 -5.09,-4.04 -4.90,-3.94 -4.76,-3.79 -4.62,-3.63 -4.53,-3.44 -4.44,-3.24 -4.42,-3.03 -4.40,-2.82 -5.06,-2.21 -5.71,-1.59 -5.87,-1.61 -6.03,-1.63 -6.17,-1.69 -6.32,-1.74 -6.45,-1.83 -6.58,-1.92 -6.69,-2.04 -6.79,-2.16 -6.87,-2.30 -6.94,-2.44 -6.98,-2.60 -7.02,-2.75 -7.02,-2.91 -7.02,-3.07 -6.98,-3.22 -6.94,-3.37 -6.87,-3.51 -6.79,-3.65 -6.69,-3.77 -6.58,-3.89 -6.45,-3.98 -6.32,-4.07 -6.17,-4.13 -6.03,-4.18 -5.87,-4.20 -5.71,-4.22 -5.07,-3.50 -4.43,-2.77 -2.21,-2.72 0,-2.67 0.31,-2.63 0.63,-2.59 0.94,-2.47 1.24,-2.36 1.50,-2.18 1.77,-1.99 1.98,-1.75 2.19,-1.51 2.34,-1.23 2.49,-0.94 2.57,-0.63 2.65,-0.32 2.65,0.00 2.65,0.32 2.57,0.63 2.49,0.94 2.34,1.23 2.19,1.51 1.98,1.75 1.77,1.99 1.50,2.18 1.24,2.36 0.93,2.47 0.63,2.59 0.31,2.63 -0.00,2.67 -0.00,2.67 L 0,2.67 Z"/></g><g transform="translate(395.3613347288265 56.607123079297594) rotate(0 2.273518198990132 10.230831895455566)" stroke="none"><path fill="#1e1e1e" d="M 2.04,0.87 Q 2.04,0.87 1.16,3.20 0.29,5.54 -0.46,6.99 -1.22,8.43 -1.74,10.09 -2.26,11.74 -2.85,13.50 -3.43,15.27 -3.67,17.01 -3.91,18.75 -4.05,19.04 -4.19,19.33 -4.40,19.58 -4.60,19.83 -4.86,20.02 -5.12,20.21 -5.41,20.33 -5.71,20.46 -6.03,20.51 -6.34,20.56 -6.66,20.53 -6.98,20.50 -7.29,20.40 -7.59,20.30 -7.86,20.12 -8.13,19.95 -8.35,19.72 -8.58,19.49 -8.74,19.21 -8.89,18.93 -8.98,18.62 -9.07,18.31 -9.08,17.99 -9.09,17.67 -9.03,17.35 -8.96,17.04 -7.94,15.45 -6.92,13.86 -5.62,11.77 -4.32,9.68 -3.12,7.52 -1.93,5.37 -0.62,3.60 0.69,1.83 2.26,0.85 3.83,-0.13 7.21,-0.11 10.60,-0.08 10.81,-0.08 11.02,-0.07 11.22,0.00 11.42,0.07 11.58,0.20 11.75,0.34 11.86,0.52 11.97,0.70 12.02,0.91 12.07,1.11 12.06,1.32 12.04,1.54 11.95,1.73 11.87,1.92 11.72,2.08 11.58,2.24 11.39,2.34 11.21,2.44 11.00,2.48 10.79,2.52 10.58,2.49 10.37,2.46 10.18,2.37 9.99,2.27 9.84,2.12 9.69,1.97 9.60,1.78 9.51,1.59 9.48,1.37 9.45,1.16 9.49,0.96 9.54,0.75 9.64,0.56 9.75,0.38 9.91,0.24 10.07,0.10 10.26,0.01 10.46,-0.06 10.67,-0.07 10.88,-0.09 11.09,-0.04 11.29,0.01 11.47,0.12 11.65,0.24 11.78,0.40 11.91,0.57 11.98,0.77 12.06,0.97 12.06,1.18 12.06,1.40 12.00,1.60 11.94,1.80 11.81,1.97 11.69,2.14 11.51,2.27 11.34,2.39 11.14,2.45 10.93,2.51 10.93,2.51 10.93,2.51 7.93,3.84 4.92,5.16 3.88,6.59 2.85,8.02 1.58,10.31 0.32,12.59 -1.07,14.81 -2.47,17.03 -3.19,17.89 -3.91,18.75 -4.05,19.04 -4.19,19.33 -4.40,19.58 -4.60,19.82 -4.86,20.02 -5.12,20.21 -5.41,20.33 -5.71,20.46 -6.03,20.51 -6.34,20.56 -6.66,20.53 -6.98,20.50 -7.29,20.40 -7.59,20.30 -7.86,20.12 -8.13,19.95 -8.35,19.72 -8.58,19.49 -8.74,19.21 -8.89,18.93 -8.98,18.62 -9.07,18.31 -9.08,17.99 -9.09,17.67 -9.03,17.35 -8.96,17.04 -8.69,15.32 -8.42,13.59 -7.81,11.81 -7.19,10.03 -6.43,7.97 -5.67,5.90 -4.94,4.75 -4.21,3.60 -3.12,1.36 -2.04,-0.87 -1.90,-1.10 -1.77,-1.33 -1.58,-1.53 -1.40,-1.72 -1.17,-1.86 -0.94,-2.01 -0.69,-2.09 -0.44,-2.17 -0.17,-2.20 0.09,-2.22 0.35,-2.17 0.62,-2.13 0.86,-2.02 1.11,-1.92 1.33,-1.76 1.54,-1.60 1.71,-1.39 1.88,-1.18 1.99,-0.94 2.11,-0.69 2.16,-0.43 2.21,-0.17 2.20,0.09 2.19,0.36 2.11,0.61 2.04,0.87 2.04,0.87 L 2.04,0.87 Z"/></g><g transform="translate(414.6862394202426 69.11147317374326) rotate(0 18.75652514166859 -1.7051386492425706)" stroke="none"><path fill="#1e1e1e" d="M -1.63,-2.04 Q -1.63,-2.04 0.00,-3.33 1.64,-4.61 3.10,-6.58 4.57,-8.55 5.54,-10.06 6.51,-11.56 6.81,-12.59 7.11,-13.63 5.97,-12.58 4.84,-11.54 3.93,-10.18 3.03,-8.82 2.43,-6.24 1.84,-3.65 1.88,-1.15 1.91,1.34 2.73,3.25 3.54,5.16 5.40,6.27 7.27,7.38 11.26,7.86 15.26,8.33 19.14,7.97 23.02,7.61 26.60,6.90 30.18,6.19 34.01,6.07 37.83,5.96 38.04,5.94 38.26,5.92 38.46,5.97 38.67,6.02 38.85,6.14 39.03,6.25 39.16,6.41 39.30,6.58 39.37,6.78 39.45,6.98 39.46,7.19 39.46,7.40 39.40,7.60 39.34,7.81 39.22,7.98 39.10,8.15 38.93,8.28 38.75,8.41 38.55,8.47 38.35,8.53 38.14,8.53 37.92,8.53 37.72,8.45 37.52,8.38 37.36,8.25 37.19,8.12 37.07,7.94 36.96,7.76 36.91,7.56 36.85,7.35 36.87,7.14 36.88,6.93 36.97,6.73 37.05,6.54 37.19,6.38 37.33,6.22 37.51,6.11 37.70,6.01 37.91,5.96 38.11,5.92 38.32,5.95 38.54,5.98 38.73,6.07 38.92,6.16 39.07,6.31 39.22,6.46 39.32,6.65 39.41,6.84 39.44,7.05 39.47,7.26 39.44,7.47 39.40,7.68 39.29,7.86 39.19,8.05 39.03,8.19 38.88,8.33 38.68,8.42 38.49,8.51 38.49,8.51 38.49,8.51 34.96,10.29 31.43,12.08 27.48,12.96 23.53,13.84 18.92,14.16 14.32,14.49 9.11,13.49 3.91,12.49 1.03,10.13 -1.83,7.77 -2.94,4.59 -4.05,1.40 -3.92,-1.91 -3.80,-5.23 -2.64,-8.66 -1.48,-12.09 0.19,-14.13 1.86,-16.16 4.09,-17.23 6.32,-18.30 8.24,-17.96 10.16,-17.62 10.97,-16.69 11.78,-15.77 11.91,-13.88 12.04,-11.99 11.45,-10.38 10.87,-8.76 9.76,-7.09 8.66,-5.42 6.77,-3.02 4.89,-0.61 3.26,0.71 1.63,2.04 1.37,2.21 1.10,2.38 0.80,2.47 0.49,2.57 0.18,2.59 -0.13,2.62 -0.44,2.56 -0.75,2.51 -1.04,2.38 -1.33,2.26 -1.58,2.06 -1.83,1.87 -2.03,1.62 -2.23,1.38 -2.36,1.09 -2.49,0.80 -2.55,0.49 -2.61,0.18 -2.60,-0.13 -2.58,-0.44 -2.49,-0.75 -2.40,-1.05 -2.24,-1.32 -2.08,-1.59 -1.86,-1.82 -1.63,-2.04 -1.63,-2.04 L -1.63,-2.04 Z"/></g><g transform="translate(131.63322364597207 121.40239175051619) rotate(0 7.388934146717702 12.504350094445783)" stroke="none"><path fill="#1e1e1e" d="M 0.98,1.48 Q 0.98,1.48 0.20,2.22 -0.57,2.96 -0.89,4.47 -1.20,5.98 -1.40,7.86 -1.59,9.74 -1.66,12.15 -1.74,14.57 -1.44,16.73 -1.14,18.90 -0.72,20.71 -0.30,22.53 1.35,23.60 3.01,24.67 4.31,24.29 5.60,23.91 7.23,22.69 8.86,21.46 10.09,19.55 11.31,17.64 12.86,14.57 14.42,11.51 15.01,9.09 15.61,6.68 15.90,4.78 16.19,2.89 14.98,1.01 13.76,-0.86 13.73,-1.01 13.70,-1.17 13.70,-1.33 13.71,-1.48 13.75,-1.64 13.80,-1.79 13.88,-1.93 13.95,-2.06 14.06,-2.18 14.17,-2.29 14.31,-2.38 14.44,-2.46 14.59,-2.51 14.74,-2.56 14.90,-2.58 15.05,-2.59 15.21,-2.57 15.37,-2.54 15.51,-2.48 15.66,-2.42 15.79,-2.32 15.91,-2.23 16.01,-2.11 16.11,-1.99 16.18,-1.84 16.25,-1.70 15.78,-0.85 15.31,-0.00 15.10,0.00 14.89,0.02 14.68,-0.02 14.48,-0.08 14.30,-0.19 14.12,-0.31 13.99,-0.48 13.86,-0.64 13.79,-0.84 13.72,-1.04 13.71,-1.26 13.71,-1.47 13.77,-1.67 13.84,-1.87 13.96,-2.04 14.09,-2.22 14.26,-2.34 14.43,-2.46 14.64,-2.52 14.84,-2.58 15.05,-2.57 15.27,-2.57 15.46,-2.49 15.66,-2.42 15.83,-2.28 15.99,-2.15 16.11,-1.97 16.22,-1.79 16.27,-1.58 16.32,-1.37 16.30,-1.16 16.28,-0.95 16.19,-0.76 16.11,-0.56 15.96,-0.40 15.82,-0.25 15.63,-0.14 15.45,-0.04 15.24,-0.00 15.03,0.02 14.82,-0.00 14.61,-0.03 14.42,-0.12 14.23,-0.22 14.08,-0.37 13.93,-0.52 13.84,-0.71 13.75,-0.90 13.72,-1.12 13.69,-1.33 13.74,-1.53 13.78,-1.74 13.88,-1.93 13.99,-2.11 14.15,-2.25 14.31,-2.39 14.04,-1.62 13.76,-0.86 13.73,-1.01 13.70,-1.17 13.70,-1.33 13.71,-1.48 13.75,-1.64 13.80,-1.79 13.88,-1.93 13.95,-2.06 14.06,-2.18 14.17,-2.29 14.31,-2.38 14.44,-2.46 14.59,-2.51 14.74,-2.56 14.90,-2.58 15.05,-2.59 15.21,-2.57 15.37,-2.54 15.51,-2.48 15.66,-2.42 15.79,-2.32 15.91,-2.23 16.01,-2.11 16.11,-1.99 16.18,-1.84 16.25,-1.70 18.29,-1.30 20.34,-0.91 20.96,1.23 21.57,3.38 21.26,5.72 20.96,8.07 20.15,11.03 19.35,13.98 17.60,17.40 15.86,20.82 13.94,23.39 12.02,25.97 9.32,27.62 6.62,29.26 3.89,29.49 1.15,29.71 -1.09,28.47 -3.35,27.24 -4.44,25.55 -5.54,23.86 -6.00,21.68 -6.47,19.51 -6.71,16.91 -6.95,14.30 -6.75,11.65 -6.56,9.00 -6.12,6.63 -5.68,4.27 -4.51,1.96 -3.34,-0.34 -2.16,-0.91 -0.98,-1.48 -0.79,-1.57 -0.60,-1.67 -0.39,-1.72 -0.18,-1.76 0.02,-1.76 0.24,-1.76 0.45,-1.70 0.65,-1.65 0.84,-1.55 1.03,-1.44 1.19,-1.30 1.35,-1.15 1.46,-0.97 1.58,-0.80 1.66,-0.59 1.73,-0.39 1.75,-0.18 1.77,0.02 1.74,0.24 1.72,0.45 1.64,0.65 1.56,0.85 1.43,1.02 1.31,1.20 1.14,1.34 0.98,1.48 0.98,1.48 L 0.98,1.48 Z"/></g><g transform="translate(165.7359966308236 124.81266904900139) rotate(0 5.115415947727797 13.641109193940792)" stroke="none"><path fill="#1e1e1e" d="M 1.43,1.07 Q 1.43,1.07 0.76,2.57 0.09,4.07 -0.36,6.52 -0.82,8.98 -1.10,11.02 -1.37,13.06 -1.47,16.14 -1.56,19.23 -1.60,21.23 -1.64,23.23 -1.33,24.91 -1.02,26.59 -1.07,26.93 -1.12,27.27 -1.24,27.59 -1.37,27.91 -1.57,28.19 -1.78,28.47 -2.04,28.69 -2.30,28.91 -2.61,29.07 -2.92,29.22 -3.25,29.30 -3.59,29.37 -3.93,29.37 -4.28,29.36 -4.61,29.27 -4.94,29.18 -5.24,29.01 -5.54,28.85 -5.80,28.61 -6.05,28.38 -6.24,28.09 -6.43,27.81 -6.54,27.48 -6.66,27.16 -6.69,26.82 -6.73,26.47 -5.77,24.39 -4.81,22.30 -3.90,19.92 -2.98,17.54 -1.90,14.80 -0.83,12.07 0.30,9.54 1.43,7.01 2.25,5.30 3.07,3.58 3.94,2.27 4.80,0.97 4.97,0.95 5.14,0.93 5.36,0.66 5.57,0.40 5.85,0.19 6.12,-0.00 6.43,-0.14 6.75,-0.27 7.09,-0.32 7.42,-0.38 7.76,-0.35 8.11,-0.32 8.43,-0.21 8.75,-0.10 9.04,0.07 9.33,0.25 9.57,0.50 9.80,0.75 9.97,1.04 10.14,1.34 10.24,1.67 10.33,1.99 10.35,2.34 10.36,2.68 10.29,3.01 10.22,3.35 10.07,3.66 9.93,3.96 11.08,6.67 12.23,9.37 12.78,11.71 13.33,14.05 13.61,16.53 13.88,19.02 14.00,21.06 14.12,23.09 14.56,25.04 15.00,26.99 15.16,27.13 15.31,27.28 15.41,27.46 15.51,27.65 15.55,27.86 15.58,28.07 15.55,28.28 15.52,28.49 15.42,28.68 15.32,28.87 15.17,29.01 15.01,29.16 14.82,29.25 14.63,29.34 14.42,29.36 14.21,29.39 14.00,29.34 13.79,29.30 13.61,29.19 13.42,29.08 13.29,28.92 13.15,28.76 13.07,28.56 12.99,28.37 12.98,28.15 12.96,27.94 13.02,27.74 13.08,27.53 13.19,27.35 13.31,27.18 13.48,27.05 13.65,26.92 13.85,26.85 14.05,26.78 14.26,26.78 14.48,26.78 14.68,26.85 14.88,26.91 15.05,27.04 15.22,27.17 15.34,27.34 15.46,27.52 15.52,27.72 15.58,27.93 15.56,28.14 15.55,28.35 15.48,28.55 15.40,28.75 15.26,28.91 15.13,29.07 14.94,29.18 14.76,29.29 14.55,29.34 14.35,29.39 14.14,29.37 13.92,29.34 13.73,29.26 13.54,29.17 13.54,29.17 13.54,29.17 11.02,27.54 8.50,25.91 8.41,24.65 8.32,23.38 8.24,21.49 8.16,19.60 7.97,17.46 7.78,15.32 7.23,12.92 6.69,10.52 6.23,8.21 5.77,5.90 5.46,3.41 5.14,0.93 5.36,0.66 5.57,0.40 5.85,0.19 6.12,-0.00 6.43,-0.14 6.75,-0.27 7.09,-0.32 7.42,-0.38 7.76,-0.35 8.11,-0.32 8.43,-0.21 8.75,-0.10 9.04,0.07 9.33,0.25 9.57,0.50 9.80,0.75 9.97,1.04 10.14,1.34 10.24,1.67 10.33,1.99 10.35,2.34 10.36,2.68 10.29,3.01 10.22,3.35 10.07,3.66 9.93,3.96 9.06,4.98 8.20,5.99 7.42,7.67 6.64,9.36 5.56,11.76 4.47,14.16 3.40,16.88 2.33,19.59 0.65,23.09 -1.02,26.59 -1.07,26.93 -1.12,27.27 -1.24,27.59 -1.37,27.91 -1.57,28.19 -1.78,28.47 -2.04,28.69 -2.30,28.91 -2.61,29.07 -2.92,29.22 -3.25,29.30 -3.59,29.37 -3.93,29.37 -4.28,29.36 -4.61,29.27 -4.94,29.18 -5.24,29.01 -5.54,28.85 -5.80,28.61 -6.05,28.38 -6.24,28.09 -6.43,27.81 -6.54,27.48 -6.66,27.16 -6.69,26.82 -6.73,26.47 -7.00,26.10 -7.27,25.72 -7.28,24.40 -7.28,23.07 -7.20,21.03 -7.13,18.99 -6.95,15.64 -6.78,12.29 -6.42,9.95 -6.07,7.61 -5.04,4.38 -4.02,1.15 -2.72,0.04 -1.43,-1.07 -1.28,-1.23 -1.13,-1.38 -0.95,-1.50 -0.77,-1.61 -0.56,-1.68 -0.36,-1.75 -0.14,-1.77 0.07,-1.79 0.28,-1.75 0.49,-1.72 0.69,-1.63 0.89,-1.55 1.06,-1.42 1.24,-1.29 1.37,-1.12 1.51,-0.95 1.60,-0.76 1.70,-0.56 1.74,-0.35 1.78,-0.14 1.77,0.07 1.77,0.28 1.71,0.49 1.65,0.70 1.54,0.88 1.43,1.07 1.43,1.07 L 1.43,1.07 Z"/></g><g transform="translate(197.56525141668544 144.1375737404175) rotate(0 6.820554596970396 2.273518198990132)" stroke="none"><path fill="#1e1e1e" d="M -1.25,-1.88 Q -1.25,-1.88 0.62,-3.30 2.50,-4.72 3.43,-5.73 4.35,-6.75 2.95,-7.54 1.55,-8.34 -0.24,-7.58 -2.04,-6.82 -3.46,-4.53 -4.89,-2.25 -5.49,0.31 -6.09,2.88 -5.49,5.08 -4.90,7.28 -3.13,8.80 -1.37,10.32 2.46,10.91 6.31,11.51 9.97,10.73 13.63,9.94 17.65,9.23 21.66,8.51 21.87,8.47 22.08,8.43 22.29,8.46 22.50,8.48 22.69,8.58 22.88,8.67 23.04,8.82 23.19,8.97 23.28,9.16 23.38,9.35 23.41,9.56 23.44,9.77 23.40,9.98 23.36,10.19 23.26,10.37 23.15,10.56 23.00,10.70 22.84,10.84 22.64,10.93 22.45,11.01 22.24,11.03 22.03,11.05 21.82,11.00 21.61,10.95 21.43,10.84 21.25,10.72 21.12,10.56 20.99,10.39 20.91,10.20 20.84,10.00 20.83,9.78 20.82,9.57 20.88,9.37 20.94,9.16 21.07,8.99 21.19,8.82 21.36,8.69 21.53,8.57 21.74,8.50 21.94,8.44 22.15,8.45 22.36,8.45 22.56,8.52 22.76,8.59 22.93,8.73 23.10,8.86 23.21,9.04 23.33,9.22 23.38,9.42 23.43,9.63 23.42,9.84 23.40,10.05 23.32,10.25 23.24,10.44 23.09,10.60 22.95,10.76 22.77,10.87 22.58,10.97 22.59,10.97 22.59,10.97 18.70,13.21 14.82,15.45 10.04,16.48 5.27,17.50 0.04,16.20 -5.19,14.90 -7.87,11.95 -10.55,9.00 -11.19,5.30 -11.82,1.60 -10.70,-2.01 -9.58,-5.62 -6.96,-8.67 -4.33,-11.72 -1.22,-12.75 1.88,-13.77 4.42,-13.33 6.95,-12.89 8.09,-11.74 9.23,-10.60 9.43,-8.55 9.63,-6.51 8.88,-4.91 8.12,-3.30 6.73,-1.90 5.34,-0.50 3.29,0.68 1.25,1.88 1.01,2.00 0.76,2.12 0.50,2.18 0.23,2.24 -0.03,2.24 -0.30,2.23 -0.57,2.16 -0.83,2.10 -1.07,1.96 -1.31,1.83 -1.51,1.65 -1.71,1.47 -1.86,1.24 -2.01,1.01 -2.11,0.76 -2.20,0.50 -2.23,0.23 -2.26,-0.03 -2.22,-0.30 -2.18,-0.57 -2.08,-0.82 -1.98,-1.08 -1.82,-1.30 -1.66,-1.52 -1.46,-1.70 -1.25,-1.88 -1.25,-1.88 L -1.25,-1.88 Z"/></g><g transform="translate(255.53996549093335 137.3170191434471) rotate(0 -5.11541594772757 12.504350094445726)" stroke="none"><path fill="#1e1e1e" d="M -1.36,-1.36 Q -1.36,-1.36 -0.22,-2.82 0.92,-4.28 -0.96,-4.64 -2.85,-5.00 -4.39,-4.74 -5.92,-4.49 -6.92,-3.20 -7.92,-1.91 -8.10,-0.57 -8.27,0.76 -7.19,2.48 -6.10,4.21 -4.24,5.84 -2.38,7.48 -0.46,9.32 1.45,11.16 3.29,12.99 5.13,14.82 6.22,17.79 7.31,20.76 6.92,23.56 6.53,26.36 4.36,28.53 2.19,30.71 -1.20,32.23 -4.59,33.76 -7.09,34.38 -9.59,35.00 -11.41,35.26 -13.24,35.52 -13.86,35.28 -14.48,35.04 -14.83,35.05 -15.18,35.06 -15.52,34.98 -15.86,34.91 -16.18,34.75 -16.49,34.59 -16.76,34.37 -17.03,34.14 -17.23,33.86 -17.44,33.57 -17.57,33.25 -17.70,32.92 -17.75,32.57 -17.80,32.23 -17.77,31.88 -17.73,31.53 -17.62,31.20 -17.50,30.86 -17.31,30.57 -17.11,30.28 -16.86,30.04 -16.60,29.80 -16.29,29.63 -15.98,29.46 -15.65,29.37 -15.31,29.28 -13.66,28.27 -12.02,27.25 -11.85,27.12 -11.68,27.00 -11.48,26.93 -11.28,26.86 -11.06,26.86 -10.85,26.86 -10.65,26.93 -10.45,27.00 -10.28,27.13 -10.11,27.26 -9.99,27.44 -9.87,27.61 -9.82,27.82 -9.76,28.02 -9.77,28.24 -9.79,28.45 -9.87,28.64 -9.95,28.84 -10.08,29.00 -10.22,29.16 -10.41,29.27 -10.59,29.38 -10.80,29.43 -11.00,29.47 -11.21,29.45 -11.43,29.42 -11.62,29.33 -11.81,29.24 -11.96,29.10 -12.12,28.95 -12.22,28.76 -12.32,28.57 -12.35,28.36 -12.38,28.15 -12.35,27.94 -12.31,27.73 -12.21,27.55 -12.11,27.36 -11.96,27.21 -11.80,27.07 -11.61,26.98 -11.41,26.89 -11.20,26.87 -10.99,26.85 -10.78,26.89 -10.58,26.94 -10.40,27.05 -10.21,27.16 -10.08,27.32 -9.94,27.49 -9.86,27.69 -9.78,27.88 -9.77,28.10 -9.76,28.31 -9.82,28.51 -9.88,28.72 -10.00,28.89 -10.12,29.07 -10.12,29.07 -10.12,29.07 -12.30,32.06 -14.48,35.04 -14.83,35.05 -15.18,35.06 -15.52,34.98 -15.86,34.91 -16.18,34.75 -16.49,34.59 -16.76,34.37 -17.03,34.14 -17.23,33.86 -17.44,33.57 -17.57,33.25 -17.70,32.92 -17.75,32.57 -17.80,32.23 -17.77,31.88 -17.73,31.53 -17.62,31.20 -17.50,30.86 -17.31,30.57 -17.11,30.28 -16.86,30.04 -16.60,29.80 -16.29,29.63 -15.98,29.46 -15.65,29.37 -15.31,29.28 -14.55,29.50 -13.79,29.71 -12.38,29.51 -10.96,29.30 -8.92,28.82 -6.87,28.35 -4.18,27.29 -1.48,26.23 -0.11,25.40 1.26,24.58 1.54,23.39 1.81,22.21 1.38,20.41 0.96,18.61 -0.76,16.92 -2.49,15.23 -4.36,13.40 -6.22,11.58 -8.65,9.19 -11.07,6.80 -12.37,3.67 -13.68,0.55 -13.33,-1.83 -12.99,-4.21 -11.87,-6.03 -10.76,-7.85 -8.76,-8.87 -6.76,-9.88 -4.58,-10.12 -2.40,-10.35 0.04,-10.04 2.49,-9.72 3.88,-8.74 5.26,-7.77 5.54,-5.58 5.82,-3.40 5.06,-2.17 4.30,-0.94 2.83,0.21 1.36,1.36 1.18,1.51 1.00,1.65 0.78,1.75 0.57,1.84 0.34,1.88 0.11,1.93 -0.11,1.91 -0.34,1.90 -0.57,1.83 -0.79,1.76 -0.99,1.64 -1.19,1.52 -1.35,1.35 -1.52,1.19 -1.64,0.99 -1.76,0.79 -1.83,0.57 -1.90,0.34 -1.91,0.11 -1.93,-0.11 -1.88,-0.34 -1.84,-0.57 -1.75,-0.78 -1.65,-1.00 -1.51,-1.18 -1.36,-1.36 -1.36,-1.36 L -1.36,-1.36 Z"/></g><g transform="translate(271.4545928838643 155.50516473536817) rotate(0 10.230831895455594 -1.705138649242599)" stroke="none"><path fill="#1e1e1e" d="M 1.70,-1.13 Q 1.70,-1.13 2.41,-0.30 3.11,0.52 4.27,-0.35 5.42,-1.22 6.85,-2.39 8.29,-3.56 9.06,-4.82 9.82,-6.07 10.50,-7.08 11.18,-8.10 9.73,-8.55 8.28,-9.00 6.54,-8.84 4.81,-8.67 3.13,-7.49 1.46,-6.30 -0.17,-4.68 -1.81,-3.05 -2.28,-1.28 -2.76,0.48 -2.23,1.90 -1.71,3.31 -0.43,3.92 0.84,4.53 3.17,4.21 5.51,3.89 8.63,2.64 11.76,1.39 14.65,-0.54 17.54,-2.48 21.19,-5.42 24.84,-8.35 25.01,-8.49 25.17,-8.62 25.37,-8.69 25.57,-8.76 25.79,-8.77 26.00,-8.77 26.20,-8.71 26.40,-8.65 26.58,-8.52 26.75,-8.40 26.87,-8.23 26.99,-8.05 27.06,-7.85 27.12,-7.65 27.11,-7.43 27.10,-7.22 27.03,-7.02 26.96,-6.82 26.82,-6.66 26.69,-6.49 26.51,-6.38 26.33,-6.26 26.12,-6.21 25.92,-6.16 25.71,-6.18 25.49,-6.20 25.30,-6.28 25.10,-6.37 24.95,-6.51 24.79,-6.65 24.69,-6.84 24.58,-7.03 24.54,-7.23 24.50,-7.44 24.53,-7.65 24.56,-7.86 24.66,-8.05 24.75,-8.24 24.90,-8.39 25.05,-8.54 25.25,-8.64 25.44,-8.73 25.65,-8.76 25.86,-8.79 26.07,-8.75 26.27,-8.70 26.46,-8.60 26.64,-8.49 26.78,-8.33 26.93,-8.18 27.01,-7.98 27.09,-7.78 27.11,-7.57 27.12,-7.36 27.07,-7.16 27.02,-6.95 26.91,-6.77 26.79,-6.59 26.79,-6.59 26.79,-6.59 23.81,-2.20 20.83,2.18 17.39,4.66 13.96,7.13 9.87,8.57 5.79,10.01 1.94,9.87 -1.91,9.74 -4.43,7.70 -6.96,5.67 -7.69,2.41 -8.42,-0.85 -7.24,-3.94 -6.05,-7.04 -3.78,-9.17 -1.51,-11.30 1.38,-12.80 4.28,-14.30 7.16,-14.30 10.04,-14.30 12.21,-13.21 14.39,-12.12 15.23,-9.82 16.08,-7.52 15.21,-5.26 14.34,-3.00 13.01,-1.17 11.67,0.65 9.70,2.12 7.72,3.59 5.30,4.34 2.87,5.09 1.18,4.24 -0.50,3.39 -1.10,2.26 -1.70,1.13 -1.81,0.91 -1.92,0.69 -1.98,0.45 -2.04,0.21 -2.03,-0.03 -2.03,-0.28 -1.96,-0.51 -1.90,-0.75 -1.78,-0.97 -1.66,-1.19 -1.50,-1.37 -1.33,-1.55 -1.12,-1.69 -0.92,-1.83 -0.69,-1.91 -0.45,-1.99 -0.21,-2.02 0.03,-2.05 0.27,-2.01 0.52,-1.98 0.75,-1.89 0.98,-1.80 1.18,-1.65 1.38,-1.51 1.54,-1.32 1.70,-1.13 1.70,-1.13 L 1.70,-1.13 Z"/></g><g transform="translate(271.4545928838643 132.76998274546685) rotate(0 4.547036397980264 -6.820554596970339)" stroke="none"><path fill="#1e1e1e" d="M -2.62,-1.12 Q -2.62,-1.12 -1.64,-3.43 -0.65,-5.74 0.98,-7.70 2.61,-9.66 5.45,-11.57 8.28,-13.49 8.45,-13.62 8.62,-13.74 8.82,-13.81 9.02,-13.88 9.23,-13.88 9.45,-13.88 9.65,-13.82 9.85,-13.75 10.02,-13.62 10.19,-13.49 10.31,-13.32 10.43,-13.14 10.48,-12.94 10.54,-12.73 10.53,-12.52 10.52,-12.31 10.44,-12.11 10.36,-11.91 10.23,-11.75 10.09,-11.59 9.91,-11.48 9.73,-11.37 9.52,-11.32 9.31,-11.27 9.10,-11.30 8.89,-11.32 8.70,-11.41 8.50,-11.50 8.35,-11.64 8.19,-11.79 8.09,-11.98 7.99,-12.16 7.96,-12.37 7.92,-12.58 7.96,-12.79 7.99,-13.00 8.09,-13.19 8.19,-13.38 8.34,-13.52 8.50,-13.67 8.69,-13.76 8.88,-13.85 9.09,-13.87 9.30,-13.90 9.51,-13.85 9.72,-13.81 9.90,-13.70 10.08,-13.59 10.22,-13.43 10.36,-13.27 10.44,-13.07 10.52,-12.87 10.53,-12.66 10.54,-12.45 10.49,-12.24 10.43,-12.04 10.31,-11.86 10.19,-11.69 10.19,-11.69 10.19,-11.69 8.54,-8.84 6.89,-5.99 5.73,-4.70 4.57,-3.40 3.60,-1.14 2.62,1.12 2.45,1.42 2.28,1.72 2.04,1.97 1.80,2.21 1.51,2.40 1.22,2.58 0.89,2.69 0.56,2.80 0.22,2.83 -0.12,2.85 -0.46,2.80 -0.80,2.74 -1.11,2.61 -1.43,2.47 -1.71,2.26 -1.98,2.05 -2.20,1.79 -2.42,1.52 -2.56,1.21 -2.71,0.89 -2.78,0.56 -2.85,0.22 -2.83,-0.12 -2.82,-0.46 -2.72,-0.79 -2.62,-1.12 -2.62,-1.12 L -2.62,-1.12 Z"/></g><g transform="translate(304.4206067692212 145.27433283991257) rotate(0 2.841897748737665 22.735181989901264)" stroke="none"><path fill="#1e1e1e" d="M 2.00,-0.50 Q 2.00,-0.50 2.29,0.63 2.58,1.76 3.45,0.94 4.32,0.12 4.87,-1.10 5.42,-2.32 5.70,-3.66 5.97,-4.99 4.52,-5.66 3.07,-6.33 1.84,-5.53 0.62,-4.73 -0.39,-3.32 -1.42,-1.91 -2.13,-0.27 -2.85,1.37 -2.59,3.04 -2.33,4.71 -0.69,4.76 0.93,4.81 2.89,2.77 4.84,0.74 6.43,-1.67 8.02,-4.09 8.62,-5.97 9.23,-7.84 9.52,-9.08 9.81,-10.31 9.94,-10.56 10.06,-10.82 10.24,-11.04 10.42,-11.26 10.65,-11.43 10.88,-11.60 11.14,-11.71 11.40,-11.82 11.68,-11.86 11.96,-11.91 12.25,-11.88 12.53,-11.86 12.80,-11.77 13.07,-11.67 13.31,-11.52 13.55,-11.37 13.74,-11.16 13.94,-10.96 14.08,-10.71 14.22,-10.46 14.30,-10.19 14.38,-9.91 14.39,-9.63 14.40,-9.35 14.34,-9.07 14.28,-8.79 13.51,-7.89 12.73,-6.99 12.26,-4.32 11.80,-1.65 10.49,2.39 9.18,6.43 8.04,10.97 6.91,15.51 6.12,20.92 5.34,26.33 4.66,31.60 3.98,36.87 3.71,41.96 3.44,47.05 1.86,48.80 0.29,50.55 0.26,50.71 0.23,50.87 0.17,51.01 0.11,51.15 0.01,51.28 -0.08,51.41 -0.20,51.50 -0.33,51.60 -0.47,51.67 -0.62,51.73 -0.77,51.76 -0.93,51.79 -1.08,51.78 -1.24,51.77 -1.39,51.73 -1.55,51.68 -1.68,51.60 -1.82,51.52 -1.93,51.41 -2.04,51.29 -2.12,51.16 -2.21,51.02 -2.25,50.87 -2.30,50.72 -2.31,50.56 -2.32,50.41 -2.32,50.40 -2.32,50.38 -2.27,50.18 -2.22,49.97 -2.11,49.79 -2.00,49.61 -1.83,49.48 -1.67,49.34 -1.47,49.27 -1.27,49.19 -1.06,49.19 -0.84,49.18 -0.64,49.24 -0.44,49.30 -0.26,49.42 -0.09,49.54 0.03,49.72 0.15,49.89 0.21,50.09 0.28,50.29 0.27,50.50 0.27,50.72 0.20,50.92 0.13,51.12 0.00,51.28 -0.13,51.45 -0.30,51.57 -0.48,51.68 -0.69,51.74 -0.89,51.79 -1.11,51.77 -1.32,51.76 -1.51,51.67 -1.71,51.59 -1.87,51.45 -2.03,51.31 -2.13,51.13 -2.24,50.94 -2.28,50.73 -2.32,50.53 -2.30,50.32 -2.27,50.10 -2.18,49.91 -2.08,49.72 -1.94,49.57 -1.79,49.42 -1.60,49.32 -1.41,49.23 -1.20,49.20 -0.99,49.17 -0.78,49.21 -0.57,49.24 -0.38,49.35 -0.20,49.45 -0.05,49.61 0.08,49.76 0.17,49.96 0.25,50.15 0.27,50.35 0.29,50.55 0.26,50.71 0.23,50.87 0.17,51.01 0.11,51.15 0.01,51.28 -0.08,51.40 -0.20,51.50 -0.33,51.60 -0.47,51.67 -0.62,51.73 -0.77,51.76 -0.93,51.79 -1.08,51.78 -1.24,51.77 -1.39,51.73 -1.55,51.68 -1.68,51.60 -1.82,51.52 -1.93,51.41 -2.04,51.29 -2.12,51.16 -2.21,51.02 -2.25,50.87 -2.30,50.72 -2.31,50.56 -2.32,50.41 -2.45,48.56 -2.57,46.71 -2.26,41.41 -1.94,36.10 -1.25,30.77 -0.55,25.43 0.35,19.72 1.26,14.02 2.59,9.32 3.91,4.62 5.30,0.77 6.70,-3.07 8.26,-6.69 9.81,-10.31 9.94,-10.56 10.06,-10.82 10.24,-11.04 10.42,-11.26 10.65,-11.43 10.88,-11.60 11.14,-11.71 11.40,-11.82 11.68,-11.86 11.96,-11.91 12.25,-11.88 12.53,-11.86 12.80,-11.77 13.07,-11.67 13.31,-11.52 13.55,-11.37 13.74,-11.16 13.94,-10.96 14.08,-10.71 14.22,-10.46 14.30,-10.19 14.38,-9.91 14.39,-9.63 14.40,-9.35 14.34,-9.07 14.28,-8.79 13.96,-7.57 13.64,-6.35 12.81,-3.98 11.98,-1.62 10.18,1.30 8.38,4.23 5.45,7.10 2.51,9.97 -0.21,10.24 -2.94,10.51 -5.23,8.29 -7.51,6.07 -7.76,2.75 -8.01,-0.56 -6.85,-2.99 -5.70,-5.42 -3.85,-7.44 -2.01,-9.46 0.43,-10.57 2.89,-11.68 5.63,-11.31 8.38,-10.95 9.74,-9.26 11.09,-7.58 11.00,-5.64 10.92,-3.70 10.32,-1.70 9.73,0.30 8.23,2.33 6.73,4.35 4.37,5.08 2.02,5.81 0.37,4.63 -1.27,3.46 -1.64,1.98 -2.00,0.50 -2.03,0.25 -2.06,0.00 -2.03,-0.24 -2.01,-0.48 -1.92,-0.72 -1.83,-0.95 -1.69,-1.16 -1.55,-1.36 -1.36,-1.53 -1.18,-1.69 -0.96,-1.81 -0.73,-1.93 -0.49,-1.99 -0.25,-2.05 -0.00,-2.05 0.24,-2.05 0.48,-1.99 0.72,-1.93 0.94,-1.82 1.16,-1.70 1.35,-1.54 1.54,-1.37 1.68,-1.17 1.82,-0.96 1.91,-0.73 2.00,-0.50 2.00,-0.50 L 2.00,-0.50 Z"/></g><g transform="translate(321.4719932616472 139.59053734243724) rotate(0 9.094072795960528 11.935970544698193)" stroke="none"><path fill="#1e1e1e" d="M 1.99,0 Q 1.99,0 2.46,1.96 2.93,3.92 2.65,7.51 2.37,11.10 2.25,14.12 2.12,17.15 2.02,19.22 1.91,21.29 2.99,19.19 4.07,17.10 5.68,14.42 7.29,11.74 8.57,8.46 9.84,5.18 10.39,3.19 10.93,1.21 11.18,0.62 11.42,0.04 11.56,-0.29 11.71,-0.64 11.93,-0.94 12.15,-1.24 12.43,-1.48 12.72,-1.72 13.05,-1.88 13.38,-2.05 13.75,-2.13 14.11,-2.21 14.48,-2.20 14.86,-2.19 15.22,-2.09 15.57,-1.99 15.90,-1.81 16.22,-1.63 16.50,-1.37 16.77,-1.12 16.97,-0.80 17.18,-0.49 17.30,-0.14 17.42,0.20 17.46,0.57 17.49,0.94 17.44,1.31 17.38,1.68 16.78,4.85 16.17,8.01 16.02,9.67 15.86,11.33 16.00,12.50 16.14,13.67 17.02,13.28 17.90,12.89 18.10,12.82 18.31,12.76 18.52,12.76 18.73,12.76 18.93,12.83 19.13,12.90 19.30,13.04 19.47,13.17 19.58,13.34 19.70,13.52 19.75,13.73 19.81,13.93 19.79,14.14 19.78,14.36 19.70,14.55 19.62,14.75 19.48,14.91 19.34,15.07 19.15,15.18 18.97,15.28 18.76,15.33 18.55,15.37 18.34,15.34 18.13,15.32 17.94,15.22 17.75,15.13 17.60,14.98 17.44,14.84 17.35,14.65 17.25,14.46 17.22,14.25 17.19,14.04 17.23,13.83 17.26,13.62 17.36,13.43 17.47,13.25 17.62,13.10 17.78,12.96 17.97,12.87 18.17,12.79 18.38,12.77 18.59,12.75 18.80,12.79 19.00,12.84 19.18,12.95 19.37,13.07 19.50,13.23 19.64,13.39 19.71,13.59 19.79,13.79 19.80,14.00 19.80,14.22 19.74,14.42 19.69,14.62 19.56,14.80 19.44,14.97 19.27,15.10 19.10,15.22 19.10,15.22 19.10,15.22 17.07,16.84 15.04,18.45 12.71,16.88 10.39,15.31 10.02,13.03 9.66,10.74 9.87,8.89 10.07,7.03 10.75,3.53 11.42,0.04 11.56,-0.29 11.71,-0.64 11.93,-0.94 12.15,-1.24 12.43,-1.48 12.72,-1.72 13.05,-1.88 13.38,-2.05 13.75,-2.13 14.11,-2.21 14.48,-2.20 14.86,-2.19 15.22,-2.09 15.57,-1.99 15.90,-1.81 16.22,-1.63 16.50,-1.37 16.77,-1.12 16.97,-0.81 17.18,-0.49 17.30,-0.14 17.42,0.20 17.46,0.57 17.49,0.94 17.44,1.31 17.38,1.68 17.13,2.26 16.87,2.85 16.24,5.15 15.60,7.46 14.10,11.19 12.60,14.92 10.76,17.99 8.91,21.06 6.60,23.60 4.29,26.14 2.70,26.48 1.11,26.83 -1.44,24.38 -4.01,21.93 -4.00,19.40 -3.99,16.87 -3.83,13.70 -3.68,10.53 -3.30,7.22 -2.93,3.92 -2.46,1.96 -1.99,0 -1.97,-0.23 -1.94,-0.47 -1.85,-0.70 -1.77,-0.92 -1.63,-1.12 -1.49,-1.32 -1.31,-1.48 -1.13,-1.64 -0.92,-1.75 -0.70,-1.87 -0.47,-1.92 -0.24,-1.98 0.00,-1.98 0.24,-1.98 0.47,-1.92 0.70,-1.86 0.92,-1.75 1.13,-1.64 1.31,-1.48 1.49,-1.32 1.63,-1.12 1.77,-0.92 1.85,-0.70 1.94,-0.47 1.97,-0.23 1.99,0.00 1.99,0.00 L 1.99,0 Z"/></g><g transform="translate(356.71152534599423 143.00081464092244) rotate(0 2.273518198990132 7.388934146717929)" stroke="none"><path fill="#1e1e1e" d="M 2.32,-0.77 Q 2.32,-0.77 2.70,0.09 3.09,0.96 1.53,0.88 -0.02,0.81 0.97,-0.29 1.96,-1.40 2.31,-2.59 2.67,-3.78 1.56,-2.38 0.45,-0.99 -1.00,0.18 -2.46,1.36 -3.48,3.20 -4.51,5.04 -4.89,8.07 -5.26,11.10 -4.93,12.95 -4.61,14.79 -3.66,15.41 -2.70,16.02 -1.20,15.96 0.29,15.90 2.26,15.15 4.24,14.40 7.76,12.44 11.28,10.47 11.47,10.37 11.65,10.26 11.86,10.22 12.06,10.17 12.28,10.20 12.49,10.22 12.68,10.31 12.87,10.41 13.02,10.55 13.18,10.70 13.27,10.89 13.37,11.08 13.40,11.29 13.43,11.50 13.40,11.71 13.36,11.92 13.26,12.10 13.16,12.29 13.00,12.44 12.85,12.58 12.65,12.67 12.46,12.75 12.25,12.77 12.04,12.80 11.83,12.75 11.62,12.70 11.44,12.59 11.26,12.48 11.12,12.31 10.99,12.15 10.91,11.95 10.84,11.75 10.83,11.54 10.82,11.33 10.88,11.12 10.94,10.92 11.06,10.75 11.18,10.57 11.35,10.44 11.52,10.32 11.72,10.25 11.92,10.19 12.14,10.19 12.35,10.19 12.55,10.26 12.75,10.33 12.92,10.46 13.09,10.59 13.20,10.77 13.32,10.95 13.37,11.15 13.43,11.36 13.42,11.57 13.40,11.78 13.32,11.98 13.24,12.17 13.10,12.33 12.96,12.49 12.96,12.49 12.96,12.49 9.61,16.24 6.27,19.99 3.05,20.98 -0.16,21.97 -3.18,21.39 -6.20,20.80 -8.21,18.64 -10.22,16.48 -10.69,13.35 -11.17,10.22 -10.37,6.14 -9.56,2.07 -7.81,-0.49 -6.06,-3.07 -4.05,-4.58 -2.05,-6.09 0.46,-7.02 2.98,-7.94 4.84,-7.17 6.70,-6.40 7.38,-4.66 8.06,-2.92 7.77,-1.77 7.47,-0.62 6.69,0.92 5.91,2.47 4.55,3.62 3.19,4.77 0.70,3.86 -1.78,2.95 -2.05,1.86 -2.32,0.77 -2.37,0.48 -2.43,0.19 -2.42,-0.09 -2.41,-0.39 -2.33,-0.67 -2.24,-0.95 -2.10,-1.21 -1.95,-1.47 -1.75,-1.68 -1.54,-1.89 -1.29,-2.05 -1.04,-2.21 -0.76,-2.30 -0.48,-2.39 -0.19,-2.42 0.09,-2.44 0.39,-2.39 0.68,-2.34 0.95,-2.23 1.22,-2.11 1.45,-1.94 1.69,-1.76 1.88,-1.53 2.06,-1.30 2.19,-1.03 2.32,-0.77 2.32,-0.77 L 2.32,-0.77 Z"/></g><g transform="translate(380.5834664353906 139.59053734243724) rotate(0 5.68379549747533 14.777868293435859)" stroke="none"><path fill="#1e1e1e" d="M 2.19,0.87 Q 2.19,0.87 1.74,2.59 1.29,4.30 0.81,6.21 0.32,8.12 -0.18,10.53 -0.70,12.94 -1.24,15.60 -1.78,18.27 -1.98,20.25 -2.18,22.23 -1.97,23.93 -1.76,25.64 -1.83,26.02 -1.91,26.40 -2.08,26.75 -2.25,27.10 -2.49,27.40 -2.74,27.70 -3.05,27.93 -3.36,28.16 -3.72,28.31 -4.08,28.46 -4.46,28.52 -4.84,28.58 -5.23,28.55 -5.61,28.52 -5.98,28.39 -6.35,28.27 -6.68,28.06 -7.00,27.85 -7.27,27.57 -7.54,27.29 -7.73,26.95 -7.92,26.62 -8.03,26.24 -8.14,25.87 -8.15,25.48 -8.16,25.10 -6.26,22.70 -4.36,20.31 -2.29,16.80 -0.22,13.30 1.78,10.30 3.79,7.31 5.50,5.19 7.21,3.07 7.66,3.02 8.11,2.98 8.36,2.73 8.61,2.47 8.91,2.29 9.21,2.10 9.55,2.00 9.89,1.89 10.24,1.86 10.59,1.84 10.94,1.90 11.29,1.96 11.62,2.11 11.94,2.25 12.22,2.47 12.50,2.68 12.72,2.96 12.94,3.24 13.09,3.56 13.24,3.88 13.30,4.23 13.37,4.58 13.35,4.93 13.33,5.29 13.23,5.62 13.12,5.96 12.94,6.27 12.76,6.57 13.48,9.00 14.20,11.42 14.29,14.68 14.39,17.94 14.41,20.63 14.43,23.31 14.43,25.05 14.44,26.79 13.02,26.23 11.59,25.67 13.61,25.12 15.62,24.57 15.79,24.45 15.96,24.32 16.17,24.26 16.37,24.20 16.58,24.21 16.80,24.21 17.00,24.29 17.19,24.36 17.36,24.50 17.52,24.63 17.64,24.81 17.75,24.99 17.80,25.20 17.85,25.40 17.83,25.62 17.81,25.83 17.73,26.02 17.64,26.22 17.50,26.37 17.36,26.53 17.17,26.63 16.99,26.74 16.78,26.78 16.57,26.82 16.36,26.79 16.15,26.76 15.96,26.66 15.77,26.56 15.62,26.41 15.47,26.26 15.38,26.07 15.28,25.88 15.26,25.67 15.23,25.46 15.27,25.25 15.31,25.04 15.42,24.86 15.52,24.67 15.68,24.53 15.84,24.39 16.04,24.31 16.23,24.23 16.44,24.21 16.66,24.19 16.86,24.25 17.07,24.30 17.25,24.41 17.42,24.53 17.56,24.70 17.69,24.86 17.76,25.06 17.83,25.26 17.84,25.48 17.84,25.69 17.78,25.89 17.71,26.09 17.59,26.26 17.46,26.44 17.46,26.44 17.47,26.44 16.29,28.29 15.11,30.15 13.77,30.67 12.43,31.18 10.34,29.10 8.26,27.02 8.25,25.19 8.24,23.35 8.21,20.70 8.19,18.04 8.19,14.89 8.19,11.74 8.12,9.81 8.05,7.88 8.08,5.43 8.11,2.98 8.36,2.73 8.61,2.47 8.91,2.29 9.21,2.10 9.55,2.00 9.89,1.89 10.24,1.86 10.59,1.84 10.94,1.90 11.29,1.96 11.62,2.11 11.94,2.25 12.22,2.47 12.50,2.68 12.72,2.96 12.94,3.24 13.09,3.56 13.24,3.88 13.30,4.23 13.37,4.58 13.35,4.93 13.33,5.29 13.23,5.62 13.12,5.96 12.94,6.27 12.76,6.57 11.96,6.84 11.16,7.11 9.91,8.80 8.67,10.50 6.82,13.41 4.97,16.31 1.60,20.98 -1.76,25.64 -1.83,26.02 -1.91,26.40 -2.08,26.75 -2.25,27.10 -2.49,27.40 -2.74,27.70 -3.05,27.93 -3.36,28.16 -3.72,28.31 -4.08,28.46 -4.46,28.52 -4.84,28.58 -5.23,28.55 -5.61,28.52 -5.98,28.39 -6.35,28.27 -6.68,28.06 -7.00,27.85 -7.27,27.57 -7.54,27.29 -7.73,26.95 -7.92,26.62 -8.03,26.24 -8.14,25.87 -8.15,25.48 -8.16,25.10 -8.39,24.72 -8.61,24.35 -8.53,22.92 -8.46,21.50 -8.17,19.23 -7.88,16.97 -7.27,14.25 -6.66,11.54 -6.01,8.97 -5.35,6.41 -4.63,4.32 -3.91,2.22 -3.05,0.67 -2.19,-0.87 -2.05,-1.12 -1.92,-1.37 -1.72,-1.58 -1.53,-1.79 -1.29,-1.95 -1.06,-2.11 -0.79,-2.21 -0.52,-2.30 -0.24,-2.33 0.04,-2.36 0.32,-2.32 0.60,-2.28 0.87,-2.18 1.13,-2.07 1.36,-1.90 1.60,-1.74 1.78,-1.52 1.97,-1.30 2.09,-1.05 2.22,-0.79 2.28,-0.52 2.35,-0.24 2.34,0.04 2.34,0.32 2.26,0.60 2.19,0.87 2.19,0.87 L 2.19,0.87 Z"/></g><g transform="translate(411.2759621217574 146.41109193940764) rotate(0 25.008700188891453 7.957313696465462)" stroke="none"><path fill="#1e1e1e" d="M -1.39,1.39 Q -1.39,1.39 -2.05,1.40 -2.72,1.41 -2.94,1.13 -3.16,0.86 -3.30,0.53 -3.45,0.21 -3.51,-0.12 -3.57,-0.47 -3.55,-0.82 -3.53,-1.18 -3.43,-1.51 -3.32,-1.85 -3.14,-2.15 -2.95,-2.46 -2.70,-2.71 -2.46,-2.95 -2.15,-3.14 -1.85,-3.32 -1.51,-3.43 -1.18,-3.53 -0.82,-3.55 -0.47,-3.57 -0.12,-3.51 0.21,-3.45 0.54,-3.30 0.86,-3.16 1.14,-2.94 1.41,-2.72 0.36,0.52 -0.68,3.77 -1.59,5.35 -2.49,6.94 -3.15,8.75 -3.81,10.57 -4.04,12.42 -4.28,14.28 -2.74,15.51 -1.19,16.75 0.93,16.18 3.06,15.62 5.48,14.31 7.89,13.01 11.14,10.30 14.40,7.59 17.16,5.11 19.93,2.64 21.24,0.87 22.55,-0.90 21.39,-1.25 20.22,-1.60 19.29,-0.30 18.37,0.98 17.69,2.71 17.01,4.44 17.63,7.16 18.24,9.87 19.71,11.28 21.18,12.70 23.94,13.52 26.71,14.34 30.18,14.13 33.65,13.91 37.94,12.70 42.24,11.50 46.71,10.79 51.18,10.08 53.01,9.46 54.84,8.83 55.04,8.79 55.25,8.75 55.46,8.78 55.67,8.81 55.86,8.91 56.05,9.00 56.20,9.15 56.35,9.30 56.45,9.49 56.54,9.69 56.57,9.90 56.60,10.11 56.56,10.32 56.52,10.52 56.41,10.71 56.31,10.89 56.15,11.03 55.99,11.18 55.80,11.26 55.60,11.34 55.39,11.36 55.18,11.38 54.97,11.32 54.76,11.27 54.59,11.16 54.41,11.04 54.27,10.88 54.14,10.71 54.07,10.51 54.00,10.31 53.99,10.10 53.99,9.89 54.05,9.68 54.11,9.48 54.24,9.31 54.36,9.14 54.53,9.01 54.71,8.89 54.91,8.83 55.11,8.77 55.32,8.77 55.54,8.78 55.74,8.85 55.94,8.93 56.10,9.06 56.27,9.19 56.38,9.37 56.49,9.55 56.54,9.76 56.60,9.96 56.58,10.18 56.56,10.39 56.48,10.58 56.39,10.78 56.25,10.94 56.11,11.09 55.92,11.20 55.74,11.30 55.74,11.30 55.74,11.30 53.94,12.00 52.13,12.71 48.06,15.11 43.99,17.52 38.95,19.03 33.90,20.54 29.25,20.56 24.60,20.59 20.56,18.90 16.52,17.21 14.27,14.26 12.02,11.31 11.59,6.83 11.15,2.35 12.61,-0.53 14.07,-3.43 16.64,-5.33 19.21,-7.22 22.05,-6.95 24.89,-6.68 26.48,-4.95 28.07,-3.21 27.79,-0.37 27.51,2.45 25.79,4.80 24.06,7.15 21.23,9.78 18.39,12.40 14.61,15.53 10.82,18.65 7.45,20.32 4.07,21.98 0.27,22.25 -3.52,22.52 -6.55,20.43 -9.58,18.34 -10.10,15.84 -10.61,13.35 -10.16,10.82 -9.71,8.30 -8.76,5.97 -7.80,3.64 -6.45,1.61 -5.09,-0.41 -3.91,0.50 -2.72,1.41 -2.94,1.14 -3.16,0.86 -3.30,0.54 -3.45,0.21 -3.51,-0.12 -3.57,-0.47 -3.55,-0.82 -3.53,-1.18 -3.43,-1.51 -3.32,-1.85 -3.14,-2.15 -2.95,-2.46 -2.71,-2.70 -2.46,-2.95 -2.15,-3.14 -1.85,-3.32 -1.51,-3.43 -1.18,-3.53 -0.82,-3.55 -0.47,-3.57 -0.12,-3.51 0.21,-3.45 0.53,-3.30 0.86,-3.16 1.13,-2.94 1.41,-2.72 1.40,-2.05 1.39,-1.39 1.54,-1.20 1.68,-1.02 1.78,-0.80 1.88,-0.58 1.92,-0.35 1.96,-0.11 1.95,0.11 1.94,0.35 1.86,0.58 1.79,0.80 1.67,1.01 1.55,1.21 1.38,1.38 1.21,1.55 1.01,1.67 0.80,1.79 0.58,1.86 0.35,1.94 0.11,1.95 -0.11,1.96 -0.35,1.92 -0.58,1.88 -0.80,1.78 -1.02,1.68 -1.20,1.54 -1.39,1.39 -1.39,1.39 L -1.39,1.39 Z"/></g><g transform="translate(139.59053734243707 205.52256511315096) rotate(0 -14.777868293435631 28.418977487376594)" stroke="none"><path fill="#1e1e1e" d="M 1.45,0.20 Q 1.45,0.20 1.69,2.55 1.92,4.91 2.46,7.79 2.99,10.68 3.86,14.60 4.73,18.52 5.46,22.56 6.20,26.60 6.53,31.05 6.86,35.50 6.98,38.41 7.11,41.32 5.74,44.74 4.38,48.16 1.59,51.07 -1.18,53.98 -4.87,55.95 -8.55,57.92 -12.52,59.09 -16.49,60.26 -20.39,60.44 -24.28,60.62 -27.85,59.35 -31.41,58.09 -32.78,54.91 -34.14,51.73 -32.77,49.16 -31.39,46.60 -27.90,43.96 -24.40,41.32 -20.31,38.50 -16.22,35.67 -13.09,33.62 -9.95,31.56 -8.58,30.74 -7.21,29.92 -7.02,29.82 -6.83,29.72 -6.62,29.68 -6.41,29.65 -6.20,29.69 -5.99,29.72 -5.81,29.82 -5.62,29.92 -5.47,30.08 -5.33,30.23 -5.24,30.43 -5.15,30.62 -5.13,30.83 -5.11,31.04 -5.15,31.25 -5.20,31.46 -5.31,31.64 -5.42,31.82 -5.58,31.96 -5.75,32.09 -5.94,32.17 -6.14,32.25 -6.35,32.26 -6.57,32.27 -6.77,32.21 -6.98,32.15 -7.15,32.03 -7.33,31.91 -7.45,31.74 -7.58,31.57 -7.65,31.37 -7.72,31.17 -7.72,30.96 -7.71,30.75 -7.65,30.55 -7.58,30.34 -7.45,30.18 -7.32,30.01 -7.14,29.89 -6.97,29.77 -6.76,29.71 -6.56,29.66 -6.34,29.67 -6.13,29.68 -5.93,29.76 -5.74,29.84 -5.58,29.98 -5.41,30.12 -5.31,30.30 -5.20,30.48 -5.15,30.69 -5.11,30.90 -5.13,31.11 -5.16,31.32 -5.25,31.51 -5.34,31.71 -5.48,31.86 -5.63,32.01 -5.63,32.01 -5.63,32.01 -6.80,33.10 -7.97,34.19 -10.81,36.64 -13.64,39.09 -17.46,42.24 -21.29,45.39 -24.09,47.58 -26.90,49.78 -27.69,51.78 -28.47,53.78 -26.42,54.37 -24.36,54.96 -21.18,54.89 -18.00,54.82 -14.55,53.88 -11.10,52.93 -8.09,51.46 -5.08,49.99 -2.87,47.88 -0.67,45.77 0.46,43.54 1.60,41.30 1.48,38.59 1.35,35.87 1.08,31.71 0.82,27.54 0.16,23.60 -0.48,19.66 -1.36,15.58 -2.24,11.50 -2.74,7.87 -3.23,4.24 -2.34,2.01 -1.45,-0.20 -1.40,-0.37 -1.36,-0.54 -1.27,-0.70 -1.19,-0.85 -1.07,-0.98 -0.95,-1.11 -0.80,-1.21 -0.65,-1.31 -0.48,-1.37 -0.32,-1.43 -0.14,-1.45 0.03,-1.46 0.20,-1.44 0.38,-1.41 0.54,-1.35 0.70,-1.28 0.85,-1.18 0.99,-1.07 1.11,-0.94 1.22,-0.80 1.30,-0.65 1.38,-0.49 1.42,-0.31 1.46,-0.14 1.45,0.03 1.45,0.20 1.45,0.20 L 1.45,0.20 Z"/></g><g transform="translate(138.453778242942 193.01821501870523) rotate(0 1.705138649242599 -1.705138649242599)" stroke="none"><path fill="#1e1e1e" d="M -1.97,-1.97 Q -1.97,-1.97 -0.05,-2.85 1.86,-3.72 2.03,-3.84 2.21,-3.97 2.41,-4.03 2.61,-4.09 2.82,-4.08 3.04,-4.08 3.24,-4.01 3.44,-3.93 3.60,-3.80 3.77,-3.67 3.88,-3.49 4.00,-3.31 4.05,-3.10 4.10,-2.90 4.08,-2.68 4.06,-2.47 3.98,-2.28 3.90,-2.08 3.75,-1.92 3.61,-1.77 3.43,-1.66 3.24,-1.56 3.03,-1.52 2.82,-1.48 2.61,-1.51 2.40,-1.53 2.21,-1.63 2.02,-1.72 1.87,-1.87 1.72,-2.02 1.63,-2.21 1.53,-2.40 1.51,-2.61 1.48,-2.83 1.52,-3.03 1.56,-3.24 1.66,-3.43 1.77,-3.61 1.92,-3.75 2.08,-3.90 2.28,-3.98 2.47,-4.06 2.68,-4.08 2.90,-4.10 3.10,-4.05 3.31,-4.00 3.49,-3.88 3.67,-3.77 3.80,-3.60 3.93,-3.44 4.01,-3.24 4.08,-3.04 4.08,-2.82 4.09,-2.61 4.03,-2.41 3.97,-2.21 3.84,-2.03 3.72,-1.86 3.72,-1.86 3.72,-1.86 2.85,0.05 1.97,1.97 1.71,2.18 1.44,2.39 1.13,2.53 0.83,2.67 0.50,2.73 0.16,2.79 -0.16,2.77 -0.50,2.75 -0.82,2.65 -1.14,2.55 -1.43,2.37 -1.72,2.20 -1.96,1.96 -2.20,1.72 -2.37,1.43 -2.55,1.14 -2.65,0.82 -2.75,0.50 -2.77,0.16 -2.79,-0.16 -2.73,-0.50 -2.66,-0.83 -2.53,-1.13 -2.39,-1.44 -2.18,-1.71 -1.97,-1.97 -1.97,-1.97 L -1.97,-1.97 Z"/></g><g transform="translate(161.18896023284333 213.47987880961642) rotate(0 10.799211445203127 3.978656848232731)" stroke="none"><path fill="#1e1e1e" d="M 1.46,-1.46 Q 1.46,-1.46 2.42,-0.60 3.37,0.24 4.77,0.40 6.17,0.55 7.05,-0.13 7.93,-0.83 8.54,-1.80 9.15,-2.78 6.32,-2.47 3.48,-2.15 1.39,-0.99 -0.70,0.16 -1.58,2.27 -2.45,4.37 -2.95,6.06 -3.46,7.76 -2.32,8.90 -1.19,10.04 0.78,10.46 2.77,10.87 7.43,11.17 12.09,11.46 15.86,10.85 19.62,10.24 23.17,10.26 26.72,10.28 26.93,10.29 27.15,10.29 27.35,10.36 27.55,10.43 27.71,10.56 27.88,10.70 28.00,10.87 28.11,11.05 28.17,11.26 28.22,11.46 28.20,11.68 28.19,11.89 28.11,12.08 28.03,12.28 27.89,12.44 27.75,12.60 27.56,12.71 27.38,12.81 27.17,12.85 26.96,12.90 26.75,12.87 26.54,12.84 26.35,12.75 26.16,12.66 26.00,12.51 25.85,12.36 25.76,12.17 25.66,11.98 25.63,11.77 25.60,11.56 25.64,11.35 25.67,11.14 25.78,10.96 25.88,10.77 26.04,10.63 26.19,10.48 26.39,10.40 26.58,10.31 26.79,10.29 27.00,10.27 27.21,10.32 27.42,10.37 27.60,10.48 27.78,10.60 27.91,10.76 28.05,10.93 28.12,11.12 28.20,11.32 28.21,11.54 28.21,11.75 28.15,11.95 28.09,12.15 27.97,12.33 27.85,12.50 27.68,12.63 27.51,12.75 27.30,12.82 27.10,12.88 27.10,12.88 27.10,12.88 23.84,13.91 20.57,14.94 16.16,15.98 11.75,17.02 6.40,16.60 1.05,16.18 -2.05,14.90 -5.17,13.62 -6.81,10.79 -8.45,7.96 -7.79,4.91 -7.12,1.86 -5.25,-1.04 -3.37,-3.94 -0.55,-5.34 2.27,-6.74 5.57,-7.39 8.88,-8.05 10.85,-7.27 12.82,-6.48 12.89,-3.30 12.96,-0.12 11.62,1.54 10.29,3.20 8.12,4.11 5.94,5.03 3.24,4.35 0.54,3.67 -0.46,2.56 -1.46,1.46 -1.62,1.27 -1.77,1.07 -1.87,0.84 -1.98,0.61 -2.02,0.37 -2.07,0.12 -2.05,-0.12 -2.04,-0.37 -1.96,-0.61 -1.89,-0.85 -1.76,-1.06 -1.63,-1.28 -1.45,-1.45 -1.27,-1.63 -1.06,-1.76 -0.85,-1.89 -0.61,-1.96 -0.37,-2.04 -0.12,-2.05 0.12,-2.07 0.37,-2.02 0.61,-1.98 0.84,-1.87 1.07,-1.77 1.27,-1.62 1.46,-1.46 1.46,-1.46 L 1.46,-1.46 Z"/></g><g transform="translate(200.97552871517064 211.2063606106263) rotate(0 4.547036397980264 13.641109193940792)" stroke="none"><path fill="#1e1e1e" d="M 1.02,2.04 Q 1.02,2.04 -0.21,2.83 -1.46,3.62 -2.93,4.78 -4.40,5.94 -5.29,7.51 -6.18,9.07 -6.77,11.46 -7.37,13.85 -7.63,16.71 -7.90,19.57 -6.43,19.69 -4.96,19.80 -2.82,18.44 -0.68,17.08 1.71,13.56 4.12,10.05 5.49,7.59 6.87,5.13 6.83,4.22 6.80,3.31 6.99,3.05 7.18,2.79 7.42,2.58 7.67,2.37 7.95,2.23 8.24,2.08 8.55,2.01 8.87,1.94 9.19,1.95 9.51,1.95 9.82,2.04 10.13,2.12 10.41,2.27 10.69,2.43 10.93,2.65 11.17,2.86 11.34,3.13 11.52,3.40 11.63,3.70 11.74,4.01 11.77,4.32 11.80,4.64 11.76,4.96 11.71,5.28 11.59,5.58 11.47,5.88 10.93,7.38 10.38,8.89 9.85,11.32 9.33,13.76 8.89,16.11 8.44,18.47 10.95,20.07 13.46,21.68 16.41,23.56 19.35,25.44 19.54,25.55 19.72,25.66 19.86,25.82 20.00,25.98 20.08,26.17 20.16,26.37 20.17,26.58 20.19,26.80 20.13,27.00 20.08,27.21 19.96,27.38 19.84,27.56 19.67,27.69 19.50,27.82 19.30,27.89 19.10,27.96 18.89,27.96 18.68,27.96 18.48,27.90 18.27,27.83 18.10,27.70 17.93,27.58 17.81,27.40 17.69,27.23 17.63,27.02 17.58,26.82 17.58,26.61 17.59,26.39 17.67,26.20 17.75,26.00 17.88,25.83 18.02,25.67 18.20,25.56 18.38,25.45 18.59,25.40 18.80,25.35 19.01,25.38 19.22,25.40 19.41,25.48 19.61,25.57 19.76,25.72 19.92,25.86 20.02,26.05 20.12,26.23 20.16,26.44 20.19,26.65 20.16,26.86 20.13,27.07 20.03,27.26 19.93,27.45 19.78,27.60 19.63,27.75 19.43,27.84 19.24,27.93 19.03,27.95 18.82,27.98 18.61,27.93 18.40,27.89 18.40,27.89 18.40,27.89 14.20,26.99 9.99,26.10 6.83,23.12 3.68,20.14 3.76,16.32 3.84,12.50 4.53,9.64 5.23,6.78 6.01,5.04 6.80,3.31 6.99,3.05 7.18,2.79 7.42,2.58 7.67,2.37 7.95,2.23 8.24,2.08 8.55,2.01 8.87,1.94 9.19,1.95 9.51,1.95 9.82,2.04 10.13,2.12 10.41,2.27 10.69,2.43 10.93,2.65 11.17,2.86 11.34,3.13 11.52,3.40 11.63,3.70 11.74,4.00 11.77,4.32 11.80,4.64 11.76,4.96 11.71,5.28 11.59,5.58 11.47,5.88 11.50,6.57 11.54,7.26 9.99,10.12 8.44,12.97 5.50,17.36 2.56,21.74 -0.17,23.57 -2.91,25.40 -5.62,26.05 -8.34,26.70 -10.54,25.32 -12.74,23.95 -13.29,21.46 -13.83,18.96 -13.43,15.59 -13.02,12.22 -12.04,9.18 -11.05,6.14 -9.76,4.15 -8.46,2.17 -6.11,0.58 -3.76,-1.01 -2.39,-1.53 -1.02,-2.04 -0.76,-2.14 -0.50,-2.23 -0.22,-2.26 0.04,-2.28 0.31,-2.25 0.59,-2.21 0.84,-2.10 1.10,-2.00 1.32,-1.84 1.55,-1.68 1.73,-1.47 1.91,-1.26 2.03,-1.01 2.15,-0.76 2.21,-0.50 2.27,-0.23 2.27,0.04 2.26,0.32 2.19,0.58 2.12,0.85 1.99,1.09 1.85,1.33 1.67,1.54 1.48,1.74 1.25,1.89 1.02,2.04 1.02,2.04 L 1.02,2.04 Z"/></g><g transform="translate(269.18107468487415 214.6166379091115) rotate(0 4.547036397980264 14.209488743688269)" stroke="none"><path fill="#1e1e1e" d="M 0.54,1.62 Q 0.54,1.62 -1.35,2.46 -3.25,3.30 -3.95,4.95 -4.64,6.60 -4.45,8.41 -4.25,10.22 -3.28,12.73 -2.31,15.25 -1.24,17.68 -0.17,20.11 1.07,21.50 2.31,22.89 4.22,22.07 6.13,21.25 7.07,18.91 8.00,16.58 9.20,14.07 10.39,11.56 10.80,9.20 11.21,6.85 13.46,4.32 15.72,1.79 15.88,1.65 16.05,1.52 16.25,1.45 16.44,1.37 16.66,1.37 16.87,1.36 17.07,1.42 17.28,1.48 17.45,1.61 17.62,1.73 17.75,1.90 17.87,2.07 17.93,2.28 18.00,2.48 17.99,2.69 17.99,2.91 17.91,3.10 17.84,3.30 17.71,3.47 17.58,3.64 17.40,3.75 17.22,3.87 17.01,3.92 16.81,3.97 16.59,3.95 16.38,3.94 16.19,3.85 15.99,3.77 15.83,3.63 15.67,3.49 15.57,3.30 15.46,3.12 15.42,2.91 15.38,2.70 15.41,2.49 15.44,2.28 15.53,2.09 15.63,1.90 15.78,1.75 15.93,1.60 16.12,1.50 16.31,1.41 16.52,1.38 16.73,1.35 16.94,1.39 17.15,1.43 17.33,1.53 17.52,1.64 17.66,1.79 17.80,1.95 17.88,2.15 17.97,2.34 17.99,2.55 18.01,2.76 17.95,2.97 17.90,3.18 17.79,3.36 17.68,3.54 17.68,3.54 17.68,3.54 17.25,5.73 16.83,7.93 16.21,10.97 15.60,14.00 14.40,16.49 13.20,18.97 11.56,22.24 9.92,25.50 8.09,26.96 6.25,28.42 4.38,28.85 2.51,29.27 0.23,27.91 -2.03,26.54 -3.68,24.47 -5.32,22.40 -6.43,19.76 -7.54,17.11 -8.64,13.84 -9.73,10.58 -9.77,8.01 -9.80,5.44 -8.73,3.02 -7.66,0.60 -6.12,-0.04 -4.58,-0.69 -2.56,-1.15 -0.54,-1.62 -0.33,-1.66 -0.13,-1.70 0.06,-1.69 0.27,-1.68 0.47,-1.62 0.67,-1.57 0.84,-1.46 1.02,-1.36 1.17,-1.22 1.32,-1.07 1.43,-0.90 1.54,-0.73 1.60,-0.53 1.67,-0.34 1.69,-0.13 1.70,0.06 1.67,0.27 1.64,0.47 1.55,0.66 1.47,0.85 1.35,1.01 1.23,1.18 1.07,1.31 0.91,1.44 0.72,1.53 0.53,1.62 0.54,1.62 L 0.54,1.62 Z"/></g><g transform="translate(296.46329307275573 214.6166379091115) rotate(0 2.273518198990132 13.641109193940736)" stroke="none"><path fill="#1e1e1e" d="M 2.22,0 Q 2.22,0 2.41,3.92 2.61,7.84 2.68,11.47 2.75,15.09 2.77,17.94 2.79,20.78 3.02,22.28 3.25,23.77 4.34,24.37 5.42,24.98 5.43,25.13 5.44,25.29 5.41,25.45 5.38,25.60 5.31,25.75 5.24,25.89 5.15,26.01 5.05,26.14 4.92,26.24 4.80,26.33 4.65,26.40 4.51,26.46 4.35,26.49 4.19,26.51 4.04,26.50 3.88,26.49 3.73,26.44 3.58,26.40 3.44,26.31 3.31,26.23 3.20,26.12 3.08,26.00 3.00,25.87 2.92,25.73 2.88,25.58 2.83,25.43 3.40,24.66 3.97,23.90 4.18,23.91 4.39,23.92 4.59,23.99 4.79,24.07 4.95,24.20 5.12,24.34 5.23,24.52 5.34,24.70 5.39,24.91 5.44,25.12 5.42,25.33 5.39,25.54 5.31,25.73 5.22,25.93 5.08,26.08 4.93,26.24 4.75,26.34 4.56,26.44 4.35,26.48 4.14,26.52 3.93,26.48 3.72,26.45 3.53,26.36 3.34,26.26 3.19,26.11 3.05,25.95 2.96,25.76 2.86,25.57 2.84,25.36 2.81,25.15 2.86,24.94 2.90,24.73 3.01,24.55 3.11,24.36 3.27,24.23 3.43,24.09 3.63,24.00 3.83,23.92 4.04,23.91 4.25,23.90 4.46,23.95 4.66,24.00 4.84,24.12 5.02,24.24 5.15,24.41 5.28,24.57 5.35,24.77 5.42,24.97 5.42,25.19 5.42,25.40 5.36,25.60 5.29,25.80 5.17,25.97 5.04,26.15 4.87,26.27 4.69,26.39 5.05,25.68 5.42,24.98 5.43,25.13 5.44,25.29 5.41,25.45 5.38,25.60 5.31,25.75 5.24,25.89 5.15,26.01 5.05,26.14 4.92,26.24 4.80,26.33 4.65,26.40 4.51,26.46 4.35,26.49 4.19,26.51 4.04,26.50 3.88,26.49 3.73,26.44 3.58,26.40 3.44,26.31 3.31,26.23 3.20,26.12 3.09,26.00 3.00,25.87 2.92,25.73 2.88,25.58 2.83,25.43 0.44,25.35 -1.95,25.27 -2.37,23.04 -2.79,20.80 -2.77,17.95 -2.75,15.09 -2.68,11.47 -2.61,7.84 -2.41,3.92 -2.22,0 -2.19,-0.26 -2.16,-0.53 -2.06,-0.78 -1.97,-1.03 -1.81,-1.25 -1.66,-1.47 -1.46,-1.65 -1.26,-1.83 -1.02,-1.95 -0.78,-2.08 -0.52,-2.14 -0.26,-2.21 0.00,-2.21 0.26,-2.21 0.52,-2.14 0.78,-2.08 1.02,-1.95 1.26,-1.83 1.46,-1.65 1.66,-1.47 1.81,-1.25 1.97,-1.03 2.06,-0.78 2.16,-0.53 2.19,-0.26 2.22,0.00 2.22,0.00 L 2.22,0 Z"/></g><g transform="translate(293.05301577427053 196.42849231719043) rotate(0 -2.273518198990132 -1.705138649242599)" stroke="none"><path fill="#1e1e1e" d="M -0.69,2.79 Q -0.69,2.79 -2.16,-0.13 -3.63,-3.07 -3.57,-3.27 -3.51,-3.48 -3.39,-3.65 -3.27,-3.82 -3.10,-3.95 -2.93,-4.08 -2.73,-4.14 -2.52,-4.21 -2.31,-4.20 -2.10,-4.20 -1.90,-4.13 -1.70,-4.06 -1.53,-3.93 -1.36,-3.80 -1.25,-3.62 -1.13,-3.44 -1.08,-3.24 -1.02,-3.03 -1.04,-2.82 -1.05,-2.61 -1.13,-2.41 -1.21,-2.21 -1.35,-2.05 -1.49,-1.89 -1.68,-1.79 -1.86,-1.68 -2.07,-1.64 -2.28,-1.60 -2.49,-1.62 -2.70,-1.65 -2.89,-1.74 -3.08,-1.83 -3.24,-1.98 -3.39,-2.13 -3.48,-2.32 -3.58,-2.51 -3.61,-2.72 -3.64,-2.93 -3.61,-3.14 -3.57,-3.35 -3.47,-3.53 -3.36,-3.72 -3.21,-3.86 -3.05,-4.01 -2.86,-4.09 -2.66,-4.18 -2.45,-4.20 -2.24,-4.22 -2.03,-4.17 -1.83,-4.12 -1.65,-4.01 -1.46,-3.90 -1.33,-3.73 -1.19,-3.57 -1.12,-3.37 -1.04,-3.17 -1.04,-2.96 -1.03,-2.75 -1.03,-2.75 -1.03,-2.75 -0.16,-2.77 0.69,-2.79 1.02,-2.67 1.34,-2.54 1.63,-2.34 1.91,-2.15 2.14,-1.88 2.37,-1.62 2.53,-1.32 2.69,-1.01 2.77,-0.67 2.86,-0.33 2.86,0.00 2.85,0.35 2.77,0.69 2.69,1.03 2.52,1.33 2.36,1.64 2.13,1.90 1.90,2.16 1.61,2.35 1.33,2.55 1.00,2.67 0.67,2.79 0.33,2.84 -0.00,2.88 -0.35,2.83 -0.69,2.79 -0.69,2.79 L -0.69,2.79 Z"/></g><g transform="translate(319.19847506265705 236.21506079951774) rotate(0 0 -7.957313696465462)" stroke="none"><path fill="#1e1e1e" d="M 1.94,-1.29 Q 1.94,-1.29 1.06,-0.69 0.19,-0.08 2.12,-1.98 4.06,-3.87 4.79,-5.53 5.51,-7.19 5.79,-9.34 6.07,-11.49 5.95,-13.09 5.83,-14.69 3.51,-14.35 1.19,-14.00 -0.41,-12.69 -2.02,-11.39 -3.22,-9.44 -4.42,-7.49 -4.88,-5.44 -5.34,-3.39 -4.84,-2.20 -4.33,-1.01 -0.37,-1.40 3.58,-1.79 3.79,-1.82 4.00,-1.86 4.21,-1.83 4.42,-1.80 4.61,-1.70 4.80,-1.60 4.95,-1.45 5.10,-1.30 5.19,-1.11 5.28,-0.92 5.30,-0.70 5.33,-0.49 5.29,-0.29 5.25,-0.08 5.14,0.10 5.03,0.28 4.87,0.42 4.71,0.56 4.51,0.64 4.32,0.72 4.11,0.74 3.89,0.75 3.69,0.70 3.48,0.64 3.31,0.53 3.13,0.41 3.00,0.24 2.87,0.07 2.80,-0.12 2.73,-0.32 2.72,-0.53 2.72,-0.74 2.78,-0.94 2.85,-1.15 2.98,-1.32 3.10,-1.49 3.28,-1.61 3.45,-1.73 3.66,-1.79 3.86,-1.85 4.07,-1.84 4.28,-1.83 4.48,-1.76 4.68,-1.68 4.84,-1.55 5.01,-1.41 5.12,-1.23 5.23,-1.05 5.28,-0.84 5.33,-0.64 5.31,-0.42 5.29,-0.21 5.20,-0.02 5.12,0.17 4.97,0.32 4.83,0.48 4.64,0.58 4.45,0.68 4.45,0.68 4.45,0.68 0.17,2.69 -4.11,4.70 -6.60,3.18 -9.09,1.66 -9.98,-1.31 -10.87,-4.29 -10.00,-7.44 -9.14,-10.59 -7.21,-13.19 -5.27,-15.80 -2.60,-17.51 0.06,-19.22 3.47,-19.43 6.89,-19.64 8.72,-17.66 10.55,-15.67 10.76,-13.21 10.96,-10.76 10.46,-7.97 9.97,-5.18 8.87,-2.91 7.78,-0.64 6.12,1.14 4.47,2.92 3.45,3.47 2.42,4.01 0.23,2.65 -1.94,1.29 -2.07,1.04 -2.19,0.79 -2.26,0.51 -2.32,0.24 -2.31,-0.03 -2.31,-0.31 -2.24,-0.59 -2.17,-0.86 -2.03,-1.11 -1.90,-1.35 -1.71,-1.56 -1.52,-1.77 -1.28,-1.92 -1.05,-2.08 -0.78,-2.18 -0.52,-2.27 -0.24,-2.30 0.03,-2.33 0.31,-2.29 0.59,-2.25 0.85,-2.15 1.11,-2.05 1.34,-1.88 1.57,-1.72 1.76,-1.50 1.94,-1.29 1.94,-1.29 L 1.94,-1.29 Z"/></g><g transform="translate(344.2071752515485 183.9241422227447) rotate(0 -7.957313696465462 26.14545928838652)" stroke="none"><path fill="#1e1e1e" d="M 1.83,1.83 Q 1.83,1.83 -0.44,4.12 -2.71,6.41 -3.84,8.17 -4.97,9.93 -5.71,11.61 -6.45,13.30 -7.69,16.90 -8.92,20.50 -9.40,23.48 -9.89,26.46 -10.46,30.39 -11.02,34.32 -11.26,37.22 -11.50,40.13 -12.16,43.41 -12.82,46.69 -13.66,49.02 -14.49,51.36 -14.55,51.56 -14.60,51.77 -14.72,51.94 -14.84,52.12 -15.01,52.25 -15.18,52.38 -15.38,52.44 -15.58,52.51 -15.79,52.51 -16.01,52.51 -16.21,52.45 -16.41,52.38 -16.58,52.25 -16.75,52.12 -16.87,51.95 -16.99,51.77 -17.04,51.57 -17.10,51.36 -17.09,51.15 -17.08,50.94 -17.00,50.74 -16.92,50.54 -16.78,50.38 -16.65,50.22 -16.46,50.11 -16.28,50.00 -16.07,49.95 -15.87,49.91 -15.66,49.93 -15.44,49.95 -15.25,50.04 -15.06,50.13 -14.90,50.27 -14.75,50.42 -14.65,50.61 -14.55,50.80 -14.52,51.01 -14.48,51.22 -14.52,51.42 -14.55,51.63 -14.65,51.82 -14.75,52.01 -14.90,52.16 -15.06,52.30 -15.25,52.39 -15.44,52.48 -15.65,52.51 -15.86,52.53 -16.07,52.48 -16.28,52.44 -16.46,52.33 -16.64,52.22 -16.78,52.06 -16.92,51.90 -17.00,51.70 -17.08,51.50 -17.09,51.29 -17.10,51.08 -17.10,51.08 -17.10,51.08 -17.41,48.56 -17.72,46.04 -17.53,42.85 -17.33,39.66 -17.08,36.57 -16.83,33.48 -16.26,29.45 -15.68,25.42 -15.02,21.98 -14.35,18.53 -12.88,14.72 -11.40,10.90 -10.38,8.96 -9.37,7.02 -7.90,4.87 -6.43,2.73 -4.13,0.45 -1.83,-1.83 -1.58,-2.02 -1.34,-2.21 -1.05,-2.34 -0.77,-2.47 -0.46,-2.53 -0.15,-2.58 0.15,-2.56 0.46,-2.54 0.76,-2.45 1.06,-2.36 1.33,-2.20 1.59,-2.03 1.81,-1.81 2.03,-1.59 2.20,-1.33 2.36,-1.06 2.45,-0.76 2.54,-0.46 2.56,-0.15 2.58,0.15 2.52,0.46 2.47,0.77 2.34,1.05 2.21,1.34 2.02,1.58 1.83,1.83 1.83,1.83 L 1.83,1.83 Z"/></g><g transform="translate(333.9763433560929 235.07830170002268) rotate(0 18.188145591921057 -1.1367590994951229)" stroke="none"><path fill="#1e1e1e" d="M 0.41,-2.05 Q 0.41,-2.05 2.06,-1.88 3.71,-1.71 5.29,-1.94 6.87,-2.17 7.84,-3.03 8.81,-3.89 9.88,-5.14 10.95,-6.38 11.62,-7.99 12.28,-9.59 11.25,-10.12 10.21,-10.66 8.90,-9.90 7.59,-9.15 6.60,-7.52 5.60,-5.89 5.19,-4.16 4.77,-2.43 4.91,-0.64 5.04,1.14 5.62,2.58 6.19,4.01 7.45,5.17 8.71,6.33 11.69,5.85 14.67,5.36 17.43,4.08 20.18,2.79 22.93,0.76 25.67,-1.27 29.78,-3.83 33.88,-6.39 34.06,-6.50 34.25,-6.61 34.45,-6.66 34.66,-6.71 34.87,-6.69 35.08,-6.67 35.28,-6.58 35.47,-6.50 35.63,-6.35 35.78,-6.21 35.88,-6.02 35.99,-5.83 36.02,-5.63 36.06,-5.42 36.03,-5.21 36.00,-5.00 35.90,-4.81 35.80,-4.62 35.65,-4.47 35.50,-4.32 35.31,-4.23 35.11,-4.14 34.90,-4.11 34.69,-4.09 34.48,-4.13 34.28,-4.17 34.09,-4.28 33.91,-4.39 33.77,-4.55 33.63,-4.71 33.55,-4.90 33.47,-5.10 33.45,-5.31 33.44,-5.52 33.49,-5.73 33.55,-5.94 33.67,-6.11 33.78,-6.29 33.95,-6.42 34.12,-6.55 34.32,-6.62 34.52,-6.69 34.73,-6.70 34.94,-6.70 35.15,-6.63 35.35,-6.57 35.52,-6.44 35.69,-6.31 35.81,-6.14 35.93,-5.97 35.99,-5.76 36.05,-5.56 36.04,-5.35 36.03,-5.13 35.96,-4.93 35.88,-4.74 35.75,-4.57 35.61,-4.41 35.61,-4.41 35.61,-4.41 32.35,-0.54 29.08,3.31 25.81,5.73 22.54,8.15 18.84,9.67 15.13,11.18 10.60,11.13 6.06,11.07 3.48,8.64 0.89,6.20 0.11,3.78 -0.66,1.37 -0.63,-1.28 -0.61,-3.94 0.25,-6.53 1.12,-9.12 3.14,-11.49 5.17,-13.87 7.88,-14.85 10.59,-15.83 12.87,-15.34 15.16,-14.85 16.22,-13.66 17.28,-12.47 17.11,-9.97 16.95,-7.47 15.86,-5.25 14.77,-3.02 13.26,-1.40 11.74,0.20 9.70,1.46 7.66,2.72 5.24,2.87 2.82,3.02 1.20,2.53 -0.41,2.05 -0.64,1.97 -0.88,1.89 -1.10,1.76 -1.31,1.62 -1.49,1.44 -1.66,1.26 -1.79,1.04 -1.92,0.82 -1.99,0.58 -2.06,0.34 -2.07,0.09 -2.08,-0.16 -2.03,-0.40 -1.98,-0.65 -1.88,-0.88 -1.77,-1.11 -1.61,-1.30 -1.45,-1.50 -1.25,-1.65 -1.05,-1.80 -0.82,-1.90 -0.59,-2.00 -0.34,-2.04 -0.09,-2.09 0.15,-2.07 0.41,-2.05 0.41,-2.05 L 0.41,-2.05 Z"/></g><g transform="translate(346.48069345053864 205.52256511315096) rotate(0 6.252175047222863 -3.410277298485198)" stroke="none"><path fill="#1e1e1e" d="M -1.49,-2.48 Q -1.49,-2.48 0.13,-3.47 1.76,-4.46 6.48,-5.80 11.21,-7.13 11.41,-7.18 11.61,-7.24 11.83,-7.23 12.04,-7.22 12.24,-7.14 12.43,-7.07 12.60,-6.93 12.76,-6.79 12.87,-6.61 12.98,-6.43 13.03,-6.22 13.07,-6.02 13.05,-5.80 13.03,-5.59 12.94,-5.40 12.85,-5.21 12.71,-5.05 12.56,-4.90 12.37,-4.80 12.19,-4.70 11.98,-4.66 11.77,-4.62 11.56,-4.66 11.35,-4.69 11.16,-4.79 10.97,-4.89 10.83,-5.04 10.68,-5.20 10.59,-5.39 10.50,-5.58 10.47,-5.79 10.45,-6.00 10.50,-6.21 10.54,-6.42 10.65,-6.60 10.76,-6.78 10.92,-6.92 11.08,-7.06 11.28,-7.14 11.47,-7.22 11.69,-7.23 11.90,-7.24 12.10,-7.19 12.31,-7.13 12.48,-7.01 12.66,-6.90 12.79,-6.73 12.92,-6.56 12.99,-6.36 13.06,-6.16 13.06,-5.94 13.06,-5.73 12.99,-5.53 12.93,-5.33 12.80,-5.16 12.67,-4.99 12.49,-4.87 12.32,-4.75 12.32,-4.75 12.32,-4.75 8.54,-2.10 4.77,0.54 3.13,1.51 1.49,2.48 1.17,2.62 0.85,2.76 0.50,2.83 0.16,2.89 -0.18,2.87 -0.53,2.84 -0.86,2.74 -1.19,2.63 -1.49,2.45 -1.79,2.27 -2.04,2.02 -2.28,1.77 -2.46,1.48 -2.64,1.18 -2.74,0.84 -2.85,0.51 -2.87,0.16 -2.89,-0.18 -2.82,-0.52 -2.76,-0.87 -2.61,-1.18 -2.47,-1.50 -2.25,-1.78 -2.04,-2.05 -1.76,-2.27 -1.49,-2.48 -1.49,-2.48 L -1.49,-2.48 Z"/></g><g transform="translate(372.62615273892516 227.12098800355722) rotate(0 -2.273518198990132 3.4102772984851413)" stroke="none"><path fill="#1e1e1e" d="M 2.22,0 Q 2.22,0 2.26,2.02 2.30,4.04 3.72,3.51 5.15,2.97 5.86,1.82 6.57,0.67 7.21,-0.69 7.85,-2.05 6.88,-3.60 5.90,-5.15 4.28,-5.41 2.65,-5.67 0.63,-5.22 -1.38,-4.76 -3.30,-3.42 -5.21,-2.08 -7.38,-0.56 -9.56,0.94 -10.39,3.39 -11.23,5.85 -11.43,8.02 -11.63,10.19 -8.82,11.11 -6.00,12.03 -3.94,11.07 -1.88,10.11 0.16,8.03 2.20,5.94 3.94,4.16 5.68,2.37 6.70,0.80 7.72,-0.76 8.79,-1.98 9.86,-3.21 9.97,-3.39 10.09,-3.57 10.25,-3.71 10.41,-3.84 10.61,-3.92 10.81,-4.00 11.02,-4.01 11.23,-4.02 11.44,-3.96 11.64,-3.90 11.82,-3.78 11.99,-3.66 12.12,-3.49 12.25,-3.32 12.31,-3.12 12.38,-2.91 12.38,-2.70 12.37,-2.49 12.31,-2.29 12.24,-2.09 12.11,-1.92 11.98,-1.75 11.80,-1.63 11.62,-1.52 11.42,-1.46 11.21,-1.40 11.00,-1.42 10.79,-1.43 10.59,-1.51 10.39,-1.59 10.23,-1.73 10.07,-1.87 9.96,-2.05 9.86,-2.23 9.81,-2.44 9.77,-2.65 9.79,-2.86 9.82,-3.07 9.91,-3.26 10.00,-3.46 10.15,-3.61 10.29,-3.76 10.48,-3.86 10.67,-3.96 10.88,-3.99 11.09,-4.02 11.30,-3.99 11.51,-3.95 11.70,-3.85 11.88,-3.75 12.03,-3.60 12.17,-3.44 12.26,-3.25 12.35,-3.05 12.37,-2.84 12.39,-2.63 12.34,-2.42 12.30,-2.22 12.30,-2.22 12.30,-2.22 12.09,-0.29 11.88,1.63 10.79,3.71 9.69,5.80 7.99,8.01 6.29,10.23 3.32,12.94 0.35,15.65 -3.23,16.74 -6.82,17.83 -10.41,16.75 -14.00,15.68 -15.62,13.23 -17.23,10.79 -16.96,7.17 -16.70,3.55 -14.91,0.06 -13.11,-3.42 -10.63,-5.13 -8.15,-6.84 -5.27,-8.46 -2.39,-10.08 0.71,-10.44 3.82,-10.80 6.57,-9.90 9.33,-9.00 10.98,-6.93 12.63,-4.87 12.63,-2.45 12.63,-0.03 11.75,1.80 10.87,3.64 9.55,5.41 8.23,7.18 5.97,8.36 3.72,9.54 1.94,8.96 0.15,8.38 -1.07,6.74 -2.30,5.10 -2.26,2.55 -2.22,0 -2.18,-0.26 -2.15,-0.53 -2.06,-0.78 -1.96,-1.03 -1.81,-1.25 -1.66,-1.47 -1.46,-1.65 -1.26,-1.82 -1.02,-1.95 -0.78,-2.07 -0.52,-2.14 -0.26,-2.20 0.00,-2.20 0.26,-2.20 0.52,-2.14 0.78,-2.07 1.02,-1.95 1.26,-1.82 1.46,-1.64 1.66,-1.47 1.81,-1.25 1.96,-1.03 2.06,-0.78 2.15,-0.53 2.18,-0.26 2.22,0.00 2.22,0.00 L 2.22,0 Z"/></g><g transform="translate(407.8656848232722 190.7446968197151) rotate(0 -5.115415947727797 15.914627392930925)" stroke="none"><path fill="#1e1e1e" d="M -2.02,0.50 Q -2.02,0.50 -2.98,-2.03 -3.94,-4.57 -3.98,-4.89 -4.02,-5.22 -3.98,-5.54 -3.94,-5.87 -3.83,-6.17 -3.71,-6.48 -3.53,-6.75 -3.34,-7.02 -3.10,-7.24 -2.85,-7.45 -2.56,-7.61 -2.27,-7.76 -1.96,-7.84 -1.64,-7.92 -1.31,-7.92 -0.98,-7.92 -0.67,-7.84 -0.35,-7.77 -0.06,-7.62 0.22,-7.46 0.47,-7.25 0.72,-7.03 0.90,-6.76 1.09,-6.49 1.21,-6.19 1.32,-5.88 1.17,-4.04 1.02,-2.19 0.60,1.09 0.19,4.38 -0.65,9.18 -1.50,13.99 -2.94,19.96 -4.39,25.94 -5.72,30.30 -7.05,34.66 -7.71,36.51 -8.38,38.36 -8.45,38.56 -8.52,38.76 -8.66,38.92 -8.79,39.09 -8.97,39.20 -9.15,39.31 -9.36,39.36 -9.57,39.41 -9.78,39.39 -9.99,39.37 -10.18,39.29 -10.38,39.20 -10.54,39.06 -10.69,38.92 -10.80,38.73 -10.90,38.55 -10.94,38.34 -10.98,38.13 -10.95,37.92 -10.92,37.71 -10.82,37.52 -10.72,37.33 -10.57,37.18 -10.42,37.03 -10.23,36.94 -10.04,36.84 -9.83,36.82 -9.62,36.79 -9.41,36.83 -9.20,36.87 -9.02,36.98 -8.83,37.09 -8.69,37.24 -8.55,37.40 -8.47,37.60 -8.39,37.80 -8.37,38.01 -8.35,38.22 -8.41,38.43 -8.46,38.63 -8.58,38.81 -8.69,38.99 -8.86,39.12 -9.03,39.25 -9.23,39.32 -9.43,39.39 -9.64,39.40 -9.85,39.40 -10.05,39.34 -10.26,39.27 -10.43,39.15 -10.60,39.02 -10.72,38.85 -10.84,38.68 -10.91,38.47 -10.97,38.27 -10.96,38.06 -10.95,37.84 -10.95,37.84 -10.95,37.84 -10.85,35.88 -10.75,33.92 -10.29,29.32 -9.84,24.71 -8.60,18.83 -7.37,12.94 -6.53,8.28 -5.69,3.62 -4.81,-0.47 -3.94,-4.57 -3.98,-4.89 -4.02,-5.21 -3.98,-5.54 -3.94,-5.87 -3.83,-6.17 -3.71,-6.48 -3.53,-6.75 -3.34,-7.02 -3.10,-7.24 -2.85,-7.45 -2.56,-7.61 -2.27,-7.76 -1.96,-7.84 -1.64,-7.92 -1.31,-7.92 -0.98,-7.92 -0.67,-7.84 -0.35,-7.77 -0.06,-7.62 0.22,-7.46 0.47,-7.25 0.71,-7.03 0.90,-6.76 1.09,-6.49 1.21,-6.19 1.32,-5.88 1.67,-3.19 2.02,-0.50 2.05,-0.25 2.08,-0.00 2.05,0.24 2.02,0.49 1.93,0.72 1.84,0.96 1.70,1.16 1.56,1.37 1.37,1.54 1.18,1.70 0.96,1.82 0.74,1.94 0.50,2.00 0.25,2.06 0.00,2.06 -0.24,2.06 -0.48,2.00 -0.73,1.94 -0.95,1.83 -1.17,1.71 -1.36,1.55 -1.55,1.38 -1.69,1.17 -1.84,0.97 -1.93,0.73 -2.02,0.50 -2.02,0.50 L -2.02,0.50 Z"/></g><g transform="translate(401.0451302263018 254.4032063914387) rotate(0 0 4.547036397980264)" stroke="none"><path fill="#1e1e1e" d="M 2.08,0 Q 2.08,0 2.24,1.96 2.40,3.92 1.86,6.25 1.31,8.57 1.27,8.78 1.24,8.99 1.14,9.18 1.04,9.37 0.89,9.51 0.73,9.66 0.54,9.75 0.35,9.84 0.14,9.86 -0.07,9.89 -0.27,9.84 -0.48,9.79 -0.66,9.68 -0.85,9.57 -0.98,9.41 -1.12,9.25 -1.20,9.05 -1.28,8.86 -1.29,8.64 -1.30,8.43 -1.24,8.23 -1.19,8.02 -1.07,7.85 -0.95,7.67 -0.78,7.54 -0.61,7.41 -0.41,7.35 -0.21,7.28 0.00,7.28 0.21,7.28 0.41,7.35 0.61,7.41 0.78,7.54 0.95,7.67 1.07,7.85 1.19,8.02 1.24,8.23 1.30,8.43 1.29,8.64 1.28,8.86 1.20,9.05 1.12,9.25 0.98,9.41 0.84,9.58 0.66,9.68 0.48,9.79 0.27,9.84 0.07,9.89 -0.14,9.86 -0.35,9.84 -0.54,9.75 -0.73,9.66 -0.89,9.51 -1.04,9.37 -1.14,9.18 -1.24,8.99 -1.27,8.78 -1.31,8.57 -1.31,8.57 -1.31,8.57 -1.86,6.25 -2.40,3.92 -2.24,1.96 -2.08,0 -2.05,-0.24 -2.02,-0.49 -1.93,-0.73 -1.84,-0.96 -1.70,-1.17 -1.55,-1.38 -1.37,-1.54 -1.18,-1.71 -0.96,-1.83 -0.73,-1.94 -0.49,-2.00 -0.25,-2.06 0.00,-2.06 0.25,-2.06 0.49,-2.00 0.73,-1.94 0.96,-1.83 1.18,-1.71 1.37,-1.54 1.55,-1.38 1.70,-1.17 1.84,-0.96 1.93,-0.73 2.02,-0.49 2.05,-0.24 2.08,0.00 2.08,0.00 L 2.08,0 Z"/></g><g transform="translate(81.61582326818916 146.41109193940764) rotate(0 6.820554596970396 -31.26087523611426)" stroke="none"><path fill="#1e1e1e" d="M -1.11,-0.93 Q -1.11,-0.93 0.14,-3.20 1.40,-5.47 2.63,-7.49 3.86,-9.51 4.99,-12.22 6.12,-14.92 7.58,-19.31 9.04,-23.70 9.63,-28.01 10.22,-32.31 10.52,-36.74 10.81,-41.17 10.33,-45.84 9.84,-50.51 9.00,-53.37 8.17,-56.23 8.08,-58.43 7.99,-60.62 7.93,-60.83 7.88,-61.04 7.90,-61.25 7.91,-61.46 7.99,-61.66 8.08,-61.85 8.22,-62.01 8.36,-62.17 8.54,-62.28 8.73,-62.38 8.94,-62.42 9.14,-62.46 9.35,-62.44 9.57,-62.41 9.76,-62.32 9.95,-62.22 10.10,-62.08 10.25,-61.93 10.35,-61.74 10.44,-61.55 10.47,-61.34 10.50,-61.13 10.46,-60.92 10.43,-60.71 10.32,-60.52 10.22,-60.34 10.06,-60.19 9.90,-60.05 9.71,-59.97 9.52,-59.88 9.30,-59.86 9.09,-59.84 8.89,-59.89 8.68,-59.94 8.50,-60.05 8.32,-60.17 8.19,-60.33 8.05,-60.50 7.98,-60.70 7.90,-60.90 7.89,-61.11 7.89,-61.32 7.95,-61.52 8.01,-61.73 8.13,-61.90 8.25,-62.07 8.43,-62.20 8.60,-62.32 8.80,-62.39 9.00,-62.45 9.21,-62.45 9.43,-62.44 9.63,-62.37 9.83,-62.30 9.99,-62.17 10.16,-62.04 10.28,-61.86 10.39,-61.68 10.39,-61.68 10.39,-61.68 11.50,-59.60 12.62,-57.51 13.55,-54.27 14.48,-51.03 15.07,-45.96 15.66,-40.89 15.41,-36.25 15.17,-31.61 14.48,-26.87 13.79,-22.13 12.25,-17.54 10.71,-12.96 9.38,-9.92 8.06,-6.88 6.59,-4.62 5.13,-2.37 3.12,-0.72 1.11,0.93 0.98,1.05 0.86,1.17 0.70,1.25 0.55,1.34 0.38,1.39 0.21,1.43 0.04,1.44 -0.13,1.44 -0.30,1.41 -0.47,1.37 -0.63,1.29 -0.78,1.22 -0.92,1.10 -1.05,0.99 -1.16,0.85 -1.26,0.71 -1.33,0.55 -1.40,0.39 -1.42,0.21 -1.45,0.04 -1.43,-0.13 -1.42,-0.30 -1.36,-0.47 -1.30,-0.63 -1.21,-0.78 -1.11,-0.93 -1.11,-0.93 L -1.11,-0.93 Z"/></g><g transform="translate(74.79526867121876 55.47036397980253) rotate(0 12.504350094445726 15.346247843183363)" stroke="none"><path fill="#1e1e1e" d="M 0.76,-1.14 Q 0.76,-1.14 1.96,-0.80 3.17,-0.45 4.16,0.67 5.16,1.79 6.19,3.21 7.21,4.64 8.05,6.37 8.88,8.11 9.30,10.01 9.71,11.92 10.16,13.51 10.60,15.11 10.84,17.66 11.08,20.22 10.83,22.42 10.58,24.63 10.45,26.06 10.32,27.50 11.59,28.08 12.86,28.67 13.96,28.42 15.05,28.17 16.40,28.04 17.75,27.91 18.71,27.07 19.66,26.24 20.66,25.39 21.66,24.54 22.10,22.89 22.54,21.23 22.73,19.48 22.92,17.73 22.27,16.80 21.63,15.86 19.42,16.73 17.21,17.59 17.04,17.72 16.87,17.85 16.66,17.91 16.46,17.98 16.25,17.98 16.04,17.97 15.84,17.91 15.64,17.84 15.47,17.71 15.30,17.58 15.18,17.40 15.07,17.22 15.01,17.02 14.96,16.81 14.97,16.60 14.98,16.39 15.06,16.19 15.14,15.99 15.28,15.83 15.42,15.67 15.60,15.56 15.79,15.46 16.00,15.41 16.20,15.37 16.41,15.39 16.63,15.42 16.82,15.51 17.01,15.60 17.16,15.75 17.32,15.90 17.41,16.08 17.51,16.27 17.54,16.48 17.58,16.69 17.54,16.90 17.50,17.11 17.40,17.30 17.30,17.49 17.14,17.63 16.99,17.77 16.80,17.86 16.60,17.95 16.39,17.97 16.18,17.99 15.97,17.94 15.76,17.90 15.58,17.79 15.40,17.67 15.27,17.51 15.13,17.35 15.05,17.15 14.98,16.95 14.97,16.74 14.96,16.53 15.02,16.32 15.08,16.12 15.20,15.94 15.32,15.77 15.32,15.77 15.32,15.77 18.95,14.03 22.58,12.29 24.09,12.90 25.59,13.52 26.23,15.73 26.88,17.95 26.79,19.41 26.71,20.88 26.13,22.65 25.56,24.42 24.84,26.08 24.11,27.74 23.06,28.61 22.01,29.47 20.52,30.42 19.03,31.36 17.71,31.63 16.40,31.89 14.58,32.28 12.76,32.66 11.54,32.61 10.31,32.56 8.74,31.98 7.16,31.40 6.59,30.44 6.01,29.48 5.95,28.34 5.89,27.19 5.97,25.63 6.05,24.07 6.29,22.32 6.52,20.58 6.37,18.43 6.21,16.29 5.74,14.53 5.27,12.76 5.05,11.37 4.84,9.98 4.20,8.59 3.55,7.20 2.15,5.13 0.75,3.06 -0.00,2.10 -0.76,1.14 -0.89,1.04 -1.01,0.93 -1.11,0.79 -1.21,0.66 -1.27,0.50 -1.33,0.35 -1.35,0.18 -1.37,0.02 -1.36,-0.14 -1.34,-0.30 -1.28,-0.46 -1.23,-0.62 -1.13,-0.76 -1.04,-0.89 -0.92,-1.01 -0.80,-1.12 -0.65,-1.20 -0.51,-1.28 -0.34,-1.32 -0.18,-1.36 -0.02,-1.36 0.14,-1.37 0.30,-1.33 0.46,-1.29 0.61,-1.22 0.76,-1.14 0.76,-1.14 L 0.76,-1.14 Z"/></g><g transform="translate(79.34230506919903 78.20554596970379) rotate(0 2.273518198990132 5.115415947727797)" stroke="none"><path fill="#1e1e1e" d="M 1.31,0.43 Q 1.31,0.43 1.21,1.49 1.11,2.54 1.22,4.15 1.33,5.76 3.51,7.29 5.68,8.82 5.86,8.93 6.05,9.03 6.19,9.19 6.33,9.35 6.41,9.55 6.49,9.75 6.50,9.96 6.52,10.17 6.47,10.38 6.41,10.58 6.30,10.76 6.18,10.94 6.01,11.07 5.84,11.20 5.64,11.27 5.44,11.34 5.23,11.34 5.02,11.35 4.82,11.28 4.61,11.22 4.44,11.09 4.27,10.97 4.15,10.79 4.03,10.62 3.97,10.41 3.91,10.21 3.92,10.00 3.93,9.79 4.00,9.59 4.08,9.39 4.21,9.22 4.35,9.06 4.53,8.95 4.71,8.84 4.91,8.79 5.12,8.74 5.33,8.76 5.54,8.78 5.74,8.86 5.93,8.95 6.09,9.09 6.25,9.24 6.35,9.42 6.45,9.61 6.49,9.82 6.53,10.03 6.49,10.24 6.46,10.45 6.37,10.64 6.27,10.83 6.12,10.98 5.97,11.12 5.77,11.22 5.58,11.31 5.37,11.33 5.16,11.36 4.95,11.32 4.74,11.28 4.74,11.28 4.74,11.28 2.28,10.23 -0.17,9.18 -1.15,8.02 -2.13,6.86 -2.45,5.38 -2.77,3.90 -2.59,2.64 -2.42,1.37 -1.86,0.47 -1.31,-0.43 -1.24,-0.58 -1.16,-0.73 -1.06,-0.86 -0.95,-0.99 -0.82,-1.09 -0.69,-1.19 -0.53,-1.26 -0.38,-1.32 -0.22,-1.35 -0.05,-1.38 0.10,-1.36 0.27,-1.35 0.43,-1.30 0.59,-1.25 0.73,-1.16 0.87,-1.07 0.99,-0.95 1.10,-0.83 1.18,-0.68 1.27,-0.54 1.31,-0.38 1.36,-0.22 1.37,-0.05 1.37,0.11 1.34,0.27 1.31,0.43 1.31,0.43 L 1.31,0.43 Z"/></g></svg>