<svg version="1.1" xmlns="http://www.w3.org/2000/svg" viewBox="0 0 794.8528843749204 563.4858053168349" width="794.8528843749204" height="563.4858053168349" class="excalidraw-svg">
  <!-- svg-source:excalidraw -->
  
  <defs>
    <style class="style-fonts">
      
    </style>
    
  </defs>
  <rect x="0" y="0" width="794.8528843749204" height="563.4858053168349" fill="#ffffff"/><g stroke-opacity="0.5" fill-opacity="0.5" stroke-linecap="round" transform="translate(10 430.09002981918945) rotate(0 387.4264421874602 61.69788774882272)"><path d="M535.31 4.47 C563.78 5.17, 589.49 7.74, 613.57 10.62 C637.64 13.5, 660.25 18.11, 679.76 21.76 C699.27 25.42, 716.79 28.33, 730.65 32.53 C744.51 36.73, 755.6 42.32, 762.92 46.98 C770.24 51.64, 774.03 55.72, 774.55 60.48 C775.08 65.24, 772.53 71.01, 766.07 75.54 C759.6 80.07, 748.62 83.38, 735.75 87.67 C722.88 91.95, 707.37 97.3, 688.85 101.24 C670.33 105.19, 648.2 108.62, 624.64 111.34 C601.07 114.07, 574.61 115.82, 547.47 117.6 C520.34 119.39, 491.2 121.16, 461.82 122.05 C432.43 122.95, 400.97 123.2, 371.17 122.96 C341.37 122.73, 311.59 121.93, 283.03 120.65 C254.47 119.38, 226.02 117.62, 199.81 115.32 C173.61 113.01, 147.75 109.96, 125.78 106.83 C103.81 103.7, 84.74 100.5, 67.99 96.53 C51.23 92.57, 36.05 87.47, 25.25 83.05 C14.45 78.63, 7.18 74.54, 3.18 70.02 C-0.83 65.51, -1.88 60.63, 1.22 55.94 C4.33 51.25, 12.1 46.32, 21.81 41.86 C31.53 37.41, 43.78 33.27, 59.53 29.23 C75.29 25.19, 95.12 21.06, 116.36 17.6 C137.6 14.14, 161.35 10.9, 186.97 8.46 C212.59 6.02, 241.6 4.42, 270.09 2.97 C298.58 1.52, 328.34 0.14, 357.9 -0.22 C387.46 -0.58, 417.33 -0.12, 447.44 0.8 C477.55 1.73, 523.14 4.27, 538.58 5.33 C554.01 6.39, 542.44 6.25, 540.08 7.16 M517.63 3.08 C546.14 3.75, 573.41 7.6, 598.41 10.08 C623.42 12.57, 646.99 14.74, 667.68 17.97 C688.37 21.21, 707.57 25.34, 722.57 29.49 C737.56 33.64, 749.1 38.34, 757.64 42.88 C766.18 47.42, 771.9 51.92, 773.81 56.73 C775.73 61.54, 774.01 66.76, 769.13 71.74 C764.26 76.71, 756.47 81.92, 744.57 86.59 C732.66 91.26, 715.56 96.13, 697.7 99.76 C679.83 103.38, 659.94 105.64, 637.38 108.31 C614.81 110.98, 588.77 113.5, 562.3 115.76 C535.84 118.01, 507.76 120.4, 478.57 121.83 C449.37 123.26, 417.17 124.48, 387.14 124.32 C357.11 124.15, 327.33 122.12, 298.38 120.84 C269.43 119.56, 240.05 118.71, 213.45 116.63 C186.86 114.55, 161.61 111.48, 138.81 108.34 C116.01 105.2, 94.22 101.22, 76.66 97.78 C59.11 94.33, 45 92.06, 33.48 87.68 C21.95 83.29, 13.03 76.24, 7.51 71.45 C2 66.66, -1.14 63.32, 0.42 58.94 C1.97 54.55, 8.22 49.96, 16.85 45.13 C25.48 40.3, 37.62 34.14, 52.21 29.94 C66.8 25.73, 84.16 23.39, 104.39 19.89 C124.62 16.39, 148.79 11.57, 173.59 8.94 C198.39 6.31, 225.18 5.55, 253.2 4.13 C281.22 2.72, 312.13 1.05, 341.71 0.43 C371.29 -0.18, 401.02 -0.18, 430.68 0.44 C460.34 1.07, 505.6 3.32, 519.7 4.19 C533.79 5.06, 517.76 5.02, 515.23 5.66" stroke="none" stroke-width="0" fill="#a5d8ff"/><path d="M298.78 1.17 C324.69 -0.72, 357.84 0.06, 387.56 0.31 C417.29 0.56, 448.17 1.56, 477.14 2.65 C506.12 3.74, 534.67 4.8, 561.42 6.86 C588.18 8.92, 614.91 12.09, 637.66 15.01 C660.4 17.92, 680.11 20.65, 697.89 24.36 C715.67 28.08, 732.52 32.84, 744.34 37.28 C756.15 41.71, 763.86 46.28, 768.78 50.98 C773.71 55.68, 775.61 60.74, 773.88 65.46 C772.16 70.18, 766.99 74.63, 758.43 79.31 C749.87 83.99, 737.47 89.52, 722.54 93.56 C707.6 97.6, 689.34 100.35, 668.82 103.56 C648.3 106.77, 624.38 110.28, 599.44 112.82 C574.49 115.37, 547.01 117.16, 519.15 118.86 C491.29 120.55, 461.86 122.44, 432.29 123.01 C402.72 123.59, 371.48 122.94, 341.74 122.32 C311.99 121.7, 281.9 120.72, 253.82 119.3 C225.75 117.88, 198.22 116.23, 173.28 113.8 C148.33 111.37, 124.57 108.38, 104.15 104.75 C83.74 101.12, 65.35 96.12, 50.79 92.01 C36.23 87.9, 25.24 84.44, 16.78 80.12 C8.32 75.8, 1.86 70.91, 0.03 66.09 C-1.79 61.26, 0.51 56.08, 5.83 51.18 C11.16 46.27, 19.95 40.92, 31.98 36.66 C44.01 32.39, 60.27 29.27, 78.03 25.59 C95.78 21.91, 115.79 17.92, 138.49 14.59 C161.2 11.26, 186.58 7.78, 214.23 5.61 C241.89 3.44, 288.42 1.93, 304.42 1.57 C320.43 1.21, 309.06 2.43, 310.24 3.45 M224.48 6.15 C247.71 3.59, 280.99 2.66, 310.25 1.53 C339.5 0.39, 370.18 -0.97, 400.01 -0.63 C429.84 -0.3, 460.39 2.21, 489.23 3.54 C518.07 4.87, 546.87 5.22, 573.03 7.37 C599.19 9.51, 624.01 13.25, 646.18 16.4 C668.35 19.54, 689.33 22.41, 706.06 26.22 C722.8 30.04, 735.92 35.04, 746.6 39.28 C757.29 43.52, 765.87 47.06, 770.16 51.67 C774.45 56.27, 775.06 62.22, 772.35 66.93 C769.64 71.64, 763.07 75.48, 753.88 79.94 C744.69 84.39, 732.82 89.31, 717.23 93.66 C701.63 98, 681.33 102.5, 660.31 106 C639.3 109.5, 616.3 112, 591.13 114.63 C565.96 117.27, 537.72 120.22, 509.28 121.8 C480.85 123.38, 450.36 123.86, 420.51 124.12 C390.65 124.39, 359.79 124.18, 330.13 123.39 C300.48 122.6, 270.31 121.34, 242.59 119.37 C214.86 117.4, 187.95 114.13, 163.8 111.57 C139.66 109.01, 117.39 107.28, 97.72 104.02 C78.04 100.76, 59.99 96.21, 45.76 92.02 C31.53 87.84, 19.73 83.78, 12.36 78.92 C4.99 74.05, 2.34 67.57, 1.53 62.81 C0.72 58.05, 1.35 55.09, 7.48 50.36 C13.61 45.63, 25.26 39.01, 38.31 34.44 C51.35 29.88, 67.3 26.44, 85.73 22.97 C104.16 19.49, 125.65 16.67, 148.9 13.58 C172.15 10.48, 212.03 5.44, 225.24 4.41 C238.45 3.38, 225.33 6.06, 228.16 7.41" stroke="#1e1e1e" stroke-width="1" fill="none"/></g><g transform="translate(158.80078810010195 283.1038854764063) rotate(0 -42.190467357650846 -52.1710080229015)" stroke="none"><path fill="#1e1e1e" d="M -2.23,0 Q -2.23,0 -2.40,-1.56 -2.57,-3.12 -3.13,-5.62 -3.69,-8.13 -4.20,-11.71 -4.71,-15.29 -5.96,-22.21 -7.20,-29.13 -9.02,-36.71 -10.84,-44.29 -13.18,-52.71 -15.51,-61.14 -18.31,-69.91 -21.11,-78.67 -24.65,-88.91 -28.19,-99.15 -30.98,-106.33 -33.78,-113.52 -35.99,-118.35 -38.20,-123.17 -39.88,-126.20 -41.57,-129.23 -43.00,-131.20 -44.44,-133.17 -45.72,-134.42 -47.01,-135.67 -47.99,-136.93 -48.98,-138.19 -49.88,-138.85 -50.78,-139.52 -52.21,-139.11 -53.64,-138.70 -55.08,-136.96 -56.52,-135.22 -57.79,-132.84 -59.06,-130.46 -60.39,-127.38 -61.71,-124.31 -63.57,-119.12 -65.44,-113.94 -66.45,-109.01 -67.46,-104.08 -68.71,-99.24 -69.96,-94.40 -70.98,-89.30 -72.01,-84.21 -72.69,-78.22 -73.38,-72.22 -74.73,-63.06 -76.08,-53.91 -77.44,-45.58 -78.79,-37.25 -79.35,-30.43 -79.91,-23.61 -80.95,-17.68 -81.99,-11.74 -82.42,-6.78 -82.84,-1.83 -83.29,2.44 -83.74,6.71 -83.92,11.29 -84.11,15.88 -84.19,19.41 -84.27,22.93 -84.31,25.21 -84.35,27.48 -83.70,29.05 -83.05,30.61 -80.78,31.77 -78.51,32.92 -77.35,33.08 -76.19,33.23 -74.64,33.34 -73.09,33.45 -69.83,33.49 -66.58,33.54 -63.24,33.83 -59.90,34.12 -56.51,34.23 -53.11,34.35 -48.64,34.93 -44.17,35.51 -40.34,35.75 -36.50,35.98 -33.51,35.57 -30.53,35.15 -27.90,34.72 -25.26,34.29 -22.50,33.37 -19.73,32.45 -17.21,31.52 -14.69,30.60 -12.49,29.92 -10.29,29.25 -8.44,28.93 -6.60,28.61 -4.46,27.75 -2.33,26.88 -1.66,26.03 -0.99,25.18 -0.54,23.42 -0.10,21.65 -0.07,20.38 -0.05,19.12 -0.04,17.53 -0.02,15.95 -0.01,14.24 -0.00,12.52 0.33,10.09 0.67,7.65 0.68,7.44 0.68,7.23 0.75,7.03 0.82,6.83 0.95,6.66 1.09,6.49 1.26,6.38 1.44,6.26 1.65,6.21 1.85,6.15 2.07,6.17 2.28,6.18 2.47,6.27 2.67,6.35 2.83,6.49 2.99,6.63 3.09,6.81 3.20,7.00 3.24,7.21 3.28,7.41 3.26,7.63 3.23,7.84 3.14,8.03 3.05,8.22 2.90,8.37 2.75,8.52 2.56,8.62 2.37,8.71 2.16,8.74 1.95,8.78 1.74,8.74 1.53,8.70 1.34,8.60 1.16,8.49 1.02,8.34 0.87,8.18 0.79,7.98 0.70,7.79 0.68,7.58 0.66,7.37 0.71,7.16 0.76,6.95 0.87,6.77 0.99,6.59 1.15,6.46 1.32,6.32 1.51,6.25 1.71,6.17 1.93,6.17 2.14,6.16 2.34,6.22 2.55,6.28 2.72,6.40 2.89,6.52 3.02,6.70 3.14,6.87 3.21,7.07 3.27,7.27 3.27,7.27 3.27,7.27 4.35,9.90 5.43,12.53 5.43,14.26 5.43,15.99 5.42,17.61 5.41,19.23 5.39,20.58 5.36,21.93 4.90,24.34 4.44,26.74 3.88,27.77 3.31,28.80 2.17,29.79 1.02,30.77 -0.69,31.57 -2.42,32.38 -4.03,33.14 -5.64,33.90 -7.18,34.14 -8.71,34.39 -10.78,35.02 -12.85,35.66 -15.45,36.60 -18.06,37.55 -21.22,38.57 -24.39,39.58 -27.11,40.03 -29.84,40.47 -33.33,40.90 -36.81,41.32 -40.84,41.07 -44.87,40.81 -49.08,40.25 -53.30,39.69 -56.83,39.56 -60.37,39.43 -63.52,39.15 -66.66,38.87 -70.08,38.81 -73.49,38.75 -75.35,38.60 -77.20,38.45 -79.16,38.00 -81.11,37.54 -82.22,36.89 -83.32,36.24 -84.63,35.60 -85.94,34.96 -86.75,34.19 -87.56,33.42 -88.35,31.96 -89.15,30.50 -89.45,28.96 -89.75,27.43 -89.72,25.12 -89.69,22.81 -89.61,19.23 -89.53,15.66 -89.33,10.90 -89.14,6.14 -88.70,1.92 -88.25,-2.29 -87.80,-7.49 -87.35,-12.69 -86.34,-18.38 -85.32,-24.06 -84.73,-31.09 -84.15,-38.12 -82.79,-46.41 -81.44,-54.70 -80.10,-63.77 -78.77,-72.85 -78.04,-79.07 -77.32,-85.29 -76.25,-90.52 -75.18,-95.75 -73.96,-100.46 -72.74,-105.18 -71.62,-110.47 -70.50,-115.75 -68.58,-121.10 -66.66,-126.45 -65.22,-129.75 -63.79,-133.04 -62.24,-135.83 -60.68,-138.63 -59.17,-140.46 -57.67,-142.30 -56.21,-143.76 -54.75,-145.22 -53.57,-145.57 -52.38,-145.92 -50.44,-145.18 -48.50,-144.44 -47.29,-143.84 -46.08,-143.23 -45.35,-142.39 -44.62,-141.56 -43.87,-140.57 -43.12,-139.58 -41.55,-137.99 -39.98,-136.40 -38.37,-134.15 -36.77,-131.90 -34.99,-128.68 -33.21,-125.45 -30.94,-120.48 -28.67,-115.51 -25.84,-108.22 -23.01,-100.94 -19.45,-90.64 -15.90,-80.34 -13.05,-71.47 -10.21,-62.60 -7.86,-54.09 -5.50,-45.57 -3.65,-37.83 -1.80,-30.09 -0.55,-23.06 0.69,-16.04 1.15,-12.58 1.60,-9.13 2.08,-6.13 2.57,-3.13 2.40,-1.56 2.23,0 2.19,0.26 2.16,0.53 2.07,0.78 1.97,1.03 1.82,1.25 1.66,1.47 1.46,1.65 1.26,1.83 1.02,1.96 0.79,2.08 0.52,2.15 0.26,2.21 -0.00,2.21 -0.26,2.21 -0.53,2.14 -0.79,2.08 -1.02,1.96 -1.26,1.83 -1.46,1.65 -1.66,1.47 -1.82,1.25 -1.97,1.03 -2.07,0.78 -2.16,0.53 -2.19,0.26 -2.23,-0.00 -2.23,-0.00 L -2.23,0 Z"/></g><g transform="translate(117.06398168178077 16.3512531506141) rotate(0 -7.258575029273345 44.912432993628286)" stroke="none"><path fill="#1e1e1e" d="M -1.10,0.82 Q -1.10,0.82 -2.29,0.09 -3.48,-0.64 -4.74,-1.51 -5.99,-2.38 -7.95,-2.74 -9.90,-3.09 -11.77,-3.27 -13.63,-3.45 -15.96,-3.53 -18.29,-3.61 -20.34,-3.64 -22.38,-3.67 -24.12,-3.43 -25.85,-3.19 -27.63,-2.84 -29.40,-2.49 -30.53,-2.13 -31.67,-1.77 -33.98,0.30 -36.30,2.37 -38.10,4.05 -39.91,5.73 -41.33,7.61 -42.76,9.49 -44.53,11.47 -46.30,13.45 -47.44,15.17 -48.57,16.88 -49.90,18.75 -51.23,20.61 -52.47,23.05 -53.71,25.49 -54.48,27.51 -55.25,29.52 -55.52,31.48 -55.80,33.43 -55.93,35.31 -56.07,37.18 -56.12,39.53 -56.16,41.87 -56.18,43.41 -56.20,44.94 -56.19,47.39 -56.19,49.85 -55.71,51.62 -55.23,53.39 -54.50,55.77 -53.77,58.15 -52.53,60.20 -51.29,62.26 -49.92,64.54 -48.55,66.82 -47.69,68.35 -46.83,69.88 -45.51,71.67 -44.19,73.47 -42.88,74.97 -41.57,76.48 -40.33,77.53 -39.10,78.59 -37.52,79.83 -35.95,81.07 -34.40,82.45 -32.85,83.84 -31.06,85.06 -29.27,86.29 -27.50,87.32 -25.74,88.35 -23.77,89.26 -21.80,90.18 -19.95,90.47 -18.10,90.77 -16.08,91.21 -14.05,91.65 -11.46,92.07 -8.87,92.49 -6.57,92.65 -4.27,92.82 -2.25,92.89 -0.23,92.96 1.73,92.74 3.70,92.51 6.41,92.15 9.12,91.79 12.34,90.65 15.56,89.52 18.31,88.49 21.07,87.47 23.09,86.35 25.10,85.22 26.52,83.87 27.95,82.52 29.22,80.57 30.49,78.61 31.89,76.40 33.28,74.19 34.56,71.34 35.84,68.49 36.61,65.84 37.38,63.18 37.98,60.74 38.58,58.29 39.09,55.49 39.59,52.70 40.06,49.19 40.54,45.68 40.73,42.96 40.93,40.24 40.76,38.26 40.59,36.28 39.85,34.77 39.12,33.26 37.53,30.49 35.94,27.71 34.02,25.04 32.09,22.37 29.78,19.74 27.46,17.11 24.57,14.82 21.69,12.54 18.22,11.15 14.76,9.76 7.92,9.88 1.09,10.01 -4.35,10.36 -9.80,10.71 -12.16,10.78 -14.53,10.85 -14.74,10.84 -14.95,10.83 -15.15,10.76 -15.35,10.68 -15.51,10.55 -15.68,10.41 -15.79,10.23 -15.90,10.05 -15.95,9.85 -16.00,9.64 -15.98,9.43 -15.96,9.22 -15.87,9.02 -15.79,8.83 -15.64,8.67 -15.50,8.51 -15.31,8.41 -15.13,8.31 -14.92,8.27 -14.71,8.23 -14.50,8.27 -14.29,8.30 -14.10,8.39 -13.91,8.49 -13.76,8.64 -13.61,8.79 -13.52,8.99 -13.43,9.18 -13.40,9.39 -13.38,9.60 -13.42,9.81 -13.46,10.02 -13.57,10.20 -13.67,10.38 -13.83,10.52 -13.99,10.66 -14.19,10.74 -14.39,10.83 -14.60,10.84 -14.81,10.86 -15.02,10.80 -15.22,10.75 -15.40,10.63 -15.58,10.51 -15.71,10.35 -15.84,10.18 -15.91,9.98 -15.98,9.78 -15.98,9.57 -15.99,9.35 -15.92,9.15 -15.86,8.95 -15.73,8.78 -15.60,8.61 -15.43,8.49 -15.26,8.36 -15.05,8.30 -14.85,8.24 -14.85,8.24 -14.85,8.24 -12.54,7.74 -10.23,7.23 -4.69,6.22 0.85,5.21 8.83,4.59 16.82,3.96 21.22,5.72 25.62,7.48 28.97,10.15 32.31,12.82 34.84,15.71 37.36,18.60 39.46,21.55 41.57,24.51 43.32,27.61 45.06,30.70 46.04,33.19 47.02,35.67 47.19,38.18 47.37,40.69 47.15,43.62 46.94,46.55 46.44,50.20 45.95,53.85 45.40,56.85 44.86,59.84 44.21,62.43 43.56,65.02 42.63,68.09 41.70,71.15 40.20,74.39 38.70,77.62 37.24,79.92 35.78,82.21 34.01,84.72 32.25,87.22 30.21,88.99 28.17,90.77 25.72,92.08 23.26,93.40 20.42,94.44 17.58,95.47 13.76,96.72 9.94,97.97 7.14,98.33 4.34,98.69 1.93,98.91 -0.46,99.14 -2.60,99.05 -4.74,98.96 -7.32,98.74 -9.89,98.53 -12.63,98.05 -15.37,97.58 -17.30,97.14 -19.23,96.70 -21.77,96.16 -24.31,95.62 -26.53,94.56 -28.76,93.50 -30.72,92.34 -32.68,91.17 -34.75,89.70 -36.82,88.23 -38.22,86.95 -39.62,85.67 -41.29,84.32 -42.96,82.97 -44.47,81.62 -45.97,80.26 -47.42,78.55 -48.86,76.84 -50.34,74.75 -51.81,72.67 -52.63,71.19 -53.45,69.72 -54.80,67.39 -56.15,65.07 -57.63,62.43 -59.11,59.79 -59.86,57.25 -60.61,54.72 -61.16,52.29 -61.72,49.86 -61.69,47.35 -61.66,44.84 -61.63,43.29 -61.59,41.73 -61.51,39.25 -61.43,36.78 -61.26,34.68 -61.10,32.59 -60.67,30.10 -60.24,27.62 -59.35,25.34 -58.45,23.05 -57.01,20.28 -55.57,17.52 -54.27,15.72 -52.98,13.92 -51.61,11.92 -50.25,9.93 -48.60,8.09 -46.94,6.26 -45.23,4.06 -43.51,1.87 -41.60,0.10 -39.69,-1.66 -37.79,-3.26 -35.88,-4.85 -34.64,-5.78 -33.40,-6.71 -31.91,-7.18 -30.42,-7.65 -28.47,-8.03 -26.52,-8.41 -24.41,-8.66 -22.29,-8.90 -20.20,-8.86 -18.10,-8.82 -15.59,-8.72 -13.09,-8.61 -10.94,-8.37 -8.80,-8.13 -6.22,-7.48 -3.64,-6.84 -1.64,-5.18 0.35,-3.52 0.72,-2.17 1.10,-0.82 1.18,-0.68 1.27,-0.53 1.31,-0.37 1.36,-0.22 1.36,-0.05 1.37,0.11 1.34,0.27 1.30,0.43 1.23,0.58 1.16,0.73 1.06,0.86 0.95,0.99 0.82,1.09 0.68,1.19 0.53,1.26 0.38,1.32 0.21,1.35 0.05,1.37 -0.11,1.36 -0.27,1.35 -0.43,1.29 -0.59,1.24 -0.73,1.15 -0.87,1.06 -0.98,0.94 -1.10,0.82 -1.10,0.82 L -1.10,0.82 Z"/></g><g transform="translate(140.65435052691885 71.6978877488227) rotate(0 14.970810997876072 5.897592211284518)" stroke="none"><path fill="#1e1e1e" d="M 1.20,-1.20 Q 1.20,-1.20 3.19,-0.08 5.19,1.02 7.91,2.47 10.63,3.93 12.60,4.86 14.56,5.79 16.16,6.10 17.76,6.41 21.79,7.71 25.82,9.02 27.57,9.54 29.32,10.05 29.52,10.12 29.73,10.19 29.89,10.32 30.06,10.45 30.18,10.63 30.30,10.80 30.36,11.01 30.41,11.21 30.40,11.42 30.39,11.64 30.31,11.83 30.23,12.03 30.09,12.19 29.96,12.35 29.77,12.46 29.59,12.57 29.38,12.62 29.18,12.66 28.96,12.64 28.75,12.61 28.56,12.53 28.37,12.44 28.21,12.29 28.06,12.14 27.96,11.95 27.86,11.77 27.83,11.56 27.79,11.35 27.83,11.14 27.86,10.93 27.96,10.74 28.06,10.55 28.22,10.41 28.37,10.26 28.57,10.17 28.76,10.08 28.97,10.06 29.18,10.04 29.39,10.09 29.60,10.13 29.78,10.24 29.96,10.35 30.10,10.51 30.24,10.68 30.31,10.87 30.39,11.07 30.40,11.28 30.41,11.50 30.36,11.70 30.30,11.90 30.18,12.08 30.06,12.26 29.89,12.38 29.72,12.51 29.52,12.58 29.32,12.65 29.10,12.65 28.89,12.65 28.89,12.65 28.89,12.65 27.07,12.57 25.24,12.49 20.86,12.40 16.47,12.30 14.23,11.77 12.00,11.24 9.83,10.20 7.67,9.15 4.36,7.19 1.06,5.23 -0.06,3.21 -1.20,1.20 -1.32,1.04 -1.45,0.87 -1.53,0.69 -1.62,0.50 -1.66,0.30 -1.69,0.10 -1.68,-0.10 -1.67,-0.30 -1.61,-0.50 -1.55,-0.69 -1.44,-0.87 -1.33,-1.04 -1.19,-1.19 -1.04,-1.33 -0.87,-1.44 -0.69,-1.55 -0.50,-1.61 -0.30,-1.67 -0.10,-1.68 0.10,-1.69 0.30,-1.66 0.50,-1.62 0.69,-1.53 0.88,-1.45 1.04,-1.32 1.20,-1.20 1.20,-1.20 L 1.20,-1.20 Z"/></g><g transform="translate(124.32255671105395 59.90270332625366) rotate(0 -1.3609828179887131 4.536609393295777)" stroke="none"><path fill="#1e1e1e" d="M 0.91,1.37 Q 0.91,1.37 0.56,2.13 0.21,2.89 0.21,4.93 0.22,6.98 0.16,8.17 0.10,9.36 0.03,9.69 -0.03,10.01 -0.18,10.31 -0.32,10.61 -0.53,10.86 -0.74,11.12 -1.01,11.31 -1.28,11.51 -1.58,11.64 -1.89,11.76 -2.21,11.81 -2.54,11.86 -2.87,11.83 -3.20,11.80 -3.51,11.70 -3.83,11.59 -4.11,11.41 -4.38,11.23 -4.61,10.99 -4.84,10.75 -5.00,10.46 -5.16,10.17 -5.25,9.85 -5.34,9.54 -5.35,9.20 -5.36,8.87 -4.81,7.00 -4.26,5.13 -4.06,3.22 -3.86,1.32 -3.81,0.09 -3.75,-1.13 -3.69,-1.47 -3.64,-1.80 -3.50,-2.12 -3.36,-2.43 -3.15,-2.70 -2.94,-2.97 -2.67,-3.18 -2.41,-3.39 -2.09,-3.53 -1.78,-3.68 -1.45,-3.74 -1.11,-3.80 -0.77,-3.78 -0.43,-3.76 -0.11,-3.66 0.21,-3.56 0.50,-3.39 0.80,-3.21 1.04,-2.97 1.28,-2.73 1.46,-2.44 1.64,-2.15 1.74,-1.83 1.85,-1.50 1.87,-1.16 1.89,-0.82 1.24,0.10 0.60,1.03 -0.35,1.75 -1.30,2.47 -1.39,2.66 -1.47,2.86 -1.61,3.02 -1.75,3.17 -1.94,3.28 -2.12,3.38 -2.33,3.43 -2.54,3.47 -2.75,3.44 -2.96,3.41 -3.15,3.32 -3.34,3.22 -3.49,3.07 -3.64,2.92 -3.74,2.73 -3.83,2.54 -3.86,2.33 -3.89,2.12 -3.85,1.91 -3.81,1.70 -3.71,1.52 -3.60,1.33 -3.45,1.19 -3.29,1.05 -3.09,0.96 -2.90,0.88 -2.69,0.86 -2.48,0.84 -2.27,0.89 -2.06,0.95 -1.88,1.06 -1.70,1.17 -1.57,1.34 -1.44,1.50 -1.36,1.70 -1.29,1.90 -1.28,2.11 -1.28,2.33 -1.34,2.53 -1.40,2.73 -1.52,2.91 -1.65,3.08 -1.82,3.20 -1.99,3.33 -2.19,3.39 -2.40,3.45 -2.61,3.45 -2.82,3.44 -3.02,3.37 -3.22,3.30 -3.39,3.17 -3.55,3.03 -3.67,2.85 -3.78,2.68 -3.84,2.47 -3.89,2.26 -3.87,2.05 -3.85,1.84 -3.85,1.84 -3.85,1.84 -3.14,-0.53 -2.43,-2.91 -3.09,-2.02 -3.75,-1.13 -3.69,-1.47 -3.64,-1.80 -3.50,-2.12 -3.36,-2.43 -3.15,-2.70 -2.94,-2.97 -2.67,-3.18 -2.41,-3.39 -2.09,-3.53 -1.78,-3.67 -1.45,-3.74 -1.11,-3.80 -0.77,-3.78 -0.43,-3.76 -0.11,-3.66 0.21,-3.56 0.50,-3.39 0.80,-3.21 1.04,-2.97 1.28,-2.73 1.46,-2.44 1.64,-2.15 1.74,-1.83 1.85,-1.50 1.87,-1.16 1.89,-0.82 1.83,0.49 1.77,1.81 1.66,2.99 1.56,4.17 1.24,5.77 0.93,7.37 0.51,8.37 0.10,9.36 0.03,9.69 -0.03,10.01 -0.18,10.31 -0.32,10.61 -0.53,10.86 -0.74,11.12 -1.01,11.31 -1.28,11.51 -1.58,11.64 -1.89,11.76 -2.21,11.81 -2.54,11.86 -2.87,11.83 -3.20,11.80 -3.51,11.70 -3.83,11.59 -4.10,11.41 -4.38,11.23 -4.61,10.99 -4.84,10.75 -5.00,10.46 -5.16,10.17 -5.25,9.85 -5.34,9.54 -5.35,9.20 -5.36,8.87 -5.30,7.68 -5.24,6.49 -5.05,4.69 -4.86,2.88 -4.10,1.03 -3.34,-0.81 -2.12,-1.09 -0.91,-1.37 -0.73,-1.45 -0.55,-1.54 -0.36,-1.59 -0.17,-1.63 0.02,-1.63 0.22,-1.63 0.41,-1.58 0.60,-1.53 0.78,-1.43 0.95,-1.34 1.10,-1.20 1.25,-1.07 1.36,-0.90 1.47,-0.74 1.53,-0.55 1.60,-0.36 1.62,-0.17 1.64,0.02 1.61,0.22 1.59,0.42 1.51,0.60 1.44,0.78 1.33,0.95 1.21,1.11 1.06,1.24 0.91,1.37 0.91,1.37 L 0.91,1.37 Z"/></g><g transform="translate(91.65896907932427 60.81002520491282) rotate(0 -6.804914089943679 7.712235968602812)" stroke="none"><path fill="#1e1e1e" d="M -1.42,1.42 Q -1.42,1.42 -2.48,0.93 -3.54,0.45 -5.26,0.75 -6.98,1.06 -7.86,2.01 -8.73,2.95 -9.28,4.15 -9.83,5.35 -9.30,7.47 -8.77,9.58 -7.93,11.09 -7.10,12.59 -5.77,14.51 -4.43,16.43 -4.30,16.60 -4.18,16.77 -4.11,16.97 -4.04,17.17 -4.04,17.38 -4.04,17.60 -4.10,17.80 -4.17,18.00 -4.30,18.17 -4.43,18.34 -4.60,18.46 -4.78,18.58 -4.98,18.63 -5.19,18.69 -5.40,18.68 -5.61,18.67 -5.81,18.59 -6.01,18.51 -6.17,18.38 -6.33,18.24 -6.44,18.06 -6.55,17.88 -6.60,17.67 -6.64,17.46 -6.62,17.25 -6.60,17.04 -6.51,16.85 -6.42,16.65 -6.28,16.50 -6.13,16.34 -5.94,16.24 -5.76,16.14 -5.55,16.11 -5.34,16.07 -5.13,16.11 -4.92,16.14 -4.73,16.24 -4.54,16.34 -4.40,16.49 -4.25,16.65 -4.16,16.84 -4.07,17.03 -4.05,17.24 -4.02,17.45 -4.07,17.66 -4.11,17.87 -4.22,18.05 -4.33,18.23 -4.49,18.37 -4.65,18.51 -4.85,18.59 -5.05,18.67 -5.26,18.68 -5.47,18.69 -5.68,18.64 -5.88,18.58 -6.06,18.46 -6.23,18.34 -6.23,18.34 -6.23,18.34 -8.54,16.84 -10.85,15.33 -12.33,13.64 -13.82,11.95 -14.82,9.30 -15.83,6.66 -15.37,4.68 -14.91,2.70 -13.79,0.76 -12.67,-1.17 -10.85,-2.71 -9.02,-4.24 -7.09,-4.79 -5.15,-5.34 -3.29,-5.04 -1.44,-4.75 -0.51,-4.16 0.41,-3.58 0.91,-2.50 1.42,-1.42 1.57,-1.23 1.72,-1.04 1.82,-0.82 1.92,-0.60 1.97,-0.36 2.01,-0.12 2.00,0.12 1.98,0.36 1.91,0.59 1.84,0.82 1.71,1.03 1.59,1.24 1.41,1.41 1.24,1.59 1.03,1.71 0.82,1.84 0.59,1.91 0.36,1.98 0.12,2.00 -0.12,2.01 -0.36,1.97 -0.60,1.92 -0.82,1.82 -1.04,1.72 -1.23,1.57 -1.42,1.42 -1.42,1.42 L -1.42,1.42 Z"/></g><g transform="translate(169.6886506440119 155.17150058546517) rotate(0 25.858673541785947 -24.497690723797263)" stroke="none"><path fill="#1e1e1e" d="M 0,-1.40 Q 0,-1.40 1.56,-2.07 3.13,-2.73 4.57,-2.76 6.02,-2.79 8.20,-2.82 10.38,-2.85 12.87,-2.88 15.37,-2.90 18.25,-2.92 21.13,-2.94 23.65,-3.45 26.17,-3.96 29.67,-4.71 33.16,-5.46 35.24,-6.24 37.32,-7.02 39.09,-7.65 40.86,-8.28 42.20,-8.98 43.54,-9.69 44.72,-10.29 45.90,-10.89 46.94,-11.60 47.98,-12.32 48.21,-13.67 48.43,-15.03 48.49,-16.18 48.55,-17.33 48.58,-18.60 48.61,-19.88 48.63,-21.46 48.65,-23.05 48.65,-24.25 48.66,-25.45 48.66,-27.00 48.66,-28.55 48.67,-29.72 48.67,-30.90 48.09,-33.11 47.51,-35.32 47.09,-36.95 46.66,-38.59 46.27,-39.65 45.87,-40.72 45.02,-42.60 44.18,-44.47 45.00,-46.76 45.82,-49.06 45.91,-49.25 46.01,-49.44 46.17,-49.58 46.32,-49.73 46.51,-49.82 46.70,-49.91 46.91,-49.94 47.12,-49.96 47.33,-49.92 47.54,-49.87 47.72,-49.76 47.91,-49.65 48.04,-49.49 48.18,-49.33 48.26,-49.14 48.34,-48.94 48.36,-48.73 48.37,-48.52 48.31,-48.31 48.26,-48.10 48.14,-47.93 48.02,-47.75 47.85,-47.62 47.69,-47.49 47.49,-47.42 47.28,-47.35 47.07,-47.35 46.86,-47.35 46.66,-47.42 46.46,-47.48 46.29,-47.61 46.12,-47.74 46.00,-47.91 45.87,-48.09 45.82,-48.29 45.76,-48.50 45.77,-48.71 45.78,-48.92 45.86,-49.12 45.93,-49.32 46.07,-49.48 46.21,-49.64 46.39,-49.75 46.57,-49.86 46.78,-49.91 46.98,-49.96 47.19,-49.94 47.41,-49.92 47.60,-49.83 47.79,-49.74 47.95,-49.59 48.10,-49.45 48.20,-49.26 48.30,-49.08 48.34,-48.87 48.38,-48.66 48.34,-48.45 48.31,-48.24 48.31,-48.24 48.31,-48.24 49.00,-47.64 49.69,-47.04 50.16,-46.04 50.63,-45.04 51.11,-43.92 51.59,-42.81 52.07,-41.46 52.56,-40.12 52.97,-38.54 53.38,-36.96 53.78,-35.52 54.18,-34.09 54.46,-32.50 54.75,-30.92 54.75,-29.73 54.76,-28.54 54.75,-26.98 54.75,-25.42 54.74,-24.21 54.74,-23.00 54.73,-21.36 54.71,-19.73 54.68,-18.34 54.64,-16.96 54.55,-15.53 54.45,-14.11 54.16,-12.54 53.87,-10.97 52.78,-9.20 51.70,-7.43 50.16,-6.46 48.62,-5.49 47.46,-4.90 46.30,-4.31 44.58,-3.45 42.87,-2.59 41.13,-1.98 39.39,-1.38 36.90,-0.49 34.41,0.40 30.84,1.13 27.26,1.87 24.20,2.40 21.14,2.94 18.25,2.92 15.37,2.90 12.87,2.88 10.38,2.85 8.20,2.82 6.02,2.79 4.57,2.76 3.13,2.73 1.56,2.07 0,1.40 -0.16,1.38 -0.33,1.36 -0.49,1.30 -0.65,1.24 -0.79,1.15 -0.93,1.05 -1.04,0.92 -1.16,0.80 -1.23,0.65 -1.31,0.49 -1.35,0.33 -1.39,0.16 -1.39,-0.00 -1.39,-0.16 -1.35,-0.33 -1.31,-0.49 -1.23,-0.65 -1.16,-0.80 -1.04,-0.92 -0.93,-1.05 -0.79,-1.15 -0.65,-1.24 -0.49,-1.30 -0.33,-1.36 -0.16,-1.38 0.00,-1.40 0.00,-1.40 L 0,-1.40 Z"/></g><g transform="translate(208.70349142635564 67.16127835552689) rotate(0 -2.268304696647931 15.878132876535261)" stroke="none"><path fill="#1e1e1e" d="M 0.97,1.29 Q 0.97,1.29 0.26,2.47 -0.44,3.65 -1.64,5.71 -2.85,7.78 -3.32,9.11 -3.79,10.45 -4.30,11.87 -4.80,13.29 -5.27,14.68 -5.74,16.06 -6.20,17.43 -6.66,18.80 -7.18,21.09 -7.70,23.39 -8.21,24.43 -8.71,25.47 -8.84,27.22 -8.98,28.96 -9.37,30.04 -9.76,31.12 -8.46,30.46 -7.16,29.81 -5.26,29.43 -3.36,29.05 -1.86,28.77 -0.36,28.49 1.08,28.26 2.54,28.03 5.03,27.95 7.52,27.86 7.73,27.83 7.94,27.79 8.14,27.83 8.35,27.86 8.54,27.96 8.73,28.06 8.88,28.21 9.02,28.36 9.11,28.56 9.20,28.75 9.23,28.96 9.25,29.17 9.21,29.38 9.16,29.59 9.05,29.77 8.94,29.95 8.78,30.09 8.62,30.23 8.42,30.31 8.23,30.39 8.01,30.40 7.80,30.41 7.60,30.35 7.39,30.30 7.22,30.18 7.04,30.06 6.91,29.89 6.78,29.72 6.71,29.52 6.64,29.32 6.64,29.11 6.64,28.90 6.71,28.69 6.78,28.49 6.91,28.32 7.03,28.15 7.21,28.03 7.38,27.91 7.59,27.86 7.79,27.80 8.01,27.81 8.22,27.82 8.42,27.90 8.61,27.98 8.78,28.11 8.94,28.25 9.05,28.43 9.16,28.61 9.20,28.82 9.25,29.03 9.23,29.24 9.21,29.45 9.12,29.65 9.03,29.84 8.88,29.99 8.74,30.15 8.55,30.25 8.36,30.35 8.36,30.35 8.36,30.35 6.86,31.71 5.36,33.08 3.37,33.55 1.38,34.02 0.15,34.37 -1.07,34.71 -2.21,34.74 -3.34,34.78 -4.45,35.14 -5.56,35.51 -6.94,35.50 -8.33,35.49 -9.58,35.45 -10.84,35.41 -12.33,34.98 -13.83,34.56 -14.40,33.63 -14.98,32.71 -14.74,30.65 -14.51,28.58 -14.39,26.99 -14.26,25.40 -13.65,23.64 -13.04,21.89 -12.73,20.77 -12.41,19.65 -12.16,18.34 -11.91,17.04 -11.44,15.65 -10.97,14.26 -10.48,12.85 -9.98,11.44 -9.45,9.95 -8.91,8.47 -8.16,6.65 -7.42,4.83 -6.59,3.59 -5.77,2.35 -4.75,0.91 -3.73,-0.52 -2.35,-0.90 -0.97,-1.29 -0.80,-1.39 -0.63,-1.48 -0.44,-1.54 -0.25,-1.59 -0.06,-1.60 0.13,-1.61 0.32,-1.57 0.51,-1.53 0.68,-1.45 0.86,-1.36 1.01,-1.24 1.16,-1.11 1.28,-0.96 1.40,-0.80 1.47,-0.62 1.55,-0.44 1.58,-0.25 1.61,-0.06 1.60,0.13 1.58,0.32 1.52,0.51 1.46,0.69 1.35,0.85 1.25,1.02 1.11,1.15 0.97,1.29 0.97,1.29 L 0.97,1.29 Z"/></g><g transform="translate(213.2401008196514 83.49307217139173) rotate(0 -1.814643757318322 4.536609393295777)" stroke="none"><path fill="#1e1e1e" d="M 1.38,0.55 Q 1.38,0.55 1.20,1.99 1.02,3.43 0.53,4.56 0.05,5.68 -1.09,7.35 -2.24,9.01 -2.33,9.20 -2.42,9.39 -2.57,9.55 -2.72,9.70 -2.91,9.80 -3.10,9.89 -3.31,9.92 -3.52,9.96 -3.73,9.92 -3.94,9.88 -4.12,9.78 -4.31,9.68 -4.45,9.52 -4.60,9.36 -4.68,9.17 -4.77,8.98 -4.79,8.77 -4.81,8.55 -4.76,8.35 -4.71,8.14 -4.60,7.96 -4.49,7.78 -4.33,7.64 -4.16,7.51 -3.96,7.43 -3.76,7.36 -3.55,7.35 -3.34,7.34 -3.14,7.40 -2.93,7.46 -2.76,7.58 -2.58,7.70 -2.46,7.87 -2.33,8.04 -2.27,8.25 -2.20,8.45 -2.20,8.66 -2.21,8.87 -2.28,9.07 -2.35,9.27 -2.48,9.44 -2.61,9.61 -2.79,9.73 -2.97,9.84 -3.17,9.90 -3.38,9.95 -3.59,9.94 -3.80,9.92 -4.00,9.84 -4.19,9.76 -4.35,9.62 -4.51,9.48 -4.62,9.30 -4.73,9.11 -4.77,8.90 -4.81,8.70 -4.79,8.48 -4.76,8.27 -4.76,8.27 -4.76,8.27 -4.41,6.05 -4.07,3.83 -3.58,2.80 -3.10,1.78 -2.24,0.61 -1.38,-0.55 -1.30,-0.71 -1.21,-0.87 -1.09,-1.00 -0.97,-1.13 -0.82,-1.23 -0.67,-1.33 -0.50,-1.39 -0.33,-1.45 -0.15,-1.47 0.02,-1.49 0.20,-1.46 0.38,-1.44 0.55,-1.37 0.71,-1.31 0.86,-1.20 1.01,-1.10 1.12,-0.96 1.24,-0.82 1.32,-0.66 1.40,-0.50 1.44,-0.32 1.48,-0.15 1.48,0.02 1.47,0.20 1.43,0.38 1.38,0.55 1.38,0.55 L 1.38,0.55 Z"/></g><g transform="translate(218.68403209160635 84.40039405005089) rotate(0 -0.907321878659161 4.082948453966196)" stroke="none"><path fill="#1e1e1e" d="M 1.57,0.26 Q 1.57,0.26 1.61,1.87 1.65,3.49 0.61,5.72 -0.42,7.95 -0.50,8.14 -0.58,8.34 -0.71,8.51 -0.85,8.67 -1.03,8.78 -1.21,8.89 -1.42,8.94 -1.62,8.99 -1.83,8.97 -2.05,8.95 -2.24,8.86 -2.43,8.78 -2.59,8.63 -2.75,8.49 -2.85,8.30 -2.95,8.12 -2.99,7.91 -3.02,7.70 -2.99,7.49 -2.96,7.28 -2.86,7.09 -2.77,6.90 -2.61,6.75 -2.46,6.60 -2.27,6.51 -2.08,6.42 -1.87,6.39 -1.66,6.37 -1.45,6.41 -1.24,6.45 -1.06,6.56 -0.87,6.67 -0.73,6.83 -0.59,6.99 -0.51,7.18 -0.43,7.38 -0.42,7.59 -0.40,7.81 -0.46,8.01 -0.51,8.22 -0.63,8.39 -0.75,8.57 -0.91,8.70 -1.08,8.83 -1.28,8.90 -1.48,8.97 -1.69,8.98 -1.91,8.98 -2.11,8.91 -2.31,8.85 -2.48,8.72 -2.65,8.60 -2.77,8.42 -2.90,8.25 -2.95,8.04 -3.01,7.84 -3.01,7.63 -3.00,7.41 -3.00,7.41 -3.00,7.41 -2.84,5.09 -2.69,2.76 -2.13,1.25 -1.57,-0.26 -1.52,-0.44 -1.46,-0.63 -1.36,-0.79 -1.27,-0.96 -1.13,-1.10 -1.00,-1.24 -0.84,-1.34 -0.67,-1.44 -0.49,-1.50 -0.31,-1.56 -0.12,-1.57 0.07,-1.59 0.26,-1.56 0.45,-1.53 0.62,-1.45 0.80,-1.37 0.95,-1.26 1.11,-1.14 1.23,-0.99 1.35,-0.84 1.43,-0.67 1.51,-0.49 1.55,-0.31 1.59,-0.12 1.58,0.07 1.57,0.26 1.57,0.26 L 1.57,0.26 Z"/></g><g transform="translate(224.12796336356132 85.30771592871005) rotate(0 -0.907321878659161 4.082948453966196)" stroke="none"><path fill="#1e1e1e" d="M 1.74,0.49 Q 1.74,0.49 1.36,2.36 0.97,4.22 0.29,5.89 -0.38,7.57 -0.44,7.77 -0.51,7.97 -0.64,8.14 -0.77,8.31 -0.95,8.42 -1.13,8.54 -1.33,8.60 -1.54,8.65 -1.75,8.64 -1.96,8.63 -2.16,8.55 -2.36,8.47 -2.52,8.33 -2.68,8.19 -2.79,8.01 -2.89,7.82 -2.94,7.62 -2.98,7.41 -2.96,7.20 -2.93,6.99 -2.84,6.79 -2.75,6.60 -2.61,6.45 -2.46,6.29 -2.27,6.20 -2.08,6.10 -1.87,6.07 -1.66,6.03 -1.45,6.07 -1.24,6.10 -1.06,6.20 -0.87,6.31 -0.72,6.46 -0.58,6.62 -0.49,6.81 -0.40,7.00 -0.38,7.21 -0.36,7.43 -0.41,7.63 -0.45,7.84 -0.56,8.02 -0.68,8.20 -0.84,8.34 -1.00,8.48 -1.20,8.55 -1.40,8.63 -1.61,8.64 -1.82,8.65 -2.03,8.59 -2.23,8.53 -2.41,8.41 -2.58,8.29 -2.71,8.12 -2.83,7.95 -2.90,7.75 -2.97,7.55 -2.97,7.34 -2.96,7.12 -2.96,7.12 -2.96,7.12 -3.01,5.10 -3.06,3.07 -2.40,1.28 -1.74,-0.49 -1.66,-0.70 -1.57,-0.90 -1.44,-1.07 -1.31,-1.25 -1.14,-1.39 -0.97,-1.53 -0.77,-1.62 -0.58,-1.72 -0.36,-1.76 -0.15,-1.81 0.06,-1.80 0.28,-1.79 0.49,-1.73 0.70,-1.67 0.89,-1.56 1.08,-1.45 1.24,-1.30 1.40,-1.15 1.52,-0.97 1.63,-0.78 1.71,-0.57 1.78,-0.37 1.79,-0.15 1.81,0.06 1.78,0.28 1.74,0.49 1.74,0.49 L 1.74,0.49 Z"/></g><g transform="translate(518.1002520491282 125.22987858971302) rotate(0 0.45366093932960894 -0.907321878659161)" stroke="none"><path fill="#1e1e1e" d="M -1.41,-0.70 Q -1.41,-0.70 -1.03,-1.16 -0.65,-1.63 -0.52,-1.80 -0.40,-1.97 -0.23,-2.09 -0.05,-2.22 0.14,-2.28 0.34,-2.34 0.56,-2.33 0.77,-2.33 0.97,-2.25 1.17,-2.18 1.33,-2.05 1.50,-1.91 1.61,-1.73 1.72,-1.55 1.78,-1.35 1.83,-1.14 1.81,-0.93 1.79,-0.72 1.71,-0.52 1.62,-0.33 1.48,-0.17 1.34,-0.01 1.15,0.08 0.97,0.19 0.76,0.23 0.55,0.26 0.34,0.24 0.13,0.21 -0.05,0.11 -0.24,0.02 -0.39,-0.13 -0.54,-0.28 -0.64,-0.47 -0.73,-0.66 -0.76,-0.87 -0.79,-1.08 -0.75,-1.29 -0.70,-1.50 -0.60,-1.68 -0.49,-1.86 -0.34,-2.01 -0.18,-2.15 0.01,-2.23 0.20,-2.31 0.42,-2.33 0.63,-2.35 0.83,-2.30 1.04,-2.24 1.22,-2.13 1.40,-2.01 1.53,-1.85 1.66,-1.68 1.73,-1.48 1.81,-1.28 1.81,-1.07 1.82,-0.86 1.75,-0.65 1.69,-0.45 1.69,-0.45 1.69,-0.45 1.55,0.12 1.41,0.70 1.30,0.86 1.20,1.02 1.06,1.15 0.92,1.28 0.75,1.37 0.58,1.46 0.40,1.51 0.22,1.56 0.03,1.56 -0.15,1.57 -0.34,1.52 -0.53,1.48 -0.70,1.40 -0.87,1.31 -1.01,1.19 -1.16,1.06 -1.27,0.91 -1.38,0.76 -1.45,0.58 -1.52,0.40 -1.55,0.21 -1.57,0.03 -1.55,-0.15 -1.53,-0.34 -1.47,-0.52 -1.41,-0.70 -1.41,-0.70 L -1.41,-0.70 Z"/></g><g transform="translate(518.1002520491282 125.22987858971302) rotate(0 -9.526879725921162 52.62466896223111)" stroke="none"><path fill="#1e1e1e" d="M -0.75,1.12 Q -0.75,1.12 -1.81,1.06 -2.87,0.99 -4.08,0.88 -5.30,0.76 -7.25,0.71 -9.20,0.66 -10.98,0.66 -12.77,0.67 -14.31,0.68 -15.86,0.69 -17.29,0.69 -18.71,0.70 -20.31,1.18 -21.90,1.66 -23.30,2.33 -24.70,3.00 -26.23,3.60 -27.76,4.21 -29.35,4.96 -30.95,5.70 -32.35,6.65 -33.74,7.59 -34.87,9.02 -36.01,10.44 -36.88,11.35 -37.74,12.26 -38.81,13.59 -39.87,14.93 -40.64,15.81 -41.41,16.70 -42.32,18.60 -43.23,20.50 -43.72,22.43 -44.21,24.37 -44.65,25.51 -45.10,26.65 -45.69,28.08 -46.28,29.51 -46.67,31.02 -47.07,32.54 -48.06,34.69 -49.06,36.85 -50.91,37.77 -52.76,38.70 -53.72,39.41 -54.68,40.11 -55.99,41.00 -57.29,41.88 -58.24,42.69 -59.20,43.50 -60.66,44.87 -62.12,46.23 -63.15,47.60 -64.18,48.98 -64.97,49.82 -65.76,50.66 -66.94,52.81 -68.11,54.96 -68.39,56.10 -68.66,57.24 -68.74,58.69 -68.82,60.13 -68.82,61.66 -68.83,63.19 -68.83,64.70 -68.83,66.20 -68.67,67.36 -68.52,68.53 -67.67,69.51 -66.82,70.50 -65.63,72.08 -64.44,73.66 -63.70,74.52 -62.95,75.38 -62.35,76.32 -61.74,77.25 -60.33,78.45 -58.91,79.64 -57.41,80.46 -55.90,81.28 -54.61,82.31 -53.32,83.35 -51.90,84.30 -50.48,85.25 -49.46,86.62 -48.45,87.99 -47.29,89.19 -46.12,90.39 -45.09,91.01 -44.06,91.64 -42.87,92.45 -41.68,93.25 -40.63,94.22 -39.59,95.19 -38.23,96.12 -36.86,97.05 -35.35,98.16 -33.84,99.27 -32.72,99.78 -31.61,100.28 -30.53,101.12 -29.45,101.95 -27.92,102.12 -26.38,102.29 -23.80,102.61 -21.21,102.93 -19.16,103.06 -17.11,103.19 -15.76,103.52 -14.40,103.84 -12.19,103.96 -9.98,104.08 -7.96,104.11 -5.95,104.14 -3.85,104.15 -1.74,104.15 -0.14,103.90 1.45,103.65 2.86,103.31 4.28,102.96 5.61,102.77 6.94,102.59 8.06,102.51 9.18,102.43 10.39,102.41 11.61,102.40 13.04,101.51 14.48,100.62 15.77,99.72 17.05,98.82 18.26,98.09 19.47,97.35 20.58,96.45 21.69,95.54 23.23,94.04 24.76,92.53 26.50,91.05 28.25,89.56 29.68,88.23 31.12,86.90 32.25,85.81 33.39,84.73 34.38,83.75 35.37,82.77 36.11,81.55 36.85,80.33 38.15,78.77 39.44,77.21 40.77,75.78 42.10,74.35 42.71,73.24 43.32,72.13 44.14,70.55 44.96,68.98 45.57,67.79 46.18,66.60 46.71,64.59 47.24,62.58 47.66,61.25 48.09,59.93 48.50,58.40 48.91,56.87 49.04,55.62 49.17,54.37 49.26,51.87 49.34,49.36 49.36,48.21 49.37,47.05 49.37,45.79 49.37,44.52 49.36,43.20 49.35,41.88 48.67,40.26 47.98,38.64 47.22,37.46 46.46,36.27 45.39,34.77 44.31,33.28 43.39,32.19 42.47,31.11 41.58,30.14 40.68,29.17 39.39,28.10 38.09,27.03 36.47,25.77 34.86,24.51 33.29,23.10 31.72,21.70 30.25,20.77 28.77,19.84 26.96,18.55 25.15,17.27 23.96,16.54 22.78,15.80 21.55,14.82 20.33,13.85 18.54,12.93 16.75,12.00 15.55,11.54 14.35,11.08 12.70,10.55 11.06,10.03 8.39,8.90 5.72,7.78 5.52,7.72 5.31,7.67 5.13,7.55 4.96,7.44 4.82,7.27 4.69,7.10 4.62,6.90 4.55,6.70 4.55,6.49 4.55,6.28 4.61,6.07 4.68,5.87 4.80,5.70 4.93,5.53 5.10,5.41 5.28,5.29 5.48,5.23 5.69,5.17 5.90,5.18 6.11,5.18 6.31,5.26 6.51,5.34 6.67,5.47 6.84,5.61 6.95,5.79 7.06,5.97 7.11,6.18 7.16,6.38 7.14,6.59 7.12,6.81 7.03,7.00 6.94,7.19 6.80,7.35 6.65,7.51 6.47,7.61 6.28,7.71 6.07,7.75 5.86,7.78 5.65,7.75 5.44,7.72 5.25,7.62 5.07,7.53 4.92,7.37 4.77,7.22 4.68,7.03 4.59,6.84 4.56,6.63 4.53,6.42 4.58,6.21 4.62,6.00 4.73,5.82 4.83,5.63 4.99,5.49 5.15,5.35 5.35,5.27 5.55,5.19 5.76,5.18 5.97,5.16 5.97,5.16 5.97,5.16 9.26,4.61 12.55,4.05 14.62,4.45 16.68,4.86 18.06,5.37 19.44,5.88 20.87,6.52 22.29,7.17 23.41,7.90 24.54,8.64 25.43,9.38 26.33,10.12 27.68,10.96 29.03,11.81 30.72,13.01 32.42,14.22 34.30,15.47 36.18,16.72 37.58,17.98 38.99,19.25 40.69,20.59 42.39,21.93 43.98,23.30 45.57,24.67 46.57,25.75 47.57,26.84 48.64,28.14 49.72,29.43 50.88,31.08 52.04,32.73 52.86,34.04 53.68,35.35 54.49,36.93 55.29,38.51 55.59,40.19 55.88,41.87 55.87,43.21 55.85,44.55 55.84,45.84 55.83,47.13 55.81,48.32 55.80,49.51 55.75,51.11 55.71,52.72 55.61,53.95 55.52,55.18 55.27,56.86 55.03,58.54 54.56,60.20 54.10,61.87 53.68,63.14 53.26,64.42 52.91,65.58 52.55,66.73 52.15,68.09 51.75,69.45 51.11,70.68 50.46,71.91 49.55,73.59 48.64,75.27 47.64,76.90 46.63,78.52 45.38,79.85 44.14,81.18 43.06,82.43 41.98,83.68 40.82,85.39 39.66,87.10 38.62,88.11 37.59,89.11 36.41,90.24 35.24,91.36 33.69,92.78 32.15,94.21 30.56,95.52 28.98,96.83 28.11,97.68 27.25,98.52 25.75,99.86 24.25,101.19 23.39,101.82 22.52,102.45 21.45,103.08 20.38,103.71 18.76,104.78 17.14,105.86 16.18,106.34 15.22,106.82 13.61,107.50 12.00,108.18 10.78,108.22 9.56,108.26 7.60,108.44 5.64,108.63 3.96,109.02 2.28,109.42 0.26,109.69 -1.74,109.96 -2.93,109.96 -4.12,109.96 -6.06,109.94 -7.99,109.93 -9.10,109.91 -10.20,109.89 -11.59,109.83 -12.98,109.77 -15.17,109.37 -17.37,108.96 -18.69,108.91 -20.02,108.85 -22.21,108.48 -24.40,108.10 -25.58,108.07 -26.76,108.05 -28.55,107.80 -30.33,107.56 -31.64,107.03 -32.95,106.51 -34.34,105.59 -35.74,104.67 -37.29,103.60 -38.85,102.53 -40.29,101.44 -41.73,100.35 -43.06,99.45 -44.40,98.56 -45.24,97.82 -46.09,97.09 -47.38,96.16 -48.67,95.23 -49.42,94.47 -50.18,93.72 -51.44,92.76 -52.70,91.81 -53.85,90.36 -55.01,88.91 -56.02,88.31 -57.03,87.71 -57.88,86.99 -58.73,86.27 -59.77,85.59 -60.80,84.91 -62.15,84.08 -63.49,83.25 -65.05,81.75 -66.61,80.25 -67.42,79.15 -68.22,78.05 -69.05,76.83 -69.88,75.61 -70.90,74.17 -71.91,72.74 -72.85,71.60 -73.79,70.47 -74.15,69.14 -74.51,67.82 -74.51,66.38 -74.51,64.93 -74.51,63.22 -74.51,61.51 -74.49,60.24 -74.48,58.96 -74.38,57.65 -74.28,56.34 -74.05,55.18 -73.83,54.01 -73.40,53.01 -72.97,52.01 -72.25,50.84 -71.53,49.66 -70.74,48.24 -69.94,46.81 -68.79,45.53 -67.64,44.26 -66.86,43.20 -66.08,42.14 -64.47,40.64 -62.85,39.14 -61.67,38.16 -60.50,37.18 -59.23,36.32 -57.97,35.46 -56.59,34.50 -55.20,33.55 -53.68,33.28 -52.16,33.01 -52.02,31.83 -51.88,30.64 -51.57,29.57 -51.26,28.50 -50.78,27.47 -50.30,26.44 -49.70,24.68 -49.10,22.92 -48.77,21.81 -48.44,20.71 -48.12,19.48 -47.81,18.24 -47.29,17.23 -46.78,16.21 -46.04,14.80 -45.29,13.40 -44.57,12.56 -43.85,11.73 -42.63,10.23 -41.42,8.73 -39.92,7.15 -38.43,5.56 -36.84,3.98 -35.26,2.41 -34.17,1.75 -33.07,1.10 -31.34,0.31 -29.61,-0.47 -28.22,-1.02 -26.83,-1.57 -25.03,-2.38 -23.23,-3.20 -21.00,-3.76 -18.76,-4.32 -17.30,-4.31 -15.85,-4.31 -14.30,-4.29 -12.75,-4.28 -10.94,-4.26 -9.13,-4.24 -6.95,-4.17 -4.78,-4.11 -3.72,-3.98 -2.66,-3.85 -1.46,-3.46 -0.25,-3.08 0.24,-2.10 0.75,-1.12 0.87,-1.02 1.00,-0.91 1.09,-0.78 1.19,-0.65 1.25,-0.49 1.31,-0.34 1.33,-0.18 1.35,-0.02 1.34,0.14 1.32,0.30 1.26,0.45 1.21,0.61 1.12,0.74 1.03,0.88 0.90,0.99 0.78,1.10 0.64,1.18 0.50,1.26 0.34,1.30 0.18,1.34 0.02,1.34 -0.14,1.35 -0.30,1.31 -0.46,1.27 -0.60,1.20 -0.75,1.12 -0.75,1.12 L -0.75,1.12 Z"/></g><g transform="translate(457.30968617896474 164.24471937205678) rotate(0 -5.897592211284518 -3.629287514636644)" stroke="none"><path fill="#1e1e1e" d="M -0.45,1.35 Q -0.45,1.35 -1.43,1.70 -2.41,2.04 -4.03,1.73 -5.65,1.42 -6.75,0.99 -7.85,0.57 -8.84,0.11 -9.84,-0.33 -11.29,-3.25 -12.73,-6.17 -12.79,-6.38 -12.85,-6.58 -12.84,-6.80 -12.83,-7.01 -12.75,-7.21 -12.68,-7.40 -12.54,-7.57 -12.41,-7.73 -12.22,-7.84 -12.04,-7.95 -11.84,-8.00 -11.63,-8.05 -11.42,-8.03 -11.21,-8.01 -11.01,-7.92 -10.82,-7.83 -10.66,-7.69 -10.51,-7.54 -10.41,-7.36 -10.30,-7.17 -10.27,-6.96 -10.23,-6.75 -10.26,-6.54 -10.30,-6.33 -10.39,-6.14 -10.49,-5.95 -10.64,-5.81 -10.80,-5.66 -10.99,-5.57 -11.18,-5.48 -11.39,-5.45 -11.60,-5.43 -11.81,-5.47 -12.02,-5.51 -12.20,-5.62 -12.39,-5.73 -12.52,-5.89 -12.66,-6.05 -12.74,-6.25 -12.83,-6.44 -12.84,-6.66 -12.85,-6.87 -12.80,-7.07 -12.74,-7.28 -12.63,-7.45 -12.51,-7.63 -12.34,-7.76 -12.17,-7.89 -11.97,-7.96 -11.77,-8.03 -11.56,-8.03 -11.35,-8.04 -11.14,-7.97 -10.94,-7.90 -10.77,-7.78 -10.60,-7.65 -10.48,-7.48 -10.36,-7.30 -10.36,-7.30 -10.36,-7.30 -8.86,-6.48 -7.36,-5.65 -5.67,-4.90 -3.99,-4.14 -2.35,-3.61 -0.71,-3.08 -0.13,-2.22 0.45,-1.35 0.60,-1.28 0.76,-1.21 0.89,-1.10 1.03,-0.99 1.13,-0.85 1.23,-0.71 1.30,-0.55 1.37,-0.39 1.40,-0.22 1.43,-0.05 1.41,0.11 1.40,0.28 1.34,0.44 1.29,0.61 1.20,0.75 1.10,0.90 0.98,1.02 0.86,1.14 0.71,1.23 0.56,1.31 0.39,1.36 0.23,1.41 0.05,1.42 -0.11,1.42 -0.28,1.39 -0.45,1.35 -0.45,1.35 L -0.45,1.35 Z"/></g><g transform="translate(541.6906208942663 260.4208385099274) rotate(0 -29.03430011709304 74.85405498938053)" stroke="none"><path fill="#1e1e1e" d="M 0,-1.97 Q 0,-1.97 1.32,-2.08 2.64,-2.20 4.51,-0.65 6.37,0.88 8.78,3.51 11.20,6.13 13.08,8.64 14.95,11.15 16.50,13.22 18.05,15.28 21.21,21.86 24.37,28.43 26.73,34.34 29.09,40.25 31.15,46.17 33.21,52.10 35.66,60.12 38.12,68.14 39.96,75.24 41.80,82.33 43.11,88.79 44.42,95.24 45.25,100.90 46.07,106.56 46.69,112.38 47.31,118.20 47.57,122.27 47.83,126.35 47.95,129.66 48.06,132.98 48.11,135.96 48.17,138.94 48.18,140.75 48.20,142.56 47.83,143.85 47.46,145.14 46.69,146.04 45.93,146.93 44.49,147.60 43.06,148.26 41.21,148.75 39.35,149.23 37.42,149.44 35.49,149.64 33.12,150.20 30.75,150.77 28.05,151.29 25.34,151.82 22.46,152.54 19.58,153.27 16.03,153.62 12.47,153.97 9.54,154.36 6.61,154.75 3.40,154.92 0.19,155.10 -3.25,155.18 -6.70,155.25 -9.73,155.28 -12.75,155.31 -15.61,155.33 -18.46,155.34 -21.24,155.35 -24.02,155.35 -27.52,154.82 -31.01,154.28 -33.74,153.79 -36.46,153.30 -38.85,152.53 -41.24,151.76 -43.16,151.20 -45.07,150.65 -46.50,150.45 -47.94,150.25 -49.79,150.17 -51.64,150.08 -52.99,150.04 -54.33,149.99 -55.74,149.67 -57.15,149.35 -59.07,148.83 -60.99,148.31 -62.33,148.23 -63.68,148.15 -65.09,148.07 -66.50,147.98 -68.37,147.63 -70.24,147.29 -71.86,147.26 -73.48,147.24 -74.71,146.90 -75.94,146.57 -77.35,146.02 -78.76,145.47 -80.22,145.10 -81.69,144.73 -83.39,143.78 -85.09,142.83 -86.39,142.37 -87.69,141.91 -89.22,141.50 -90.74,141.09 -91.91,140.70 -93.08,140.30 -94.10,139.86 -95.11,139.41 -96.18,138.85 -97.24,138.28 -98.55,137.46 -99.85,136.63 -100.96,135.94 -102.07,135.25 -103.45,133.91 -104.84,132.57 -105.50,130.57 -106.15,128.58 -106.23,126.86 -106.31,125.15 -105.94,124.03 -105.57,122.91 -105.12,121.53 -104.67,120.14 -103.54,118.18 -102.41,116.22 -101.37,114.67 -100.33,113.13 -99.47,112.07 -98.60,111.00 -97.20,109.50 -95.79,108.00 -94.67,106.87 -93.56,105.74 -92.56,105.06 -91.55,104.37 -90.39,104.04 -89.22,103.70 -87.70,102.93 -86.18,102.16 -84.93,101.93 -83.67,101.70 -82.11,101.23 -80.54,100.76 -79.17,100.14 -77.80,99.53 -76.24,99.17 -74.68,98.81 -73.46,98.41 -72.24,98.01 -70.85,97.57 -69.47,97.13 -67.69,96.67 -65.92,96.21 -65.89,94.25 -65.86,92.29 -65.47,91.04 -65.08,89.79 -64.68,88.30 -64.27,86.80 -63.54,84.73 -62.80,82.65 -62.26,80.85 -61.73,79.05 -60.92,77.07 -60.11,75.08 -59.54,73.56 -58.98,72.04 -57.95,69.29 -56.91,66.54 -55.66,63.72 -54.40,60.90 -53.06,58.35 -51.71,55.79 -49.82,52.60 -47.92,49.40 -46.89,47.57 -45.86,45.74 -44.08,42.82 -42.31,39.91 -40.50,37.09 -38.70,34.27 -36.30,31.16 -33.90,28.05 -32.12,25.73 -30.35,23.41 -28.34,21.67 -26.32,19.93 -24.66,18.71 -23.01,17.49 -20.50,17.01 -18.00,16.54 -16.27,16.76 -14.54,16.98 -14.33,16.98 -14.12,16.97 -13.91,17.03 -13.71,17.10 -13.54,17.22 -13.36,17.34 -13.24,17.52 -13.12,17.69 -13.05,17.89 -12.99,18.10 -13.00,18.31 -13.00,18.52 -13.08,18.72 -13.15,18.92 -13.28,19.09 -13.42,19.25 -13.59,19.37 -13.77,19.48 -13.98,19.53 -14.19,19.58 -14.40,19.57 -14.61,19.55 -14.80,19.46 -15.00,19.38 -15.16,19.24 -15.32,19.10 -15.42,18.91 -15.53,18.73 -15.57,18.52 -15.61,18.31 -15.58,18.10 -15.55,17.89 -15.45,17.70 -15.36,17.51 -15.21,17.36 -15.06,17.21 -14.87,17.11 -14.68,17.02 -14.47,16.99 -14.26,16.96 -14.05,17.00 -13.84,17.04 -13.65,17.15 -13.47,17.25 -13.33,17.41 -13.19,17.57 -13.10,17.76 -13.02,17.96 -13.00,18.17 -12.98,18.38 -13.03,18.59 -13.09,18.79 -13.20,18.97 -13.32,19.15 -13.48,19.28 -13.65,19.42 -13.85,19.49 -14.05,19.56 -14.05,19.56 -14.04,19.56 -15.43,20.38 -16.82,21.20 -18.24,21.72 -19.66,22.24 -21.09,23.34 -22.53,24.44 -24.11,25.72 -25.68,27.00 -27.45,29.33 -29.22,31.65 -31.47,34.56 -33.72,37.47 -35.49,40.22 -37.26,42.98 -38.99,45.82 -40.71,48.65 -41.78,50.53 -42.84,52.41 -44.67,55.48 -46.49,58.55 -47.74,60.93 -49.00,63.31 -50.19,65.96 -51.38,68.61 -52.40,71.36 -53.43,74.12 -54.03,75.73 -54.64,77.34 -55.34,79.04 -56.05,80.74 -56.63,82.69 -57.21,84.65 -57.88,86.50 -58.54,88.35 -58.98,89.96 -59.41,91.57 -59.77,92.71 -60.14,93.86 -60.37,95.02 -60.61,96.17 -60.90,97.61 -61.20,99.04 -61.88,99.92 -62.55,100.81 -63.93,101.43 -65.31,102.05 -66.74,102.41 -68.18,102.76 -69.95,103.32 -71.71,103.88 -73.14,104.29 -74.56,104.71 -75.89,105.22 -77.22,105.73 -78.76,106.21 -80.29,106.70 -81.49,107.10 -82.68,107.49 -84.18,107.71 -85.67,107.93 -87.06,108.64 -88.45,109.35 -89.43,110.13 -90.40,110.91 -91.71,112.25 -93.02,113.60 -94.15,114.87 -95.29,116.15 -96.35,117.74 -97.41,119.32 -98.04,120.33 -98.66,121.33 -99.22,122.24 -99.78,123.15 -100.13,124.20 -100.48,125.25 -100.50,126.58 -100.52,127.91 -99.74,128.96 -98.96,130.00 -98.15,130.84 -97.33,131.67 -96.33,132.15 -95.33,132.63 -94.01,133.30 -92.70,133.96 -91.19,134.60 -89.68,135.23 -88.45,135.48 -87.22,135.72 -85.77,136.41 -84.33,137.10 -82.66,137.80 -80.99,138.50 -79.88,139.04 -78.77,139.58 -77.20,140.10 -75.62,140.62 -74.47,140.96 -73.32,141.31 -71.65,141.34 -69.97,141.37 -67.78,141.87 -65.60,142.37 -64.51,142.31 -63.43,142.25 -61.81,142.37 -60.20,142.49 -59.11,142.91 -58.02,143.34 -56.07,143.72 -54.12,144.10 -52.73,144.14 -51.34,144.19 -49.20,144.31 -47.07,144.42 -45.26,144.71 -43.45,145.00 -41.42,145.58 -39.38,146.17 -37.40,146.85 -35.42,147.53 -32.75,148.00 -30.09,148.48 -27.06,148.98 -24.02,149.48 -21.25,149.48 -18.49,149.47 -15.65,149.46 -12.81,149.45 -9.82,149.42 -6.82,149.39 -3.47,149.32 -0.12,149.25 2.86,149.09 5.84,148.94 8.88,148.54 11.92,148.13 15.05,147.86 18.17,147.58 21.20,146.83 24.23,146.07 26.83,145.57 29.43,145.07 32.17,144.45 34.92,143.83 36.44,143.69 37.96,143.56 40.21,143.04 42.46,142.52 42.44,140.77 42.42,139.03 42.38,136.10 42.34,133.17 42.23,129.94 42.13,126.71 41.88,122.76 41.63,118.80 41.03,113.09 40.44,107.38 39.65,101.88 38.85,96.37 37.57,90.06 36.30,83.75 34.51,76.77 32.72,69.78 30.32,61.86 27.92,53.93 25.92,48.12 23.93,42.30 21.65,36.54 19.37,30.79 16.53,24.64 13.68,18.50 12.15,16.41 10.62,14.33 8.94,11.98 7.25,9.64 4.98,6.98 2.70,4.33 2.11,3.26 1.52,2.20 0.76,2.08 0,1.97 -0.23,1.94 -0.47,1.91 -0.69,1.83 -0.91,1.74 -1.11,1.61 -1.30,1.47 -1.46,1.29 -1.62,1.12 -1.73,0.90 -1.84,0.69 -1.90,0.46 -1.95,0.23 -1.95,-0.00 -1.95,-0.23 -1.90,-0.46 -1.84,-0.69 -1.73,-0.91 -1.62,-1.12 -1.46,-1.29 -1.30,-1.47 -1.11,-1.61 -0.91,-1.74 -0.69,-1.83 -0.47,-1.91 -0.23,-1.94 0.00,-1.97 0.00,-1.97 L 0,-1.97 Z"/></g><g transform="translate(402.8703734594153 327.5626575307051) rotate(0 34.9318923283775 2.268304696647874)" stroke="none"><path fill="#1e1e1e" d="M 0.62,-1.86 Q 0.62,-1.86 2.25,-1.54 3.88,-1.23 5.55,-0.81 7.22,-0.39 10.15,-0.01 13.08,0.36 16.36,0.52 19.63,0.69 23.11,0.75 26.60,0.80 30.43,0.82 34.26,0.84 38.58,1.11 42.90,1.38 47.00,1.50 51.10,1.61 54.92,1.66 58.75,1.71 63.58,1.72 68.40,1.73 68.62,1.74 68.83,1.74 69.03,1.81 69.23,1.88 69.39,2.01 69.56,2.15 69.68,2.32 69.79,2.50 69.85,2.71 69.90,2.91 69.88,3.13 69.87,3.34 69.79,3.53 69.70,3.73 69.56,3.89 69.42,4.05 69.24,4.15 69.05,4.26 68.85,4.30 68.64,4.34 68.43,4.32 68.22,4.29 68.02,4.20 67.83,4.10 67.68,3.96 67.53,3.81 67.43,3.62 67.34,3.43 67.31,3.22 67.28,3.01 67.32,2.80 67.35,2.59 67.46,2.40 67.56,2.22 67.72,2.07 67.87,1.93 68.07,1.84 68.26,1.76 68.48,1.74 68.69,1.72 68.89,1.77 69.10,1.82 69.28,1.93 69.46,2.05 69.59,2.21 69.73,2.38 69.80,2.57 69.88,2.77 69.89,2.99 69.89,3.20 69.83,3.40 69.77,3.61 69.65,3.78 69.53,3.95 69.35,4.08 69.18,4.20 68.98,4.27 68.78,4.33 68.78,4.33 68.78,4.33 63.74,5.77 58.69,7.20 54.82,7.15 50.94,7.11 46.74,6.99 42.54,6.86 38.37,6.58 34.20,6.31 30.34,6.25 26.47,6.20 22.90,6.09 19.32,5.97 15.81,5.74 12.30,5.52 9.08,4.96 5.87,4.40 4.12,3.86 2.37,3.31 0.87,2.58 -0.62,1.86 -0.83,1.75 -1.04,1.65 -1.23,1.50 -1.41,1.35 -1.55,1.17 -1.69,0.98 -1.79,0.76 -1.88,0.54 -1.92,0.31 -1.96,0.07 -1.94,-0.15 -1.92,-0.39 -1.84,-0.61 -1.77,-0.84 -1.64,-1.04 -1.52,-1.24 -1.34,-1.40 -1.17,-1.56 -0.97,-1.68 -0.76,-1.80 -0.54,-1.87 -0.31,-1.93 -0.07,-1.94 0.15,-1.95 0.38,-1.90 0.62,-1.86 0.62,-1.86 L 0.62,-1.86 Z"/></g><g transform="translate(493.60256132533107 309.416219957522) rotate(0 -38.10751890368465 0.9073218786591042)" stroke="none"><path fill="#1e1e1e" d="M 0.35,2.15 Q 0.35,2.15 -1.20,2.42 -2.76,2.70 -4.70,3.12 -6.63,3.54 -9.33,4.00 -12.02,4.46 -16.68,4.70 -21.34,4.94 -24.85,5.03 -28.36,5.13 -34.03,5.21 -39.71,5.29 -44.79,5.06 -49.88,4.83 -54.98,4.20 -60.08,3.57 -63.45,3.32 -66.81,3.06 -68.76,2.95 -70.72,2.84 -72.33,2.79 -73.95,2.74 -73.53,1.59 -73.10,0.43 -73.26,0.41 -73.42,0.38 -73.56,0.32 -73.71,0.26 -73.84,0.17 -73.96,0.08 -74.06,-0.04 -74.17,-0.16 -74.24,-0.30 -74.30,-0.44 -74.34,-0.60 -74.37,-0.75 -74.37,-0.91 -74.36,-1.07 -74.32,-1.22 -74.28,-1.37 -74.20,-1.51 -74.12,-1.65 -74.01,-1.76 -73.91,-1.88 -73.77,-1.96 -73.64,-2.05 -73.49,-2.10 -73.34,-2.15 -73.18,-2.17 -73.02,-2.18 -72.88,-2.16 -72.73,-2.14 -72.53,-2.05 -72.34,-1.97 -72.18,-1.82 -72.03,-1.68 -71.93,-1.49 -71.82,-1.30 -71.79,-1.10 -71.75,-0.89 -71.78,-0.68 -71.81,-0.47 -71.91,-0.28 -72.01,-0.09 -72.16,0.05 -72.31,0.20 -72.51,0.29 -72.70,0.38 -72.91,0.41 -73.12,0.43 -73.33,0.39 -73.54,0.35 -73.72,0.24 -73.90,0.13 -74.04,-0.02 -74.18,-0.18 -74.26,-0.38 -74.34,-0.57 -74.36,-0.79 -74.37,-1.00 -74.32,-1.20 -74.26,-1.41 -74.14,-1.59 -74.03,-1.76 -73.86,-1.89 -73.69,-2.02 -73.49,-2.09 -73.29,-2.16 -73.08,-2.17 -72.87,-2.17 -72.66,-2.10 -72.46,-2.04 -72.29,-1.91 -72.12,-1.78 -72.00,-1.61 -71.88,-1.44 -71.82,-1.23 -71.76,-1.03 -71.77,-0.82 -71.78,-0.60 -71.85,-0.40 -71.93,-0.21 -72.07,-0.04 -72.20,0.11 -72.38,0.22 -72.56,0.33 -72.77,0.38 -72.98,0.43 -73.04,0.43 -73.10,0.43 -73.26,0.41 -73.42,0.38 -73.56,0.32 -73.71,0.26 -73.84,0.17 -73.96,0.08 -74.06,-0.04 -74.17,-0.16 -74.24,-0.30 -74.30,-0.44 -74.34,-0.60 -74.37,-0.75 -74.37,-0.91 -74.36,-1.07 -74.32,-1.22 -74.28,-1.37 -74.20,-1.51 -74.12,-1.65 -74.01,-1.76 -73.91,-1.88 -73.77,-1.96 -73.64,-2.05 -73.49,-2.10 -73.34,-2.15 -73.18,-2.17 -73.02,-2.18 -73.35,-2.39 -73.67,-2.60 -72.04,-2.55 -70.41,-2.51 -68.40,-2.39 -66.40,-2.27 -62.91,-2.00 -59.41,-1.72 -54.51,-1.10 -49.62,-0.47 -44.68,-0.21 -39.74,0.05 -34.10,0.06 -28.47,0.08 -25.00,0.03 -21.53,-0.02 -17.15,-0.14 -12.76,-0.25 -10.13,-0.63 -7.49,-1.01 -5.49,-1.33 -3.49,-1.66 -1.92,-1.90 -0.35,-2.15 -0.09,-2.16 0.16,-2.17 0.42,-2.12 0.68,-2.07 0.92,-1.95 1.15,-1.84 1.36,-1.68 1.56,-1.51 1.72,-1.30 1.88,-1.09 1.98,-0.85 2.09,-0.61 2.13,-0.35 2.17,-0.09 2.15,0.16 2.13,0.42 2.05,0.67 1.97,0.92 1.83,1.14 1.69,1.37 1.50,1.55 1.31,1.73 1.08,1.87 0.86,2.00 0.61,2.07 0.35,2.15 0.35,2.15 L 0.35,2.15 Z"/></g><g transform="translate(427.3680641832125 295.80639177763464) rotate(0 -9.526879725921106 9.073218786591553)" stroke="none"><path fill="#1e1e1e" d="M -0.54,1.35 Q -0.54,1.35 -1.97,1.24 -3.40,1.14 -4.82,1.26 -6.25,1.38 -7.78,1.88 -9.32,2.38 -11.52,3.34 -13.73,4.31 -15.03,5.12 -16.33,5.93 -16.88,7.24 -17.42,8.56 -17.13,10.38 -16.85,12.21 -15.94,13.40 -15.04,14.59 -13.29,15.75 -11.55,16.90 -9.91,16.88 -8.26,16.86 -6.65,16.22 -5.04,15.58 -2.80,15.78 -0.55,15.97 -0.34,15.99 -0.12,16.00 0.06,16.07 0.26,16.15 0.42,16.29 0.59,16.43 0.70,16.61 0.80,16.79 0.85,17.00 0.90,17.21 0.87,17.42 0.85,17.63 0.76,17.82 0.67,18.01 0.53,18.17 0.38,18.32 0.19,18.42 0.01,18.52 -0.19,18.56 -0.40,18.59 -0.61,18.56 -0.82,18.52 -1.01,18.43 -1.20,18.33 -1.34,18.17 -1.49,18.02 -1.58,17.83 -1.67,17.63 -1.69,17.42 -1.72,17.21 -1.67,17.00 -1.63,16.79 -1.52,16.61 -1.41,16.43 -1.24,16.29 -1.08,16.15 -0.89,16.08 -0.69,16.00 -0.48,15.99 -0.26,15.97 -0.06,16.03 0.14,16.09 0.31,16.21 0.49,16.32 0.62,16.49 0.75,16.66 0.81,16.86 0.88,17.07 0.88,17.28 0.88,17.49 0.81,17.69 0.75,17.89 0.62,18.06 0.49,18.23 0.31,18.35 0.14,18.47 -0.06,18.53 -0.26,18.58 -0.26,18.58 -0.26,18.58 -1.71,19.33 -3.16,20.07 -4.19,20.50 -5.21,20.93 -6.40,21.30 -7.59,21.67 -9.05,21.80 -10.51,21.92 -12.13,21.53 -13.74,21.14 -15.18,20.33 -16.62,19.53 -17.76,18.46 -18.89,17.40 -20.08,15.69 -21.26,13.98 -21.91,11.78 -22.56,9.59 -22.09,7.96 -21.63,6.34 -20.36,4.24 -19.09,2.14 -17.36,1.04 -15.62,-0.04 -13.14,-1.10 -10.66,-2.15 -8.52,-2.73 -6.39,-3.31 -4.10,-3.27 -1.81,-3.22 -0.63,-2.29 0.54,-1.35 0.69,-1.26 0.84,-1.18 0.97,-1.06 1.10,-0.94 1.20,-0.80 1.30,-0.65 1.36,-0.48 1.42,-0.32 1.43,-0.14 1.45,0.02 1.43,0.20 1.40,0.37 1.34,0.53 1.27,0.70 1.17,0.84 1.07,0.98 0.93,1.10 0.80,1.21 0.64,1.29 0.49,1.37 0.32,1.41 0.14,1.44 -0.02,1.44 -0.20,1.44 -0.37,1.39 -0.54,1.35 -0.54,1.35 L -0.54,1.35 Z"/></g><g transform="translate(446.4218236350548 254.97690723797254) rotate(0 -11.79518442256898 21.322064148490142)" stroke="none"><path fill="#1e1e1e" d="M -0.60,1.21 Q -0.60,1.21 -0.25,1.08 0.10,0.95 -1.11,2.99 -2.32,5.03 -3.38,6.99 -4.43,8.96 -5.92,12.12 -7.41,15.29 -9.09,18.99 -10.76,22.70 -13.32,27.72 -15.89,32.75 -17.47,36.13 -19.05,39.51 -20.88,42.10 -22.72,44.69 -22.84,44.86 -22.96,45.04 -23.13,45.16 -23.30,45.29 -23.50,45.35 -23.70,45.42 -23.92,45.42 -24.13,45.41 -24.33,45.34 -24.53,45.27 -24.70,45.14 -24.87,45.01 -24.98,44.84 -25.10,44.66 -25.15,44.45 -25.21,44.25 -25.19,44.04 -25.18,43.82 -25.10,43.63 -25.02,43.43 -24.88,43.27 -24.74,43.11 -24.56,43.00 -24.37,42.90 -24.16,42.85 -23.96,42.81 -23.74,42.83 -23.53,42.86 -23.34,42.95 -23.15,43.04 -23.00,43.19 -22.85,43.34 -22.75,43.53 -22.65,43.72 -22.62,43.93 -22.59,44.14 -22.62,44.35 -22.66,44.56 -22.76,44.74 -22.86,44.93 -23.02,45.07 -23.18,45.22 -23.37,45.30 -23.56,45.39 -23.78,45.41 -23.99,45.43 -24.19,45.38 -24.40,45.33 -24.58,45.22 -24.76,45.11 -24.90,44.95 -25.03,44.78 -25.11,44.59 -25.19,44.39 -25.20,44.18 -25.20,43.96 -25.15,43.76 -25.09,43.55 -25.09,43.55 -25.09,43.56 -24.23,40.52 -23.38,37.48 -21.75,34.03 -20.13,30.57 -17.60,25.66 -15.07,20.74 -13.36,17.01 -11.66,13.27 -10.09,9.99 -8.52,6.70 -7.30,4.53 -6.08,2.37 -5.18,1.15 -4.28,-0.05 -3.23,-1.02 -2.18,-1.99 -0.78,-1.60 0.60,-1.21 0.74,-1.12 0.88,-1.03 0.99,-0.91 1.10,-0.79 1.18,-0.65 1.26,-0.50 1.30,-0.34 1.34,-0.19 1.35,-0.02 1.35,0.13 1.31,0.29 1.28,0.45 1.20,0.60 1.13,0.75 1.02,0.87 0.92,1.00 0.78,1.09 0.65,1.19 0.50,1.25 0.35,1.31 0.18,1.33 0.02,1.36 -0.13,1.34 -0.29,1.32 -0.45,1.27 -0.60,1.21 -0.60,1.21 L -0.60,1.21 Z"/></g><g transform="translate(404.6850172167336 342.9871294679108) rotate(0 -1.36098281798877 52.1710080229015)" stroke="none"><path fill="#1e1e1e" d="M 1.35,0 Q 1.35,0 1.73,2.86 2.11,5.73 2.16,10.08 2.20,14.43 2.24,20.19 2.29,25.96 2.32,34.67 2.35,43.37 2.36,50.99 2.37,58.60 2.11,65.28 1.86,71.95 1.48,77.67 1.11,83.38 0.95,88.11 0.80,92.84 0.46,96.24 0.12,99.65 -0.59,101.97 -1.32,104.30 -1.37,104.51 -1.42,104.71 -1.54,104.89 -1.65,105.07 -1.82,105.20 -1.99,105.34 -2.18,105.41 -2.38,105.48 -2.60,105.49 -2.81,105.49 -3.01,105.43 -3.22,105.37 -3.39,105.24 -3.56,105.12 -3.68,104.95 -3.81,104.77 -3.87,104.57 -3.93,104.37 -3.92,104.15 -3.92,103.94 -3.85,103.74 -3.77,103.54 -3.64,103.38 -3.50,103.21 -3.33,103.10 -3.15,102.98 -2.94,102.93 -2.73,102.88 -2.52,102.90 -2.31,102.92 -2.11,103.00 -1.92,103.09 -1.76,103.23 -1.60,103.37 -1.50,103.56 -1.40,103.74 -1.36,103.95 -1.32,104.16 -1.35,104.37 -1.37,104.58 -1.47,104.77 -1.56,104.96 -1.71,105.11 -1.87,105.26 -2.06,105.35 -2.25,105.45 -2.46,105.48 -2.67,105.50 -2.88,105.46 -3.08,105.42 -3.27,105.32 -3.45,105.21 -3.60,105.06 -3.74,104.90 -3.82,104.70 -3.90,104.51 -3.92,104.29 -3.94,104.08 -3.94,104.08 -3.94,104.08 -4.27,101.63 -4.60,99.18 -4.28,95.93 -3.96,92.68 -3.80,87.88 -3.64,83.07 -3.27,77.42 -2.90,71.76 -2.64,65.18 -2.37,58.60 -2.36,50.99 -2.35,43.37 -2.32,34.67 -2.29,25.96 -2.24,20.19 -2.20,14.43 -2.16,10.08 -2.11,5.73 -1.73,2.86 -1.35,0 -1.33,-0.16 -1.31,-0.32 -1.25,-0.47 -1.19,-0.62 -1.10,-0.76 -1.01,-0.89 -0.89,-1.00 -0.76,-1.11 -0.62,-1.19 -0.48,-1.26 -0.32,-1.30 -0.16,-1.34 0.00,-1.34 0.16,-1.34 0.32,-1.30 0.48,-1.26 0.62,-1.19 0.76,-1.11 0.89,-1.00 1.01,-0.89 1.10,-0.76 1.19,-0.62 1.25,-0.47 1.31,-0.32 1.33,-0.16 1.35,0.00 1.35,0.00 L 1.35,0 Z"/></g><g transform="translate(434.62663921248577 381.0946483715953) rotate(0 -9.526879725921162 41.283145478991685)" stroke="none"><path fill="#1e1e1e" d="M -1.45,0.72 Q -1.45,0.72 -2.09,-0.15 -2.74,-1.03 -4.76,-1.45 -6.78,-1.87 -7.41,-0.19 -8.04,1.49 -7.91,3.25 -7.78,5.01 -7.73,7.22 -7.69,9.43 -7.66,12.20 -7.63,14.97 -7.62,17.18 -7.61,19.40 -7.34,23.66 -7.06,27.92 -6.94,32.68 -6.82,37.43 -6.51,40.92 -6.20,44.42 -6.07,47.81 -5.93,51.21 -5.87,55.54 -5.82,59.86 -6.06,63.60 -6.30,67.34 -6.39,70.68 -6.49,74.01 -6.53,76.99 -6.57,79.98 -6.59,81.51 -6.60,83.04 -6.61,84.21 -6.62,85.38 -6.59,85.62 -6.56,85.85 -6.60,86.15 -6.63,86.45 -6.74,86.74 -6.85,87.02 -7.02,87.27 -7.20,87.51 -7.43,87.71 -7.65,87.91 -7.92,88.05 -8.19,88.19 -8.48,88.26 -8.78,88.33 -9.08,88.33 -9.38,88.32 -9.67,88.25 -9.97,88.18 -10.23,88.03 -10.50,87.89 -10.73,87.69 -10.95,87.49 -11.12,87.24 -11.29,86.99 -11.40,86.71 -11.50,86.42 -11.54,86.12 -11.57,85.82 -13.23,85.71 -14.90,85.60 -15.90,85.12 -16.90,84.64 -18.02,83.37 -19.15,82.11 -19.33,82.00 -19.52,81.90 -19.66,81.74 -19.80,81.59 -19.89,81.39 -19.98,81.20 -20.00,80.99 -20.01,80.77 -19.96,80.57 -19.92,80.36 -19.80,80.18 -19.69,80.00 -19.53,79.87 -19.36,79.73 -19.16,79.66 -18.96,79.58 -18.75,79.57 -18.54,79.57 -18.33,79.63 -18.13,79.69 -17.96,79.81 -17.78,79.93 -17.66,80.10 -17.53,80.28 -17.47,80.48 -17.40,80.68 -17.41,80.89 -17.41,81.11 -17.48,81.31 -17.56,81.51 -17.69,81.67 -17.82,81.84 -18.00,81.96 -18.18,82.07 -18.38,82.12 -18.59,82.18 -18.80,82.16 -19.01,82.15 -19.21,82.06 -19.40,81.98 -19.56,81.84 -19.72,81.70 -19.83,81.52 -19.93,81.33 -19.98,81.12 -20.02,80.92 -19.99,80.71 -19.96,80.49 -19.87,80.30 -19.78,80.11 -19.63,79.96 -19.48,79.81 -19.29,79.71 -19.10,79.62 -18.89,79.59 -18.68,79.56 -18.47,79.59 -18.26,79.63 -18.26,79.63 -18.26,79.63 -15.52,80.31 -12.77,80.99 -10.55,82.17 -8.34,83.35 -7.45,84.60 -6.56,85.85 -6.60,86.15 -6.63,86.45 -6.74,86.74 -6.85,87.02 -7.02,87.27 -7.20,87.51 -7.43,87.71 -7.65,87.91 -7.92,88.05 -8.19,88.19 -8.48,88.26 -8.78,88.33 -9.08,88.33 -9.38,88.32 -9.67,88.25 -9.97,88.18 -10.23,88.03 -10.50,87.89 -10.73,87.69 -10.95,87.49 -11.12,87.24 -11.29,86.99 -11.40,86.71 -11.50,86.42 -11.54,86.12 -11.57,85.82 -11.53,85.58 -11.49,85.35 -11.49,84.16 -11.48,82.98 -11.46,81.44 -11.44,79.91 -11.39,76.89 -11.35,73.87 -11.24,70.45 -11.14,67.03 -10.90,63.47 -10.67,59.92 -10.72,55.66 -10.78,51.40 -10.90,48.12 -11.03,44.83 -11.34,41.19 -11.65,37.55 -11.75,32.88 -11.86,28.22 -12.11,23.82 -12.37,19.42 -12.37,17.21 -12.37,15.00 -12.38,12.26 -12.39,9.53 -12.43,7.38 -12.47,5.24 -12.54,2.90 -12.62,0.55 -11.53,-2.34 -10.44,-5.24 -9.16,-5.86 -7.88,-6.49 -5.80,-5.99 -3.71,-5.49 -2.59,-5.15 -1.46,-4.82 -0.40,-3.97 0.66,-3.13 1.05,-1.92 1.45,-0.72 1.51,-0.54 1.58,-0.35 1.60,-0.16 1.62,0.03 1.59,0.22 1.56,0.41 1.49,0.60 1.42,0.78 1.30,0.94 1.19,1.09 1.04,1.22 0.89,1.35 0.71,1.43 0.54,1.52 0.35,1.57 0.16,1.61 -0.03,1.60 -0.22,1.60 -0.41,1.55 -0.60,1.50 -0.77,1.41 -0.94,1.31 -1.09,1.18 -1.23,1.05 -1.34,0.88 -1.45,0.72 -1.45,0.72 L -1.45,0.72 Z"/></g><g transform="translate(402.8703734594153 464.5682612082378) rotate(0 0.4536609393295521 -2.7219656359774262)" stroke="none"><path fill="#1e1e1e" d="M -1.81,0 Q -1.81,0 -1.83,-2.34 -1.84,-4.69 -1.57,-6.37 -1.31,-8.04 -1.20,-8.95 -1.09,-9.86 -1.03,-10.07 -0.96,-10.29 -0.85,-10.48 -0.73,-10.68 -0.58,-10.84 -0.42,-11.00 -0.23,-11.12 -0.04,-11.24 0.17,-11.31 0.38,-11.38 0.61,-11.39 0.83,-11.41 1.05,-11.37 1.27,-11.33 1.48,-11.24 1.69,-11.15 1.87,-11.01 2.04,-10.88 2.19,-10.70 2.33,-10.53 2.42,-10.32 2.52,-10.12 2.56,-9.90 2.60,-9.68 2.59,-9.45 2.58,-9.23 2.49,-5.64 2.41,-2.05 1.89,1.03 1.37,4.11 1.33,4.32 1.28,4.53 1.17,4.71 1.07,4.89 0.91,5.03 0.75,5.17 0.55,5.25 0.35,5.33 0.14,5.35 -0.06,5.36 -0.27,5.30 -0.47,5.25 -0.65,5.13 -0.83,5.01 -0.96,4.84 -1.09,4.68 -1.16,4.48 -1.23,4.27 -1.23,4.06 -1.23,3.85 -1.16,3.65 -1.10,3.45 -0.97,3.28 -0.84,3.11 -0.67,2.99 -0.49,2.86 -0.29,2.81 -0.08,2.75 0.12,2.76 0.33,2.77 0.53,2.84 0.73,2.92 0.89,3.06 1.05,3.19 1.16,3.38 1.28,3.56 1.32,3.76 1.37,3.97 1.35,4.18 1.33,4.39 1.24,4.59 1.15,4.78 1.01,4.94 0.86,5.09 0.68,5.19 0.49,5.29 0.28,5.33 0.07,5.37 -0.13,5.33 -0.34,5.30 -0.53,5.20 -0.72,5.10 -0.86,4.95 -1.01,4.80 -1.10,4.61 -1.19,4.41 -1.22,4.20 -1.24,3.99 -1.24,3.99 -1.24,3.99 -1.47,0.79 -1.70,-2.41 -1.46,-5.01 -1.22,-7.60 -1.16,-8.73 -1.09,-9.86 -1.03,-10.07 -0.96,-10.29 -0.85,-10.48 -0.73,-10.68 -0.58,-10.84 -0.42,-11.00 -0.23,-11.12 -0.04,-11.24 0.17,-11.31 0.38,-11.38 0.61,-11.39 0.83,-11.41 1.05,-11.37 1.27,-11.33 1.48,-11.24 1.69,-11.15 1.87,-11.01 2.04,-10.88 2.18,-10.70 2.33,-10.53 2.42,-10.32 2.52,-10.12 2.56,-9.90 2.60,-9.68 2.59,-9.45 2.58,-9.23 2.46,-8.32 2.35,-7.41 2.10,-6.05 1.84,-4.69 1.83,-2.34 1.81,0 1.79,0.21 1.76,0.43 1.68,0.64 1.61,0.84 1.48,1.02 1.36,1.20 1.19,1.35 1.03,1.49 0.83,1.59 0.64,1.70 0.43,1.75 0.21,1.80 -0.00,1.80 -0.21,1.80 -0.43,1.75 -0.64,1.70 -0.83,1.59 -1.03,1.49 -1.19,1.35 -1.36,1.20 -1.48,1.02 -1.61,0.84 -1.68,0.63 -1.76,0.43 -1.79,0.21 -1.81,-0.00 -1.81,-0.00 L -1.81,0 Z"/></g><g transform="translate(491.78791756801274 296.71371365629375) rotate(0 -25.858673541786004 0)" stroke="none"><path fill="#1e1e1e" d="M 0,1.36 Q 0,1.36 -1.30,1.70 -2.60,2.04 -3.94,2.11 -5.28,2.18 -6.89,2.26 -8.51,2.34 -10.18,2.09 -11.86,1.84 -13.39,1.76 -14.93,1.68 -16.89,1.65 -18.85,1.62 -20.74,1.60 -22.62,1.58 -24.46,1.58 -26.30,1.58 -27.95,1.83 -29.61,2.09 -31.35,2.46 -33.10,2.82 -35.05,3.02 -37.01,3.22 -38.07,3.29 -39.13,3.37 -41.06,3.34 -42.99,3.32 -44.01,3.00 -45.02,2.67 -46.43,2.21 -47.84,1.76 -49.53,1.08 -51.23,0.41 -51.44,0.37 -51.64,0.33 -51.83,0.23 -52.01,0.13 -52.16,-0.02 -52.30,-0.18 -52.38,-0.37 -52.47,-0.57 -52.49,-0.78 -52.50,-0.99 -52.45,-1.20 -52.40,-1.41 -52.29,-1.59 -52.17,-1.76 -52.01,-1.90 -51.84,-2.03 -51.64,-2.10 -51.44,-2.18 -51.23,-2.18 -51.02,-2.19 -50.82,-2.13 -50.61,-2.07 -50.44,-1.94 -50.27,-1.82 -50.14,-1.65 -50.02,-1.48 -49.96,-1.27 -49.89,-1.07 -49.90,-0.86 -49.90,-0.64 -49.98,-0.44 -50.05,-0.25 -50.18,-0.08 -50.32,0.08 -50.49,0.19 -50.67,0.31 -50.88,0.36 -51.09,0.41 -51.30,0.39 -51.51,0.38 -51.70,0.29 -51.90,0.21 -52.06,0.07 -52.22,-0.06 -52.32,-0.25 -52.43,-0.43 -52.47,-0.64 -52.51,-0.85 -52.48,-1.06 -52.45,-1.27 -52.36,-1.46 -52.26,-1.65 -52.11,-1.80 -51.96,-1.95 -51.77,-2.05 -51.58,-2.14 -51.37,-2.17 -51.16,-2.20 -51.16,-2.20 -51.16,-2.20 -48.97,-2.75 -46.78,-3.29 -45.61,-2.91 -44.45,-2.54 -42.87,-2.13 -41.30,-1.73 -39.37,-1.80 -37.45,-1.87 -35.77,-1.99 -34.10,-2.10 -32.20,-2.48 -30.30,-2.85 -28.29,-3.11 -26.29,-3.37 -24.43,-3.35 -22.57,-3.34 -20.65,-3.31 -18.74,-3.29 -16.67,-3.23 -14.61,-3.17 -12.81,-3.03 -11.02,-2.89 -9.75,-2.61 -8.49,-2.34 -6.89,-2.26 -5.28,-2.18 -3.94,-2.11 -2.60,-2.04 -1.30,-1.70 0,-1.36 0.16,-1.34 0.32,-1.32 0.47,-1.26 0.63,-1.20 0.76,-1.11 0.90,-1.01 1.01,-0.89 1.12,-0.77 1.19,-0.62 1.27,-0.48 1.31,-0.32 1.35,-0.16 1.35,0.00 1.35,0.16 1.31,0.32 1.27,0.48 1.19,0.62 1.12,0.77 1.01,0.89 0.90,1.01 0.76,1.11 0.63,1.20 0.47,1.26 0.32,1.32 0.16,1.34 -0.00,1.36 -0.00,1.36 L 0,1.36 Z"/></g><g transform="translate(396.51912030880123 299.4356792922712) rotate(0 -19.507420391171934 12.248845361898645)" stroke="none"><path fill="#1e1e1e" d="M 0,1.61 Q 0,1.61 -1.30,1.93 -2.60,2.24 -3.68,2.27 -4.76,2.31 -6.67,2.36 -8.59,2.41 -9.77,2.44 -10.95,2.48 -12.50,2.49 -14.04,2.51 -15.74,2.53 -17.44,2.55 -20.15,2.56 -22.85,2.56 -24.37,2.57 -25.88,2.57 -27.57,2.59 -29.26,2.60 -31.17,2.61 -33.09,2.61 -34.56,2.82 -36.04,3.04 -37.15,3.19 -38.26,3.34 -39.50,3.43 -40.75,3.51 -41.07,3.49 -41.38,3.48 -41.69,3.39 -41.99,3.30 -42.27,3.13 -42.54,2.97 -42.77,2.75 -43.00,2.53 -43.17,2.26 -43.34,1.99 -43.44,1.68 -43.53,1.38 -43.56,1.06 -43.58,0.75 -43.53,0.43 -43.47,0.12 -43.35,-0.17 -43.22,-0.46 -43.02,-0.71 -42.83,-0.96 -42.58,-1.16 -42.33,-1.36 -42.05,-1.50 -41.76,-1.63 -41.44,-1.69 -41.13,-1.75 -39.70,-0.33 -38.27,1.09 -37.57,1.99 -36.87,2.88 -35.43,3.99 -33.98,5.10 -31.77,6.30 -29.55,7.50 -27.63,8.25 -25.71,9.00 -23.72,9.91 -21.73,10.81 -19.63,11.69 -17.54,12.57 -15.02,13.75 -12.50,14.93 -10.18,15.93 -7.87,16.93 -5.38,17.89 -2.88,18.84 -0.38,20.79 2.12,22.73 2.30,22.86 2.47,22.98 2.59,23.15 2.72,23.33 2.78,23.53 2.84,23.73 2.84,23.94 2.83,24.16 2.76,24.36 2.68,24.56 2.55,24.72 2.42,24.89 2.24,25.00 2.06,25.12 1.85,25.17 1.65,25.22 1.44,25.20 1.22,25.19 1.03,25.10 0.83,25.02 0.68,24.88 0.52,24.73 0.41,24.55 0.31,24.36 0.27,24.16 0.23,23.95 0.26,23.74 0.28,23.53 0.38,23.34 0.47,23.14 0.62,22.99 0.77,22.84 0.96,22.75 1.15,22.66 1.36,22.63 1.58,22.60 1.78,22.64 1.99,22.68 2.18,22.78 2.36,22.89 2.50,23.04 2.65,23.20 2.73,23.40 2.81,23.59 2.83,23.80 2.85,24.02 2.80,24.22 2.75,24.43 2.63,24.61 2.52,24.79 2.35,24.92 2.19,25.05 1.99,25.13 1.79,25.20 1.58,25.21 1.36,25.21 1.16,25.15 0.96,25.09 0.96,25.09 0.96,25.09 -1.86,24.39 -4.69,23.70 -7.33,22.74 -9.97,21.79 -12.36,20.76 -14.75,19.72 -17.17,18.58 -19.59,17.43 -21.75,16.52 -23.91,15.61 -25.79,14.75 -27.68,13.89 -29.97,12.95 -32.25,12.00 -33.43,11.28 -34.61,10.57 -36.73,9.17 -38.84,7.78 -40.35,6.46 -41.86,5.13 -42.67,3.43 -43.47,1.73 -42.11,2.62 -40.75,3.51 -41.07,3.49 -41.38,3.48 -41.69,3.39 -41.99,3.30 -42.27,3.13 -42.54,2.97 -42.77,2.75 -43.00,2.53 -43.17,2.26 -43.34,1.99 -43.43,1.68 -43.53,1.38 -43.56,1.06 -43.58,0.75 -43.53,0.43 -43.47,0.12 -43.35,-0.16 -43.22,-0.46 -43.02,-0.71 -42.83,-0.96 -42.58,-1.16 -42.33,-1.36 -42.05,-1.50 -41.76,-1.63 -41.44,-1.69 -41.13,-1.75 -40.59,-1.77 -40.06,-1.78 -38.76,-1.89 -37.47,-1.99 -35.28,-2.30 -33.09,-2.61 -31.17,-2.61 -29.26,-2.60 -27.57,-2.59 -25.88,-2.57 -24.37,-2.57 -22.85,-2.56 -20.15,-2.56 -17.44,-2.55 -15.74,-2.53 -14.04,-2.51 -12.50,-2.49 -10.95,-2.48 -9.77,-2.44 -8.59,-2.41 -6.67,-2.36 -4.76,-2.31 -3.68,-2.27 -2.60,-2.24 -1.30,-1.93 0,-1.61 0.19,-1.59 0.38,-1.57 0.56,-1.50 0.75,-1.43 0.91,-1.32 1.07,-1.21 1.20,-1.06 1.33,-0.91 1.42,-0.74 1.51,-0.57 1.55,-0.38 1.60,-0.19 1.60,0.00 1.60,0.19 1.55,0.38 1.51,0.57 1.42,0.74 1.33,0.91 1.20,1.06 1.07,1.21 0.91,1.32 0.75,1.43 0.56,1.50 0.38,1.57 0.19,1.59 -0.00,1.61 -0.00,1.61 L 0,1.61 Z"/></g><g transform="translate(359.3189232837757 313.04550747215853) rotate(0 -0.9073218786591042 49.902703326253686)" stroke="none"><path fill="#1e1e1e" d="M 1.58,0 Q 1.58,0 1.76,2.34 1.93,4.69 2.21,6.60 2.50,8.52 2.63,9.95 2.76,11.39 2.85,14.39 2.94,17.39 2.97,19.69 3.01,21.99 2.80,26.18 2.59,30.36 2.50,35.71 2.42,41.06 2.12,45.75 1.81,50.45 1.69,54.73 1.57,59.00 1.25,62.73 0.93,66.46 0.80,70.04 0.67,73.63 0.35,78.34 0.03,83.06 -0.20,87.09 -0.45,91.12 -0.91,94.69 -1.37,98.25 -1.41,98.46 -1.45,98.67 -1.55,98.85 -1.65,99.04 -1.81,99.18 -1.97,99.32 -2.16,99.41 -2.36,99.49 -2.57,99.51 -2.78,99.53 -2.99,99.48 -3.19,99.43 -3.37,99.32 -3.55,99.20 -3.69,99.04 -3.82,98.87 -3.90,98.67 -3.97,98.47 -3.98,98.26 -3.98,98.05 -3.92,97.85 -3.86,97.64 -3.74,97.47 -3.61,97.30 -3.44,97.17 -3.27,97.05 -3.07,96.98 -2.86,96.92 -2.65,96.92 -2.44,96.93 -2.24,97.00 -2.04,97.07 -1.87,97.21 -1.71,97.34 -1.59,97.52 -1.48,97.70 -1.42,97.90 -1.37,98.11 -1.39,98.32 -1.41,98.53 -1.49,98.73 -1.57,98.92 -1.71,99.08 -1.85,99.24 -2.04,99.35 -2.22,99.45 -2.43,99.49 -2.64,99.53 -2.85,99.51 -3.06,99.48 -3.25,99.38 -3.44,99.29 -3.59,99.14 -3.74,98.99 -3.84,98.80 -3.93,98.61 -3.96,98.40 -3.99,98.19 -3.99,98.19 -3.99,98.19 -4.29,94.59 -4.59,90.99 -4.56,86.87 -4.53,82.75 -4.22,78.11 -3.90,73.46 -3.76,69.76 -3.62,66.06 -3.31,62.46 -3.00,58.87 -2.86,54.51 -2.72,50.15 -2.41,45.56 -2.10,40.97 -1.97,35.53 -1.84,30.08 -1.55,26.06 -1.25,22.03 -1.26,19.75 -1.26,17.46 -1.27,14.59 -1.27,11.71 -1.36,10.37 -1.46,9.03 -1.69,6.86 -1.93,4.69 -1.76,2.34 -1.58,0 -1.56,-0.19 -1.54,-0.38 -1.47,-0.55 -1.40,-0.73 -1.29,-0.89 -1.18,-1.05 -1.04,-1.18 -0.90,-1.30 -0.73,-1.39 -0.56,-1.48 -0.37,-1.53 -0.19,-1.57 0.00,-1.57 0.19,-1.57 0.37,-1.53 0.56,-1.48 0.73,-1.39 0.90,-1.30 1.04,-1.18 1.18,-1.05 1.29,-0.89 1.40,-0.73 1.47,-0.55 1.54,-0.38 1.56,-0.18 1.58,0.00 1.58,0.00 L 1.58,0 Z"/></g><g transform="translate(357.5042795264575 437.3486048484631) rotate(0 -0.45366093932960894 -7.258575029273231)" stroke="none"><path fill="#1e1e1e" d="M -1.69,0.33 Q -1.69,0.33 -2.01,-0.95 -2.32,-2.25 -2.48,-4.49 -2.64,-6.74 -2.69,-8.45 -2.74,-10.17 -2.09,-12.08 -1.44,-13.99 -1.36,-14.19 -1.29,-14.38 -1.15,-14.55 -1.02,-14.71 -0.84,-14.83 -0.66,-14.94 -0.46,-14.99 -0.25,-15.04 -0.04,-15.03 0.16,-15.01 0.36,-14.92 0.55,-14.84 0.71,-14.70 0.87,-14.55 0.97,-14.37 1.08,-14.18 1.12,-13.98 1.16,-13.77 1.13,-13.56 1.10,-13.35 1.00,-13.16 0.91,-12.97 0.76,-12.82 0.61,-12.67 0.42,-12.57 0.23,-12.48 0.02,-12.45 -0.19,-12.42 -0.39,-12.46 -0.60,-12.50 -0.79,-12.61 -0.97,-12.71 -1.11,-12.87 -1.25,-13.03 -1.34,-13.23 -1.42,-13.42 -1.44,-13.63 -1.45,-13.85 -1.40,-14.05 -1.35,-14.26 -1.24,-14.44 -1.12,-14.61 -0.96,-14.75 -0.79,-14.88 -0.59,-14.95 -0.39,-15.03 -0.18,-15.03 0.02,-15.04 0.23,-14.97 0.43,-14.91 0.60,-14.79 0.78,-14.66 0.90,-14.49 1.02,-14.31 1.08,-14.11 1.15,-13.91 1.14,-13.70 1.13,-13.48 1.13,-13.48 1.13,-13.48 1.10,-11.87 1.07,-10.25 1.11,-8.60 1.15,-6.94 1.21,-4.95 1.28,-2.96 1.49,-1.65 1.69,-0.33 1.71,-0.13 1.73,0.07 1.69,0.28 1.66,0.48 1.57,0.68 1.49,0.87 1.37,1.03 1.24,1.20 1.08,1.33 0.92,1.46 0.73,1.55 0.54,1.64 0.33,1.68 0.13,1.72 -0.07,1.71 -0.28,1.70 -0.48,1.65 -0.68,1.59 -0.86,1.48 -1.04,1.38 -1.19,1.23 -1.34,1.09 -1.45,0.91 -1.56,0.73 -1.63,0.53 -1.69,0.33 -1.69,0.33 L -1.69,0.33 Z"/></g><g transform="translate(464.568261208238 411.9435922460067) rotate(0 58.52226117351563 4.990270332625357)" stroke="none"><path fill="#1e1e1e" d="M 1.13,-1.42 Q 1.13,-1.42 2.62,-0.61 4.11,0.18 6.32,1.14 8.52,2.10 10.72,2.87 12.93,3.64 14.96,3.91 17.00,4.18 19.16,4.28 21.32,4.38 23.45,4.70 25.58,5.03 27.86,5.14 30.15,5.25 32.18,5.29 34.21,5.33 36.07,5.63 37.93,5.93 39.29,6.03 40.66,6.13 42.52,6.15 44.39,6.17 45.97,6.18 47.56,6.19 49.28,6.19 50.99,6.19 52.50,6.19 54.02,6.19 55.70,6.19 57.39,6.19 59.41,6.18 61.43,6.18 63.33,6.18 65.24,6.18 67.29,6.45 69.34,6.72 71.56,6.81 73.78,6.91 75.78,6.95 77.78,7.00 78.90,6.78 80.01,6.56 81.52,6.44 83.04,6.32 84.19,6.27 85.35,6.23 86.64,6.20 87.93,6.18 89.25,6.18 90.58,6.17 92.71,6.16 94.84,6.16 96.27,6.16 97.69,6.15 98.82,6.15 99.95,6.15 101.26,6.15 102.58,6.15 104.19,6.15 105.81,6.15 107.47,6.15 109.14,6.14 110.41,6.15 111.67,6.15 112.77,5.81 113.86,5.48 112.48,4.33 111.09,3.17 110.89,3.12 110.68,3.06 110.51,2.94 110.33,2.82 110.20,2.66 110.07,2.49 110.00,2.29 109.93,2.09 109.93,1.87 109.93,1.66 109.99,1.46 110.06,1.26 110.19,1.09 110.31,0.92 110.49,0.80 110.66,0.68 110.87,0.62 111.07,0.56 111.28,0.57 111.50,0.58 111.69,0.66 111.89,0.73 112.06,0.87 112.22,1.01 112.33,1.19 112.44,1.37 112.49,1.58 112.53,1.78 112.51,1.99 112.49,2.21 112.40,2.40 112.32,2.59 112.17,2.75 112.03,2.90 111.84,3.00 111.65,3.11 111.44,3.14 111.23,3.18 111.02,3.14 110.81,3.11 110.63,3.01 110.44,2.92 110.29,2.76 110.14,2.61 110.05,2.42 109.96,2.22 109.94,2.01 109.91,1.80 109.96,1.59 110.00,1.39 110.11,1.20 110.22,1.02 110.38,0.88 110.54,0.74 110.74,0.66 110.93,0.58 111.14,0.57 111.36,0.56 111.36,0.56 111.36,0.56 114.01,0.54 116.67,0.53 117.64,1.48 118.62,2.42 118.90,3.61 119.18,4.80 118.83,6.45 118.48,8.09 117.81,9.07 117.14,10.04 116.07,10.58 115.00,11.12 113.34,11.55 111.67,11.99 110.41,11.99 109.14,11.99 107.47,11.99 105.81,11.99 104.19,11.99 102.58,11.99 101.27,11.99 99.95,11.99 98.82,11.99 97.70,11.99 96.27,11.99 94.85,11.99 92.73,11.99 90.62,11.99 89.31,12.00 88.01,12.01 85.74,12.06 83.47,12.12 82.24,12.21 81.00,12.29 79.34,12.55 77.67,12.81 75.59,12.76 73.50,12.71 71.02,12.59 68.53,12.46 66.88,12.21 65.23,11.96 63.33,11.96 61.43,11.96 59.40,11.95 57.38,11.94 55.69,11.94 54.00,11.93 52.48,11.93 50.96,11.92 49.22,11.90 47.48,11.88 45.86,11.85 44.24,11.81 42.22,11.73 40.21,11.65 38.60,11.51 36.99,11.36 35.52,11.09 34.05,10.82 31.94,10.74 29.84,10.67 27.28,10.50 24.73,10.34 22.85,10.01 20.96,9.69 18.59,9.49 16.21,9.30 13.71,8.87 11.21,8.44 8.88,7.56 6.55,6.68 4.81,5.90 3.07,5.12 2.08,4.55 1.09,3.98 -0.02,2.70 -1.13,1.42 -1.29,1.26 -1.44,1.10 -1.55,0.91 -1.66,0.73 -1.73,0.52 -1.79,0.31 -1.80,0.09 -1.81,-0.12 -1.77,-0.34 -1.73,-0.55 -1.64,-0.75 -1.54,-0.95 -1.41,-1.12 -1.27,-1.30 -1.10,-1.43 -0.92,-1.56 -0.72,-1.65 -0.52,-1.74 -0.30,-1.78 -0.09,-1.81 0.12,-1.80 0.34,-1.78 0.55,-1.72 0.76,-1.65 0.95,-1.53 1.13,-1.42 1.13,-1.42 L 1.13,-1.42 Z"/></g><g transform="translate(587.0567148272241 415.57287976064333) rotate(0 14.517150058546576 -30.84894387441136)" stroke="none"><path fill="#1e1e1e" d="M 0.76,-1.53 Q 0.76,-1.53 1.91,-1.24 3.06,-0.95 5.33,-1.37 7.60,-1.79 9.08,-2.68 10.56,-3.57 12.29,-5.57 14.02,-7.58 15.30,-9.43 16.58,-11.28 19.09,-18.10 21.60,-24.93 22.94,-30.90 24.28,-36.88 24.85,-41.95 25.42,-47.03 25.66,-51.00 25.90,-54.98 26.01,-56.94 26.12,-58.89 26.62,-60.32 27.12,-61.75 27.01,-61.94 26.91,-62.13 26.87,-62.34 26.83,-62.54 26.86,-62.75 26.89,-62.96 26.99,-63.15 27.09,-63.34 27.24,-63.49 27.39,-63.64 27.58,-63.74 27.77,-63.83 27.98,-63.85 28.19,-63.88 28.40,-63.84 28.61,-63.80 28.79,-63.69 28.98,-63.59 29.12,-63.43 29.26,-63.27 29.34,-63.07 29.42,-62.88 29.44,-62.66 29.45,-62.45 29.40,-62.25 29.35,-62.04 29.23,-61.86 29.12,-61.68 28.95,-61.55 28.78,-61.42 28.58,-61.35 28.38,-61.28 28.17,-61.27 27.96,-61.27 27.76,-61.33 27.55,-61.40 27.38,-61.52 27.21,-61.65 27.09,-61.82 26.97,-62.00 26.90,-62.20 26.84,-62.40 26.85,-62.62 26.86,-62.83 26.93,-63.03 27.01,-63.23 27.14,-63.39 27.28,-63.55 27.46,-63.67 27.64,-63.78 27.84,-63.83 28.05,-63.88 28.26,-63.86 28.47,-63.84 28.67,-63.76 28.86,-63.67 29.02,-63.53 29.18,-63.38 29.18,-63.38 29.18,-63.38 30.40,-61.01 31.62,-58.64 31.52,-56.63 31.41,-54.63 31.15,-50.52 30.88,-46.40 30.26,-41.03 29.63,-35.66 28.17,-29.33 26.71,-23.00 23.85,-15.61 21.00,-8.22 19.47,-6.08 17.94,-3.95 15.51,-1.48 13.08,0.97 10.93,2.01 8.77,3.05 6.49,3.41 4.20,3.78 2.65,3.41 1.11,3.04 0.17,2.28 -0.76,1.53 -0.93,1.41 -1.10,1.30 -1.24,1.15 -1.38,0.99 -1.48,0.81 -1.58,0.63 -1.64,0.43 -1.69,0.23 -1.69,0.03 -1.70,-0.17 -1.65,-0.37 -1.61,-0.57 -1.51,-0.75 -1.42,-0.94 -1.29,-1.10 -1.15,-1.25 -0.99,-1.37 -0.82,-1.49 -0.63,-1.57 -0.44,-1.65 -0.23,-1.68 -0.03,-1.71 0.17,-1.69 0.37,-1.66 0.57,-1.60 0.76,-1.53 0.76,-1.53 L 0.76,-1.53 Z"/></g><g transform="translate(602.4811867644298 315.7674731081361) rotate(0 13.609828179887472 27.67331729910427)" stroke="none"><path fill="#1e1e1e" d="M -0.86,1.29 Q -0.86,1.29 -1.08,1.05 -1.30,0.82 -2.00,1.94 -2.70,3.06 -3.32,4.47 -3.95,5.88 -5.29,8.91 -6.63,11.93 -7.68,14.96 -8.73,17.99 -9.40,21.01 -10.07,24.03 -10.62,26.66 -11.18,29.29 -11.39,31.82 -11.60,34.35 -11.44,36.06 -11.28,37.76 -10.98,38.91 -10.68,40.05 -10.29,41.33 -9.90,42.62 -9.11,44.12 -8.32,45.61 -7.34,46.74 -6.37,47.87 -4.14,49.24 -1.91,50.61 -0.57,51.23 0.77,51.84 2.30,52.33 3.82,52.82 5.33,52.98 6.85,53.15 8.72,53.52 10.60,53.89 12.49,54.01 14.38,54.13 15.77,53.93 17.17,53.74 19.22,52.86 21.26,51.98 22.52,51.22 23.77,50.46 25.08,49.61 26.40,48.77 27.36,47.97 28.33,47.18 29.64,46.23 30.96,45.28 32.03,44.14 33.10,42.99 33.92,41.29 34.73,39.60 35.17,38.39 35.61,37.18 36.06,35.88 36.51,34.58 36.72,33.42 36.92,32.26 37.28,30.09 37.63,27.92 38.06,26.82 38.48,25.72 38.61,24.20 38.74,22.67 38.78,20.66 38.81,18.65 38.58,16.54 38.35,14.43 38.23,13.20 38.11,11.97 37.31,10.92 36.52,9.88 35.65,8.55 34.79,7.22 33.39,6.53 32.00,5.84 30.14,5.78 28.29,5.73 25.98,5.42 23.68,5.12 21.40,4.73 19.12,4.34 16.39,3.91 13.65,3.48 9.90,3.44 6.16,3.41 4.40,3.16 2.65,2.90 2.44,2.89 2.22,2.87 2.03,2.79 1.83,2.70 1.67,2.56 1.52,2.42 1.41,2.24 1.31,2.05 1.27,1.84 1.22,1.63 1.25,1.42 1.28,1.21 1.37,1.02 1.47,0.83 1.62,0.68 1.77,0.53 1.96,0.44 2.15,0.34 2.36,0.31 2.57,0.28 2.78,0.32 2.99,0.36 3.17,0.47 3.36,0.57 3.50,0.73 3.64,0.88 3.73,1.08 3.81,1.27 3.83,1.49 3.85,1.70 3.80,1.90 3.75,2.11 3.63,2.29 3.52,2.47 3.35,2.60 3.19,2.74 2.99,2.81 2.79,2.88 2.58,2.89 2.36,2.90 2.16,2.84 1.96,2.77 1.78,2.65 1.61,2.53 1.49,2.35 1.36,2.18 1.30,1.98 1.24,1.78 1.24,1.56 1.25,1.35 1.32,1.15 1.39,0.95 1.53,0.79 1.66,0.62 1.84,0.50 2.02,0.39 2.22,0.34 2.43,0.29 2.43,0.29 2.43,0.29 4.11,-0.25 5.80,-0.79 10.15,-1.51 14.49,-2.22 17.30,-1.81 20.11,-1.39 22.28,-1.01 24.45,-0.63 26.47,-0.35 28.49,-0.07 30.69,0.00 32.88,0.09 35.30,0.92 37.72,1.75 38.52,2.54 39.31,3.32 40.13,4.72 40.95,6.13 42.00,7.59 43.05,9.05 43.55,11.23 44.06,13.41 44.34,15.11 44.62,16.82 44.61,18.77 44.59,20.73 44.56,21.85 44.53,22.97 44.20,25.41 43.87,27.86 43.33,29.31 42.79,30.76 42.73,31.90 42.67,33.04 42.32,34.75 41.97,36.46 41.50,37.81 41.03,39.16 40.54,40.49 40.05,41.82 39.48,43.15 38.91,44.48 38.31,45.46 37.71,46.45 36.87,47.49 36.04,48.53 35.17,49.22 34.30,49.92 33.12,50.77 31.93,51.62 30.71,52.60 29.48,53.58 28.10,54.46 26.71,55.35 25.29,56.20 23.87,57.05 22.30,57.82 20.73,58.58 19.29,58.96 17.84,59.34 15.91,59.54 13.98,59.73 11.74,59.54 9.50,59.36 7.80,59.00 6.10,58.65 4.10,58.34 2.10,58.03 0.28,57.40 -1.54,56.76 -3.16,55.98 -4.78,55.20 -6.50,54.09 -8.22,52.99 -9.23,52.19 -10.25,51.40 -11.05,50.48 -11.86,49.56 -12.84,47.89 -13.82,46.22 -14.34,45.16 -14.86,44.11 -15.27,42.69 -15.68,41.27 -16.04,39.73 -16.39,38.19 -16.55,36.05 -16.71,33.90 -16.43,31.06 -16.15,28.22 -15.57,25.55 -14.98,22.89 -14.19,19.61 -13.40,16.33 -12.23,13.13 -11.07,9.92 -9.65,6.87 -8.23,3.81 -7.28,1.97 -6.33,0.12 -5.45,-0.85 -4.56,-1.83 -3.19,-2.37 -1.82,-2.91 -0.48,-2.10 0.86,-1.29 1.00,-1.17 1.14,-1.04 1.25,-0.89 1.36,-0.74 1.43,-0.56 1.50,-0.39 1.52,-0.21 1.55,-0.02 1.53,0.16 1.51,0.34 1.44,0.52 1.38,0.69 1.28,0.85 1.17,1.01 1.04,1.13 0.90,1.26 0.73,1.35 0.57,1.44 0.39,1.49 0.21,1.53 0.02,1.54 -0.16,1.54 -0.34,1.50 -0.52,1.46 -0.69,1.37 -0.86,1.29 -0.86,1.29 L -0.86,1.29 Z"/></g><g transform="translate(526.2661489570606 438.2559267271223) rotate(0 1.814643757318322 34.02457044971834)" stroke="none"><path fill="#1e1e1e" d="M 1.23,0.49 Q 1.23,0.49 1.29,2.01 1.34,3.53 1.21,5.57 1.08,7.60 1.00,9.85 0.92,12.10 1.14,14.21 1.36,16.32 1.73,19.08 2.09,21.84 2.50,24.84 2.92,27.84 3.37,30.94 3.81,34.04 4.52,37.64 5.23,41.24 5.55,44.49 5.87,47.74 6.25,50.31 6.63,52.87 6.81,55.13 6.99,57.38 7.30,58.93 7.61,60.48 7.77,62.39 7.94,64.31 7.31,65.96 6.68,67.61 6.71,67.82 6.75,68.03 6.71,68.24 6.67,68.45 6.57,68.64 6.47,68.82 6.32,68.97 6.16,69.12 5.97,69.20 5.78,69.29 5.56,69.31 5.35,69.33 5.15,69.29 4.94,69.24 4.76,69.13 4.58,69.02 4.44,68.86 4.30,68.69 4.23,68.50 4.15,68.30 4.14,68.09 4.13,67.87 4.19,67.67 4.24,67.46 4.36,67.29 4.48,67.11 4.65,66.99 4.82,66.86 5.03,66.79 5.23,66.73 5.44,66.73 5.65,66.73 5.85,66.80 6.05,66.87 6.22,67.00 6.39,67.13 6.51,67.30 6.63,67.48 6.68,67.68 6.74,67.89 6.73,68.10 6.71,68.31 6.63,68.51 6.55,68.71 6.41,68.87 6.28,69.03 6.09,69.14 5.91,69.25 5.70,69.29 5.49,69.34 5.28,69.31 5.07,69.29 4.88,69.20 4.69,69.11 4.53,68.96 4.38,68.81 4.28,68.62 4.18,68.43 4.18,68.43 4.18,68.44 3.36,66.59 2.53,64.74 2.41,63.12 2.29,61.51 1.94,59.65 1.59,57.80 1.44,55.73 1.28,53.66 0.89,50.96 0.49,48.26 0.21,45.26 -0.06,42.26 -0.76,38.52 -1.47,34.79 -1.90,31.67 -2.32,28.56 -2.73,25.53 -3.14,22.50 -3.49,19.66 -3.83,16.82 -4.05,14.36 -4.27,11.89 -4.16,9.51 -4.06,7.12 -3.74,4.40 -3.43,1.68 -2.33,0.59 -1.23,-0.49 -1.15,-0.63 -1.07,-0.77 -0.97,-0.89 -0.86,-1.00 -0.72,-1.09 -0.59,-1.18 -0.44,-1.24 -0.29,-1.29 -0.13,-1.31 0.02,-1.32 0.18,-1.30 0.34,-1.28 0.48,-1.22 0.63,-1.16 0.76,-1.07 0.89,-0.97 1.00,-0.85 1.10,-0.73 1.17,-0.59 1.25,-0.44 1.28,-0.29 1.32,-0.13 1.31,0.02 1.31,0.18 1.27,0.33 1.23,0.49 1.23,0.49 L 1.23,0.49 Z"/></g><g transform="translate(584.3347491912468 430.997351697849) rotate(0 5.897592211284405 44.45877205429872)" stroke="none"><path fill="#1e1e1e" d="M 1.61,0 Q 1.61,0 2.01,2.08 2.41,4.17 2.73,6.76 3.06,9.35 4.25,14.79 5.43,20.23 6.47,25.76 7.50,31.29 8.21,36.30 8.92,41.30 9.73,45.69 10.54,50.09 11.15,53.27 11.76,56.46 12.29,59.68 12.82,62.90 13.27,64.65 13.73,66.41 14.22,69.13 14.71,71.85 14.93,74.40 15.15,76.95 15.24,79.07 15.33,81.20 15.37,82.36 15.40,83.51 15.28,84.86 15.17,86.22 13.80,87.12 12.43,88.03 12.41,88.18 12.39,88.34 12.34,88.49 12.29,88.64 12.20,88.77 12.11,88.90 11.99,89.01 11.87,89.11 11.73,89.19 11.60,89.26 11.44,89.30 11.29,89.34 11.13,89.35 10.97,89.35 10.82,89.31 10.66,89.28 10.52,89.20 10.38,89.13 10.26,89.03 10.14,88.92 10.05,88.79 9.96,88.67 9.90,88.52 9.84,88.37 9.82,88.21 9.80,88.06 10.16,88.63 10.51,89.21 10.34,89.08 10.17,88.95 10.05,88.78 9.93,88.60 9.87,88.40 9.81,88.19 9.82,87.98 9.83,87.77 9.91,87.57 9.99,87.37 10.12,87.21 10.26,87.05 10.44,86.94 10.62,86.82 10.83,86.78 11.04,86.73 11.25,86.75 11.46,86.77 11.65,86.86 11.85,86.95 12.00,87.10 12.16,87.24 12.26,87.43 12.36,87.62 12.39,87.82 12.43,88.03 12.40,88.24 12.36,88.45 12.26,88.64 12.17,88.83 12.01,88.98 11.86,89.12 11.67,89.21 11.47,89.31 11.26,89.33 11.05,89.35 10.85,89.31 10.64,89.26 10.45,89.16 10.27,89.05 10.13,88.89 9.99,88.73 9.91,88.53 9.84,88.33 9.82,88.12 9.81,87.91 9.87,87.70 9.92,87.50 10.04,87.32 10.16,87.14 10.33,87.01 10.49,86.89 10.70,86.82 10.90,86.75 11.11,86.75 11.32,86.74 11.88,87.39 12.43,88.03 12.41,88.18 12.39,88.34 12.34,88.49 12.29,88.64 12.20,88.77 12.11,88.90 11.99,89.01 11.87,89.11 11.73,89.19 11.60,89.26 11.44,89.30 11.29,89.34 11.13,89.35 10.97,89.35 10.82,89.31 10.66,89.28 10.52,89.20 10.38,89.13 10.26,89.03 10.14,88.92 10.05,88.79 9.96,88.67 9.90,88.52 9.84,88.37 9.82,88.21 9.80,88.06 10.01,87.16 10.21,86.27 10.05,84.98 9.89,83.68 9.85,82.55 9.81,81.43 9.74,79.41 9.66,77.39 9.49,75.10 9.31,72.81 8.87,70.29 8.43,67.77 7.92,65.77 7.41,63.78 6.90,60.63 6.39,57.48 5.79,54.27 5.19,51.07 4.37,46.56 3.55,42.05 2.87,37.16 2.20,32.27 1.21,26.79 0.22,21.31 -0.89,15.57 -2.01,9.84 -2.21,7.01 -2.41,4.17 -2.01,2.08 -1.61,0 -1.59,-0.19 -1.56,-0.38 -1.49,-0.56 -1.42,-0.75 -1.31,-0.91 -1.20,-1.07 -1.06,-1.19 -0.91,-1.32 -0.74,-1.41 -0.57,-1.50 -0.38,-1.55 -0.19,-1.60 0.00,-1.60 0.19,-1.60 0.38,-1.55 0.57,-1.50 0.74,-1.41 0.91,-1.32 1.06,-1.19 1.20,-1.07 1.31,-0.91 1.42,-0.75 1.49,-0.56 1.56,-0.38 1.59,-0.19 1.61,0.00 1.61,0.00 L 1.61,0 Z"/></g><g transform="translate(465.47558308689713 423.7387766685757) rotate(0 -6.35125315061407 29.487961056422648)" stroke="none"><path fill="#1e1e1e" d="M 1.55,0.77 Q 1.55,0.77 1.59,1.44 1.63,2.11 1.07,3.77 0.51,5.43 -0.22,8.43 -0.96,11.44 -1.79,15.09 -2.62,18.74 -3.52,21.92 -4.41,25.10 -5.55,29.78 -6.69,34.46 -7.70,39.04 -8.71,43.62 -9.12,46.78 -9.54,49.94 -9.78,52.28 -10.01,54.61 -9.95,56.97 -9.89,59.33 -9.87,59.54 -9.85,59.76 -9.91,59.96 -9.96,60.17 -10.07,60.35 -10.19,60.53 -10.35,60.66 -10.52,60.79 -10.72,60.86 -10.92,60.94 -11.13,60.94 -11.34,60.95 -11.55,60.88 -11.75,60.82 -11.92,60.69 -12.09,60.57 -12.22,60.40 -12.34,60.22 -12.40,60.02 -12.46,59.82 -12.46,59.60 -12.45,59.39 -12.38,59.19 -12.30,58.99 -12.17,58.83 -12.03,58.66 -11.86,58.55 -11.68,58.44 -11.47,58.39 -11.26,58.34 -11.05,58.35 -10.84,58.37 -10.64,58.46 -10.45,58.54 -10.29,58.68 -10.13,58.83 -10.03,59.01 -9.93,59.20 -9.89,59.41 -9.85,59.61 -9.88,59.83 -9.91,60.04 -10.00,60.23 -10.10,60.42 -10.25,60.57 -10.40,60.71 -10.59,60.81 -10.78,60.90 -10.99,60.93 -11.20,60.96 -11.41,60.92 -11.62,60.88 -11.80,60.77 -11.99,60.66 -12.13,60.51 -12.27,60.35 -12.35,60.15 -12.44,59.96 -12.44,59.96 -12.44,59.96 -13.64,57.14 -14.84,54.32 -14.71,51.80 -14.58,49.28 -14.13,45.90 -13.69,42.53 -12.67,37.88 -11.65,33.24 -10.47,28.48 -9.29,23.72 -8.41,20.65 -7.54,17.59 -6.65,13.90 -5.77,10.21 -4.93,7.01 -4.09,3.80 -3.38,1.88 -2.67,-0.03 -2.11,-0.40 -1.55,-0.77 -1.44,-0.95 -1.32,-1.13 -1.17,-1.27 -1.01,-1.41 -0.83,-1.51 -0.65,-1.61 -0.44,-1.67 -0.24,-1.72 -0.03,-1.73 0.17,-1.73 0.38,-1.68 0.58,-1.64 0.77,-1.54 0.96,-1.45 1.12,-1.31 1.28,-1.18 1.40,-1.01 1.52,-0.84 1.60,-0.64 1.68,-0.45 1.71,-0.24 1.74,-0.03 1.72,0.17 1.70,0.38 1.63,0.58 1.55,0.77 1.55,0.77 L 1.55,0.77 Z"/></g><g transform="translate(508.11971138387753 429.1827079405307) rotate(0 -0.907321878659161 30.395282935081752)" stroke="none"><path fill="#1e1e1e" d="M 1.48,0.18 Q 1.48,0.18 1.51,2.30 1.53,4.42 1.49,7.83 1.44,11.23 1.41,14.52 1.38,17.81 1.37,20.26 1.36,22.70 1.37,26.87 1.37,31.03 1.37,33.85 1.37,36.66 1.37,39.16 1.38,41.66 1.38,44.03 1.38,46.40 1.12,48.84 0.85,51.28 0.75,53.75 0.65,56.21 0.09,58.10 -0.47,59.99 -0.51,60.20 -0.55,60.40 -0.66,60.59 -0.76,60.77 -0.92,60.91 -1.08,61.05 -1.28,61.14 -1.47,61.22 -1.69,61.23 -1.90,61.25 -2.10,61.20 -2.31,61.14 -2.49,61.03 -2.66,60.91 -2.80,60.75 -2.93,60.58 -3.00,60.38 -3.07,60.18 -3.08,59.97 -3.08,59.75 -3.02,59.55 -2.95,59.35 -2.83,59.18 -2.70,59.01 -2.53,58.88 -2.35,58.76 -2.15,58.70 -1.95,58.64 -1.73,58.65 -1.52,58.65 -1.32,58.73 -1.12,58.80 -0.96,58.94 -0.80,59.07 -0.68,59.25 -0.57,59.43 -0.52,59.64 -0.47,59.85 -0.49,60.06 -0.51,60.27 -0.59,60.46 -0.68,60.66 -0.82,60.81 -0.97,60.97 -1.15,61.08 -1.34,61.18 -1.55,61.22 -1.76,61.25 -1.97,61.22 -2.18,61.19 -2.37,61.10 -2.56,61.00 -2.70,60.85 -2.85,60.70 -2.95,60.51 -3.04,60.32 -3.07,60.11 -3.09,59.90 -3.09,59.90 -3.09,59.90 -3.52,57.95 -3.95,56.01 -3.83,53.39 -3.71,50.76 -3.45,48.58 -3.19,46.40 -3.19,44.03 -3.19,41.66 -3.18,39.16 -3.17,36.66 -3.17,33.84 -3.16,31.02 -3.14,26.84 -3.12,22.67 -3.09,20.21 -3.06,17.75 -3.00,14.42 -2.93,11.09 -2.75,7.50 -2.57,3.91 -2.03,1.86 -1.48,-0.18 -1.44,-0.36 -1.39,-0.53 -1.31,-0.69 -1.22,-0.85 -1.10,-0.98 -0.98,-1.12 -0.84,-1.22 -0.69,-1.32 -0.52,-1.39 -0.35,-1.45 -0.17,-1.47 0.00,-1.49 0.18,-1.47 0.36,-1.45 0.53,-1.38 0.70,-1.32 0.84,-1.22 0.99,-1.11 1.11,-0.98 1.23,-0.84 1.31,-0.68 1.40,-0.52 1.44,-0.35 1.48,-0.17 1.48,0.00 1.48,0.18 1.48,0.18 L 1.48,0.18 Z"/></g><g transform="translate(533.5247239863339 522.6368614424239) rotate(0 -1.814643757318322 -11.795184422569037)" stroke="none"><path fill="#1e1e1e" d="M -1.32,0.13 Q -1.32,0.13 -2.14,-2.41 -2.97,-4.97 -3.34,-7.87 -3.71,-10.77 -4.02,-13.85 -4.33,-16.92 -4.48,-20.30 -4.64,-23.68 -4.64,-23.90 -4.65,-24.11 -4.59,-24.31 -4.52,-24.51 -4.40,-24.69 -4.27,-24.86 -4.10,-24.98 -3.93,-25.10 -3.72,-25.16 -3.52,-25.23 -3.31,-25.22 -3.09,-25.21 -2.90,-25.14 -2.70,-25.06 -2.53,-24.93 -2.37,-24.80 -2.25,-24.62 -2.14,-24.44 -2.09,-24.23 -2.04,-24.02 -2.06,-23.81 -2.08,-23.60 -2.16,-23.41 -2.25,-23.21 -2.39,-23.05 -2.53,-22.90 -2.72,-22.79 -2.90,-22.69 -3.11,-22.65 -3.32,-22.61 -3.53,-22.64 -3.74,-22.67 -3.93,-22.77 -4.12,-22.86 -4.27,-23.01 -4.42,-23.16 -4.51,-23.35 -4.61,-23.54 -4.63,-23.76 -4.66,-23.97 -4.62,-24.17 -4.58,-24.38 -4.47,-24.57 -4.37,-24.75 -4.21,-24.89 -4.05,-25.03 -3.85,-25.12 -3.66,-25.20 -3.45,-25.22 -3.24,-25.23 -3.03,-25.18 -2.82,-25.13 -2.64,-25.01 -2.47,-24.90 -2.33,-24.73 -2.20,-24.56 -2.13,-24.36 -2.06,-24.16 -2.06,-24.16 -2.06,-24.17 -0.96,-20.85 0.12,-17.53 0.65,-14.46 1.18,-11.39 1.56,-8.42 1.93,-5.46 1.62,-2.79 1.32,-0.13 1.31,0.02 1.31,0.18 1.27,0.34 1.23,0.49 1.15,0.63 1.07,0.77 0.96,0.89 0.85,1.01 0.72,1.10 0.59,1.18 0.44,1.24 0.29,1.29 0.13,1.31 -0.02,1.32 -0.18,1.30 -0.34,1.28 -0.49,1.22 -0.64,1.16 -0.77,1.06 -0.90,0.97 -1.00,0.85 -1.10,0.73 -1.18,0.58 -1.25,0.44 -1.28,0.28 -1.32,0.13 -1.32,0.13 L -1.32,0.13 Z"/></g><g transform="translate(454.5877205429872 492.69523944667174) rotate(0 0 -5.443931271954966)" stroke="none"><path fill="#1e1e1e" d="M -1.61,0 Q -1.61,0 -1.74,-1.04 -1.86,-2.08 -1.92,-3.98 -1.99,-5.88 -1.65,-8.51 -1.31,-11.15 -1.27,-11.36 -1.24,-11.57 -1.14,-11.75 -1.04,-11.94 -0.89,-12.09 -0.73,-12.23 -0.54,-12.32 -0.35,-12.41 -0.14,-12.44 0.07,-12.46 0.27,-12.41 0.48,-12.37 0.66,-12.26 0.85,-12.15 0.98,-11.99 1.12,-11.82 1.20,-11.63 1.28,-11.43 1.29,-11.22 1.30,-11.01 1.24,-10.80 1.19,-10.60 1.07,-10.42 0.95,-10.24 0.78,-10.12 0.61,-9.99 0.41,-9.92 0.21,-9.85 -0.00,-9.85 -0.21,-9.85 -0.41,-9.92 -0.61,-9.99 -0.78,-10.12 -0.95,-10.24 -1.07,-10.42 -1.19,-10.60 -1.24,-10.80 -1.30,-11.01 -1.29,-11.22 -1.28,-11.43 -1.20,-11.63 -1.12,-11.83 -0.98,-11.99 -0.84,-12.15 -0.66,-12.26 -0.48,-12.37 -0.27,-12.41 -0.07,-12.46 0.14,-12.44 0.35,-12.41 0.54,-12.32 0.73,-12.23 0.89,-12.09 1.04,-11.94 1.14,-11.75 1.24,-11.57 1.27,-11.36 1.31,-11.15 1.31,-11.15 1.31,-11.15 1.65,-8.51 1.99,-5.88 1.92,-3.98 1.86,-2.08 1.74,-1.04 1.61,0 1.59,0.19 1.57,0.38 1.50,0.56 1.43,0.75 1.32,0.91 1.21,1.07 1.06,1.20 0.91,1.33 0.74,1.42 0.57,1.51 0.38,1.55 0.19,1.60 -0.00,1.60 -0.19,1.60 -0.38,1.55 -0.57,1.51 -0.74,1.42 -0.91,1.33 -1.06,1.20 -1.21,1.07 -1.32,0.91 -1.43,0.75 -1.50,0.56 -1.57,0.38 -1.59,0.19 -1.61,-0.00 -1.61,-0.00 L -1.61,0 Z"/></g><g transform="translate(461.84629557226003 209.61081330501443) rotate(0 6.804914089943679 -0.4536609393295805)" stroke="none"><path fill="#1e1e1e" d="M 0.48,-1.92 Q 0.48,-1.92 1.56,-1.82 2.64,-1.72 3.72,-1.61 4.81,-1.49 6.22,-1.42 7.64,-1.34 8.76,-1.80 9.89,-2.27 10.98,-2.56 12.07,-2.86 12.56,-3.32 13.05,-3.78 13.34,-3.78 13.63,-3.78 13.91,-3.71 14.20,-3.64 14.45,-3.50 14.71,-3.36 14.92,-3.17 15.14,-2.97 15.30,-2.73 15.46,-2.49 15.56,-2.22 15.66,-1.95 15.70,-1.66 15.73,-1.37 15.69,-1.08 15.65,-0.79 15.55,-0.52 15.44,-0.25 15.28,-0.02 15.11,0.21 14.89,0.40 14.67,0.59 14.41,0.72 14.15,0.86 13.87,0.92 13.59,0.99 11.33,1.22 9.07,1.44 7.71,1.51 6.35,1.58 3.45,0.53 0.54,-0.51 0.37,-0.64 0.21,-0.77 0.09,-0.95 -0.01,-1.13 -0.06,-1.34 -0.11,-1.55 -0.09,-1.76 -0.07,-1.97 0.00,-2.16 0.09,-2.36 0.23,-2.52 0.37,-2.67 0.56,-2.78 0.74,-2.88 0.95,-2.92 1.16,-2.96 1.37,-2.93 1.58,-2.90 1.77,-2.80 1.96,-2.71 2.11,-2.56 2.26,-2.41 2.35,-2.22 2.45,-2.02 2.47,-1.81 2.50,-1.60 2.46,-1.39 2.42,-1.19 2.31,-1.00 2.21,-0.82 2.05,-0.68 1.89,-0.54 1.69,-0.45 1.50,-0.37 1.29,-0.35 1.07,-0.34 0.87,-0.39 0.66,-0.44 0.48,-0.56 0.31,-0.67 0.17,-0.84 0.04,-1.01 -0.02,-1.21 -0.09,-1.41 -0.10,-1.62 -0.10,-1.83 -0.04,-2.03 0.02,-2.24 0.14,-2.41 0.26,-2.58 0.44,-2.70 0.61,-2.83 0.81,-2.89 1.02,-2.95 1.23,-2.94 1.44,-2.93 1.64,-2.86 1.84,-2.79 1.84,-2.79 1.84,-2.79 3.07,-3.11 4.31,-3.43 5.78,-3.45 7.25,-3.48 8.69,-3.55 10.13,-3.63 11.59,-3.71 13.05,-3.78 13.34,-3.78 13.63,-3.78 13.91,-3.71 14.19,-3.64 14.45,-3.50 14.71,-3.36 14.92,-3.17 15.14,-2.97 15.30,-2.73 15.46,-2.49 15.56,-2.22 15.66,-1.95 15.70,-1.66 15.73,-1.37 15.69,-1.08 15.65,-0.80 15.55,-0.52 15.44,-0.25 15.28,-0.02 15.11,0.21 14.89,0.40 14.67,0.59 14.41,0.72 14.15,0.86 13.87,0.92 13.59,0.99 13.12,1.29 12.65,1.59 11.63,2.00 10.62,2.40 9.49,2.77 8.36,3.14 6.39,3.16 4.41,3.17 2.97,2.97 1.52,2.76 0.52,2.34 -0.48,1.92 -0.70,1.84 -0.92,1.75 -1.12,1.61 -1.32,1.48 -1.48,1.30 -1.63,1.12 -1.74,0.91 -1.85,0.69 -1.91,0.46 -1.97,0.23 -1.97,-0.00 -1.97,-0.24 -1.91,-0.47 -1.85,-0.71 -1.74,-0.92 -1.63,-1.13 -1.47,-1.31 -1.31,-1.49 -1.11,-1.62 -0.91,-1.76 -0.69,-1.84 -0.46,-1.93 -0.23,-1.95 0.00,-1.98 0.24,-1.95 0.48,-1.92 0.48,-1.92 L 0.48,-1.92 Z"/></g><g transform="translate(469.1048706015332 164.24471937205655) rotate(0 3.629287514636644 -0.907321878659161)" stroke="none"><path fill="#1e1e1e" d="M -0.54,-1.62 Q -0.54,-1.62 0.19,-2.03 0.92,-2.43 2.60,-2.53 4.27,-2.62 4.71,-1.94 5.14,-1.26 5.28,-1.20 5.43,-1.13 5.56,-1.04 5.68,-0.94 5.78,-0.82 5.88,-0.70 5.95,-0.55 6.02,-0.41 6.05,-0.26 6.08,-0.10 6.08,0.05 6.07,0.20 6.03,0.36 5.98,0.51 5.90,0.65 5.82,0.78 5.71,0.90 5.60,1.01 5.47,1.10 5.34,1.18 5.19,1.23 5.04,1.28 4.88,1.29 4.72,1.31 4.56,1.28 4.41,1.26 4.38,1.25 4.36,1.24 4.17,1.14 3.98,1.04 3.84,0.89 3.69,0.74 3.60,0.54 3.51,0.35 3.49,0.14 3.46,-0.06 3.51,-0.27 3.55,-0.48 3.66,-0.66 3.77,-0.84 3.93,-0.98 4.09,-1.12 4.29,-1.20 4.49,-1.28 4.70,-1.29 4.91,-1.30 5.12,-1.25 5.32,-1.19 5.50,-1.07 5.67,-0.95 5.80,-0.78 5.93,-0.62 6.00,-0.41 6.07,-0.21 6.07,-0.00 6.07,0.20 6.00,0.40 5.94,0.61 5.81,0.77 5.68,0.94 5.50,1.06 5.33,1.18 5.12,1.24 4.92,1.30 4.71,1.29 4.50,1.28 4.30,1.20 4.10,1.12 3.94,0.98 3.78,0.85 3.67,0.67 3.56,0.48 3.51,0.28 3.46,0.07 3.48,-0.13 3.51,-0.34 3.60,-0.54 3.68,-0.73 3.83,-0.88 3.98,-1.04 4.16,-1.14 4.35,-1.24 4.56,-1.27 4.77,-1.31 4.95,-1.28 5.14,-1.26 5.28,-1.20 5.43,-1.13 5.56,-1.04 5.68,-0.94 5.78,-0.82 5.88,-0.70 5.95,-0.56 6.02,-0.41 6.05,-0.26 6.08,-0.10 6.08,0.05 6.07,0.20 6.03,0.36 5.98,0.51 5.90,0.65 5.82,0.78 5.71,0.90 5.60,1.01 5.47,1.10 5.34,1.18 5.19,1.23 5.04,1.28 4.88,1.29 4.72,1.31 4.56,1.28 4.41,1.26 4.38,1.54 4.35,1.83 3.27,1.61 2.20,1.39 1.37,1.50 0.54,1.62 0.33,1.66 0.13,1.70 -0.06,1.69 -0.27,1.68 -0.47,1.63 -0.67,1.57 -0.85,1.47 -1.02,1.36 -1.17,1.22 -1.32,1.08 -1.43,0.90 -1.54,0.73 -1.61,0.53 -1.67,0.34 -1.69,0.13 -1.71,-0.06 -1.67,-0.27 -1.64,-0.47 -1.56,-0.66 -1.48,-0.85 -1.35,-1.02 -1.23,-1.18 -1.07,-1.31 -0.91,-1.44 -0.72,-1.53 -0.54,-1.62 -0.54,-1.62 L -0.54,-1.62 Z"/></g><g transform="translate(89.84432532200549 327.5626575307049) rotate(0 7.258575029273231 74.8540549893805)" stroke="none"><path fill="#1e1e1e" d="M 1.99,0 Q 1.99,0 2.08,2.08 2.17,4.17 2.22,6.88 2.27,9.59 2.82,14.00 3.38,18.41 3.62,23.03 3.86,27.65 4.23,32.15 4.59,36.65 5.28,43.24 5.97,49.84 6.53,55.80 7.09,61.75 7.58,65.81 8.07,69.86 8.82,76.04 9.58,82.21 10.67,88.69 11.77,95.16 12.76,100.26 13.74,105.35 14.43,109.11 15.12,112.86 15.68,115.75 16.23,118.63 16.49,121.01 16.74,123.39 16.86,126.01 16.97,128.62 17.01,130.50 17.06,132.38 17.08,133.70 17.10,135.03 17.44,136.27 17.78,137.52 17.62,138.73 17.47,139.93 16.72,141.02 15.97,142.10 14.44,143.23 12.92,144.36 11.70,145.24 10.49,146.13 9.57,146.93 8.64,147.74 6.84,148.58 5.05,149.42 4.13,150.08 3.21,150.75 2.77,150.38 2.34,150.00 2.20,150.08 2.06,150.15 1.90,150.19 1.75,150.23 1.59,150.23 1.43,150.23 1.28,150.19 1.12,150.15 0.98,150.08 0.84,150.00 0.73,149.90 0.61,149.79 0.52,149.66 0.43,149.53 0.37,149.38 0.32,149.23 0.30,149.08 0.28,148.92 0.30,148.76 0.32,148.61 0.37,148.46 0.43,148.31 0.52,148.18 0.61,148.05 0.73,147.94 0.85,147.84 1.09,147.74 1.33,147.63 1.55,147.63 1.76,147.62 1.96,147.68 2.17,147.74 2.34,147.86 2.51,147.99 2.64,148.16 2.76,148.33 2.83,148.53 2.89,148.73 2.89,148.95 2.88,149.16 2.81,149.36 2.74,149.56 2.61,149.73 2.48,149.89 2.30,150.01 2.12,150.12 1.91,150.18 1.71,150.23 1.50,150.21 1.28,150.20 1.09,150.12 0.89,150.03 0.73,149.89 0.57,149.75 0.47,149.57 0.36,149.38 0.32,149.18 0.28,148.97 0.31,148.76 0.33,148.55 0.43,148.36 0.52,148.16 0.67,148.01 0.82,147.86 1.01,147.77 1.20,147.67 1.41,147.64 1.62,147.61 1.83,147.65 2.03,147.69 2.22,147.79 2.41,147.89 2.55,148.05 2.69,148.21 2.78,148.40 2.86,148.59 2.88,148.81 2.90,149.02 2.85,149.22 2.80,149.43 2.69,149.61 2.58,149.79 2.41,149.93 2.25,150.06 2.29,150.03 2.34,150.00 2.20,150.08 2.06,150.15 1.90,150.19 1.75,150.23 1.59,150.23 1.43,150.23 1.28,150.19 1.12,150.15 0.98,150.08 0.84,150.00 0.73,149.90 0.61,149.79 0.52,149.66 0.43,149.53 0.37,149.38 0.32,149.23 0.30,149.08 0.28,148.92 0.30,148.76 0.32,148.61 0.37,148.46 0.43,148.31 0.52,148.18 0.61,148.05 0.73,147.94 0.85,147.84 0.51,147.08 0.17,146.32 1.54,145.41 2.91,144.50 4.05,144.08 5.20,143.65 6.27,142.72 7.35,141.79 8.39,141.04 9.43,140.29 11.17,139.60 12.91,138.91 12.39,137.00 11.87,135.10 11.86,133.80 11.84,132.50 11.80,130.66 11.76,128.82 11.68,126.37 11.59,123.92 11.38,121.76 11.17,119.59 10.62,116.68 10.08,113.78 9.41,110.05 8.73,106.32 7.75,101.16 6.76,96.00 5.67,89.40 4.58,82.80 3.87,76.63 3.16,70.46 2.67,66.33 2.18,62.20 1.64,56.27 1.11,50.33 0.45,43.68 -0.20,37.03 -0.54,32.45 -0.89,27.88 -1.09,23.42 -1.30,18.95 -1.78,14.27 -2.27,9.60 -2.22,6.88 -2.17,4.17 -2.08,2.08 -1.99,0 -1.97,-0.23 -1.94,-0.47 -1.85,-0.70 -1.77,-0.92 -1.63,-1.12 -1.49,-1.32 -1.31,-1.48 -1.13,-1.64 -0.92,-1.75 -0.70,-1.87 -0.47,-1.92 -0.24,-1.98 0.00,-1.98 0.24,-1.98 0.47,-1.92 0.70,-1.86 0.92,-1.75 1.13,-1.64 1.31,-1.48 1.49,-1.32 1.63,-1.12 1.77,-0.92 1.85,-0.70 1.94,-0.47 1.97,-0.23 1.99,0.00 1.99,0.00 L 1.99,0 Z"/></g><g transform="translate(156.98614434278306 319.3967606227725) rotate(0 12.702506301228254 73.49307217139173)" stroke="none"><path fill="#1e1e1e" d="M 1.45,0.16 Q 1.45,0.16 1.57,2.55 1.69,4.94 1.63,7.43 1.57,9.92 1.58,14.88 1.59,19.84 1.61,24.83 1.62,29.82 1.64,35.33 1.66,40.84 1.68,46.32 1.70,51.79 1.73,58.03 1.76,64.27 2.03,69.46 2.30,74.65 2.42,79.27 2.54,83.89 2.59,87.94 2.64,91.99 2.92,95.97 3.20,99.96 3.33,102.76 3.46,105.57 3.51,108.08 3.56,110.59 3.59,112.44 3.61,114.29 3.62,115.87 3.64,117.45 3.35,118.93 3.06,120.40 2.94,122.16 2.82,123.92 2.79,125.46 2.77,126.99 2.76,128.38 2.76,129.77 2.76,131.23 2.76,132.68 2.76,133.86 2.77,135.03 4.12,135.83 5.48,136.62 7.27,137.02 9.06,137.43 11.09,137.90 13.12,138.37 14.42,138.89 15.73,139.41 16.81,139.80 17.89,140.20 19.79,141.08 21.68,141.96 23.14,143.03 24.59,144.11 25.29,144.87 25.99,145.62 26.20,145.68 26.40,145.74 26.58,145.86 26.75,145.98 26.88,146.15 27.01,146.32 27.08,146.52 27.15,146.72 27.15,146.93 27.14,147.15 27.08,147.35 27.01,147.55 26.88,147.72 26.75,147.89 26.57,148.00 26.40,148.12 26.19,148.18 25.99,148.24 25.78,148.22 25.56,148.21 25.37,148.13 25.17,148.05 25.01,147.92 24.85,147.78 24.74,147.60 24.63,147.41 24.58,147.21 24.54,147.00 24.56,146.79 24.58,146.58 24.67,146.38 24.76,146.19 24.91,146.04 25.06,145.88 25.25,145.78 25.43,145.68 25.64,145.65 25.85,145.62 26.06,145.65 26.27,145.69 26.46,145.79 26.65,145.89 26.79,146.04 26.94,146.20 27.03,146.39 27.12,146.58 27.14,146.79 27.16,147.00 27.11,147.21 27.07,147.42 26.96,147.60 26.85,147.78 26.69,147.92 26.52,148.06 26.33,148.14 26.13,148.21 25.92,148.22 25.70,148.24 25.70,148.24 25.70,148.24 22.90,148.00 20.10,147.77 18.78,147.01 17.47,146.26 16.01,145.62 14.55,144.98 13.33,144.65 12.12,144.32 11.01,143.77 9.89,143.22 8.69,143.03 7.49,142.84 6.45,142.53 5.42,142.21 4.21,141.92 3.01,141.62 1.45,140.80 -0.11,139.99 -0.93,139.31 -1.75,138.62 -2.24,137.46 -2.72,136.31 -2.74,134.95 -2.76,133.60 -2.76,132.20 -2.76,130.79 -2.76,129.67 -2.75,128.55 -2.74,127.07 -2.73,125.59 -2.65,123.59 -2.57,121.58 -2.21,119.52 -1.85,117.45 -1.86,115.90 -1.86,114.36 -1.88,112.53 -1.90,110.71 -1.95,108.25 -2.00,105.80 -2.11,103.07 -2.22,100.33 -2.50,96.19 -2.78,92.05 -2.82,88.04 -2.86,84.02 -2.97,79.47 -3.07,74.92 -3.32,69.59 -3.57,64.26 -3.54,58.02 -3.50,51.78 -3.48,46.31 -3.45,40.84 -3.41,35.32 -3.37,29.80 -3.32,24.80 -3.27,19.80 -3.16,14.76 -3.05,9.72 -2.89,7.08 -2.74,4.44 -2.10,2.14 -1.45,-0.16 -1.41,-0.33 -1.37,-0.50 -1.29,-0.66 -1.21,-0.82 -1.10,-0.95 -0.98,-1.08 -0.84,-1.19 -0.69,-1.29 -0.53,-1.35 -0.36,-1.42 -0.19,-1.44 -0.01,-1.46 0.16,-1.44 0.33,-1.42 0.50,-1.36 0.66,-1.30 0.81,-1.20 0.96,-1.10 1.08,-0.97 1.20,-0.84 1.28,-0.69 1.36,-0.53 1.41,-0.36 1.45,-0.19 1.45,-0.01 1.45,0.16 1.45,0.16 L 1.45,0.16 Z"/></g></svg>