<svg version="1.1" xmlns="http://www.w3.org/2000/svg" viewBox="0 0 307.74408590210624 78.29620441653037" width="307.74408590210624" height="78.29620441653037" class="excalidraw-svg">
  <!-- svg-source:excalidraw -->
  
  <defs>
    <style class="style-fonts">
      
    </style>
    
  </defs>
  <rect x="0" y="0" width="307.74408590210624" height="78.29620441653037" fill="#ffffff"/><g stroke-linecap="round" transform="translate(10 30.92684261106217) rotate(0 72.49656190260794 16.44251919440603)"><path d="M72.51 1.44 L144.32 15.7 L74.63 33.5 L-1.08 16.86" stroke="none" stroke-width="0" fill="#2f9e44" fill-rule="evenodd"/><path d="M73 0 C97.4 5.72, 119.32 11.5, 144.99 17 M73 0 C98.01 5.52, 122.29 11.28, 144.99 17 M144.99 17 C126.08 21.87, 104.27 25.24, 73 32.89 M144.99 17 C129.92 20.78, 113.84 22.98, 73 32.89 M73 32.89 C46.74 27.56, 22.78 20.34, 0 17 M73 32.89 C52.75 28.6, 34.62 23.87, 0 17 M0 17 C24.41 12.9, 45.21 7.74, 73 0 M0 17 C22.05 12.14, 45.64 7.16, 73 0" stroke="#1e1e1e" stroke-width="0.5" fill="none"/></g><g stroke-linecap="round" transform="translate(85.48611084704862 10) rotate(0 72.49656190260794 16.44251919440603)"><path d="M73.66 1.78 L145.03 18.31 L73.02 31.43 L1.3 17.95" stroke="none" stroke-width="0" fill="#2f9e44" fill-rule="evenodd"/><path d="M73 0 C92.17 4.96, 110.15 7.75, 144.99 17 M73 0 C98.17 6.07, 121.48 11.12, 144.99 17 M144.99 17 C126.12 22.49, 109.21 24.62, 73 32.89 M144.99 17 C128.03 20.49, 111.86 25.15, 73 32.89 M73 32.89 C45.45 27.79, 17.36 20.7, 0 17 M73 32.89 C49.59 28.42, 23.91 23.35, 0 17 M0 17 C22.52 10.44, 45.71 7.23, 73 0 M0 17 C20.56 12.93, 41.74 6.82, 73 0" stroke="#1e1e1e" stroke-width="0.5" fill="none"/></g><g stroke-linecap="round" transform="translate(152.75096209689036 35.41116602771831) rotate(0 72.49656190260794 16.44251919440603)"><path d="M73.88 -1.14 L145.09 16.3 L73.69 31.59 L0.93 15.14" stroke="none" stroke-width="0" fill="#2f9e44" fill-rule="evenodd"/><path d="M73 0 C98.61 5.07, 125.19 14.06, 144.99 17 M73 0 C101.85 7.82, 129.22 12.72, 144.99 17 M144.99 17 C128.31 21.26, 110.64 26.47, 73 32.89 M144.99 17 C129.05 20.33, 111.2 23.8, 73 32.89 M73 32.89 C52.19 27.69, 29.99 22.68, 0 17 M73 32.89 C53.58 28.51, 33.03 25.21, 0 17 M0 17 C16.99 10.65, 37.36 6.73, 73 0 M0 17 C15.15 14.34, 31.7 10.19, 73 0" stroke="#1e1e1e" stroke-width="0.5" fill="none"/></g></svg>