<svg version="1.1" xmlns="http://www.w3.org/2000/svg" viewBox="0 0 307.7440859021044 150.7927663191391" width="307.7440859021044" height="150.7927663191391" class="excalidraw-svg">
  <!-- svg-source:excalidraw -->
  
  <defs>
    <style class="style-fonts">
      
    </style>
    
  </defs>
  <rect x="0" y="0" width="307.7440859021044" height="150.7927663191391" fill="#ffffff"/><g stroke-linecap="round" transform="translate(10 103.42340451367079) rotate(0 72.49656190260794 16.44251919440603)"><path d="M73.21 -1.53 L145.65 17.63 L71.98 31.82 L1.09 17.82" stroke="none" stroke-width="0" fill="#2f9e44" fill-rule="evenodd"/><path d="M73 0 C95.11 7.31, 118.73 11.96, 144.99 17 M73 0 C100.57 6.7, 128.35 12.55, 144.99 17 M144.99 17 C127.31 21.12, 110.92 26.5, 73 32.89 M144.99 17 C120.82 21.38, 96.1 27.54, 73 32.89 M73 32.89 C44.82 27.43, 18.26 22.75, 0 17 M73 32.89 C55.57 28.6, 38.42 25.08, 0 17 M0 17 C20.32 12.26, 39.32 8.89, 73 0 M0 17 C18.84 11.96, 38.53 8.21, 73 0" stroke="#1e1e1e" stroke-width="0.5" fill="none"/></g><g stroke-linecap="round" transform="translate(85.4861108470468 82.49656190260873) rotate(0 72.49656190260794 16.44251919440603)"><path d="M73.66 0.63 L143.98 15.94 L74.09 33.71 L-0.29 16.9" stroke="none" stroke-width="0" fill="#2f9e44" fill-rule="evenodd"/><path d="M73 0 C93.73 5.43, 118.1 9.04, 144.99 17 M73 0 C91.22 3.54, 108.49 9.62, 144.99 17 M144.99 17 C121.55 23.85, 97.36 26.64, 73 32.89 M144.99 17 C125.84 20.66, 107.12 25.06, 73 32.89 M73 32.89 C46.12 28.22, 16.2 21.84, 0 17 M73 32.89 C57.66 30.03, 43.28 25.83, 0 17 M0 17 C21.32 13.11, 44.09 5.71, 73 0 M0 17 C27.22 11.41, 53.97 3.78, 73 0" stroke="#1e1e1e" stroke-width="0.5" fill="none"/></g><g stroke-linecap="round" transform="translate(152.75096209688854 107.90772793032704) rotate(0 72.49656190260794 16.44251919440603)"><path d="M71.98 -1.06 L146.09 17.82 L72.71 32.79 L0.38 18.99" stroke="none" stroke-width="0" fill="#2f9e44" fill-rule="evenodd"/><path d="M73 0 C102.69 5.71, 128.13 12.96, 144.99 17 M73 0 C92.76 6.38, 114 10.03, 144.99 17 M144.99 17 C124.29 21.26, 101.3 27.86, 73 32.89 M144.99 17 C129.98 20.55, 114.13 23.76, 73 32.89 M73 32.89 C49.66 29.64, 27.15 23, 0 17 M73 32.89 C50.12 27.43, 27.69 23.22, 0 17 M0 17 C21.25 10.57, 45.32 5.64, 73 0 M0 17 C21.25 10.86, 42.66 7, 73 0" stroke="#1e1e1e" stroke-width="0.5" fill="none"/></g><g transform="translate(153.8720429510522 15.97909788887489) rotate(0 -14.947744722187053 17.189906430515464)" stroke="none"><path fill="#099268" d="M 0.57,0.57 Q 0.57,0.57 -0.25,1.46 -1.08,2.35 -2.23,3.98 -3.38,5.60 -4.78,7.21 -6.17,8.81 -8.05,10.79 -9.93,12.77 -13.29,16.60 -16.64,20.42 -19.34,23.77 -22.04,27.11 -24.03,29.32 -26.03,31.54 -26.07,32.59 -26.11,33.65 -26.20,33.73 -26.30,33.82 -26.41,33.88 -26.53,33.94 -26.65,33.97 -26.77,34.00 -26.90,34.00 -27.03,34.00 -27.16,33.97 -27.28,33.94 -27.39,33.88 -27.51,33.82 -27.60,33.73 -27.70,33.65 -27.77,33.54 -27.85,33.44 -27.89,33.32 -27.94,33.20 -27.95,33.07 -27.97,32.94 -27.95,32.81 -27.94,32.69 -27.89,32.57 -27.85,32.45 -27.78,32.34 -27.70,32.24 -24.96,30.50 -22.22,28.77 -19.39,26.40 -16.57,24.03 -13.64,21.34 -10.70,18.65 -10.61,18.59 -10.52,18.53 -10.42,18.50 -10.32,18.47 -10.21,18.48 -10.11,18.49 -10.01,18.53 -9.91,18.57 -9.83,18.64 -9.75,18.71 -9.70,18.80 -9.64,18.89 -9.62,19.00 -9.60,19.10 -9.61,19.21 -9.62,19.31 -9.67,19.41 -9.72,19.50 -9.79,19.58 -9.86,19.66 -9.96,19.70 -10.05,19.75 -10.16,19.77 -10.26,19.78 -10.37,19.77 -10.47,19.75 -10.57,19.70 -10.66,19.65 -10.73,19.57 -10.80,19.49 -10.85,19.39 -10.89,19.30 -10.90,19.19 -10.91,19.09 -10.89,18.98 -10.86,18.88 -10.81,18.79 -10.75,18.70 -10.67,18.63 -10.59,18.56 -10.49,18.52 -10.39,18.49 -10.28,18.48 -10.18,18.48 -10.07,18.51 -9.97,18.54 -9.89,18.60 -9.80,18.66 -9.73,18.74 -9.67,18.83 -9.64,18.93 -9.61,19.03 -9.61,19.14 -9.61,19.24 -9.64,19.34 -9.68,19.44 -9.74,19.53 -9.81,19.61 -9.81,19.61 -9.81,19.61 -12.73,22.34 -15.66,25.08 -18.47,27.62 -21.27,30.17 -23.69,31.91 -26.11,33.65 -26.20,33.73 -26.30,33.82 -26.41,33.88 -26.53,33.94 -26.65,33.97 -26.77,34.00 -26.90,34.00 -27.03,34.00 -27.16,33.97 -27.28,33.94 -27.39,33.88 -27.51,33.82 -27.60,33.73 -27.70,33.65 -27.77,33.54 -27.85,33.44 -27.89,33.32 -27.94,33.20 -27.95,33.07 -27.97,32.94 -27.95,32.81 -27.94,32.69 -27.89,32.57 -27.85,32.45 -27.78,32.34 -27.70,32.24 -27.75,31.35 -27.79,30.46 -25.75,28.11 -23.71,25.75 -20.96,22.40 -18.21,19.04 -14.82,15.19 -11.42,11.34 -9.55,9.41 -7.67,7.49 -6.31,5.96 -4.95,4.44 -3.65,2.76 -2.35,1.08 -1.46,0.25 -0.57,-0.57 -0.50,-0.64 -0.42,-0.70 -0.33,-0.74 -0.24,-0.78 -0.14,-0.80 -0.04,-0.81 0.04,-0.81 0.14,-0.80 0.24,-0.77 0.33,-0.74 0.42,-0.69 0.50,-0.64 0.57,-0.57 0.64,-0.50 0.69,-0.42 0.74,-0.33 0.77,-0.24 0.80,-0.14 0.81,-0.04 0.81,0.04 0.80,0.14 0.78,0.24 0.74,0.33 0.70,0.42 0.64,0.50 0.57,0.57 0.57,0.57 L 0.57,0.57 Z"/></g><g transform="translate(150.88249400661516 27.937293666624782) rotate(0 4.48432341665648 8.968646833312391)" stroke="none"><path fill="#099268" d="M -0.69,0 Q -0.69,0 -0.74,-0.85 -0.79,-1.70 -1.19,-2.80 -1.60,-3.90 -1.80,-4.91 -2.01,-5.91 -2.10,-7.22 -2.20,-8.52 -2.69,-9.49 -3.17,-10.47 -3.17,-10.58 -3.16,-10.68 -3.13,-10.78 -3.10,-10.88 -3.04,-10.97 -2.99,-11.06 -2.92,-11.14 -2.84,-11.21 -2.75,-11.27 -2.66,-11.32 -2.56,-11.35 -2.46,-11.39 -2.35,-11.39 -2.25,-11.40 -2.14,-11.38 -2.04,-11.36 -1.94,-11.32 -1.85,-11.27 -1.77,-11.21 -1.68,-11.14 -1.62,-11.06 -1.55,-10.98 -1.51,-10.88 -1.46,-10.79 -1.45,-10.68 -1.43,-10.58 -1.55,-9.95 -1.68,-9.33 -1.29,-8.13 -0.90,-6.93 -0.31,-4.59 0.26,-2.25 1.80,2.12 3.34,6.50 4.43,10.13 5.51,13.76 6.82,16.95 8.13,20.15 9.13,22.83 10.13,25.50 10.98,26.65 11.83,27.79 11.86,27.93 11.89,28.08 11.89,28.22 11.89,28.37 11.86,28.51 11.82,28.65 11.75,28.78 11.68,28.90 11.59,29.01 11.49,29.12 11.37,29.20 11.25,29.28 11.11,29.33 10.98,29.38 10.83,29.40 10.69,29.42 10.54,29.40 10.40,29.38 10.26,29.33 10.13,29.28 10.01,29.19 9.89,29.11 9.79,29.00 9.70,28.89 9.63,28.76 9.57,28.63 10.01,27.60 10.45,26.57 9.83,25.62 9.21,24.66 7.68,22.04 6.15,19.42 6.11,19.32 6.07,19.22 6.06,19.12 6.05,19.01 6.07,18.91 6.10,18.81 6.16,18.72 6.21,18.63 6.29,18.56 6.38,18.49 6.48,18.46 6.58,18.42 6.68,18.42 6.79,18.41 6.89,18.44 6.99,18.47 7.08,18.54 7.17,18.60 7.23,18.68 7.29,18.77 7.32,18.87 7.35,18.97 7.35,19.08 7.35,19.18 7.31,19.28 7.28,19.38 7.21,19.47 7.14,19.55 7.05,19.61 6.96,19.67 6.86,19.69 6.76,19.72 6.65,19.71 6.55,19.70 6.45,19.66 6.35,19.62 6.27,19.55 6.19,19.48 6.14,19.38 6.09,19.29 6.07,19.19 6.05,19.08 6.06,18.98 6.07,18.87 6.12,18.78 6.17,18.68 6.24,18.61 6.32,18.53 6.41,18.48 6.51,18.44 6.61,18.42 6.72,18.41 6.82,18.43 6.93,18.45 7.02,18.50 7.11,18.55 7.18,18.63 7.25,18.71 7.25,18.71 7.25,18.71 9.03,21.22 10.80,23.73 11.60,25.18 12.39,26.63 12.11,27.21 11.83,27.79 11.86,27.93 11.89,28.08 11.89,28.22 11.89,28.37 11.86,28.51 11.82,28.65 11.75,28.78 11.68,28.90 11.59,29.01 11.49,29.12 11.37,29.20 11.25,29.28 11.11,29.33 10.98,29.38 10.83,29.40 10.69,29.42 10.54,29.40 10.40,29.38 10.26,29.33 10.13,29.28 10.01,29.19 9.89,29.11 9.79,29.00 9.70,28.89 9.63,28.76 9.57,28.63 8.71,27.51 7.85,26.38 6.88,23.72 5.90,21.05 4.57,17.75 3.24,14.44 2.16,10.86 1.08,7.28 -0.44,2.79 -1.96,-1.70 -2.54,-4.05 -3.11,-6.41 -3.14,-8.44 -3.17,-10.47 -3.17,-10.58 -3.16,-10.68 -3.13,-10.78 -3.10,-10.88 -3.04,-10.97 -2.99,-11.06 -2.92,-11.14 -2.84,-11.21 -2.75,-11.27 -2.66,-11.32 -2.56,-11.35 -2.46,-11.39 -2.35,-11.39 -2.25,-11.40 -2.14,-11.38 -2.04,-11.36 -1.94,-11.32 -1.85,-11.27 -1.77,-11.21 -1.68,-11.14 -1.62,-11.06 -1.55,-10.98 -1.51,-10.88 -1.46,-10.79 -1.45,-10.68 -1.43,-10.58 -0.99,-9.62 -0.55,-8.66 -0.49,-7.44 -0.43,-6.22 -0.27,-5.32 -0.11,-4.42 0.33,-3.08 0.79,-1.73 0.74,-0.86 0.69,0 0.68,0.08 0.67,0.16 0.64,0.24 0.61,0.32 0.56,0.39 0.51,0.46 0.45,0.51 0.39,0.57 0.32,0.60 0.24,0.64 0.16,0.66 0.08,0.68 -0.00,0.68 -0.08,0.68 -0.16,0.66 -0.24,0.64 -0.32,0.60 -0.39,0.57 -0.45,0.51 -0.51,0.46 -0.56,0.39 -0.61,0.32 -0.64,0.24 -0.67,0.16 -0.68,0.08 -0.69,-0.00 -0.69,-0.00 L -0.69,0 Z"/></g><g transform="translate(143.40862164552163 21.958195777749893) rotate(0 14.947744722187053 14.947744722187338)" stroke="none"><path fill="#099268" d="M 0.58,-0.39 Q 0.58,-0.39 1.60,0.79 2.61,1.98 3.85,3.80 5.09,5.63 6.90,8.10 8.71,10.58 11.58,13.74 14.46,16.91 16.12,18.70 17.78,20.49 18.98,22.17 20.17,23.84 22.28,25.72 24.39,27.61 26.05,28.37 27.71,29.12 29.27,29.83 30.82,30.53 30.92,30.58 31.02,30.62 31.09,30.70 31.17,30.77 31.21,30.87 31.26,30.96 31.28,31.07 31.29,31.17 31.27,31.28 31.25,31.38 31.20,31.48 31.15,31.57 31.07,31.64 30.99,31.71 30.90,31.75 30.80,31.80 30.69,31.81 30.59,31.82 30.48,31.79 30.38,31.77 30.29,31.71 30.20,31.65 30.13,31.57 30.07,31.49 30.03,31.39 29.99,31.29 29.99,31.18 29.98,31.08 30.02,30.97 30.05,30.87 30.11,30.79 30.17,30.70 30.25,30.64 30.34,30.57 30.44,30.54 30.54,30.51 30.65,30.51 30.76,30.52 30.86,30.55 30.96,30.59 31.04,30.65 31.12,30.72 31.18,30.81 31.24,30.90 31.26,31.00 31.29,31.10 31.28,31.21 31.27,31.31 31.23,31.41 31.19,31.51 31.12,31.59 31.05,31.67 30.96,31.72 30.87,31.78 30.76,31.80 30.66,31.82 30.55,31.80 30.45,31.79 30.45,31.79 30.45,31.79 28.60,31.48 26.76,31.16 24.83,30.24 22.90,29.31 20.60,27.24 18.31,25.17 17.22,23.59 16.13,22.02 14.46,20.23 12.78,18.43 9.82,15.18 6.86,11.92 5.05,9.39 3.24,6.86 2.03,5.02 0.82,3.17 0.11,1.78 -0.58,0.39 -0.62,0.31 -0.66,0.23 -0.68,0.15 -0.70,0.07 -0.69,-0.01 -0.69,-0.09 -0.67,-0.17 -0.65,-0.26 -0.61,-0.33 -0.57,-0.40 -0.51,-0.47 -0.45,-0.53 -0.38,-0.58 -0.31,-0.62 -0.23,-0.65 -0.15,-0.68 -0.07,-0.69 0.01,-0.70 0.09,-0.69 0.17,-0.68 0.25,-0.65 0.33,-0.61 0.40,-0.56 0.47,-0.51 0.53,-0.45 0.58,-0.39 0.58,-0.39 L 0.58,-0.39 Z"/></g><g transform="translate(158.3563663677087 21.958195777749893) rotate(0 -2.24216170832824 20.17945537495291)" stroke="none"><path fill="#099268" d="M 0,0.85 Q 0,0.85 -0.42,0.97 -0.85,1.08 -0.98,1.07 -1.12,1.05 -1.24,1.01 -1.36,0.96 -1.47,0.88 -1.58,0.81 -1.66,0.71 -1.75,0.61 -1.81,0.50 -1.87,0.38 -1.90,0.25 -1.94,0.13 -1.94,-0.00 -1.94,-0.13 -1.90,-0.25 -1.87,-0.38 -1.81,-0.50 -1.75,-0.61 -1.66,-0.71 -1.58,-0.81 -1.47,-0.88 -1.36,-0.96 -1.24,-1.01 -1.11,-1.05 -0.98,-1.07 -0.85,-1.08 -0.05,0.63 0.74,2.36 1.69,4.50 2.64,6.65 3.92,9.76 5.21,12.88 7.04,16.75 8.86,20.62 10.48,23.52 12.11,26.43 13.20,28.07 14.30,29.72 14.78,30.86 15.26,32.00 15.32,32.13 15.39,32.26 15.42,32.41 15.46,32.55 15.46,32.70 15.45,32.85 15.42,32.99 15.38,33.14 15.31,33.27 15.24,33.40 15.14,33.51 15.04,33.61 14.91,33.70 14.79,33.78 14.65,33.83 14.51,33.88 14.37,33.90 14.22,33.91 14.07,33.89 13.92,33.87 13.79,33.82 13.65,33.76 13.53,33.68 13.41,33.59 13.31,33.48 13.21,33.37 12.16,31.99 11.11,30.61 9.49,28.84 7.87,27.06 4.64,24.14 1.42,21.22 -1.71,18.28 -4.85,15.34 -7.01,13.68 -9.17,12.03 -10.93,10.92 -12.70,9.81 -14.52,9.38 -16.34,8.95 -16.83,9.17 -17.32,9.38 -16.76,10.37 -16.20,11.35 -15.51,13.60 -14.83,15.85 -13.34,17.91 -11.84,19.98 -9.86,23.09 -7.88,26.19 -6.20,28.79 -4.52,31.39 -2.97,33.31 -1.42,35.22 -0.27,36.99 0.87,38.75 0.87,39.03 0.87,39.32 0.93,39.44 0.99,39.56 1.02,39.69 1.05,39.82 1.04,39.96 1.04,40.09 1.00,40.22 0.97,40.35 0.90,40.46 0.84,40.58 0.74,40.68 0.65,40.78 0.54,40.85 0.43,40.92 0.30,40.97 0.17,41.01 0.04,41.02 -0.08,41.04 -0.22,41.02 -0.35,41.00 -0.47,40.94 -0.60,40.89 -0.70,40.81 -0.81,40.74 -0.90,40.63 -0.98,40.53 -1.69,39.87 -2.40,39.21 -3.60,37.98 -4.79,36.75 -7.92,32.87 -11.05,28.99 -11.10,28.90 -11.16,28.81 -11.18,28.70 -11.20,28.60 -11.19,28.49 -11.18,28.39 -11.14,28.29 -11.09,28.19 -11.02,28.12 -10.94,28.04 -10.85,27.99 -10.76,27.94 -10.65,27.92 -10.55,27.91 -10.44,27.92 -10.34,27.94 -10.24,27.99 -10.15,28.04 -10.08,28.12 -10.00,28.20 -9.96,28.29 -9.91,28.39 -9.90,28.50 -9.89,28.60 -9.92,28.70 -9.94,28.81 -9.99,28.90 -10.05,28.99 -10.13,29.06 -10.21,29.13 -10.31,29.17 -10.41,29.21 -10.51,29.21 -10.62,29.22 -10.72,29.19 -10.83,29.16 -10.91,29.10 -11.00,29.04 -11.06,28.95 -11.13,28.87 -11.16,28.77 -11.20,28.67 -11.20,28.56 -11.20,28.46 -11.16,28.36 -11.13,28.25 -11.06,28.17 -11.00,28.09 -10.91,28.03 -10.82,27.97 -10.72,27.94 -10.62,27.91 -10.51,27.92 -10.41,27.92 -10.31,27.96 -10.21,28.00 -10.13,28.07 -10.05,28.14 -10.05,28.14 -10.05,28.14 -6.80,31.80 -3.56,35.47 -2.31,36.58 -1.07,37.69 -0.10,38.50 0.87,39.32 0.93,39.44 0.99,39.56 1.02,39.69 1.05,39.82 1.04,39.96 1.04,40.09 1.00,40.22 0.97,40.35 0.90,40.46 0.84,40.58 0.74,40.68 0.65,40.78 0.54,40.85 0.43,40.92 0.30,40.97 0.17,41.01 0.04,41.02 -0.08,41.04 -0.22,41.02 -0.35,41.00 -0.47,40.94 -0.60,40.89 -0.70,40.81 -0.81,40.74 -0.90,40.63 -0.98,40.53 -1.06,40.23 -1.13,39.94 -2.18,38.31 -3.24,36.68 -4.84,34.66 -6.44,32.65 -8.14,30.04 -9.84,27.43 -11.76,24.35 -13.68,21.27 -15.31,18.88 -16.94,16.50 -17.53,14.34 -18.12,12.18 -18.54,10.89 -18.96,9.60 -17.71,8.51 -16.45,7.42 -14.18,7.97 -11.90,8.51 -10.09,9.69 -8.28,10.87 -6.06,12.58 -3.85,14.28 -0.75,17.23 2.34,20.17 5.72,23.01 9.09,25.85 10.86,27.52 12.63,29.19 13.94,30.59 15.26,32.00 15.32,32.13 15.39,32.26 15.42,32.41 15.46,32.55 15.46,32.70 15.45,32.85 15.42,32.99 15.38,33.14 15.31,33.27 15.24,33.40 15.14,33.51 15.04,33.61 14.91,33.70 14.79,33.78 14.65,33.83 14.51,33.88 14.37,33.90 14.22,33.91 14.07,33.89 13.92,33.87 13.79,33.82 13.65,33.76 13.53,33.68 13.41,33.59 13.31,33.48 13.21,33.37 12.74,32.22 12.26,31.07 11.10,29.35 9.95,27.63 8.30,24.64 6.65,21.65 4.82,17.72 2.98,13.79 1.73,10.68 0.48,7.57 -0.49,5.18 -1.47,2.79 -1.16,1.94 -0.85,1.08 -0.98,1.07 -1.11,1.05 -1.24,1.01 -1.36,0.96 -1.47,0.88 -1.58,0.81 -1.66,0.71 -1.75,0.61 -1.81,0.50 -1.87,0.38 -1.90,0.25 -1.94,0.13 -1.94,0.00 -1.94,-0.13 -1.90,-0.25 -1.87,-0.38 -1.81,-0.50 -1.75,-0.61 -1.66,-0.71 -1.58,-0.81 -1.47,-0.88 -1.36,-0.96 -1.24,-1.01 -1.12,-1.05 -0.98,-1.07 -0.85,-1.08 -0.42,-0.97 0,-0.85 0.10,-0.83 0.20,-0.82 0.29,-0.79 0.39,-0.75 0.48,-0.69 0.56,-0.63 0.63,-0.56 0.70,-0.48 0.74,-0.39 0.79,-0.30 0.82,-0.20 0.84,-0.10 0.84,0.00 0.84,0.10 0.82,0.20 0.79,0.30 0.74,0.39 0.70,0.48 0.63,0.56 0.56,0.63 0.48,0.69 0.39,0.75 0.29,0.79 0.20,0.82 0.10,0.83 -0.00,0.85 -0.00,0.85 L 0,0.85 Z"/></g><g transform="translate(140.4190727010846 44.37981286103093) rotate(0 5.231710652765287 11.958195777749836)" stroke="none"><path fill="#099268" d="M -0.21,0.64 Q -0.21,0.64 -1.05,0.02 -1.89,-0.59 -2.33,0.87 -2.77,2.35 -2.12,3.60 -1.47,4.84 -0.35,6.70 0.75,8.55 2.06,10.16 3.37,11.77 5.21,13.73 7.05,15.69 8.69,17.40 10.33,19.10 11.47,20.26 12.60,21.41 13.75,23.01 14.89,24.60 14.97,24.67 15.05,24.74 15.10,24.83 15.16,24.92 15.18,25.03 15.20,25.13 15.19,25.24 15.18,25.34 15.13,25.44 15.08,25.53 15.01,25.61 14.94,25.69 14.84,25.74 14.75,25.78 14.64,25.80 14.54,25.82 14.43,25.80 14.33,25.78 14.23,25.73 14.14,25.68 14.07,25.60 14.00,25.52 13.95,25.43 13.91,25.33 13.90,25.22 13.89,25.12 13.91,25.01 13.94,24.91 13.99,24.82 14.05,24.73 14.13,24.66 14.21,24.59 14.31,24.56 14.41,24.52 14.52,24.51 14.62,24.51 14.73,24.54 14.83,24.57 14.91,24.63 15.00,24.69 15.06,24.77 15.13,24.86 15.16,24.96 15.19,25.06 15.19,25.17 15.19,25.27 15.16,25.37 15.12,25.47 15.06,25.56 14.99,25.64 14.90,25.70 14.81,25.76 14.71,25.79 14.61,25.81 14.50,25.81 14.40,25.80 14.30,25.76 14.20,25.72 14.20,25.72 14.20,25.72 12.57,24.35 10.95,22.99 9.82,21.83 8.70,20.68 7.04,18.96 5.39,17.24 3.51,15.19 1.64,13.15 0.27,11.39 -1.09,9.64 -2.23,7.63 -3.37,5.63 -3.97,3.85 -4.57,2.06 -3.91,0.47 -3.26,-1.12 -1.52,-0.88 0.21,-0.64 0.28,-0.61 0.36,-0.57 0.42,-0.52 0.49,-0.47 0.54,-0.40 0.58,-0.34 0.62,-0.26 0.65,-0.18 0.66,-0.10 0.68,-0.02 0.67,0.05 0.66,0.13 0.64,0.21 0.61,0.29 0.57,0.36 0.52,0.43 0.46,0.48 0.40,0.54 0.33,0.58 0.26,0.62 0.18,0.64 0.10,0.67 0.02,0.67 -0.05,0.67 -0.13,0.66 -0.21,0.64 -0.21,0.64 L -0.21,0.64 Z"/></g><g transform="translate(137.42952375664754 44.37981286103093) rotate(0 -1.494774472219433 11.21080854164046)" stroke="none"><path fill="#099268" d="M -0.48,-0.48 Q -0.48,-0.48 0.29,-1.42 1.06,-2.37 1.15,-2.44 1.24,-2.51 1.34,-2.55 1.44,-2.60 1.55,-2.62 1.66,-2.64 1.77,-2.63 1.88,-2.62 1.99,-2.59 2.09,-2.56 2.19,-2.50 2.28,-2.44 2.36,-2.36 2.44,-2.28 2.50,-2.19 2.56,-2.09 2.59,-1.99 2.62,-1.88 2.63,-1.77 2.64,-1.66 2.62,-1.55 2.60,-1.44 2.55,-1.34 2.51,-1.24 2.44,-1.15 2.37,-1.06 1.96,-0.48 1.55,0.09 -0.32,2.41 -2.21,4.73 -4.30,7.45 -6.39,10.16 -8.10,12.99 -9.81,15.81 -11.40,18.17 -12.99,20.53 -12.84,21.33 -12.68,22.13 -12.78,22.24 -12.87,22.36 -12.99,22.44 -13.11,22.53 -13.24,22.59 -13.38,22.64 -13.52,22.67 -13.67,22.69 -13.81,22.68 -13.96,22.66 -14.10,22.62 -14.24,22.57 -14.36,22.49 -14.48,22.41 -14.58,22.31 -14.69,22.20 -14.76,22.07 -14.83,21.95 -14.87,21.80 -14.91,21.66 -14.92,21.52 -14.92,21.37 -14.89,21.23 -14.86,21.08 -14.80,20.95 -14.73,20.82 -12.38,18.81 -10.03,16.81 -6.10,13.03 -2.17,9.26 0.79,6.36 3.75,3.45 5.87,1.36 8.00,-0.72 9.33,-2.04 10.66,-3.36 10.77,-3.45 10.88,-3.53 11.01,-3.59 11.14,-3.65 11.28,-3.67 11.42,-3.69 11.56,-3.68 11.70,-3.68 11.83,-3.63 11.97,-3.59 12.09,-3.52 12.21,-3.44 12.30,-3.34 12.40,-3.24 12.48,-3.12 12.55,-3.00 12.59,-2.87 12.63,-2.73 12.64,-2.59 12.65,-2.45 12.62,-2.31 12.59,-2.17 12.53,-2.05 12.48,-1.92 12.39,-1.81 12.30,-1.70 11.67,-0.64 11.04,0.41 9.43,2.65 7.81,4.90 6.31,7.51 4.80,10.12 2.41,13.46 0.01,16.80 -1.40,19.01 -2.82,21.23 -3.37,22.94 -3.92,24.64 -4.60,25.40 -5.28,26.15 -5.35,26.29 -5.41,26.42 -5.50,26.54 -5.60,26.65 -5.72,26.74 -5.84,26.83 -5.97,26.89 -6.11,26.94 -6.26,26.97 -6.40,26.99 -6.55,26.98 -6.70,26.97 -6.84,26.92 -6.98,26.87 -7.11,26.79 -7.23,26.71 -7.33,26.60 -7.44,26.50 -7.51,26.37 -7.58,26.24 -7.63,26.10 -7.67,25.95 -7.67,25.81 -7.68,25.66 -7.65,25.51 -7.62,25.37 -6.83,24.65 -6.04,23.92 -3.14,20.72 -0.24,17.51 -0.16,17.44 -0.08,17.37 0.01,17.33 0.11,17.29 0.21,17.28 0.32,17.28 0.42,17.30 0.53,17.33 0.61,17.39 0.70,17.45 0.77,17.53 0.83,17.61 0.87,17.71 0.90,17.81 0.91,17.92 0.91,18.03 0.88,18.13 0.84,18.23 0.78,18.31 0.72,18.40 0.63,18.46 0.54,18.52 0.44,18.55 0.34,18.58 0.23,18.58 0.13,18.57 0.03,18.53 -0.06,18.50 -0.14,18.43 -0.23,18.36 -0.28,18.27 -0.34,18.18 -0.36,18.08 -0.39,17.97 -0.38,17.87 -0.37,17.76 -0.32,17.67 -0.28,17.57 -0.21,17.49 -0.14,17.41 -0.04,17.36 0.04,17.31 0.14,17.29 0.25,17.27 0.35,17.29 0.46,17.30 0.55,17.35 0.65,17.40 0.72,17.48 0.80,17.55 0.84,17.65 0.89,17.74 0.90,17.85 0.91,17.96 0.89,18.06 0.87,18.16 0.82,18.26 0.76,18.35 0.76,18.35 0.77,18.35 -2.25,22.25 -5.28,26.15 -5.35,26.29 -5.41,26.42 -5.50,26.54 -5.60,26.65 -5.72,26.74 -5.84,26.83 -5.97,26.89 -6.11,26.94 -6.26,26.97 -6.40,26.99 -6.55,26.98 -6.70,26.97 -6.84,26.92 -6.98,26.87 -7.11,26.79 -7.23,26.71 -7.33,26.61 -7.44,26.50 -7.51,26.37 -7.58,26.24 -7.63,26.10 -7.67,25.95 -7.67,25.81 -7.68,25.66 -7.65,25.51 -7.62,25.37 -6.92,24.58 -6.22,23.79 -5.55,21.86 -4.88,19.93 -3.42,17.64 -1.97,15.35 0.37,12.14 2.72,8.92 4.29,6.21 5.86,3.50 7.45,1.32 9.03,-0.84 9.84,-2.10 10.66,-3.36 10.77,-3.45 10.88,-3.53 11.01,-3.59 11.14,-3.65 11.28,-3.67 11.42,-3.69 11.56,-3.68 11.70,-3.68 11.83,-3.63 11.97,-3.59 12.09,-3.52 12.21,-3.44 12.30,-3.34 12.40,-3.24 12.48,-3.12 12.55,-3.00 12.59,-2.87 12.63,-2.73 12.64,-2.59 12.65,-2.45 12.62,-2.31 12.59,-2.17 12.53,-2.05 12.48,-1.92 12.39,-1.81 12.30,-1.70 10.97,-0.38 9.64,0.93 7.52,3.03 5.39,5.13 2.42,8.04 -0.54,10.95 -4.52,14.79 -8.49,18.63 -10.59,20.38 -12.68,22.13 -12.78,22.24 -12.87,22.36 -12.99,22.44 -13.11,22.53 -13.24,22.59 -13.38,22.64 -13.52,22.67 -13.67,22.69 -13.81,22.68 -13.96,22.66 -14.10,22.62 -14.24,22.57 -14.36,22.49 -14.48,22.41 -14.58,22.31 -14.69,22.20 -14.76,22.07 -14.83,21.95 -14.87,21.80 -14.91,21.66 -14.92,21.52 -14.92,21.37 -14.89,21.23 -14.86,21.08 -14.80,20.95 -14.73,20.82 -14.94,20.34 -15.14,19.87 -13.52,17.21 -11.89,14.54 -10.09,11.61 -8.29,8.69 -6.16,5.96 -4.04,3.23 -2.06,0.84 -0.09,-1.55 0.48,-1.96 1.06,-2.37 1.15,-2.44 1.24,-2.51 1.34,-2.55 1.44,-2.60 1.55,-2.62 1.66,-2.64 1.77,-2.63 1.88,-2.62 1.99,-2.59 2.09,-2.56 2.19,-2.50 2.28,-2.44 2.36,-2.36 2.44,-2.28 2.50,-2.19 2.56,-2.09 2.59,-1.99 2.62,-1.88 2.63,-1.77 2.64,-1.66 2.62,-1.55 2.60,-1.44 2.55,-1.34 2.51,-1.24 2.44,-1.15 2.37,-1.06 1.42,-0.29 0.48,0.48 0.41,0.53 0.35,0.58 0.27,0.61 0.20,0.64 0.12,0.66 0.04,0.67 -0.04,0.67 -0.12,0.66 -0.20,0.64 -0.27,0.61 -0.34,0.57 -0.41,0.53 -0.47,0.47 -0.53,0.41 -0.57,0.34 -0.61,0.27 -0.64,0.20 -0.66,0.12 -0.67,0.04 -0.67,-0.04 -0.66,-0.12 -0.64,-0.20 -0.61,-0.27 -0.58,-0.35 -0.53,-0.41 -0.48,-0.48 -0.48,-0.48 L -0.48,-0.48 Z"/></g><g transform="translate(144.90339611774107 56.33800863878071) rotate(0 -8.96864683331296 11.958195777749893)" stroke="none"><path fill="#099268" d="M 0.52,0.43 Q 0.52,0.43 -1.52,3.10 -3.56,5.76 -5.79,7.80 -8.01,9.83 -9.74,11.92 -11.47,14.00 -13.02,16.57 -14.58,19.13 -15.27,20.67 -15.97,22.21 -16.05,22.32 -16.14,22.42 -16.24,22.50 -16.35,22.58 -16.47,22.64 -16.59,22.69 -16.73,22.71 -16.86,22.74 -16.99,22.73 -17.12,22.72 -17.25,22.68 -17.38,22.64 -17.49,22.57 -17.61,22.50 -17.70,22.40 -17.79,22.30 -17.86,22.19 -17.93,22.07 -17.97,21.95 -18.01,21.82 -18.01,21.68 -18.02,21.55 -17.99,21.42 -17.97,21.29 -17.91,21.17 -17.86,21.05 -16.84,21.14 -15.83,21.23 -14.42,20.30 -13.02,19.37 -12.92,19.32 -12.83,19.28 -12.72,19.26 -12.62,19.25 -12.51,19.27 -12.41,19.29 -12.32,19.35 -12.22,19.40 -12.16,19.48 -12.09,19.56 -12.05,19.66 -12.00,19.76 -12.00,19.86 -11.99,19.97 -12.02,20.07 -12.05,20.18 -12.10,20.26 -12.16,20.35 -12.25,20.42 -12.33,20.48 -12.43,20.52 -12.53,20.55 -12.64,20.55 -12.74,20.56 -12.84,20.52 -12.95,20.49 -13.03,20.43 -13.12,20.36 -13.18,20.28 -13.24,20.19 -13.27,20.09 -13.30,19.98 -13.29,19.88 -13.29,19.77 -13.25,19.67 -13.21,19.57 -13.14,19.49 -13.07,19.41 -12.98,19.35 -12.89,19.30 -12.79,19.28 -12.69,19.25 -12.58,19.26 -12.48,19.27 -12.38,19.32 -12.28,19.36 -12.20,19.43 -12.13,19.50 -12.08,19.60 -12.02,19.69 -12.01,19.80 -11.99,19.90 -12.00,20.00 -12.02,20.11 -12.07,20.20 -12.12,20.30 -12.19,20.37 -12.27,20.45 -12.27,20.45 -12.27,20.45 -14.12,21.33 -15.97,22.21 -16.05,22.32 -16.14,22.42 -16.24,22.50 -16.35,22.58 -16.47,22.64 -16.59,22.69 -16.73,22.71 -16.86,22.74 -16.99,22.73 -17.12,22.72 -17.25,22.68 -17.38,22.64 -17.49,22.57 -17.61,22.50 -17.70,22.40 -17.79,22.30 -17.86,22.19 -17.93,22.07 -17.97,21.95 -18.01,21.82 -18.01,21.68 -18.02,21.55 -17.99,21.42 -17.97,21.29 -17.91,21.17 -17.86,21.05 -17.17,19.50 -16.49,17.95 -14.80,15.28 -13.11,12.61 -11.25,10.45 -9.38,8.29 -7.20,6.42 -5.02,4.54 -2.77,2.05 -0.52,-0.43 -0.46,-0.49 -0.40,-0.54 -0.33,-0.58 -0.25,-0.62 -0.18,-0.64 -0.10,-0.67 -0.02,-0.67 0.06,-0.67 0.14,-0.65 0.22,-0.64 0.29,-0.60 0.36,-0.57 0.43,-0.51 0.49,-0.46 0.54,-0.39 0.59,-0.33 0.62,-0.25 0.65,-0.18 0.66,-0.10 0.67,-0.02 0.67,0.06 0.66,0.14 0.63,0.21 0.61,0.29 0.56,0.36 0.52,0.43 0.52,0.43 L 0.52,0.43 Z"/></g><g transform="translate(141.9138471733022 65.3066554720931) rotate(0 -8.96864683331205 13.452970249968644)" stroke="none"><path fill="#099268" d="M 0.60,0.34 Q 0.60,0.34 -1.00,3.41 -2.61,6.49 -4.24,8.30 -5.88,10.11 -6.93,11.65 -7.98,13.19 -8.84,14.70 -9.70,16.21 -11.36,19.02 -13.01,21.84 -14.19,23.51 -15.37,25.19 -15.86,25.41 -16.36,25.63 -16.44,25.72 -16.53,25.82 -16.63,25.89 -16.74,25.96 -16.86,26.00 -16.97,26.05 -17.10,26.06 -17.23,26.07 -17.35,26.06 -17.48,26.04 -17.59,25.99 -17.71,25.95 -17.82,25.88 -17.92,25.80 -18.00,25.71 -18.09,25.61 -18.14,25.50 -18.20,25.39 -18.23,25.26 -18.26,25.14 -18.26,25.01 -18.26,24.89 -18.23,24.77 -18.19,24.64 -18.13,24.53 -18.07,24.42 -17.30,23.70 -16.53,22.98 -15.49,21.41 -14.46,19.83 -14.39,19.75 -14.32,19.67 -14.23,19.61 -14.14,19.56 -14.03,19.53 -13.93,19.51 -13.82,19.52 -13.72,19.53 -13.62,19.58 -13.52,19.62 -13.45,19.70 -13.37,19.77 -13.32,19.86 -13.27,19.96 -13.25,20.06 -13.24,20.17 -13.25,20.27 -13.27,20.38 -13.32,20.47 -13.37,20.56 -13.45,20.64 -13.52,20.71 -13.62,20.76 -13.72,20.80 -13.82,20.81 -13.93,20.82 -14.03,20.80 -14.14,20.78 -14.23,20.72 -14.32,20.67 -14.39,20.59 -14.45,20.51 -14.49,20.41 -14.53,20.31 -14.54,20.20 -14.55,20.10 -14.52,19.99 -14.49,19.89 -14.43,19.80 -14.37,19.72 -14.28,19.65 -14.20,19.59 -14.10,19.55 -14.00,19.52 -13.89,19.52 -13.79,19.52 -13.69,19.55 -13.59,19.59 -13.50,19.65 -13.42,19.72 -13.36,19.80 -13.30,19.89 -13.27,19.99 -13.24,20.10 -13.25,20.20 -13.25,20.31 -13.29,20.41 -13.33,20.51 -13.33,20.51 -13.33,20.51 -14.31,22.29 -15.28,24.07 -15.82,24.85 -16.36,25.63 -16.44,25.72 -16.53,25.82 -16.63,25.89 -16.74,25.96 -16.86,26.00 -16.97,26.05 -17.10,26.06 -17.23,26.07 -17.35,26.06 -17.48,26.04 -17.59,25.99 -17.71,25.95 -17.82,25.88 -17.92,25.80 -18.00,25.71 -18.09,25.61 -18.14,25.50 -18.20,25.39 -18.23,25.26 -18.26,25.14 -18.26,25.01 -18.26,24.89 -18.23,24.77 -18.19,24.64 -18.13,24.53 -18.07,24.42 -17.60,24.12 -17.13,23.82 -16.02,22.26 -14.92,20.69 -13.23,17.91 -11.54,15.13 -10.61,13.57 -9.67,12.01 -8.51,10.38 -7.35,8.75 -5.80,7.14 -4.26,5.53 -2.43,2.59 -0.60,-0.34 -0.55,-0.41 -0.50,-0.47 -0.43,-0.53 -0.37,-0.58 -0.29,-0.62 -0.22,-0.65 -0.14,-0.67 -0.05,-0.69 0.02,-0.69 0.10,-0.68 0.18,-0.66 0.26,-0.64 0.34,-0.59 0.41,-0.55 0.47,-0.50 0.53,-0.44 0.58,-0.37 0.62,-0.30 0.65,-0.22 0.68,-0.14 0.68,-0.05 0.69,0.02 0.68,0.10 0.66,0.19 0.63,0.26 0.60,0.34 0.60,0.34 L 0.60,0.34 Z"/></g><g transform="translate(147.89294506217811 48.86413627768707) rotate(0 11.958195777750007 -4.484323416656196)" stroke="none"><path fill="#099268" d="M -0.68,0.45 Q -0.68,0.45 -1.54,-0.83 -2.40,-2.11 -3.23,-3.07 -4.05,-4.03 -4.10,-4.13 -4.15,-4.22 -4.18,-4.33 -4.20,-4.43 -4.20,-4.54 -4.20,-4.65 -4.17,-4.76 -4.14,-4.86 -4.09,-4.96 -4.04,-5.05 -3.96,-5.13 -3.89,-5.21 -3.80,-5.27 -3.71,-5.33 -3.61,-5.37 -3.51,-5.41 -3.40,-5.42 -3.29,-5.43 -3.18,-5.42 -3.07,-5.40 -2.97,-5.36 -2.87,-5.32 -2.78,-5.26 -2.69,-5.19 -2.62,-5.11 -2.55,-5.03 -2.79,-4.04 -3.03,-3.05 -3.05,-0.98 -3.07,1.08 -2.28,4.04 -1.49,7.01 -0.71,10.51 0.07,14.01 1.24,17.12 2.41,20.24 3.33,22.43 4.26,24.62 5.03,25.90 5.81,27.18 6.60,27.78 7.39,28.38 7.45,28.52 7.51,28.66 7.54,28.81 7.57,28.95 7.56,29.11 7.55,29.26 7.50,29.40 7.46,29.54 7.38,29.67 7.30,29.80 7.19,29.91 7.09,30.02 6.96,30.09 6.83,30.17 6.68,30.22 6.54,30.26 6.39,30.27 6.24,30.28 6.09,30.25 5.94,30.22 5.80,30.16 5.66,30.10 5.55,30.01 5.43,29.91 5.33,29.79 5.24,29.67 5.49,28.16 5.75,26.64 5.44,25.63 5.14,24.62 4.61,22.82 4.08,21.02 3.42,18.96 2.76,16.90 2.04,15.16 1.33,13.42 1.30,13.27 1.27,13.12 1.28,12.96 1.29,12.81 1.33,12.66 1.38,12.52 1.45,12.38 1.53,12.25 1.64,12.14 1.75,12.03 1.88,11.95 2.01,11.87 2.16,11.83 2.30,11.78 2.46,11.77 2.61,11.76 2.76,11.78 2.91,11.81 3.05,11.87 3.19,11.93 3.32,12.03 3.44,12.12 3.53,12.24 3.63,12.36 3.69,12.50 3.76,12.64 4.25,12.35 4.74,12.05 6.26,13.07 7.79,14.08 9.25,15.37 10.71,16.65 12.10,17.55 13.49,18.45 15.03,19.77 16.57,21.08 17.72,22.57 18.86,24.05 19.74,24.66 20.63,25.26 20.70,25.39 20.78,25.52 20.82,25.67 20.87,25.82 20.87,25.97 20.88,26.12 20.85,26.27 20.82,26.42 20.75,26.56 20.69,26.69 20.59,26.81 20.50,26.93 20.38,27.02 20.26,27.11 20.12,27.17 19.98,27.23 19.83,27.26 19.68,27.28 19.53,27.27 19.37,27.26 19.23,27.21 19.08,27.16 18.96,27.08 18.83,27.00 18.72,26.89 18.62,26.78 18.43,25.41 18.24,24.05 16.98,21.23 15.71,18.42 14.33,15.90 12.95,13.37 11.08,10.14 9.21,6.90 7.14,3.83 5.08,0.76 3.31,-2.30 1.54,-5.37 0.34,-8.00 -0.84,-10.62 -1.72,-11.71 -2.59,-12.80 -2.51,-13.15 -2.43,-13.50 -2.51,-13.62 -2.58,-13.74 -2.63,-13.87 -2.68,-14.00 -2.69,-14.14 -2.70,-14.28 -2.68,-14.42 -2.66,-14.56 -2.61,-14.69 -2.56,-14.82 -2.48,-14.93 -2.39,-15.04 -2.29,-15.13 -2.18,-15.22 -2.05,-15.29 -1.93,-15.35 -1.79,-15.38 -1.66,-15.41 -1.52,-15.41 -1.38,-15.40 -1.24,-15.37 -1.11,-15.33 -0.98,-15.26 -0.86,-15.19 -0.76,-15.10 -0.66,-15.00 0.69,-13.01 2.04,-11.01 3.48,-8.42 4.91,-5.83 6.75,-3.54 8.59,-1.25 10.24,0.58 11.88,2.42 13.06,4.13 14.24,5.83 15.02,6.40 15.80,6.97 16.16,5.80 16.52,4.62 15.75,2.66 14.99,0.69 13.41,-2.32 11.84,-5.35 9.88,-8.80 7.92,-12.25 5.81,-16.34 3.71,-20.42 1.94,-24.32 0.17,-28.22 -1.01,-31.30 -2.20,-34.38 -1.86,-35.07 -1.51,-35.76 -1.55,-35.88 -1.58,-36.01 -1.58,-36.14 -1.59,-36.26 -1.56,-36.39 -1.53,-36.51 -1.47,-36.63 -1.41,-36.74 -1.33,-36.84 -1.25,-36.94 -1.14,-37.02 -1.04,-37.09 -0.92,-37.14 -0.80,-37.19 -0.67,-37.20 -0.55,-37.22 -0.42,-37.21 -0.29,-37.20 -0.17,-37.15 -0.05,-37.11 0.05,-37.04 0.16,-36.97 0.24,-36.87 0.33,-36.78 0.39,-36.67 0.46,-36.55 1.41,-35.31 2.37,-34.06 4.57,-30.44 6.76,-26.82 8.97,-23.14 11.17,-19.47 13.38,-16.22 15.60,-12.97 17.80,-10.33 20.00,-7.70 22.18,-5.75 24.37,-3.81 26.30,-1.60 28.23,0.60 28.31,0.67 28.39,0.74 28.44,0.83 28.49,0.93 28.51,1.03 28.53,1.14 28.51,1.24 28.50,1.35 28.45,1.44 28.40,1.54 28.33,1.61 28.25,1.68 28.15,1.73 28.06,1.78 27.95,1.79 27.85,1.80 27.74,1.78 27.64,1.76 27.55,1.71 27.46,1.66 27.39,1.58 27.32,1.50 27.27,1.40 27.23,1.30 27.23,1.19 27.22,1.09 27.24,0.99 27.27,0.88 27.33,0.79 27.39,0.71 27.47,0.64 27.55,0.57 27.65,0.54 27.75,0.50 27.86,0.50 27.97,0.50 28.07,0.53 28.17,0.56 28.25,0.63 28.34,0.69 28.40,0.77 28.46,0.86 28.49,0.96 28.52,1.07 28.52,1.17 28.52,1.28 28.48,1.38 28.44,1.48 28.37,1.56 28.31,1.64 28.22,1.70 28.13,1.75 28.02,1.78 27.92,1.80 27.81,1.79 27.71,1.78 27.61,1.74 27.51,1.70 27.51,1.70 27.51,1.70 25.16,-0.19 22.82,-2.09 20.52,-4.15 18.22,-6.21 15.96,-8.94 13.69,-11.67 11.45,-14.98 9.22,-18.30 7.01,-21.97 4.81,-25.65 2.71,-29.20 0.61,-32.76 -0.45,-34.26 -1.51,-35.76 -1.55,-35.88 -1.58,-36.01 -1.58,-36.14 -1.59,-36.26 -1.56,-36.39 -1.53,-36.51 -1.47,-36.63 -1.41,-36.74 -1.33,-36.84 -1.25,-36.94 -1.14,-37.02 -1.04,-37.09 -0.92,-37.14 -0.80,-37.19 -0.67,-37.20 -0.55,-37.22 -0.42,-37.21 -0.29,-37.20 -0.17,-37.15 -0.05,-37.11 0.05,-37.04 0.16,-36.97 0.24,-36.87 0.33,-36.78 0.39,-36.67 0.46,-36.55 0.08,-35.61 -0.28,-34.67 0.88,-31.88 2.05,-29.08 3.81,-25.25 5.58,-21.41 7.73,-17.39 9.89,-13.38 11.89,-9.90 13.89,-6.43 15.57,-3.27 17.25,-0.12 18.08,2.34 18.91,4.81 18.71,6.18 18.51,7.55 18.09,8.32 17.67,9.09 16.02,8.99 14.37,8.88 13.33,8.04 12.29,7.21 11.19,5.61 10.10,4.01 8.42,2.11 6.74,0.22 4.80,-2.23 2.86,-4.69 1.47,-7.19 0.07,-9.69 -1.17,-11.60 -2.43,-13.50 -2.51,-13.62 -2.58,-13.74 -2.63,-13.87 -2.68,-14.00 -2.69,-14.14 -2.70,-14.28 -2.68,-14.42 -2.66,-14.56 -2.61,-14.69 -2.56,-14.82 -2.48,-14.93 -2.39,-15.04 -2.29,-15.13 -2.18,-15.22 -2.05,-15.29 -1.93,-15.35 -1.79,-15.38 -1.66,-15.41 -1.52,-15.41 -1.38,-15.40 -1.24,-15.37 -1.11,-15.33 -0.98,-15.26 -0.86,-15.20 -0.76,-15.10 -0.66,-15.00 -0.64,-14.42 -0.63,-13.84 0.34,-12.74 1.32,-11.64 2.47,-9.11 3.62,-6.57 5.35,-3.57 7.08,-0.58 9.20,2.54 11.32,5.66 13.24,8.91 15.15,12.16 16.61,14.78 18.06,17.40 19.42,20.63 20.78,23.85 20.70,24.56 20.63,25.26 20.70,25.39 20.78,25.52 20.82,25.67 20.87,25.82 20.87,25.97 20.88,26.12 20.85,26.27 20.82,26.42 20.75,26.56 20.69,26.69 20.59,26.81 20.50,26.93 20.38,27.02 20.26,27.11 20.12,27.17 19.98,27.23 19.83,27.26 19.68,27.28 19.53,27.27 19.37,27.26 19.23,27.21 19.09,27.16 18.96,27.08 18.83,27.00 18.72,26.89 18.62,26.78 17.74,26.20 16.87,25.62 15.89,24.30 14.92,22.99 13.51,21.77 12.10,20.56 10.57,19.54 9.05,18.52 7.70,17.31 6.35,16.10 5.32,15.29 4.29,14.49 2.81,13.95 1.33,13.42 1.30,13.27 1.27,13.12 1.28,12.97 1.29,12.81 1.33,12.66 1.38,12.52 1.45,12.39 1.53,12.25 1.64,12.14 1.75,12.03 1.88,11.95 2.01,11.87 2.16,11.83 2.30,11.78 2.46,11.77 2.61,11.76 2.76,11.78 2.91,11.81 3.05,11.87 3.19,11.93 3.32,12.03 3.44,12.12 3.53,12.24 3.63,12.36 3.69,12.50 3.76,12.64 4.47,14.38 5.18,16.12 5.84,18.21 6.51,20.29 7.08,22.18 7.66,24.06 7.93,25.65 8.21,27.25 7.80,27.81 7.39,28.38 7.45,28.52 7.51,28.66 7.54,28.81 7.57,28.95 7.56,29.11 7.55,29.26 7.50,29.40 7.46,29.54 7.38,29.67 7.30,29.80 7.19,29.91 7.09,30.02 6.96,30.09 6.83,30.17 6.68,30.22 6.54,30.26 6.39,30.27 6.24,30.28 6.09,30.25 5.94,30.22 5.80,30.16 5.66,30.10 5.55,30.01 5.43,29.91 5.33,29.79 5.24,29.67 4.47,29.11 3.70,28.54 2.82,27.07 1.94,25.61 1.00,23.36 0.05,21.11 -1.14,17.83 -2.34,14.55 -3.10,11.08 -3.85,7.61 -4.66,4.29 -5.47,0.97 -4.76,-1.53 -4.05,-4.03 -4.10,-4.13 -4.15,-4.22 -4.18,-4.33 -4.20,-4.43 -4.20,-4.54 -4.20,-4.65 -4.17,-4.76 -4.14,-4.86 -4.09,-4.96 -4.04,-5.05 -3.96,-5.13 -3.89,-5.21 -3.80,-5.27 -3.71,-5.33 -3.61,-5.37 -3.51,-5.41 -3.40,-5.42 -3.29,-5.43 -3.18,-5.42 -3.07,-5.40 -2.97,-5.36 -2.87,-5.32 -2.78,-5.26 -2.70,-5.19 -2.62,-5.11 -2.55,-5.03 -1.79,-4.03 -1.03,-3.03 -0.17,-1.74 0.68,-0.45 0.72,-0.36 0.76,-0.27 0.79,-0.18 0.81,-0.08 0.81,0.01 0.81,0.11 0.78,0.20 0.76,0.30 0.71,0.38 0.66,0.47 0.59,0.54 0.53,0.62 0.45,0.67 0.36,0.73 0.27,0.76 0.18,0.79 0.08,0.80 -0.01,0.81 -0.11,0.80 -0.20,0.79 -0.30,0.75 -0.39,0.71 -0.47,0.66 -0.55,0.60 -0.61,0.52 -0.68,0.45 -0.68,0.45 L -0.68,0.45 Z"/></g><g transform="translate(144.90339611774107 60.82233205543696) rotate(0 0 -0.7473872361093754)" stroke="none"><path fill="#099268" d="M -0.65,-0.85 Q -0.65,-0.85 -0.63,-0.96 -0.62,-1.06 -0.57,-1.16 -0.52,-1.25 -0.44,-1.32 -0.36,-1.40 -0.27,-1.44 -0.17,-1.49 -0.07,-1.50 0.03,-1.51 0.13,-1.49 0.24,-1.46 0.33,-1.41 0.42,-1.35 0.49,-1.27 0.56,-1.19 0.60,-1.09 0.64,-1.00 0.64,-0.89 0.65,-0.78 0.62,-0.68 0.59,-0.58 0.53,-0.49 0.47,-0.40 0.39,-0.34 0.30,-0.27 0.20,-0.24 0.10,-0.21 -0.00,-0.21 -0.10,-0.21 -0.20,-0.24 -0.30,-0.27 -0.39,-0.34 -0.47,-0.40 -0.53,-0.49 -0.59,-0.58 -0.62,-0.68 -0.65,-0.78 -0.64,-0.89 -0.64,-1.00 -0.60,-1.09 -0.56,-1.19 -0.49,-1.27 -0.42,-1.36 -0.33,-1.41 -0.24,-1.46 -0.13,-1.49 -0.03,-1.51 0.07,-1.50 0.17,-1.49 0.27,-1.44 0.36,-1.40 0.44,-1.32 0.52,-1.25 0.57,-1.16 0.62,-1.06 0.63,-0.96 0.65,-0.85 0.65,-0.85 0.65,-0.85 0.74,-0.76 0.84,-0.67 0.91,-0.56 0.98,-0.45 1.02,-0.33 1.06,-0.20 1.07,-0.07 1.08,0.05 1.05,0.18 1.03,0.30 0.98,0.42 0.93,0.54 0.85,0.65 0.77,0.75 0.67,0.83 0.57,0.91 0.45,0.97 0.33,1.02 0.20,1.05 0.07,1.07 -0.05,1.07 -0.18,1.06 -0.30,1.02 -0.43,0.99 -0.54,0.92 -0.65,0.85 -0.65,-0.00 L -0.65,-0.85 Z"/></g><g transform="translate(146.39817058995868 65.3066554720931) rotate(0 0.00004999999964638846 0.00004999999998744897)" stroke="none"><path fill="#846358" d="M 1.06,-1.06 Q 1.06,-1.06 1.20,-0.86 1.34,-0.66 1.41,-0.43 1.48,-0.20 1.48,0.04 1.47,0.28 1.39,0.51 1.30,0.73 1.15,0.92 1.00,1.11 0.79,1.24 0.59,1.38 0.35,1.43 0.12,1.49 -0.12,1.47 -0.36,1.45 -0.58,1.36 -0.80,1.26 -0.99,1.10 -1.17,0.94 -1.29,0.72 -1.41,0.51 -1.45,0.27 -1.50,0.04 -1.46,-0.20 -1.43,-0.44 -1.32,-0.65 -1.22,-0.87 -1.04,-1.04 -0.87,-1.22 -0.65,-1.32 -0.44,-1.43 -0.19,-1.46 0.04,-1.50 0.27,-1.45 0.51,-1.41 0.73,-1.29 0.94,-1.17 1.10,-0.98 1.26,-0.80 1.36,-0.58 1.45,-0.36 1.47,-0.11 1.49,0.12 1.43,0.35 1.38,0.59 1.24,0.79 1.11,1.00 0.92,1.15 0.73,1.30 0.51,1.39 0.28,1.47 0.03,1.48 -0.20,1.48 -0.43,1.41 -0.66,1.34 -0.86,1.20 -1.06,1.06 -1.06,1.06 -1.06,1.06 -1.17,0.91 -1.28,0.77 -1.36,0.61 -1.43,0.44 -1.46,0.26 -1.49,0.09 -1.48,-0.09 -1.47,-0.27 -1.42,-0.44 -1.37,-0.61 -1.27,-0.77 -1.18,-0.92 -1.05,-1.05 -0.92,-1.18 -0.77,-1.27 -0.61,-1.37 -0.44,-1.42 -0.27,-1.47 -0.09,-1.48 0.09,-1.49 0.26,-1.46 0.44,-1.43 0.61,-1.36 0.77,-1.28 0.91,-1.17 1.06,-1.06 1.06,-1.06 L 1.06,-1.06 Z"/></g><g transform="translate(146.39817058995868 65.3066554720931) rotate(0 -3.7369361805467634 20.179455374952965)" stroke="none"><path fill="#846358" d="M 0.46,0.46 Q 0.46,0.46 -0.38,1.32 -1.23,2.18 -1.41,2.93 -1.59,3.68 -1.67,4.75 -1.75,5.83 -1.78,7.16 -1.81,8.49 -1.82,10.34 -1.82,12.19 -1.81,14.27 -1.80,16.35 -2.24,19.05 -2.67,21.75 -2.84,24.52 -3.00,27.29 -3.52,29.45 -4.04,31.62 -4.24,34.97 -4.43,38.32 -4.95,40.21 -5.46,42.11 -5.49,42.26 -5.52,42.40 -5.58,42.54 -5.64,42.68 -5.73,42.79 -5.82,42.91 -5.94,43.00 -6.06,43.09 -6.20,43.15 -6.33,43.21 -6.48,43.24 -6.63,43.27 -6.77,43.26 -6.92,43.25 -7.07,43.20 -7.21,43.16 -7.34,43.08 -7.46,43.01 -7.57,42.90 -7.67,42.79 -7.75,42.67 -7.83,42.54 -7.87,42.40 -7.92,42.25 -7.92,42.10 -7.93,41.96 -8.25,40.06 -8.56,38.16 -8.60,35.77 -8.64,33.39 -8.64,30.66 -8.65,27.94 -8.22,25.39 -7.78,22.84 -7.61,20.57 -7.43,18.29 -7.37,16.89 -7.30,15.48 -7.27,14.45 -7.24,13.41 -7.21,13.27 -7.19,13.13 -7.13,12.99 -7.07,12.86 -6.98,12.74 -6.89,12.63 -6.77,12.53 -6.66,12.44 -6.53,12.38 -6.39,12.32 -6.25,12.29 -6.10,12.27 -5.96,12.27 -5.81,12.28 -5.67,12.32 -5.53,12.37 -5.40,12.44 -5.28,12.52 -5.17,12.62 -5.07,12.72 -4.99,12.85 -4.92,12.97 -4.87,13.11 -4.83,13.25 -4.82,13.40 -4.81,13.55 -4.79,15.40 -4.77,17.25 -4.76,19.17 -4.75,21.08 -4.75,24.04 -4.75,27.01 -4.32,30.34 -3.89,33.67 -3.71,36.44 -3.53,39.22 -3.45,40.81 -3.36,42.40 -3.37,42.55 -3.38,42.70 -3.42,42.84 -3.47,42.98 -3.54,43.11 -3.62,43.24 -3.72,43.34 -3.83,43.45 -3.95,43.53 -4.08,43.60 -4.22,43.65 -4.36,43.69 -4.51,43.70 -4.66,43.71 -4.81,43.69 -4.95,43.66 -5.09,43.60 -5.23,43.54 -5.34,43.45 -5.46,43.36 -5.55,43.24 -5.65,43.13 -5.71,42.99 -5.77,42.86 -5.80,42.71 -5.82,42.57 -5.79,40.97 -5.76,39.37 -5.75,37.08 -5.74,34.78 -5.74,31.23 -5.73,27.67 -6.16,24.53 -6.59,21.38 -6.78,19.11 -6.96,16.85 -7.04,14.61 -7.12,12.36 -7.59,11.39 -8.06,10.41 -8.05,10.26 -8.03,10.11 -7.98,9.96 -7.93,9.82 -7.85,9.69 -7.77,9.56 -7.66,9.45 -7.55,9.35 -7.41,9.27 -7.28,9.19 -7.13,9.15 -6.98,9.11 -6.83,9.10 -6.68,9.10 -6.52,9.13 -6.37,9.16 -6.24,9.23 -6.10,9.30 -5.98,9.39 -5.86,9.49 -5.77,9.62 -5.68,9.74 -5.62,9.88 -5.56,10.02 -5.53,10.17 -5.51,10.33 -5.31,11.08 -5.10,11.83 -4.98,14.05 -4.86,16.27 -4.41,18.35 -3.95,20.42 -3.32,23.51 -2.68,26.59 -2.41,28.80 -2.15,31.02 -2.02,32.37 -1.89,33.72 -1.89,33.87 -1.89,34.02 -1.93,34.17 -1.96,34.32 -2.03,34.46 -2.10,34.59 -2.21,34.71 -2.31,34.82 -2.43,34.91 -2.56,35.00 -2.70,35.05 -2.85,35.11 -3.00,35.13 -3.15,35.15 -3.30,35.13 -3.45,35.11 -3.60,35.05 -3.74,35.00 -3.87,34.91 -3.99,34.83 -4.10,34.71 -4.20,34.60 -4.27,34.46 -4.34,34.33 -4.38,34.18 -4.42,34.03 -4.35,31.82 -4.28,29.61 -4.27,27.54 -4.26,25.47 -4.26,22.88 -4.26,20.28 -4.69,17.55 -5.11,14.82 -5.71,12.39 -6.30,9.96 -6.56,8.47 -6.81,6.98 -6.83,6.83 -6.85,6.68 -6.83,6.53 -6.81,6.38 -6.76,6.24 -6.70,6.09 -6.62,5.97 -6.53,5.84 -6.42,5.74 -6.30,5.64 -6.17,5.57 -6.03,5.50 -5.89,5.47 -5.74,5.43 -5.59,5.43 -5.44,5.43 -5.29,5.47 -5.14,5.50 -5.01,5.57 -4.88,5.65 -4.76,5.75 -4.65,5.85 -4.56,5.97 -4.48,6.10 -4.42,6.24 -4.37,6.38 -4.47,8.09 -4.57,9.80 -4.61,12.13 -4.65,14.46 -4.66,17.61 -4.68,20.75 -4.69,23.81 -4.71,26.87 -4.72,29.03 -4.72,31.19 -4.74,31.33 -4.76,31.48 -4.81,31.62 -4.87,31.76 -4.95,31.89 -5.04,32.01 -5.15,32.11 -5.26,32.21 -5.40,32.28 -5.53,32.35 -5.68,32.38 -5.82,32.42 -5.97,32.42 -6.12,32.42 -6.27,32.38 -6.41,32.35 -6.55,32.28 -6.68,32.21 -6.79,32.11 -6.90,32.01 -6.99,31.88 -7.07,31.76 -7.13,31.62 -7.18,31.48 -7.20,31.33 -7.21,31.18 -6.75,29.75 -6.29,28.32 -6.15,25.81 -6.00,23.29 -5.50,19.53 -4.99,15.78 -4.77,12.10 -4.56,8.42 -4.46,5.14 -4.37,1.85 -4.34,0.02 -4.31,-1.80 -4.28,-1.95 -4.26,-2.11 -4.20,-2.25 -4.14,-2.39 -4.05,-2.51 -3.96,-2.63 -3.85,-2.73 -3.73,-2.83 -3.59,-2.90 -3.46,-2.96 -3.31,-3.00 -3.16,-3.03 -3.01,-3.02 -2.85,-3.02 -2.71,-2.98 -2.56,-2.94 -2.43,-2.86 -2.30,-2.79 -2.18,-2.68 -2.07,-2.58 -1.99,-2.45 -1.91,-2.33 -1.86,-2.18 -1.81,-2.04 -1.79,-1.89 -1.78,-1.73 -2.32,-0.87 -2.86,-0.01 -3.35,2.54 -3.84,5.10 -4.10,8.35 -4.36,11.60 -4.80,16.03 -5.25,20.47 -5.27,20.57 -5.29,20.68 -5.34,20.77 -5.40,20.86 -5.48,20.93 -5.56,21.00 -5.65,21.04 -5.75,21.08 -5.86,21.09 -5.96,21.10 -6.07,21.07 -6.17,21.05 -6.26,20.99 -6.35,20.93 -6.41,20.85 -6.48,20.76 -6.52,20.66 -6.55,20.56 -6.55,20.46 -6.56,20.35 -6.52,20.25 -6.49,20.15 -6.43,20.06 -6.37,19.98 -6.28,19.92 -6.19,19.86 -6.09,19.82 -5.99,19.79 -5.88,19.80 -5.78,19.80 -5.68,19.84 -5.58,19.88 -5.50,19.94 -5.41,20.01 -5.36,20.10 -5.30,20.19 -5.28,20.29 -5.25,20.40 -5.26,20.50 -5.27,20.61 -5.31,20.71 -5.35,20.80 -5.43,20.88 -5.50,20.96 -5.59,21.01 -5.68,21.06 -5.79,21.08 -5.89,21.10 -6.00,21.09 -6.10,21.07 -6.20,21.02 -6.29,20.98 -6.37,20.90 -6.44,20.82 -6.49,20.73 -6.53,20.63 -6.55,20.53 -6.56,20.42 -6.56,20.42 -6.56,20.42 -6.70,15.92 -6.83,11.41 -6.57,7.99 -6.32,4.57 -5.31,1.38 -4.31,-1.80 -4.28,-1.95 -4.26,-2.11 -4.20,-2.25 -4.14,-2.39 -4.05,-2.51 -3.96,-2.63 -3.85,-2.73 -3.73,-2.83 -3.59,-2.90 -3.46,-2.96 -3.31,-3.00 -3.16,-3.03 -3.01,-3.02 -2.86,-3.02 -2.71,-2.98 -2.56,-2.94 -2.43,-2.86 -2.30,-2.79 -2.18,-2.68 -2.07,-2.58 -1.99,-2.45 -1.91,-2.33 -1.86,-2.18 -1.81,-2.04 -1.79,-1.89 -1.78,-1.73 -1.83,0.09 -1.87,1.92 -1.96,5.24 -2.05,8.57 -2.26,12.34 -2.48,16.12 -2.99,19.79 -3.49,23.46 -3.71,26.29 -3.93,29.12 -4.33,30.15 -4.72,31.19 -4.74,31.33 -4.76,31.48 -4.81,31.62 -4.87,31.76 -4.95,31.89 -5.04,32.01 -5.15,32.11 -5.26,32.21 -5.40,32.28 -5.53,32.35 -5.68,32.38 -5.82,32.42 -5.97,32.42 -6.12,32.42 -6.27,32.38 -6.41,32.35 -6.55,32.28 -6.68,32.21 -6.79,32.11 -6.90,32.01 -6.99,31.88 -7.07,31.76 -7.13,31.62 -7.18,31.48 -7.20,31.33 -7.21,31.18 -7.21,29.02 -7.21,26.86 -7.21,23.80 -7.21,20.74 -7.19,17.58 -7.16,14.41 -7.11,12.02 -7.05,9.62 -6.93,8.30 -6.81,6.98 -6.83,6.83 -6.85,6.68 -6.83,6.53 -6.81,6.38 -6.76,6.24 -6.70,6.09 -6.62,5.97 -6.53,5.84 -6.42,5.74 -6.30,5.64 -6.17,5.57 -6.03,5.50 -5.89,5.47 -5.74,5.43 -5.59,5.43 -5.44,5.43 -5.29,5.47 -5.14,5.50 -5.01,5.57 -4.88,5.65 -4.76,5.75 -4.65,5.85 -4.56,5.97 -4.48,6.10 -4.42,6.24 -4.37,6.38 -4.10,7.86 -3.84,9.35 -3.21,11.90 -2.58,14.44 -2.15,17.36 -1.72,20.28 -1.73,22.88 -1.74,25.48 -1.74,27.56 -1.75,29.64 -1.82,31.68 -1.89,33.72 -1.89,33.87 -1.89,34.02 -1.93,34.17 -1.96,34.32 -2.03,34.46 -2.10,34.59 -2.21,34.71 -2.31,34.82 -2.43,34.91 -2.56,35.00 -2.70,35.05 -2.85,35.11 -3.00,35.13 -3.15,35.15 -3.30,35.13 -3.45,35.11 -3.60,35.06 -3.74,35.00 -3.87,34.91 -3.99,34.83 -4.10,34.71 -4.20,34.60 -4.27,34.46 -4.34,34.33 -4.38,34.18 -4.42,34.03 -4.51,32.68 -4.61,31.32 -4.88,29.21 -5.15,27.09 -5.78,24.02 -6.40,20.95 -6.89,18.67 -7.38,16.39 -7.46,14.42 -7.54,12.45 -7.80,11.43 -8.06,10.41 -8.05,10.26 -8.03,10.11 -7.98,9.96 -7.93,9.82 -7.85,9.69 -7.77,9.56 -7.66,9.45 -7.55,9.35 -7.41,9.27 -7.28,9.19 -7.13,9.15 -6.98,9.11 -6.83,9.10 -6.68,9.10 -6.52,9.13 -6.37,9.16 -6.24,9.23 -6.10,9.30 -5.98,9.39 -5.86,9.49 -5.77,9.61 -5.68,9.74 -5.62,9.88 -5.56,10.02 -5.53,10.17 -5.51,10.33 -5.05,11.25 -4.60,12.18 -4.52,14.41 -4.45,16.65 -4.27,18.85 -4.09,21.05 -3.66,24.36 -3.23,27.67 -3.23,31.23 -3.23,34.79 -3.24,37.09 -3.24,39.40 -3.30,40.90 -3.36,42.40 -3.37,42.55 -3.38,42.70 -3.42,42.84 -3.47,42.98 -3.54,43.11 -3.62,43.24 -3.72,43.34 -3.83,43.45 -3.95,43.53 -4.08,43.60 -4.22,43.65 -4.36,43.69 -4.51,43.70 -4.66,43.71 -4.81,43.69 -4.95,43.66 -5.09,43.60 -5.23,43.54 -5.34,43.45 -5.46,43.36 -5.55,43.24 -5.65,43.13 -5.71,42.99 -5.77,42.86 -5.80,42.71 -5.82,42.57 -5.90,40.97 -5.97,39.38 -6.16,36.68 -6.34,33.98 -6.77,30.49 -7.20,27.01 -7.20,24.05 -7.20,21.08 -7.20,19.17 -7.20,17.26 -7.22,15.34 -7.24,13.41 -7.21,13.27 -7.19,13.13 -7.13,12.99 -7.07,12.86 -6.98,12.74 -6.89,12.63 -6.77,12.53 -6.66,12.44 -6.53,12.38 -6.39,12.32 -6.25,12.29 -6.10,12.27 -5.96,12.27 -5.81,12.28 -5.67,12.32 -5.53,12.37 -5.40,12.44 -5.28,12.52 -5.17,12.62 -5.07,12.72 -4.99,12.85 -4.92,12.97 -4.87,13.11 -4.83,13.25 -4.82,13.40 -4.81,13.55 -4.84,14.58 -4.87,15.61 -4.96,17.04 -5.04,18.48 -5.23,20.86 -5.42,23.25 -5.83,25.59 -6.24,27.93 -6.21,30.64 -6.18,33.35 -6.14,35.68 -6.09,38.00 -6.05,39.29 -6.01,40.58 -5.74,41.35 -5.46,42.11 -5.49,42.26 -5.52,42.40 -5.58,42.54 -5.64,42.68 -5.73,42.79 -5.82,42.91 -5.94,43.00 -6.06,43.09 -6.20,43.15 -6.33,43.21 -6.48,43.24 -6.63,43.27 -6.77,43.26 -6.92,43.25 -7.07,43.20 -7.21,43.16 -7.34,43.08 -7.46,43.01 -7.57,42.90 -7.67,42.79 -7.75,42.67 -7.83,42.54 -7.87,42.40 -7.92,42.25 -7.92,42.10 -7.93,41.96 -7.41,40.06 -6.88,38.16 -6.64,34.60 -6.40,31.04 -5.91,29.08 -5.41,27.13 -5.21,24.24 -5.00,21.36 -4.57,18.85 -4.13,16.34 -4.10,14.25 -4.06,12.16 -4.01,10.27 -3.97,8.38 -3.86,6.98 -3.76,5.57 -3.53,4.25 -3.29,2.93 -2.75,2.09 -2.20,1.25 -1.33,0.39 -0.46,-0.46 -0.40,-0.51 -0.34,-0.56 -0.26,-0.59 -0.19,-0.62 -0.11,-0.64 -0.03,-0.65 0.03,-0.65 0.11,-0.64 0.19,-0.62 0.27,-0.60 0.33,-0.55 0.40,-0.51 0.46,-0.46 0.51,-0.40 0.55,-0.33 0.60,-0.27 0.62,-0.19 0.64,-0.11 0.65,-0.03 0.65,0.03 0.64,0.11 0.62,0.19 0.59,0.26 0.56,0.34 0.51,0.40 0.46,0.46 0.46,0.46 L 0.46,0.46 Z"/></g></svg>