<svg version="1.1" xmlns="http://www.w3.org/2000/svg" viewBox="0 0 377.25109886027894 245.71094530502864" width="377.25109886027894" height="245.71094530502864" class="excalidraw-svg">
  <!-- svg-source:excalidraw -->
  
  <defs>
    <style class="style-fonts">
      
    </style>
    
  </defs>
  <rect x="0" y="0" width="377.25109886027894" height="245.71094530502864" fill="#ffffff"/><g stroke-linecap="round" transform="translate(38.027021354098906 148.2666386802332) rotate(0 72.49656190260794 16.44251919440603)"><path d="M72.69 0.71 L145.83 15.09 L72.1 32.13 L0.64 16.36" stroke="none" stroke-width="0" fill="#2f9e44" fill-rule="evenodd"/><path d="M73 0 C102.27 4.59, 129.35 14.53, 144.99 17 M73 0 C92.41 5.46, 111.8 8.77, 144.99 17 M144.99 17 C117.81 24.43, 88.4 30.85, 73 32.89 M144.99 17 C124.67 21.29, 106.43 25.88, 73 32.89 M73 32.89 C52.35 29.81, 29.67 23.86, 0 17 M73 32.89 C48.68 26.25, 23.09 22.65, 0 17 M0 17 C22.82 11.3, 43.45 7.83, 73 0 M0 17 C27.94 10.64, 57.01 4.19, 73 0" stroke="#1e1e1e" stroke-width="0.5" fill="none"/></g><g stroke-linecap="round" transform="translate(113.51313220114935 127.33979606917092) rotate(0 72.49656190260794 16.44251919440603)"><path d="M73.84 -1.91 L144.1 16.24 L73.64 32.24 L-1.56 16.8" stroke="none" stroke-width="0" fill="#2f9e44" fill-rule="evenodd"/><path d="M73 0 C97.41 7.92, 121.51 13.07, 144.99 17 M73 0 C93.75 3.94, 116.7 8.83, 144.99 17 M144.99 17 C130.82 22.84, 114.55 24.68, 73 32.89 M144.99 17 C119.7 22.27, 94.02 27.36, 73 32.89 M73 32.89 C45.05 27.12, 20.22 22.49, 0 17 M73 32.89 C54.54 29.25, 36.76 24.91, 0 17 M0 17 C27.74 12.08, 56.92 5.72, 73 0 M0 17 C14.88 13.61, 31.14 10.28, 73 0" stroke="#1e1e1e" stroke-width="0.5" fill="none"/></g><g stroke-linecap="round" transform="translate(180.7779834509911 152.75096209688922) rotate(0 72.49656190260794 16.44251919440603)"><path d="M72.1 -0.76 L145.64 16.36 L71.44 32.69 L-1.73 15.13" stroke="none" stroke-width="0" fill="#2f9e44" fill-rule="evenodd"/><path d="M73 0 C87.63 3.91, 103.3 5.99, 144.99 17 M73 0 C101.23 6.15, 126.7 14.06, 144.99 17 M144.99 17 C116.43 24.29, 90.08 28.14, 73 32.89 M144.99 17 C125.95 20.57, 107.75 25.52, 73 32.89 M73 32.89 C48.19 28.06, 20.67 22.63, 0 17 M73 32.89 C57.44 30.7, 42.68 27.43, 0 17 M0 17 C23.46 12.97, 41.32 4.6, 73 0 M0 17 C20.12 12.62, 40.83 6.62, 73 0" stroke="#1e1e1e" stroke-width="0.5" fill="none"/></g><g stroke-opacity="0.5" fill-opacity="0.5" stroke-linecap="round" transform="translate(10 10) rotate(0 178.62554943013947 112.85547265251432)"><path d="M0.49 -1.72 L357.67 2 L355.32 224.62 L0.06 224.48" stroke="none" stroke-width="0" fill="#003d75"/><path d="M0 0 C82.99 -2.35, 166.5 0.03, 357.25 0 M0 0 C82.28 -1.05, 165.28 -0.33, 357.25 0 M357.25 0 C356.45 51.61, 359.24 106.99, 357.25 225.71 M357.25 0 C358.95 49.75, 358.46 97.47, 357.25 225.71 M357.25 225.71 C234.48 223.33, 113.46 223.47, 0 225.71 M357.25 225.71 C259.74 227.93, 163.24 227.45, 0 225.71 M0 225.71 C0.49 140.36, 2.76 52.6, 0 0 M0 225.71 C0.49 168.45, 0.07 110.93, 0 0" stroke="#846358" stroke-width="0.5" fill="none"/></g><g stroke-opacity="0.4" fill-opacity="0.4" transform="translate(177.41474088849827 56.33800863878059) rotate(0 -14.947744722187053 45.590621402671445)" stroke="none"><path fill="#ffd43b" d="M 2.71,0.67 Q 2.71,0.67 2.36,4.24 2.01,7.81 -0.07,14.15 -2.16,20.50 -4.29,27.40 -6.42,34.30 -8.25,39.45 -10.08,44.59 -13.48,53.25 -16.89,61.90 -19.26,69.24 -21.64,76.59 -23.24,81.03 -24.85,85.47 -25.68,87.30 -26.50,89.14 -26.69,89.52 -26.89,89.90 -27.19,90.20 -27.49,90.50 -27.87,90.68 -28.25,90.87 -28.67,90.93 -29.09,90.98 -29.51,90.90 -29.93,90.82 -30.30,90.61 -30.67,90.40 -30.95,90.08 -31.23,89.76 -31.40,89.37 -31.56,88.98 -31.60,88.56 -31.63,88.13 -31.53,87.72 -31.42,87.31 -31.19,86.95 -30.96,86.59 -30.63,86.33 -30.30,86.06 -29.90,85.92 -29.50,85.77 -29.07,85.77 -28.65,85.76 -28.24,85.88 -27.84,86.01 -27.49,86.26 -27.15,86.51 -26.90,86.85 -26.65,87.20 -26.53,87.61 -26.41,88.01 -26.42,88.44 -26.43,88.86 -26.58,89.26 -26.73,89.66 -27.00,89.99 -27.27,90.32 -27.63,90.55 -27.98,90.77 -28.40,90.87 -28.81,90.98 -29.23,90.94 -29.66,90.90 -30.05,90.73 -30.44,90.56 -30.75,90.28 -31.07,89.99 -31.27,89.62 -31.48,89.25 -31.56,88.83 -31.64,88.42 -31.58,88.00 -31.52,87.57 -31.52,87.58 -31.52,87.58 -31.16,85.59 -30.80,83.61 -29.61,79.08 -28.41,74.54 -26.24,66.83 -24.06,59.12 -20.79,50.55 -17.52,41.98 -15.78,36.95 -14.04,31.91 -11.82,24.95 -9.60,18.00 -7.53,11.97 -5.45,5.94 -4.08,2.63 -2.71,-0.67 -2.59,-0.99 -2.47,-1.30 -2.27,-1.58 -2.08,-1.86 -1.83,-2.08 -1.58,-2.30 -1.28,-2.46 -0.98,-2.61 -0.65,-2.69 -0.32,-2.77 0.00,-2.77 0.34,-2.77 0.67,-2.69 1.00,-2.61 1.29,-2.45 1.59,-2.29 1.84,-2.07 2.09,-1.84 2.29,-1.56 2.48,-1.29 2.59,-0.97 2.71,-0.66 2.75,-0.32 2.79,0.00 2.75,0.34 2.71,0.67 2.71,0.67 L 2.71,0.67 Z"/></g><g stroke-opacity="0.4" fill-opacity="0.4" transform="translate(183.39383877737419 60.822332055436846) rotate(0 -9.716034069421767 38.86413627768707)" stroke="none"><path fill="#ffd43b" d="M 2.84,0.40 Q 2.84,0.40 2.61,3.44 2.38,6.48 1.75,9.19 1.11,11.91 0.06,17.67 -0.99,23.42 -2.77,30.31 -4.54,37.19 -6.63,44.79 -8.71,52.40 -11.18,59.86 -13.66,67.33 -14.60,70.52 -15.55,73.72 -15.73,74.10 -15.91,74.48 -16.21,74.79 -16.50,75.10 -16.88,75.29 -17.25,75.49 -17.67,75.55 -18.09,75.62 -18.51,75.55 -18.93,75.48 -19.31,75.27 -19.68,75.07 -19.97,74.76 -20.26,74.45 -20.43,74.06 -20.61,73.67 -20.65,73.25 -20.69,72.83 -20.60,72.41 -20.50,72.00 -20.28,71.64 -20.06,71.28 -19.73,71.00 -19.41,70.73 -19.01,70.58 -18.62,70.42 -18.19,70.40 -17.77,70.38 -17.36,70.50 -16.95,70.62 -16.60,70.86 -16.25,71.10 -16.00,71.44 -15.74,71.78 -15.61,72.19 -15.48,72.59 -15.48,73.01 -15.48,73.44 -15.62,73.84 -15.76,74.24 -16.02,74.58 -16.28,74.91 -16.64,75.15 -16.99,75.39 -17.40,75.50 -17.81,75.61 -18.23,75.58 -18.66,75.55 -19.05,75.39 -19.45,75.23 -19.77,74.95 -20.09,74.68 -20.30,74.31 -20.52,73.94 -20.61,73.53 -20.70,73.11 -20.65,72.69 -20.60,72.27 -20.60,72.27 -20.60,72.27 -19.71,69.06 -18.82,65.85 -16.98,58.26 -15.14,50.67 -13.15,43.07 -11.15,35.46 -9.40,28.80 -7.64,22.14 -6.46,16.26 -5.28,10.38 -4.69,7.96 -4.10,5.55 -3.47,2.57 -2.84,-0.40 -2.75,-0.74 -2.66,-1.07 -2.50,-1.38 -2.33,-1.68 -2.09,-1.93 -1.86,-2.19 -1.57,-2.38 -1.28,-2.57 -0.95,-2.69 -0.62,-2.80 -0.28,-2.84 0.06,-2.87 0.40,-2.82 0.74,-2.77 1.06,-2.64 1.39,-2.51 1.67,-2.31 1.95,-2.11 2.17,-1.84 2.40,-1.58 2.55,-1.27 2.71,-0.96 2.78,-0.62 2.86,-0.28 2.85,0.06 2.84,0.40 2.84,0.40 L 2.84,0.40 Z"/></g><g stroke-opacity="0.4" fill-opacity="0.4" transform="translate(183.39383877737419 74.27530230540538) rotate(0 0.7473872361097165 39.61152351379644)" stroke="none"><path fill="#ffd43b" d="M 2.65,0 Q 2.65,0 2.96,6.44 3.27,12.89 3.30,17.35 3.32,21.80 3.35,25.85 3.38,29.89 3.37,33.76 3.36,37.63 3.40,47.01 3.44,56.38 3.65,62.85 3.87,69.32 3.85,72.12 3.84,74.92 3.80,75.35 3.76,75.77 3.58,76.16 3.41,76.54 3.12,76.86 2.83,77.17 2.46,77.37 2.09,77.57 1.67,77.65 1.25,77.72 0.83,77.66 0.41,77.59 0.03,77.40 -0.34,77.20 -0.63,76.90 -0.93,76.59 -1.11,76.21 -1.29,75.82 -1.34,75.40 -1.39,74.98 -1.31,74.56 -1.22,74.15 -1.01,73.78 -0.79,73.42 -0.47,73.14 -0.15,72.86 0.23,72.70 0.63,72.53 1.05,72.51 1.47,72.48 1.89,72.59 2.30,72.70 2.65,72.93 3.00,73.17 3.27,73.50 3.53,73.84 3.67,74.24 3.81,74.64 3.81,75.07 3.82,75.49 3.69,75.89 3.55,76.30 3.30,76.64 3.05,76.98 2.70,77.22 2.35,77.47 1.94,77.58 1.53,77.70 1.11,77.68 0.68,77.67 0.29,77.51 -0.10,77.36 -0.43,77.09 -0.75,76.82 -0.98,76.45 -1.20,76.09 -1.30,75.68 -1.39,75.26 -1.39,75.26 -1.39,75.27 -1.77,72.49 -2.15,69.71 -2.79,63.05 -3.44,56.39 -3.40,47.01 -3.36,37.63 -3.37,33.76 -3.38,29.89 -3.35,25.85 -3.32,21.80 -3.30,17.35 -3.27,12.89 -2.96,6.44 -2.65,0 -2.61,-0.31 -2.57,-0.63 -2.46,-0.93 -2.35,-1.23 -2.17,-1.49 -1.98,-1.76 -1.74,-1.97 -1.50,-2.18 -1.22,-2.33 -0.94,-2.48 -0.63,-2.56 -0.32,-2.63 0.00,-2.63 0.32,-2.63 0.63,-2.56 0.94,-2.48 1.22,-2.33 1.50,-2.18 1.74,-1.97 1.98,-1.76 2.17,-1.49 2.35,-1.23 2.46,-0.93 2.57,-0.63 2.61,-0.31 2.65,0.00 2.65,0.00 L 2.65,0 Z"/></g><g stroke-opacity="0.4" fill-opacity="0.4" transform="translate(187.87816219403066 74.27530230540538) rotate(0 9.716034069421767 34.37981286103093)" stroke="none"><path fill="#ffd43b" d="M 2.61,-0.55 Q 2.61,-0.55 4.23,5.38 5.86,11.32 7.21,16.84 8.55,22.36 10.04,28.16 11.53,33.95 13.77,41.06 16.02,48.17 17.61,53.88 19.21,59.59 19.98,61.99 20.76,64.39 20.82,64.81 20.89,65.23 20.82,65.65 20.75,66.07 20.54,66.44 20.34,66.82 20.03,67.11 19.72,67.40 19.33,67.57 18.95,67.75 18.52,67.79 18.10,67.84 17.69,67.74 17.27,67.65 16.91,67.43 16.55,67.20 16.27,66.88 16.00,66.55 15.85,66.16 15.69,65.76 15.67,65.34 15.65,64.91 15.77,64.50 15.89,64.09 16.13,63.74 16.37,63.39 16.71,63.14 17.05,62.88 17.45,62.75 17.86,62.62 18.28,62.62 18.71,62.63 19.11,62.76 19.51,62.90 19.85,63.16 20.18,63.42 20.42,63.78 20.65,64.13 20.77,64.54 20.88,64.95 20.85,65.37 20.82,65.80 20.66,66.19 20.50,66.58 20.23,66.91 19.95,67.23 19.58,67.44 19.22,67.66 18.80,67.75 18.39,67.84 17.96,67.79 17.54,67.74 17.16,67.56 16.77,67.38 16.47,67.08 16.16,66.79 15.96,66.41 15.77,66.03 15.77,66.03 15.77,66.03 14.97,63.64 14.16,61.25 12.05,55.70 9.94,50.14 7.51,42.86 5.08,35.57 3.65,29.77 2.22,23.96 0.76,18.35 -0.70,12.73 -1.65,6.64 -2.61,0.55 -2.64,0.23 -2.66,-0.08 -2.62,-0.39 -2.57,-0.71 -2.44,-1.01 -2.32,-1.31 -2.13,-1.57 -1.94,-1.83 -1.69,-2.03 -1.44,-2.24 -1.15,-2.38 -0.87,-2.52 -0.55,-2.59 -0.24,-2.66 0.08,-2.65 0.40,-2.64 0.71,-2.55 1.02,-2.46 1.30,-2.30 1.58,-2.15 1.81,-1.93 2.05,-1.70 2.22,-1.43 2.40,-1.16 2.50,-0.86 2.61,-0.55 2.61,-0.55 L 2.61,-0.55 Z"/></g><g stroke-opacity="0.4" fill-opacity="0.4" transform="translate(186.38338772181123 78.75962572206163) rotate(0 16.442519194406486 34.37981286103093)" stroke="none"><path fill="#ffd43b" d="M 2.46,-1.05 Q 2.46,-1.05 4.13,1.78 5.81,4.63 7.25,8.07 8.69,11.51 10.65,15.93 12.60,20.34 15.94,26.84 19.28,33.33 22.04,39.21 24.80,45.09 27.48,50.08 30.16,55.07 31.68,58.71 33.19,62.35 33.70,63.90 34.21,65.46 34.33,65.86 34.45,66.27 34.43,66.70 34.42,67.12 34.26,67.52 34.11,67.92 33.84,68.24 33.57,68.57 33.21,68.80 32.85,69.02 32.44,69.12 32.02,69.22 31.60,69.18 31.18,69.14 30.79,68.96 30.40,68.79 30.09,68.50 29.77,68.22 29.57,67.84 29.37,67.47 29.29,67.05 29.22,66.63 29.28,66.21 29.34,65.79 29.53,65.42 29.73,65.04 30.03,64.74 30.34,64.44 30.72,64.26 31.10,64.08 31.52,64.02 31.95,63.97 32.36,64.06 32.78,64.14 33.15,64.35 33.51,64.57 33.79,64.89 34.07,65.21 34.24,65.60 34.40,65.99 34.43,66.42 34.46,66.84 34.35,67.25 34.24,67.66 34.01,68.02 33.77,68.37 33.44,68.64 33.11,68.90 32.71,69.04 32.30,69.18 31.88,69.19 31.45,69.19 31.05,69.06 30.65,68.93 30.30,68.68 29.96,68.43 29.72,68.08 29.47,67.73 29.47,67.73 29.47,67.73 28.58,66.37 27.68,65.00 25.89,61.76 24.10,58.52 21.03,53.41 17.95,48.30 15.26,42.53 12.57,36.76 9.15,30.00 5.72,23.25 3.91,18.74 2.09,14.22 0.72,10.81 -0.65,7.40 -1.55,4.22 -2.46,1.05 -2.55,0.74 -2.64,0.43 -2.65,0.11 -2.67,-0.20 -2.60,-0.52 -2.54,-0.84 -2.40,-1.13 -2.26,-1.42 -2.06,-1.67 -1.85,-1.92 -1.60,-2.12 -1.34,-2.31 -1.04,-2.44 -0.75,-2.57 -0.43,-2.62 -0.11,-2.67 0.20,-2.65 0.53,-2.62 0.83,-2.52 1.14,-2.42 1.41,-2.25 1.68,-2.07 1.91,-1.84 2.13,-1.61 2.30,-1.33 2.46,-1.05 2.46,-1.05 L 2.46,-1.05 Z"/></g><g stroke-opacity="0.4" fill-opacity="0.4" transform="translate(186.38338772181123 74.27530230540538) rotate(0 17.189906430515293 32.1376511527028)" stroke="none"><path fill="#ffd43b" d="M 2.59,-1.38 Q 2.59,-1.38 12.60,17.02 22.60,35.43 26.54,43.43 30.48,51.42 30.62,51.82 30.76,52.23 30.76,52.65 30.76,53.08 30.62,53.48 30.49,53.88 30.23,54.22 29.98,54.56 29.63,54.80 29.28,55.04 28.87,55.16 28.46,55.27 28.03,55.25 27.61,55.23 27.21,55.07 26.82,54.92 26.49,54.64 26.17,54.37 25.95,54.00 25.73,53.64 25.64,53.23 25.54,52.81 25.59,52.39 25.63,51.97 25.81,51.58 25.99,51.19 26.28,50.88 26.57,50.58 26.94,50.37 27.32,50.17 27.74,50.10 28.16,50.03 28.58,50.10 28.99,50.17 29.37,50.37 29.75,50.56 30.04,50.87 30.33,51.18 30.51,51.56 30.69,51.95 30.74,52.37 30.79,52.79 30.70,53.21 30.61,53.62 30.39,53.99 30.17,54.35 29.85,54.63 29.53,54.91 29.13,55.07 28.74,55.22 28.31,55.25 27.89,55.27 27.48,55.16 27.07,55.05 26.72,54.81 26.37,54.57 26.11,54.24 25.85,53.90 25.85,53.90 25.85,53.90 21.39,46.19 16.92,38.47 7.16,19.93 -2.59,1.38 -2.72,1.05 -2.85,0.72 -2.89,0.37 -2.94,0.02 -2.90,-0.32 -2.86,-0.68 -2.74,-1.01 -2.61,-1.34 -2.41,-1.64 -2.21,-1.93 -1.95,-2.17 -1.69,-2.41 -1.37,-2.57 -1.06,-2.74 -0.72,-2.83 -0.37,-2.92 -0.02,-2.92 0.33,-2.92 0.67,-2.84 1.02,-2.76 1.33,-2.59 1.65,-2.43 1.92,-2.20 2.18,-1.96 2.39,-1.67 2.59,-1.38 2.59,-1.38 L 2.59,-1.38 Z"/></g><g stroke-opacity="0.4" fill-opacity="0.4" transform="translate(178.9095153607177 86.23349808315538) rotate(0 6.72648512498472 32.88503838881206)" stroke="none"><path fill="#ffd43b" d="M 2.71,-0.55 Q 2.71,-0.55 6.51,18.36 10.30,37.29 11.95,45.32 13.59,53.36 13.61,53.78 13.62,54.21 13.50,54.62 13.39,55.02 13.14,55.37 12.90,55.72 12.56,55.97 12.21,56.22 11.81,56.35 11.40,56.48 10.98,56.48 10.55,56.47 10.15,56.33 9.75,56.19 9.42,55.93 9.08,55.66 8.85,55.31 8.62,54.95 8.51,54.54 8.40,54.13 8.43,53.71 8.46,53.28 8.62,52.89 8.79,52.50 9.07,52.18 9.35,51.86 9.72,51.64 10.08,51.43 10.50,51.35 10.92,51.26 11.34,51.31 11.76,51.37 12.14,51.55 12.52,51.73 12.83,52.03 13.13,52.33 13.33,52.71 13.52,53.08 13.58,53.50 13.64,53.93 13.57,54.34 13.49,54.76 13.29,55.13 13.08,55.51 12.77,55.79 12.46,56.08 12.07,56.25 11.68,56.43 11.26,56.47 10.84,56.51 10.42,56.41 10.01,56.31 9.65,56.09 9.29,55.86 9.02,55.53 8.75,55.21 8.60,54.81 8.44,54.41 8.44,54.41 8.44,54.41 6.80,46.38 5.16,38.34 1.22,19.45 -2.71,0.55 -2.74,0.22 -2.77,-0.11 -2.71,-0.44 -2.66,-0.77 -2.53,-1.07 -2.40,-1.38 -2.20,-1.65 -2.00,-1.92 -1.74,-2.13 -1.48,-2.34 -1.18,-2.48 -0.87,-2.63 -0.55,-2.69 -0.22,-2.76 0.11,-2.75 0.44,-2.73 0.76,-2.64 1.08,-2.55 1.37,-2.38 1.66,-2.21 1.90,-1.98 2.14,-1.75 2.32,-1.47 2.50,-1.19 2.61,-0.87 2.71,-0.55 2.71,-0.55 L 2.71,-0.55 Z"/></g><g stroke-opacity="0.4" fill-opacity="0.4" transform="translate(190.8677111384677 90.71782149981163) rotate(0 1.4947744722185234 32.88503838881206)" stroke="none"><path fill="#ffd43b" d="M 2.99,0 Q 2.99,0 3.34,3.86 3.70,7.73 3.78,11.95 3.86,16.17 3.82,21.41 3.78,26.64 3.87,30.15 3.97,33.67 3.88,40.74 3.79,47.82 4.17,51.93 4.56,56.04 4.98,60.23 5.40,64.41 5.41,64.83 5.42,65.26 5.30,65.66 5.17,66.07 4.92,66.41 4.67,66.76 4.32,67.00 3.98,67.25 3.57,67.37 3.16,67.50 2.74,67.48 2.31,67.47 1.92,67.32 1.52,67.17 1.19,66.91 0.86,66.64 0.63,66.28 0.40,65.92 0.30,65.51 0.20,65.09 0.24,64.67 0.27,64.25 0.44,63.86 0.61,63.47 0.90,63.15 1.18,62.84 1.56,62.63 1.93,62.42 2.34,62.34 2.76,62.27 3.18,62.33 3.60,62.39 3.98,62.58 4.36,62.77 4.66,63.07 4.96,63.37 5.15,63.75 5.34,64.13 5.39,64.55 5.45,64.98 5.36,65.39 5.28,65.81 5.07,66.18 4.86,66.55 4.54,66.83 4.23,67.11 3.83,67.28 3.44,67.44 3.02,67.48 2.60,67.51 2.18,67.41 1.77,67.30 1.42,67.07 1.06,66.84 0.79,66.51 0.53,66.17 0.38,65.78 0.24,65.38 0.24,65.38 0.24,65.38 -0.46,63.60 -1.17,61.82 -2.00,59.31 -2.84,56.80 -3.32,52.31 -3.79,47.83 -3.88,40.75 -3.97,33.67 -3.87,30.15 -3.78,26.64 -3.82,21.41 -3.86,16.17 -3.78,11.95 -3.70,7.73 -3.34,3.86 -2.99,0 -2.95,-0.35 -2.90,-0.71 -2.78,-1.05 -2.65,-1.39 -2.44,-1.68 -2.24,-1.98 -1.97,-2.22 -1.70,-2.46 -1.38,-2.63 -1.06,-2.80 -0.71,-2.88 -0.36,-2.97 0.00,-2.97 0.36,-2.97 0.71,-2.88 1.06,-2.80 1.38,-2.63 1.70,-2.46 1.97,-2.22 2.24,-1.98 2.44,-1.68 2.65,-1.39 2.78,-1.05 2.90,-0.71 2.95,-0.35 2.99,0.00 2.99,0.00 L 2.99,0 Z"/></g><g stroke-opacity="0.4" fill-opacity="0.4" transform="translate(190.8677111384677 104.17079174978016) rotate(0 3.7369361805467634 23.16900431939041)" stroke="none"><path fill="#ffd43b" d="M 2.49,-0.83 Q 2.49,-0.83 3.59,1.66 4.69,4.17 5.64,8.90 6.59,13.64 7.44,17.68 8.28,21.72 8.69,25.78 9.10,29.83 9.21,32.83 9.32,35.84 9.53,39.94 9.75,44.04 9.75,44.47 9.75,44.89 9.62,45.29 9.48,45.70 9.23,46.04 8.97,46.37 8.62,46.61 8.27,46.85 7.86,46.97 7.45,47.08 7.02,47.06 6.60,47.03 6.20,46.88 5.81,46.72 5.49,46.44 5.16,46.17 4.94,45.81 4.72,45.44 4.63,45.03 4.54,44.61 4.58,44.19 4.63,43.77 4.81,43.38 4.99,43.00 5.28,42.69 5.57,42.38 5.95,42.18 6.32,41.98 6.74,41.91 7.16,41.84 7.58,41.91 8.00,41.98 8.37,42.18 8.75,42.38 9.04,42.68 9.34,42.99 9.51,43.38 9.69,43.76 9.74,44.19 9.78,44.61 9.69,45.02 9.60,45.44 9.38,45.80 9.16,46.17 8.84,46.44 8.52,46.72 8.12,46.88 7.73,47.03 7.30,47.06 6.88,47.08 6.47,46.97 6.06,46.85 5.71,46.61 5.36,46.38 5.10,46.04 4.84,45.70 4.71,45.30 4.57,44.89 4.57,44.89 4.57,44.90 3.40,40.54 2.22,36.18 2.05,33.31 1.88,30.44 1.64,26.73 1.40,23.02 0.71,18.91 0.02,14.80 -0.61,10.47 -1.25,6.14 -1.87,3.48 -2.49,0.83 -2.56,0.52 -2.62,0.21 -2.61,-0.10 -2.59,-0.42 -2.51,-0.72 -2.42,-1.03 -2.26,-1.30 -2.10,-1.58 -1.88,-1.81 -1.66,-2.04 -1.39,-2.21 -1.12,-2.38 -0.82,-2.48 -0.52,-2.58 -0.20,-2.60 0.10,-2.63 0.42,-2.58 0.73,-2.52 1.02,-2.40 1.31,-2.28 1.57,-2.08 1.82,-1.89 2.02,-1.65 2.22,-1.40 2.36,-1.11 2.49,-0.83 2.49,-0.83 L 2.49,-0.83 Z"/></g><g stroke-opacity="0.4" fill-opacity="0.4" transform="translate(189.37293666624828 102.67601727756141) rotate(0 -4.48432341665557 21.67422984717166)" stroke="none"><path fill="#ffd43b" d="M 2.33,1.40 Q 2.33,1.40 1.24,3.66 0.16,5.93 -0.62,8.32 -1.41,10.71 -2.11,14.22 -2.81,17.73 -3.62,21.03 -4.43,24.33 -4.69,28.06 -4.96,31.78 -5.15,34.69 -5.35,37.61 -5.82,39.99 -6.30,42.37 -6.38,42.79 -6.47,43.20 -6.68,43.57 -6.89,43.94 -7.21,44.22 -7.53,44.50 -7.92,44.67 -8.31,44.83 -8.74,44.86 -9.16,44.89 -9.57,44.79 -9.98,44.68 -10.34,44.45 -10.70,44.22 -10.96,43.88 -11.22,43.55 -11.37,43.15 -11.51,42.75 -11.52,42.33 -11.53,41.90 -11.40,41.50 -11.27,41.09 -11.02,40.75 -10.77,40.40 -10.42,40.16 -10.07,39.91 -9.66,39.79 -9.26,39.67 -8.83,39.69 -8.41,39.70 -8.01,39.85 -7.61,40.00 -7.28,40.27 -6.96,40.54 -6.73,40.90 -6.50,41.26 -6.40,41.67 -6.31,42.09 -6.34,42.51 -6.38,42.93 -6.55,43.32 -6.73,43.71 -7.01,44.03 -7.30,44.34 -7.67,44.55 -8.04,44.75 -8.46,44.83 -8.88,44.90 -9.30,44.84 -9.72,44.78 -10.10,44.59 -10.48,44.40 -10.77,44.09 -11.07,43.79 -11.26,43.41 -11.44,43.03 -11.50,42.60 -11.55,42.18 -11.55,42.18 -11.55,42.18 -11.85,39.73 -12.16,37.28 -12.07,34.24 -11.98,31.19 -11.57,26.96 -11.17,22.73 -10.40,19.45 -9.63,16.17 -8.64,12.29 -7.65,8.40 -6.48,5.53 -5.32,2.66 -3.82,0.63 -2.33,-1.40 -2.13,-1.66 -1.93,-1.91 -1.67,-2.12 -1.41,-2.32 -1.11,-2.46 -0.81,-2.59 -0.49,-2.65 -0.17,-2.71 0.15,-2.69 0.48,-2.68 0.79,-2.58 1.10,-2.48 1.39,-2.31 1.67,-2.14 1.90,-1.91 2.13,-1.68 2.30,-1.40 2.47,-1.12 2.57,-0.81 2.67,-0.49 2.69,-0.17 2.71,0.15 2.66,0.47 2.60,0.80 2.46,1.10 2.33,1.40 2.33,1.40 L 2.33,1.40 Z"/></g><g stroke-opacity="0.4" fill-opacity="0.4" transform="translate(180.40428983293714 92.21259597203016) rotate(0 -2.24216170832824 26.158553263827912)" stroke="none"><path fill="#ffd43b" d="M 2.75,0.61 Q 2.75,0.61 2.27,4.56 1.78,8.50 1.44,12.91 1.10,17.31 0.56,23.62 0.02,29.92 -0.28,34.66 -0.58,39.40 -0.81,42.69 -1.04,45.99 -1.43,48.60 -1.83,51.22 -1.90,51.63 -1.98,52.05 -2.19,52.42 -2.40,52.79 -2.71,53.08 -3.03,53.36 -3.42,53.53 -3.81,53.70 -4.23,53.73 -4.66,53.77 -5.07,53.67 -5.48,53.57 -5.84,53.34 -6.20,53.11 -6.47,52.78 -6.73,52.45 -6.88,52.05 -7.03,51.65 -7.04,51.23 -7.05,50.80 -6.93,50.40 -6.81,49.99 -6.56,49.64 -6.31,49.30 -5.97,49.05 -5.62,48.80 -5.22,48.68 -4.81,48.55 -4.39,48.56 -3.96,48.57 -3.56,48.72 -3.16,48.86 -2.83,49.13 -2.50,49.39 -2.27,49.75 -2.04,50.11 -1.94,50.52 -1.83,50.93 -1.87,51.36 -1.90,51.78 -2.07,52.17 -2.23,52.56 -2.52,52.88 -2.80,53.19 -3.17,53.40 -3.54,53.61 -3.96,53.70 -4.37,53.78 -4.79,53.72 -5.22,53.66 -5.60,53.48 -5.98,53.29 -6.28,52.99 -6.58,52.69 -6.77,52.31 -6.96,51.93 -7.02,51.51 -7.08,51.09 -7.08,51.09 -7.08,51.09 -7.34,48.43 -7.61,45.78 -7.63,42.41 -7.64,39.03 -7.45,34.14 -7.26,29.24 -6.63,23.00 -6.00,16.76 -5.61,11.86 -5.22,6.96 -3.99,3.17 -2.75,-0.61 -2.64,-0.93 -2.53,-1.25 -2.34,-1.54 -2.15,-1.82 -1.90,-2.05 -1.65,-2.28 -1.36,-2.45 -1.06,-2.61 -0.73,-2.70 -0.40,-2.79 -0.06,-2.80 0.27,-2.81 0.60,-2.73 0.94,-2.66 1.24,-2.51 1.55,-2.36 1.81,-2.14 2.07,-1.92 2.27,-1.64 2.47,-1.37 2.60,-1.05 2.72,-0.73 2.77,-0.40 2.82,-0.06 2.79,0.27 2.75,0.61 2.75,0.61 L 2.75,0.61 Z"/></g><g stroke-opacity="0.4" fill-opacity="0.4" transform="translate(177.41474088849827 86.23349808315538) rotate(0 -5.979097888874094 26.905940499937174)" stroke="none"><path fill="#ffd43b" d="M 2.57,0.64 Q 2.57,0.64 1.85,4.11 1.13,7.59 -0.11,11.69 -1.37,15.80 -2.22,20.40 -3.08,25.00 -4.33,30.50 -5.58,35.99 -6.67,41.22 -7.76,46.44 -8.26,48.69 -8.76,50.93 -8.90,51.33 -9.05,51.73 -9.31,52.07 -9.57,52.40 -9.93,52.63 -10.28,52.87 -10.70,52.97 -11.11,53.08 -11.53,53.05 -11.95,53.02 -12.35,52.85 -12.74,52.69 -13.06,52.41 -13.38,52.13 -13.59,51.76 -13.80,51.39 -13.89,50.98 -13.97,50.56 -13.92,50.14 -13.86,49.72 -13.68,49.33 -13.49,48.95 -13.20,48.65 -12.90,48.34 -12.52,48.15 -12.14,47.96 -11.72,47.90 -11.30,47.84 -10.88,47.91 -10.46,47.99 -10.09,48.19 -9.72,48.40 -9.43,48.71 -9.15,49.03 -8.97,49.42 -8.80,49.80 -8.76,50.23 -8.73,50.65 -8.82,51.06 -8.92,51.48 -9.15,51.84 -9.37,52.20 -9.70,52.47 -10.03,52.74 -10.43,52.89 -10.83,53.04 -11.25,53.05 -11.68,53.07 -12.08,52.95 -12.49,52.83 -12.84,52.58 -13.19,52.34 -13.44,52.00 -13.69,51.65 -13.82,51.25 -13.94,50.84 -13.94,50.42 -13.93,49.99 -13.93,49.99 -13.93,49.99 -13.61,47.71 -13.29,45.44 -12.45,40.02 -11.60,34.59 -10.33,29.20 -9.05,23.80 -8.01,18.95 -6.96,14.10 -5.77,10.13 -4.57,6.16 -3.57,2.75 -2.57,-0.64 -2.46,-0.94 -2.34,-1.24 -2.16,-1.50 -1.98,-1.76 -1.74,-1.97 -1.50,-2.19 -1.21,-2.33 -0.93,-2.48 -0.62,-2.56 -0.31,-2.63 0.00,-2.63 0.32,-2.63 0.63,-2.55 0.95,-2.48 1.23,-2.33 1.51,-2.18 1.75,-1.96 1.99,-1.75 2.17,-1.49 2.35,-1.22 2.46,-0.92 2.58,-0.62 2.61,-0.30 2.65,0.00 2.61,0.32 2.57,0.64 2.57,0.64 L 2.57,0.64 Z"/></g></svg>